<svg width="213" height="101" viewBox="0 0 213 101" fill="none" xmlns="http://www.w3.org/2000/svg">
<rect width="213" height="101" fill="#EBEBEB"/>
<path d="M80.9746 48.9004C80.9746 49.8652 80.7539 50.6426 80.3125 51.2324C79.8711 51.8223 79.2734 52.1172 78.5195 52.1172C77.75 52.1172 77.1445 51.873 76.7031 51.3848V54.4375H75.6191V45.6602H76.6094L76.6621 46.3633C77.1035 45.8164 77.7168 45.543 78.502 45.543C79.2637 45.543 79.8652 45.8301 80.3066 46.4043C80.752 46.9785 80.9746 47.7773 80.9746 48.8008V48.9004ZM79.8906 48.7773C79.8906 48.0625 79.7383 47.498 79.4336 47.084C79.1289 46.6699 78.7109 46.4629 78.1797 46.4629C77.5234 46.4629 77.0312 46.7539 76.7031 47.3359V50.3652C77.0273 50.9434 77.5234 51.2324 78.1914 51.2324C78.7109 51.2324 79.123 51.0273 79.4277 50.6172C79.7363 50.2031 79.8906 49.5898 79.8906 48.7773ZM83.5352 52H82.4512V43H83.5352V52ZM89.1895 52C89.127 51.875 89.0762 51.6523 89.0371 51.332C88.5332 51.8555 87.9316 52.1172 87.2324 52.1172C86.6074 52.1172 86.0938 51.9414 85.6914 51.5898C85.293 51.2344 85.0938 50.7852 85.0938 50.2422C85.0938 49.582 85.3438 49.0703 85.8438 48.707C86.3477 48.3398 87.0547 48.1562 87.9648 48.1562H89.0195V47.6582C89.0195 47.2793 88.9062 46.9785 88.6797 46.7559C88.4531 46.5293 88.1191 46.416 87.6777 46.416C87.291 46.416 86.9668 46.5137 86.7051 46.709C86.4434 46.9043 86.3125 47.1406 86.3125 47.418H85.2227C85.2227 47.1016 85.334 46.7969 85.5566 46.5039C85.7832 46.207 86.0879 45.9727 86.4707 45.8008C86.8574 45.6289 87.2812 45.543 87.7422 45.543C88.4727 45.543 89.0449 45.7266 89.459 46.0938C89.873 46.457 90.0879 46.959 90.1035 47.5996V50.5176C90.1035 51.0996 90.1777 51.5625 90.3262 51.9062V52H89.1895ZM87.3906 51.1738C87.7305 51.1738 88.0527 51.0859 88.3574 50.9102C88.6621 50.7344 88.8828 50.5059 89.0195 50.2246V48.9238H88.1699C86.8418 48.9238 86.1777 49.3125 86.1777 50.0898C86.1777 50.4297 86.291 50.6953 86.5176 50.8867C86.7441 51.0781 87.0352 51.1738 87.3906 51.1738ZM94.3457 51.2324C94.7324 51.2324 95.0703 51.1152 95.3594 50.8809C95.6484 50.6465 95.8086 50.3535 95.8398 50.002H96.8652C96.8457 50.3652 96.7207 50.7109 96.4902 51.0391C96.2598 51.3672 95.9512 51.6289 95.5645 51.8242C95.1816 52.0195 94.7754 52.1172 94.3457 52.1172C93.4824 52.1172 92.7949 51.8301 92.2832 51.2559C91.7754 50.6777 91.5215 49.8887 91.5215 48.8887V48.707C91.5215 48.0898 91.6348 47.541 91.8613 47.0605C92.0879 46.5801 92.4121 46.207 92.834 45.9414C93.2598 45.6758 93.7617 45.543 94.3398 45.543C95.0508 45.543 95.6406 45.7559 96.1094 46.1816C96.582 46.6074 96.834 47.1602 96.8652 47.8398H95.8398C95.8086 47.4297 95.6523 47.0938 95.3711 46.832C95.0938 46.5664 94.75 46.4336 94.3398 46.4336C93.7891 46.4336 93.3613 46.6328 93.0566 47.0312C92.7559 47.4258 92.6055 47.998 92.6055 48.748V48.9531C92.6055 49.6836 92.7559 50.2461 93.0566 50.6406C93.3574 51.0352 93.7871 51.2324 94.3457 51.2324ZM100.715 52.1172C99.8555 52.1172 99.1562 51.8359 98.6172 51.2734C98.0781 50.707 97.8086 49.9512 97.8086 49.0059V48.8066C97.8086 48.1777 97.9277 47.6172 98.166 47.125C98.4082 46.6289 98.7441 46.2422 99.1738 45.9648C99.6074 45.6836 100.076 45.543 100.58 45.543C101.404 45.543 102.045 45.8145 102.502 46.3574C102.959 46.9004 103.188 47.6777 103.188 48.6895V49.1406H98.8926C98.9082 49.7656 99.0898 50.2715 99.4375 50.6582C99.7891 51.041 100.234 51.2324 100.773 51.2324C101.156 51.2324 101.48 51.1543 101.746 50.998C102.012 50.8418 102.244 50.6348 102.443 50.377L103.105 50.8926C102.574 51.709 101.777 52.1172 100.715 52.1172ZM100.58 46.4336C100.143 46.4336 99.7754 46.5938 99.4785 46.9141C99.1816 47.2305 98.998 47.6758 98.9277 48.25H102.104V48.168C102.072 47.6172 101.924 47.1914 101.658 46.8906C101.393 46.5859 101.033 46.4336 100.58 46.4336ZM105.531 46.4277C106.012 45.8379 106.637 45.543 107.406 45.543C108.746 45.543 109.422 46.2988 109.434 47.8105V52H108.35V47.8047C108.346 47.3477 108.24 47.0098 108.033 46.791C107.83 46.5723 107.512 46.4629 107.078 46.4629C106.727 46.4629 106.418 46.5566 106.152 46.7441C105.887 46.9316 105.68 47.1777 105.531 47.4824V52H104.447V43H105.531V46.4277ZM110.77 48.7715C110.77 48.1504 110.891 47.5918 111.133 47.0957C111.379 46.5996 111.719 46.2168 112.152 45.9473C112.59 45.6777 113.088 45.543 113.646 45.543C114.51 45.543 115.207 45.8418 115.738 46.4395C116.273 47.0371 116.541 47.832 116.541 48.8242V48.9004C116.541 49.5176 116.422 50.0723 116.184 50.5645C115.949 51.0527 115.611 51.4336 115.17 51.707C114.732 51.9805 114.229 52.1172 113.658 52.1172C112.799 52.1172 112.102 51.8184 111.566 51.2207C111.035 50.623 110.77 49.832 110.77 48.8477V48.7715ZM111.859 48.9004C111.859 49.6035 112.021 50.168 112.346 50.5938C112.674 51.0195 113.111 51.2324 113.658 51.2324C114.209 51.2324 114.646 51.0176 114.971 50.5879C115.295 50.1543 115.457 49.5488 115.457 48.7715C115.457 48.0762 115.291 47.5137 114.959 47.084C114.631 46.6504 114.193 46.4336 113.646 46.4336C113.111 46.4336 112.68 46.6465 112.352 47.0723C112.023 47.498 111.859 48.1074 111.859 48.9004ZM119.078 52H117.994V43H119.078V52ZM120.555 48.7773C120.555 47.8047 120.785 47.0234 121.246 46.4336C121.707 45.8398 122.311 45.543 123.057 45.543C123.799 45.543 124.387 45.7969 124.82 46.3047V43H125.904V52H124.908L124.855 51.3203C124.422 51.8516 123.818 52.1172 123.045 52.1172C122.311 52.1172 121.711 51.8164 121.246 51.2148C120.785 50.6133 120.555 49.8281 120.555 48.8594V48.7773ZM121.639 48.9004C121.639 49.6191 121.787 50.1816 122.084 50.5879C122.381 50.9941 122.791 51.1973 123.314 51.1973C124.002 51.1973 124.504 50.8887 124.82 50.2715V47.3594C124.496 46.7617 123.998 46.4629 123.326 46.4629C122.795 46.4629 122.381 46.668 122.084 47.0781C121.787 47.4883 121.639 48.0957 121.639 48.9004ZM130.223 52.1172C129.363 52.1172 128.664 51.8359 128.125 51.2734C127.586 50.707 127.316 49.9512 127.316 49.0059V48.8066C127.316 48.1777 127.436 47.6172 127.674 47.125C127.916 46.6289 128.252 46.2422 128.682 45.9648C129.115 45.6836 129.584 45.543 130.088 45.543C130.912 45.543 131.553 45.8145 132.01 46.3574C132.467 46.9004 132.695 47.6777 132.695 48.6895V49.1406H128.4C128.416 49.7656 128.598 50.2715 128.945 50.6582C129.297 51.041 129.742 51.2324 130.281 51.2324C130.664 51.2324 130.988 51.1543 131.254 50.998C131.52 50.8418 131.752 50.6348 131.951 50.377L132.613 50.8926C132.082 51.709 131.285 52.1172 130.223 52.1172ZM130.088 46.4336C129.65 46.4336 129.283 46.5938 128.986 46.9141C128.689 47.2305 128.506 47.6758 128.436 48.25H131.611V48.168C131.58 47.6172 131.432 47.1914 131.166 46.8906C130.9 46.5859 130.541 46.4336 130.088 46.4336ZM137.02 46.6328C136.855 46.6055 136.678 46.5918 136.486 46.5918C135.775 46.5918 135.293 46.8945 135.039 47.5V52H133.955V45.6602H135.01L135.027 46.3926C135.383 45.8262 135.887 45.543 136.539 45.543C136.75 45.543 136.91 45.5703 137.02 45.625V46.6328Z" fill="#A4A4A4"/>
</svg>
