<svg width="213" height="101" viewBox="0 0 213 101" fill="none" xmlns="http://www.w3.org/2000/svg">
<g clip-path="url(#clip0)">
<path d="M124.398 33.8697L124.186 33.9824C122.827 32.5795 121.267 31.3899 119.559 30.4534C109.668 24.94 100.56 30.6902 98.794 31.9755C97.3841 29.8405 95.5498 28.0244 93.4073 26.6425C89.8087 24.2522 83.5056 21.7605 73.9167 23.4517C65.3225 24.9738 61.1762 29.0892 59.1981 32.2348C57.994 34.1152 57.2296 36.2474 56.963 38.4698C54.6496 38.1654 42.7921 37.2296 38.847 48.9103C37.8164 51.8393 37.5138 54.9787 37.9658 58.0531C38.4179 61.1275 39.6107 64.0431 41.4397 66.5442C38.5902 65.066 35.4462 64.2576 32.243 64.1795C29.0398 64.1014 25.8606 64.7556 22.9437 66.0932C14.3159 69.7913 14.0031 78.4955 14.0925 80.322C12.4497 80.6377 5.15186 82.3966 5.15186 89.3419C5.15186 89.4376 5.18956 89.5293 5.25663 89.597C5.3237 89.6647 5.41457 89.7027 5.50942 89.7027H124.32L124.398 33.8697Z" fill="#00CCD3"/>
<path d="M8.89695 80.3218C8.89695 78.6081 9.08688 70.7382 16.3847 66.792C20.7331 64.0753 25.6281 62.3727 30.7122 61.8086C30.7122 61.8086 28.0858 53.1946 36.5459 43.6673C41.6645 37.6015 49.8675 38.2667 51.7562 38.5147C52.0286 36.2937 52.7925 34.1628 53.9914 32.2798C55.9695 29.1115 60.1269 25.0188 68.71 23.4967C78.2988 21.8054 84.6019 24.2972 88.2006 26.6874C90.3426 28.0738 92.1799 29.8889 93.5986 32.0204C95.409 30.7351 104.473 24.9849 114.352 30.4983C118.029 32.4687 120.925 35.6527 122.555 39.5182C122.555 39.5182 116.487 35.7975 104.126 41.2432C92.7491 46.2493 93.2521 54.5588 93.2521 54.5588C93.2521 54.5588 82.3333 49.8234 71.8727 56.453C61.4121 63.0826 65.469 72.6888 65.469 72.6888C65.469 72.6888 60.2945 65.4729 48.6381 66.8033C40.1557 67.7842 37.0152 72.6888 35.2271 75.0001C35.2271 75.0001 22.4085 72.5535 18.1952 80.6375C18.1952 80.6375 7.42175 79.7807 6.39357 89.7589H0.369786C0.275826 89.7561 0.186464 89.7171 0.119995 89.6501C0.0535253 89.583 0.0150265 89.4929 0.0122199 89.3981C0.00104409 82.3964 7.26528 80.6375 8.89695 80.3218Z" fill="#00F3E8"/>
<path d="M197.153 89.015C197.115 87.4781 196.839 85.9566 196.338 84.5051C193.365 75.6994 184.424 76.3984 182.681 76.6127C182.473 74.9433 181.9 73.3413 181.004 71.9223C179.518 69.5321 176.389 66.4428 169.907 65.2927C162.676 64.0074 157.915 65.8903 155.199 67.6943C153.585 68.7413 152.2 70.1112 151.131 71.7194C149.768 70.7498 142.928 66.4089 135.485 70.5919C132.715 72.0661 130.53 74.4538 129.294 77.3568C117.962 78.4054 118.722 86.4443 118.755 89.015H197.153Z" fill="#00E5E2"/>
<path d="M8.77353 90.0635C8.77353 90.0635 7.87944 90.9654 14.1938 91.9464C21.6145 93.0738 34.3885 92.2395 36.1543 94.3817C38.0765 96.7156 29.1247 96.0504 29.2923 98.7789C29.4264 101.09 39.0936 101.034 50.0012 101.034H152.327C161.156 101.034 159.558 99.0157 158.306 98.1024C156.495 96.7607 157.289 95.5318 165.235 95.3626C172.935 95.2048 178.646 95.0582 182.792 95.0582C193.968 95.0582 191.811 92.2621 200.551 92.2621C206.206 92.2621 213.001 91.1909 213.001 90.0071C184.312 87.4251 152.293 85.6663 117.458 85.4972C77.3931 85.204 40.9264 87.132 8.77353 90.0635Z" fill="#EFEFEF"/>
<path fill-rule="evenodd" clip-rule="evenodd" d="M78.3203 45.8779L77.0127 49.531L122.532 60.2308L123.649 54.9655L78.3203 45.8779Z" fill="#7FC1C1"/>
<path d="M154.785 90.1426C154.785 92.3299 133.193 94.1113 106.561 94.1113C79.9291 94.1113 58.3374 92.3299 58.3374 90.1426C58.3374 87.9553 79.9291 86.1738 106.561 86.1738C133.193 86.1738 154.785 87.8876 154.785 90.1426Z" fill="#B5B5B4"/>
<path fill-rule="evenodd" clip-rule="evenodd" d="M142.905 91.8562H112.73C111.647 91.5235 110.722 90.8016 110.13 89.827C109.539 88.8524 109.323 87.693 109.523 86.5683C110.126 82.3741 113.993 82.7912 118.541 83.5241C123.09 84.2569 141.284 86.1849 141.284 86.1849L142.905 91.8562Z" fill="#2F7274"/>
<path fill-rule="evenodd" clip-rule="evenodd" d="M80.4879 0.0562643C80.7457 0.130237 80.9782 0.274709 81.1597 0.473695C81.3411 0.67268 81.4645 0.918425 81.5161 1.18375C85.4612 1.90534 97.0952 5.41182 96.2124 21.7378H94.223C95.0612 6.04321 84.9472 2.87498 81.3039 2.27741C81.1517 2.49732 80.9426 2.6709 80.6994 2.77923C80.4562 2.88756 80.1882 2.9265 79.9246 2.8918C79.661 2.8571 79.4118 2.75009 79.2043 2.58243C78.9968 2.41477 78.8388 2.19289 78.7477 1.94095C78.6565 1.689 78.6357 1.41665 78.6874 1.15356C78.739 0.890474 78.8612 0.646729 79.0407 0.448869C79.2202 0.25101 79.4501 0.106624 79.7052 0.0314346C79.9604 -0.0437551 80.2311 -0.0468667 80.4879 0.0224412V0.0562643Z" fill="#2F7274"/>
<path fill-rule="evenodd" clip-rule="evenodd" d="M120.084 57.3323L76.1856 46.734C76.1856 46.734 71.0448 45.2119 74.2299 36.0567C77.415 26.9015 81.5389 14.9389 85.8975 11.5452C90.2561 8.15149 101.778 10.4967 107.132 11.7594C112.485 13.0222 124.096 15.8071 129.26 17.6111C133.652 19.1445 136.066 22.8088 134.177 29.3933C132.802 34.1738 128.243 47.3316 125.851 54.1979C125.439 55.3438 124.624 56.2967 123.56 56.8749C122.497 57.453 121.259 57.6158 120.084 57.3323Z" fill="#B5EEEA"/>
<path fill-rule="evenodd" clip-rule="evenodd" d="M85.8304 49.0564C85.8304 49.0564 80.6001 47.5117 83.841 38.1987C87.082 28.8857 88.0096 18.8398 93.0611 14.3637C96.1009 11.6578 102.46 11.2744 106.897 11.6916C101.432 10.4288 90.1331 8.19639 85.8975 11.545C81.6619 14.8936 77.415 26.8901 74.2299 36.0227C71.0448 45.1553 76.1856 46.7 76.1856 46.7L124.398 58.3469L85.8304 49.0564Z" fill="#95D5D6"/>
<path fill-rule="evenodd" clip-rule="evenodd" d="M93.2403 22.7075C91.9327 27.1498 89.15 36.9815 88.5689 40.4203C87.9878 43.8591 89.2058 46.7906 93.2403 47.9519C96.1013 48.7749 110.73 51.3343 118.945 52.6647C120.499 52.924 122.093 52.6035 123.43 51.7632C124.767 50.9228 125.755 49.6201 126.209 48.0984L131.261 31.1185C132.199 27.9616 132.982 24.0718 127.215 22.1776C121.448 20.2834 108.216 17.3745 103.064 16.4162C97.9119 15.4578 94.7491 17.5662 93.2403 22.7075Z" fill="#EEFFFF"/>
<path fill-rule="evenodd" clip-rule="evenodd" d="M128.255 22.5723C131.999 24.6356 131.295 27.9616 130.49 30.7352C129.875 32.7985 127.215 41.7395 125.45 47.6475C125.091 48.8458 124.399 49.9151 123.456 50.7286C122.513 51.542 121.359 52.0653 120.13 52.2364C119.551 52.3695 118.958 52.4376 118.364 52.4393C118.174 52.4393 117.995 52.4393 117.816 52.4393L118.934 52.6423C120.488 52.9015 122.083 52.581 123.419 51.7407C124.756 50.9003 125.744 49.5976 126.198 48.076L131.25 31.096C132.133 28.1308 132.882 24.5792 128.255 22.5723Z" fill="#60BFB8"/>
<path fill-rule="evenodd" clip-rule="evenodd" d="M77.2023 48.064L119.749 58.4256C121.015 58.7353 122.118 59.5189 122.834 60.6178C123.55 61.7167 123.825 63.0489 123.604 64.3449L119.514 88.349C119.266 89.3184 118.705 90.1769 117.92 90.7893C117.135 91.4017 116.17 91.7332 115.178 91.7314H73.9613C72.8403 91.7301 71.7327 91.4857 70.7135 91.0149C69.6942 90.544 68.7871 89.8577 68.0537 89.0023C67.3204 88.147 66.7778 87.1426 66.4628 86.0573C66.1477 84.9719 66.0676 83.8309 66.2277 82.7116L70.4968 52.7543C70.6082 51.9908 70.8737 51.2585 71.277 50.6028C71.6803 49.947 72.2128 49.3818 72.8414 48.9421C73.47 48.5024 74.1814 48.1976 74.9315 48.0465C75.6817 47.8955 76.4545 47.9014 77.2023 48.064Z" fill="#B5EEEA"/>
<path fill-rule="evenodd" clip-rule="evenodd" d="M79.7176 83.9969L84.1879 52.7656C84.3339 51.7111 84.7629 50.7169 85.4284 49.8905L77.203 48.064C76.4553 47.9014 75.6824 47.8955 74.9323 48.0465C74.1821 48.1976 73.4707 48.5024 72.8421 48.9421C72.2135 49.3818 71.681 49.947 71.2777 50.6028C70.8745 51.2585 70.6089 51.9908 70.4975 52.7543L66.2619 82.7341C66.1017 83.8535 66.182 84.9945 66.4971 86.0798C66.8121 87.1652 67.3546 88.1695 68.088 89.0249C68.8214 89.8802 69.7285 90.5666 70.7477 91.0374C71.767 91.5083 72.8746 91.7527 73.9956 91.754H82.9362C81.7544 90.8757 80.8309 89.6903 80.2641 88.3243C79.6973 86.9583 79.5084 85.4627 79.7176 83.9969Z" fill="#95D5D6"/>
<path fill-rule="evenodd" clip-rule="evenodd" d="M102.583 29.7433C103.22 28.8188 103.88 28.1648 104.394 28.5369C104.908 28.909 104.807 29.9801 104.159 30.9046C103.511 31.8291 102.572 32.2801 102.058 31.8968C101.544 31.5134 101.935 30.6678 102.583 29.7433Z" fill="#2F7274"/>
<path fill-rule="evenodd" clip-rule="evenodd" d="M119.949 33.7001C120.564 32.753 121.201 32.0765 121.726 32.4486C122.251 32.8207 122.173 33.8805 121.559 34.8163C120.944 35.7521 120.005 36.2369 119.48 35.8649C118.955 35.4928 119.323 34.6359 119.949 33.7001Z" fill="#2F7274"/>
<path d="M111.601 40.4427C111.478 40.4824 111.345 40.4824 111.221 40.4427C110.193 40.3052 109.184 40.048 108.215 39.676C108.136 39.645 108.064 39.5983 108.003 39.5387C107.942 39.4792 107.893 39.4079 107.86 39.3291C107.826 39.2504 107.809 39.1656 107.809 39.08C107.808 38.9943 107.825 38.9095 107.857 38.8304C107.889 38.7501 107.937 38.6771 107.997 38.6154C108.057 38.5537 108.128 38.5047 108.207 38.4712C108.286 38.4376 108.371 38.4202 108.457 38.4199C108.543 38.4197 108.627 38.4365 108.707 38.4696C109.579 38.7884 110.482 39.0152 111.4 39.1461C111.54 39.1628 111.67 39.2249 111.772 39.323C111.873 39.4211 111.941 39.5498 111.963 39.6898C111.986 39.8298 111.963 39.9735 111.898 40.0991C111.832 40.2247 111.728 40.3255 111.601 40.3863V40.4427Z" fill="#2F7274"/>
<path fill-rule="evenodd" clip-rule="evenodd" d="M115.994 91.8562H85.8194C84.7359 91.5235 83.811 90.8016 83.2198 89.827C82.6287 88.8524 82.4124 87.693 82.6119 86.5683C83.2154 82.3741 87.0823 82.7912 91.6309 83.5241C96.1795 84.2569 114.385 86.1849 114.385 86.1849L115.994 91.8562Z" fill="#2F7274"/>
<path fill-rule="evenodd" clip-rule="evenodd" d="M84.9582 81.3705L108.059 81.6073L118.452 43.6674C118.628 43.0204 119.034 42.4615 119.593 42.0975C120.152 41.7335 120.824 41.59 121.481 41.6943L159.78 45.6518C160.082 45.706 160.369 45.8221 160.624 45.9928C160.879 46.1635 161.096 46.3852 161.263 46.6441C161.429 46.9031 161.541 47.1938 161.592 47.4983C161.643 47.8028 161.631 48.1145 161.557 48.4141L152.08 86.0045C151.885 86.7363 151.444 87.3771 150.832 87.8172C150.221 88.2573 149.477 88.4694 148.727 88.4173L84.7906 84.426C84.3924 84.397 84.021 84.2122 83.7559 83.911C83.4907 83.6098 83.3528 83.2161 83.3713 82.8137C83.3813 82.6137 83.4303 82.4177 83.5155 82.2368C83.6007 82.056 83.7204 81.8939 83.8679 81.7599C84.0153 81.6258 84.1876 81.5224 84.3747 81.4556C84.5618 81.3888 84.76 81.3599 84.9582 81.3705Z" fill="#C9E2E2"/>
<path fill-rule="evenodd" clip-rule="evenodd" d="M125.326 71.6965C125.326 71.6965 118.923 68.6861 115.816 77.6721C114.622 81.0615 113.651 84.5266 112.91 88.045C112.815 88.5066 112.824 88.9837 112.935 89.4415C113.046 89.8994 113.257 90.3264 113.553 90.6915C113.848 91.0566 114.221 91.3506 114.643 91.5521C115.066 91.7535 115.527 91.8573 115.995 91.8559H116.676L118.811 87.9999L125.326 71.6965Z" fill="#2F7274"/>
<path fill-rule="evenodd" clip-rule="evenodd" d="M116.318 91.8564H118.218C118.753 91.8581 119.279 91.7106 119.736 91.43C120.194 91.1495 120.566 90.7469 120.811 90.2666C123.046 85.7567 129.058 73.1853 125.37 71.697C121.682 70.2087 116.642 84.6292 114.932 89.9397C114.859 90.1599 114.839 90.3946 114.874 90.6242C114.91 90.8538 114.999 91.0715 115.134 91.2592C115.27 91.4469 115.448 91.599 115.654 91.7029C115.86 91.8068 116.088 91.8594 116.318 91.8564Z" fill="#236363"/>
<path fill-rule="evenodd" clip-rule="evenodd" d="M151.533 71.6965C151.533 71.6965 145.129 68.6861 142.022 77.6721C140.834 81.0631 139.863 84.5279 139.117 88.045C139.022 88.5066 139.03 88.9837 139.141 89.4415C139.253 89.8994 139.464 90.3264 139.759 90.6915C140.055 91.0566 140.427 91.3506 140.85 91.5521C141.272 91.7535 141.734 91.8573 142.201 91.8559H142.883L145.029 87.9999L151.533 71.6965Z" fill="#2F7274"/>
<path fill-rule="evenodd" clip-rule="evenodd" d="M142.481 91.8564H144.381C144.916 91.8581 145.441 91.7106 145.899 91.43C146.356 91.1495 146.728 90.7469 146.973 90.2666C149.209 85.7567 155.232 73.1853 151.533 71.697C147.834 70.2087 142.816 84.6292 141.095 89.9397C141.024 90.1599 141.006 90.3938 141.043 90.6223C141.079 90.8508 141.168 91.0674 141.304 91.2544C141.439 91.4414 141.616 91.5934 141.82 91.698C142.025 91.8027 142.251 91.8569 142.481 91.8564Z" fill="#236363"/>
<path d="M112.496 65.6983L105.142 58.9898C104.898 58.7679 104.6 58.6138 104.279 58.5426C103.958 58.4715 103.624 58.4857 103.309 58.5839L93.8882 61.6281C93.5744 61.732 93.2929 61.9167 93.0714 62.1638C92.85 62.411 92.6962 62.7121 92.6253 63.0374L90.5354 72.7902C90.4626 73.1131 90.4771 73.4498 90.5773 73.7652C90.6776 74.0806 90.8598 74.3629 91.1053 74.5829L98.4255 81.3478C98.6683 81.5727 98.9658 81.7287 99.2877 81.8C99.6096 81.8713 99.9445 81.8553 100.258 81.7537L109.68 78.7095C109.991 78.6055 110.271 78.4223 110.493 78.1774C110.714 77.9325 110.869 77.6343 110.942 77.3114L113.032 67.5587C113.117 67.2286 113.112 66.8815 113.018 66.5541C112.923 66.2266 112.743 65.931 112.496 65.6983ZM95.7321 64.5708C95.8834 64.4273 96.0832 64.3475 96.2909 64.3475C96.4985 64.3475 96.6984 64.4273 96.8497 64.5708L97.3638 65.0331C97.4431 65.1071 97.5071 65.1962 97.5522 65.2952C97.5974 65.3942 97.6227 65.5012 97.6269 65.61C97.631 65.7189 97.6139 65.8276 97.5764 65.9298C97.5389 66.032 97.4818 66.1257 97.4085 66.2057C97.3351 66.2856 97.2468 66.3502 97.1487 66.3958C97.0506 66.4413 96.9445 66.4669 96.8366 66.4711C96.7286 66.4753 96.621 66.458 96.5197 66.4202C96.4184 66.3824 96.3255 66.3248 96.2463 66.2508L95.7321 65.7885C95.654 65.711 95.5923 65.6184 95.5505 65.5163C95.5087 65.4142 95.4877 65.3047 95.4887 65.1942C95.4897 65.0837 95.5129 64.9746 95.5566 64.8733C95.6004 64.772 95.6638 64.6806 95.7433 64.6047L95.7321 64.5708ZM95.7321 72.9706L95.0727 73.1735C94.9716 73.2084 94.8645 73.2222 94.7579 73.2142C94.6513 73.2063 94.5473 73.1767 94.4523 73.1272C94.3573 73.0777 94.2732 73.0093 94.2051 72.9262C94.1369 72.8431 94.0861 72.747 94.0557 72.6436C94.021 72.5408 94.0073 72.432 94.0151 72.3236C94.0228 72.2153 94.052 72.1097 94.101 72.0129C94.15 71.9162 94.2177 71.8304 94.3002 71.7605C94.3826 71.6907 94.4782 71.6383 94.5811 71.6063L95.2292 71.4034C95.3312 71.3684 95.439 71.3544 95.5464 71.3623C95.6538 71.3701 95.7584 71.3996 95.8543 71.449C95.9502 71.4984 96.0353 71.5668 96.1045 71.6499C96.1737 71.7331 96.2258 71.8295 96.2574 71.9333C96.2935 72.0405 96.3075 72.1541 96.2986 72.2669C96.2898 72.3798 96.2583 72.4897 96.206 72.5899C96.1537 72.6902 96.0818 72.7786 95.9946 72.8498C95.9073 72.9211 95.8067 72.9737 95.6987 73.0044L95.7321 72.9706ZM99.1631 71.8431L98.0456 72.1926C97.9436 72.2276 97.8357 72.2416 97.7284 72.2337C97.621 72.2259 97.5162 72.1964 97.4203 72.147C97.3244 72.0976 97.2395 72.0292 97.1703 71.9461C97.101 71.8629 97.049 71.7665 97.0173 71.6627C96.9539 71.4564 96.9735 71.2331 97.0718 71.0412C97.17 70.8492 97.3391 70.7039 97.5426 70.6367L98.6601 70.2759C98.8676 70.212 99.0917 70.233 99.284 70.3342C99.4763 70.4354 99.6216 70.6089 99.6884 70.8171C99.7261 70.9242 99.7414 71.0381 99.7334 71.1516C99.7253 71.265 99.6941 71.3755 99.6416 71.4762C99.5891 71.5768 99.5165 71.6654 99.4283 71.7363C99.3402 71.8072 99.2385 71.8589 99.1296 71.8882L99.1631 71.8431ZM100.169 68.5847C100.018 68.7282 99.8178 68.808 99.6102 68.808C99.4025 68.808 99.2027 68.7282 99.0514 68.5847L98.2132 67.8067C98.071 67.6541 97.9918 67.4525 97.9918 67.243C97.9918 67.0335 98.071 66.8319 98.2132 66.6792C98.3645 66.5357 98.5644 66.4558 98.772 66.4558C98.9797 66.4558 99.1795 66.5357 99.3308 66.6792L100.169 67.4572C100.244 67.536 100.302 67.629 100.341 67.7309C100.38 67.8328 100.399 67.9414 100.396 68.0506C100.392 68.1597 100.368 68.2671 100.323 68.3665C100.278 68.466 100.215 68.5555 100.135 68.6298L100.169 68.5847ZM102.873 71.0539C102.749 71.1948 102.578 71.2867 102.393 71.3132L101.063 77.5031C101.04 77.6089 100.997 77.7092 100.936 77.7983C100.875 77.8873 100.797 77.9633 100.706 78.0219C100.616 78.0805 100.515 78.1207 100.41 78.14C100.304 78.1593 100.196 78.1574 100.091 78.1345C99.9857 78.1115 99.8863 78.0679 99.798 78.0062C99.7098 77.9445 99.6345 77.8659 99.5764 77.7748C99.5182 77.6837 99.4786 77.5819 99.4594 77.4754C99.4403 77.3688 99.4422 77.2594 99.4649 77.1535L100.806 70.9411C100.672 70.8441 100.574 70.7054 100.527 70.5465C100.491 70.4285 100.48 70.3041 100.495 70.1816C100.511 70.0591 100.552 69.9413 100.616 69.8362C100.604 69.7182 100.617 69.5991 100.653 69.4864C100.69 69.3738 100.749 69.2701 100.828 69.1822C100.932 69.0574 101.073 68.9702 101.231 68.9342L102.572 62.6767C102.62 62.4641 102.749 62.279 102.93 62.161C103.112 62.043 103.332 62.0015 103.544 62.0453C103.649 62.068 103.749 62.1114 103.837 62.1731C103.925 62.2347 104.001 62.3134 104.059 62.4045C104.117 62.4957 104.157 62.5975 104.176 62.7042C104.195 62.8109 104.193 62.9203 104.17 63.0262L102.829 69.2499C102.985 69.3561 103.102 69.5104 103.164 69.6896C103.2 69.8039 103.21 69.9247 103.195 70.0434C103.179 70.1622 103.138 70.2762 103.075 70.3774C103.094 70.5078 103.083 70.6409 103.042 70.7662C103.001 70.8915 102.932 71.0055 102.84 71.099L102.873 71.0539ZM104.527 68.3817L105.645 68.0322C105.851 67.9678 106.074 67.9872 106.266 68.0862C106.458 68.1852 106.604 68.356 106.673 68.5621C106.706 68.6657 106.718 68.7749 106.709 68.8833C106.7 68.9917 106.669 69.0972 106.619 69.1937C106.57 69.2901 106.501 69.3757 106.418 69.4453C106.336 69.5149 106.24 69.5673 106.137 69.5994L105.019 69.9489C104.917 69.9823 104.81 69.9951 104.703 69.9865C104.596 69.978 104.492 69.9482 104.396 69.899C104.301 69.8498 104.216 69.7821 104.146 69.6997C104.077 69.6173 104.024 69.522 103.991 69.419C103.936 69.2201 103.958 69.0078 104.051 68.824C104.144 68.6402 104.302 68.4985 104.494 68.4268L104.527 68.3817ZM105.578 73.5343C105.427 73.6778 105.227 73.7577 105.019 73.7577C104.812 73.7577 104.612 73.6778 104.46 73.5343L103.611 72.7564C103.471 72.6025 103.394 72.4013 103.394 72.1926C103.394 71.9839 103.471 71.7827 103.611 71.6289C103.762 71.4854 103.962 71.4055 104.17 71.4055C104.378 71.4055 104.577 71.4854 104.729 71.6289L105.578 72.4068C105.653 72.4856 105.712 72.5787 105.75 72.6806C105.789 72.7824 105.808 72.8911 105.805 73.0002C105.802 73.1093 105.777 73.2167 105.732 73.3162C105.688 73.4156 105.624 73.5051 105.544 73.5794L105.578 73.5343ZM107.903 75.6653C107.751 75.8088 107.551 75.8886 107.344 75.8886C107.136 75.8886 106.936 75.8088 106.785 75.6653L106.282 75.203C106.14 75.0504 106.061 74.8487 106.061 74.6393C106.061 74.4298 106.14 74.2282 106.282 74.0755C106.432 73.9295 106.632 73.8478 106.841 73.8478C107.049 73.8478 107.25 73.9295 107.4 74.0755L107.903 74.5378C107.977 74.6166 108.036 74.7096 108.075 74.8115C108.114 74.9134 108.132 75.022 108.129 75.1312C108.126 75.2403 108.102 75.3477 108.057 75.4471C108.012 75.5466 107.948 75.636 107.869 75.7104L107.903 75.6653ZM109.121 68.6298L108.461 68.844C108.359 68.877 108.252 68.8891 108.145 68.8797C108.039 68.8703 107.935 68.8394 107.84 68.789C107.745 68.7386 107.662 68.6697 107.594 68.5862C107.526 68.5027 107.475 68.4063 107.444 68.3028C107.41 68.2007 107.396 68.0927 107.404 67.9851C107.412 67.8776 107.441 67.7727 107.49 67.6769C107.539 67.5811 107.607 67.4962 107.689 67.4275C107.772 67.3587 107.867 67.3075 107.97 67.2768L108.618 67.0626C108.72 67.0292 108.827 67.0164 108.934 67.025C109.041 67.0335 109.145 67.0633 109.241 67.1125C109.336 67.1617 109.421 67.2294 109.491 67.3118C109.56 67.3942 109.613 67.4895 109.646 67.5925C109.691 67.7029 109.713 67.8219 109.708 67.9413C109.704 68.0608 109.675 68.178 109.622 68.2849C109.569 68.3918 109.494 68.486 109.401 68.561C109.309 68.6361 109.202 68.6903 109.087 68.72L109.121 68.6298Z" fill="#EAF3F2"/>
<path fill-rule="evenodd" clip-rule="evenodd" d="M84.8469 84.4261L109.031 85.9369L121.146 41.6606C120.54 41.6408 119.946 41.8267 119.457 42.1886C118.969 42.5504 118.615 43.0673 118.453 43.6563L108.059 81.5961L84.9586 81.3593C84.5678 81.353 84.1899 81.4998 83.9043 81.769C83.6187 82.0382 83.4477 82.4087 83.4275 82.8025C83.406 83.2068 83.5427 83.6034 83.8081 83.9071C84.0736 84.2107 84.4466 84.3971 84.8469 84.4261Z" fill="#9FC6C4"/>
<path fill-rule="evenodd" clip-rule="evenodd" d="M106.751 75.2594V80.1527C106.785 80.5322 106.669 80.9099 106.429 81.2035C106.188 81.4971 105.842 81.6828 105.466 81.7199C105.118 81.7528 104.771 81.6564 104.489 81.4487C104.207 81.241 104.01 80.9365 103.935 80.5924L102.493 76.4094L102.203 76.5898L102.393 80.2429C102.413 80.4384 102.392 80.6361 102.332 80.823C102.271 81.0099 102.173 81.1819 102.042 81.3277C101.911 81.4734 101.751 81.5897 101.573 81.669C101.395 81.7482 101.202 81.7886 101.007 81.7875C100.687 81.7858 100.378 81.6726 100.131 81.4672C99.8848 81.2617 99.7163 80.9765 99.6544 80.6601L98.5368 76.6124L98.0787 76.8604L98.224 80.1527C98.2443 80.3547 98.2224 80.5587 98.1598 80.7517C98.0972 80.9447 97.9952 81.1223 97.8605 81.2731C97.7257 81.4239 97.5611 81.5446 97.3774 81.6274C97.1936 81.7101 96.9947 81.7532 96.7935 81.7537C96.4854 81.7548 96.1851 81.6556 95.9374 81.4707C95.6898 81.2859 95.5079 81.0253 95.4189 80.7277L94.7482 78.8786C94.7482 78.8786 91.4849 80.2654 90.1438 77.0859C90.0181 76.7227 89.9656 76.3377 89.9895 75.9537C90.0134 75.5698 90.1131 75.1944 90.2828 74.8499C90.4525 74.5053 90.6888 74.1985 90.9778 73.9474C91.2667 73.6963 91.6025 73.506 91.9655 73.3878C95.2759 71.9763 98.8218 71.2111 102.415 71.1328C103.52 71.1417 104.582 71.572 105.386 72.3374C106.19 73.1027 106.678 74.1465 106.751 75.2594Z" fill="#2F7274"/>
<path d="M77.1132 56.6335C75.1307 59.4305 73.648 62.5556 72.7322 65.8676C72.3112 67.4041 72.1524 69.0016 72.2628 70.5918C72.3539 72.0322 72.8416 73.4183 73.6709 74.5944C73.8803 74.8865 74.112 75.1617 74.3638 75.4174C74.4756 75.5414 74.621 75.6767 74.7439 75.7895L75.0679 76.0488C75.621 76.4141 76.234 76.6775 76.8784 76.8268C77.6412 77.0066 78.42 77.1086 79.2031 77.1312C80.0455 77.1644 80.8893 77.1418 81.7288 77.0635C83.4846 76.8938 85.2253 76.5923 86.9366 76.1616C87.8083 75.9586 88.669 75.7106 89.5295 75.4512L90.8147 75.0341L91.4405 74.8199L91.7535 74.7071L92.0441 74.5944C92.5554 74.4 93.1223 74.4185 93.62 74.6458C94.1178 74.8731 94.5057 75.2906 94.6983 75.8064C94.891 76.3222 94.8726 76.8941 94.6473 77.3963C94.422 77.8985 94.0081 78.2898 93.4968 78.4842L93.1393 78.6307L92.7928 78.7548L92.0999 79.0028C91.6417 79.1719 91.1835 79.3298 90.7141 79.4764C89.7977 79.7808 88.8589 80.0514 87.9201 80.2994C86.0176 80.8222 84.0787 81.1991 82.1199 81.4269C81.1043 81.5581 80.0817 81.6259 79.0578 81.6299C77.9737 81.6277 76.8922 81.522 75.8279 81.3142C74.6413 81.0797 73.5058 80.6329 72.4752 79.995C72.1931 79.8239 71.9241 79.6317 71.6706 79.42C71.4359 79.217 71.2346 79.0479 71.0223 78.845C70.5926 78.447 70.193 78.0174 69.8265 77.5596C69.0942 76.6391 68.4958 75.6178 68.0496 74.5267C67.6115 73.4425 67.3147 72.3055 67.1667 71.1443C67.0167 70.0462 66.9718 68.9362 67.0326 67.8295C67.0878 66.7616 67.2185 65.699 67.4237 64.6499C67.8247 62.6149 68.4236 60.6246 69.2118 58.7081C69.9779 56.8203 70.882 54.9925 71.9164 53.2398C72.3299 52.5341 73.0043 52.023 73.7913 51.819C74.5783 51.6149 75.4134 51.7346 76.1129 52.1518C76.8124 52.5689 77.319 53.2493 77.5212 54.0433C77.7235 54.8373 77.6048 55.6798 77.1913 56.3855C77.1711 56.4699 77.145 56.5528 77.1132 56.6335Z" fill="#2F7274"/>
<path d="M137.723 14.5208L140.879 14.2389L140.675 -0.0396447L135.416 0.430165L137.723 14.5208ZM140.002 22.4776C141.563 22.3381 142.72 20.8854 142.576 19.2598C142.443 17.7616 141.05 16.5368 139.488 16.6763C137.831 16.8243 136.643 18.2799 136.775 19.778C136.919 21.4036 138.344 22.6257 140.002 22.4776Z" fill="#00CCD3"/>
<path d="M151.352 16.3274L155.172 17.971L163.774 1.32568L157.408 -1.41353L151.352 16.3274ZM149.059 26.9545C150.95 27.7679 153.185 26.8093 154.025 24.8388C154.799 23.0229 153.947 20.7362 152.057 19.9227C150.051 19.0594 147.777 20.0015 147.003 21.8174C146.163 23.7878 147.053 26.0912 149.059 26.9545Z" fill="#00E5E2"/>
<path d="M162.055 27.7347L164.163 30.1L175.453 21.3658L171.94 17.4236L162.055 27.7347ZM157.055 34.3409C158.098 35.5116 159.949 35.5685 161.162 34.4771C162.281 33.4714 162.428 31.6169 161.385 30.4462C160.278 29.2038 158.406 29.123 157.288 30.1287C156.075 31.2201 155.948 33.0985 157.055 34.3409Z" fill="#95D5D6"/>
</g>
<defs>
<clipPath id="clip0">
<rect width="213" height="101" fill="white"/>
</clipPath>
</defs>
</svg>
