<svg width="284" height="85" viewBox="0 0 284 85" fill="none" xmlns="http://www.w3.org/2000/svg">
<path d="M45.5291 50.7891C46.8791 50.7891 47.9291 50.4741 49.0691 49.7541L48.7841 49.3341C47.7191 49.9791 46.7891 50.2491 45.5591 50.2491C42.6941 50.2491 40.3841 47.9391 40.3841 45.1491C40.3841 42.0591 42.9491 39.4791 46.0391 39.4791C48.8591 39.4791 51.1241 41.6241 51.1241 44.2191C51.1241 46.2291 50.1491 47.0541 49.3391 47.0541C48.7691 47.0541 48.4091 46.7241 48.4091 46.1241C48.4091 45.6891 48.7091 44.2641 49.1891 41.8191L47.9141 41.7291L47.7341 42.6741C47.3891 42.0441 46.7291 41.5041 45.6941 41.5041C43.9541 41.5041 42.2441 43.1691 42.2441 45.2541C42.2441 46.8291 43.2941 47.8941 44.7491 47.8941C45.7391 47.8941 46.5491 47.3541 47.1041 46.6491C47.2991 47.4141 47.9141 47.8941 48.8741 47.8941C50.2241 47.8941 51.6941 46.7091 51.6941 44.2191C51.6941 41.3541 49.1741 38.9241 46.0691 38.9241C42.6491 38.9241 39.7991 41.7741 39.7991 45.1641C39.7991 48.2391 42.3791 50.7891 45.5291 50.7891ZM45.1391 46.7991C44.2091 46.7991 43.5941 46.1541 43.5941 45.1641C43.5941 43.7991 44.6441 42.5991 45.9191 42.5991C46.9991 42.5991 47.4941 43.3041 47.3741 44.3991C47.2391 45.7491 46.4141 46.7991 45.1391 46.7991ZM176.357 49.2651C177.005 49.2651 177.527 48.7071 177.527 48.0411C177.527 47.4291 177.005 46.8711 176.357 46.8711C175.673 46.8711 175.151 47.4291 175.151 48.0411C175.151 48.7071 175.673 49.2651 176.357 49.2651ZM188.976 41.1141C187.806 41.1141 186.816 41.7141 186.456 42.6741C186.006 41.7141 185.091 41.1141 183.966 41.1141C182.976 41.1141 182.166 41.6091 181.776 42.3741V41.2941H180.291V49.0491H181.776V44.2041C181.776 43.1391 182.556 42.4041 183.666 42.4041C184.641 42.4041 185.316 43.1991 185.316 44.3391V49.0491H186.771V44.2041C186.771 43.1391 187.551 42.4041 188.661 42.4041C189.636 42.4041 190.311 43.1991 190.311 44.3391V49.0491H191.766V44.1141C191.766 42.3591 190.596 41.1141 188.976 41.1141ZM198.092 49.2291C200.297 49.2291 202.157 47.3691 202.157 45.1641C202.157 42.9591 200.297 41.1141 198.092 41.1141C195.872 41.1141 193.997 42.9591 193.997 45.1641C193.997 47.3691 195.872 49.2291 198.092 49.2291ZM198.092 47.9391C196.667 47.9391 195.482 46.6791 195.482 45.1641C195.482 43.6641 196.667 42.4041 198.092 42.4041C199.487 42.4041 200.672 43.6641 200.672 45.1641C200.672 46.6791 199.487 47.9391 198.092 47.9391ZM204.082 49.0491H210.412V47.7141H206.032L210.382 42.4041V41.2941H204.172V42.6291H208.432L204.082 47.9391V49.0491ZM221.393 41.1141C220.223 41.1141 219.233 41.7141 218.873 42.6741C218.423 41.7141 217.508 41.1141 216.383 41.1141C215.393 41.1141 214.583 41.6091 214.193 42.3741V41.2941H212.708V49.0491H214.193V44.2041C214.193 43.1391 214.973 42.4041 216.083 42.4041C217.058 42.4041 217.733 43.1991 217.733 44.3391V49.0491H219.188V44.2041C219.188 43.1391 219.968 42.4041 221.078 42.4041C222.053 42.4041 222.728 43.1991 222.728 44.3391V49.0491H224.183V44.1141C224.183 42.3591 223.013 41.1141 221.393 41.1141ZM230.089 41.1141C229.234 41.1141 228.259 41.3391 227.149 41.8941L227.689 42.9891C228.364 42.6441 229.114 42.3441 229.879 42.3441C231.424 42.3441 231.874 43.3791 231.874 44.3541V44.5941C231.124 44.3391 230.299 44.1741 229.534 44.1741C227.824 44.1741 226.429 45.2091 226.429 46.7541C226.429 48.2691 227.644 49.2291 229.294 49.2291C230.239 49.2291 231.304 48.7941 231.874 47.9841V49.0491H233.329V44.3541C233.329 42.4341 232.174 41.1141 230.089 41.1141ZM229.579 48.0591C228.604 48.0591 227.854 47.5491 227.854 46.7091C227.854 45.8691 228.724 45.2841 229.759 45.2841C230.524 45.2841 231.244 45.3891 231.874 45.5841V46.6191C231.619 47.5791 230.539 48.0591 229.579 48.0591ZM236.73 40.0041C237.21 40.0041 237.615 39.5841 237.615 39.1041C237.615 38.6391 237.21 38.2191 236.73 38.2191C236.22 38.2191 235.83 38.6391 235.83 39.1041C235.83 39.5841 236.22 40.0041 236.73 40.0041ZM235.98 49.0491H237.465V41.2941H235.98V49.0491ZM240.131 49.0491H241.601V38.5641H240.131V49.0491ZM245.211 49.2291C245.751 49.2291 246.186 48.7641 246.186 48.2091C246.186 47.6991 245.751 47.2341 245.211 47.2341C244.641 47.2341 244.206 47.6991 244.206 48.2091C244.206 48.7641 244.641 49.2291 245.211 49.2291ZM252.428 49.2291C253.583 49.2291 254.588 48.7491 255.338 47.9841L254.333 47.0691C253.853 47.6091 253.163 47.9391 252.443 47.9391C251.018 47.9391 249.848 46.6791 249.848 45.1641C249.848 43.6641 251.018 42.4041 252.428 42.4041C253.148 42.4041 253.823 42.7191 254.288 43.2441L255.293 42.3141C254.558 41.5791 253.553 41.1141 252.443 41.1141C250.223 41.1141 248.348 42.9591 248.348 45.1641C248.348 47.3691 250.223 49.2291 252.428 49.2291ZM260.959 49.2291C263.164 49.2291 265.024 47.3691 265.024 45.1641C265.024 42.9591 263.164 41.1141 260.959 41.1141C258.739 41.1141 256.864 42.9591 256.864 45.1641C256.864 47.3691 258.739 49.2291 260.959 49.2291ZM260.959 47.9391C259.534 47.9391 258.349 46.6791 258.349 45.1641C258.349 43.6641 259.534 42.4041 260.959 42.4041C262.354 42.4041 263.539 43.6641 263.539 45.1641C263.539 46.6791 262.354 47.9391 260.959 47.9391ZM275.949 41.1141C274.779 41.1141 273.789 41.7141 273.429 42.6741C272.979 41.7141 272.064 41.1141 270.939 41.1141C269.949 41.1141 269.139 41.6091 268.749 42.3741V41.2941H267.264V49.0491H268.749V44.2041C268.749 43.1391 269.529 42.4041 270.639 42.4041C271.614 42.4041 272.289 43.1991 272.289 44.3391V49.0491H273.744V44.2041C273.744 43.1391 274.524 42.4041 275.634 42.4041C276.609 42.4041 277.284 43.1991 277.284 44.3391V49.0491H278.739V44.1141C278.739 42.3591 277.569 41.1141 275.949 41.1141Z" fill="#999999"/>
<path d="M56.1297 52.6491C57.6097 52.6291 58.7097 51.8491 59.4497 49.9891L64.0097 38.7091H61.9497L58.8097 46.8691L55.4897 38.7091H53.3697L57.8097 49.1091L57.2897 50.2091C56.9497 50.8091 56.5097 51.0091 55.8697 51.0091C55.4697 51.0091 55.0097 50.9091 54.6097 50.6891L54.1697 52.2091C54.7097 52.4891 55.4297 52.6491 56.1297 52.6491ZM71.1922 49.2891C74.1322 49.2891 76.6122 46.8091 76.6122 43.8691C76.6122 40.9291 74.1322 38.4691 71.1922 38.4691C68.2322 38.4691 65.7322 40.9291 65.7322 43.8691C65.7322 46.8091 68.2322 49.2891 71.1922 49.2891ZM71.1922 47.5691C69.2922 47.5691 67.7122 45.8891 67.7122 43.8691C67.7122 41.8691 69.2922 40.1891 71.1922 40.1891C73.0522 40.1891 74.6322 41.8691 74.6322 43.8691C74.6322 45.8891 73.0522 47.5691 71.1922 47.5691ZM86.5665 38.7091V45.4091C86.4065 46.6291 85.1665 47.5691 83.7265 47.5691C82.3265 47.5691 81.3465 46.4891 81.3465 44.9491V38.7091H79.4065V45.2891C79.4065 47.6291 81.0065 49.2891 83.2865 49.2891C84.6865 49.2891 85.9465 48.5691 86.5665 47.5491V49.0491H88.5465V38.7091H86.5665ZM94.0168 40.6891V38.7091H92.0368V49.0491H94.0168V43.1691C94.1968 41.3691 95.7168 40.1891 97.8568 40.1891V38.4691C96.0768 38.4691 94.6768 39.3291 94.0168 40.6891ZM108.266 35.0691V40.4891C107.466 39.2291 106.186 38.4691 104.586 38.4691C101.866 38.4691 99.826 40.7091 99.826 43.8691C99.826 47.0491 101.866 49.2891 104.586 49.2891C106.186 49.2891 107.466 48.5291 108.266 47.2491V49.0491H110.226V35.0691H108.266ZM105.066 47.5691C103.166 47.5691 101.826 46.0291 101.826 43.8691C101.826 41.7091 103.166 40.1891 105.066 40.1891C106.926 40.1891 108.266 41.7091 108.266 43.8691C108.266 46.0291 106.926 47.5691 105.066 47.5691ZM118.614 49.2891C121.554 49.2891 124.034 46.8091 124.034 43.8691C124.034 40.9291 121.554 38.4691 118.614 38.4691C115.654 38.4691 113.154 40.9291 113.154 43.8691C113.154 46.8091 115.654 49.2891 118.614 49.2891ZM118.614 47.5691C116.714 47.5691 115.134 45.8891 115.134 43.8691C115.134 41.8691 116.714 40.1891 118.614 40.1891C120.474 40.1891 122.054 41.8691 122.054 43.8691C122.054 45.8891 120.474 47.5691 118.614 47.5691ZM138.429 38.4691C136.869 38.4691 135.549 39.2691 135.069 40.5491C134.469 39.2691 133.249 38.4691 131.749 38.4691C130.429 38.4691 129.349 39.1291 128.829 40.1491V38.7091H126.849V49.0491H128.829V42.5891C128.829 41.1691 129.869 40.1891 131.349 40.1891C132.649 40.1891 133.549 41.2491 133.549 42.7691V49.0491H135.489V42.5891C135.489 41.1691 136.529 40.1891 138.009 40.1891C139.309 40.1891 140.209 41.2491 140.209 42.7691V49.0491H142.149V42.4691C142.149 40.1291 140.589 38.4691 138.429 38.4691ZM149.851 38.4691C148.711 38.4691 147.411 38.7691 145.931 39.5091L146.651 40.9691C147.551 40.5091 148.551 40.1091 149.571 40.1091C151.631 40.1091 152.231 41.4891 152.231 42.7891V43.1091C151.231 42.7691 150.131 42.5491 149.111 42.5491C146.831 42.5491 144.971 43.9291 144.971 45.9891C144.971 48.0091 146.591 49.2891 148.791 49.2891C150.051 49.2891 151.471 48.7091 152.231 47.6291V49.0491H154.171V42.7891C154.171 40.2291 152.631 38.4691 149.851 38.4691ZM149.171 47.7291C147.871 47.7291 146.871 47.0491 146.871 45.9291C146.871 44.8091 148.031 44.0291 149.411 44.0291C150.431 44.0291 151.391 44.1691 152.231 44.4291V45.8091C151.891 47.0891 150.451 47.7291 149.171 47.7291ZM158.532 36.9891C159.172 36.9891 159.712 36.4291 159.712 35.7891C159.712 35.1691 159.172 34.6091 158.532 34.6091C157.852 34.6091 157.332 35.1691 157.332 35.7891C157.332 36.4291 157.852 36.9891 158.532 36.9891ZM157.532 49.0491H159.512V38.7091H157.532V49.0491ZM168.154 38.4691C166.754 38.4691 165.494 39.1891 164.874 40.2091V38.7091H162.894V49.0491H164.874V42.3491C165.034 41.1291 166.274 40.1891 167.714 40.1891C169.114 40.1891 170.094 41.2691 170.094 42.8091V49.0491H172.034V42.4691C172.034 40.1291 170.434 38.4691 168.154 38.4691Z" fill="#333333"/>
<path d="M11.3716 48.2648C11.7796 48.2648 12.0916 47.9768 12.0916 47.6408C12.0916 46.6808 11.7796 45.6728 11.6596 44.7128C12.4276 45.2888 13.1476 46.0568 13.9636 46.5368C14.2516 46.7288 14.6596 46.5848 14.8756 46.2488C15.0676 45.9128 14.9476 45.5048 14.6596 45.3368C13.8436 44.8568 12.8356 44.6168 11.9236 44.2328C12.8116 43.8488 13.8436 43.6088 14.6596 43.1288C14.9476 42.9608 15.0676 42.5768 14.8756 42.2168C14.6596 41.8808 14.2516 41.7608 13.9636 41.9288C13.1476 42.4088 12.4276 43.1768 11.6596 43.7528C11.7796 42.7928 12.0916 41.7848 12.0916 40.8248C12.0916 40.4888 11.7796 40.2008 11.3716 40.2008C10.9876 40.2008 10.6756 40.4888 10.6756 40.8248C10.6756 41.7848 10.9876 42.7928 11.1076 43.7528C10.3156 43.1768 9.61961 42.4088 8.80361 41.9288C8.51561 41.7368 8.08361 41.8808 7.89161 42.2168C7.69961 42.5528 7.79561 42.9608 8.08361 43.1288C8.89961 43.6088 9.93161 43.8488 10.8196 44.2328C9.93161 44.6168 8.89961 44.8568 8.08361 45.3368C7.79561 45.5048 7.69961 45.8888 7.89161 46.2488C8.08361 46.5848 8.51561 46.7048 8.80361 46.5368C9.61961 46.0568 10.3156 45.2888 11.1076 44.7128C10.9876 45.6728 10.6756 46.6808 10.6756 47.6408C10.6756 47.9768 10.9876 48.2648 11.3716 48.2648ZM21.6158 48.2648C22.0238 48.2648 22.3358 47.9768 22.3358 47.6408C22.3358 46.6808 22.0238 45.6728 21.9038 44.7128C22.6718 45.2888 23.3918 46.0568 24.2078 46.5368C24.4958 46.7288 24.9038 46.5848 25.1198 46.2488C25.3118 45.9128 25.1918 45.5048 24.9038 45.3368C24.0878 44.8568 23.0798 44.6168 22.1678 44.2328C23.0558 43.8488 24.0878 43.6088 24.9038 43.1288C25.1918 42.9608 25.3118 42.5768 25.1198 42.2168C24.9038 41.8808 24.4958 41.7608 24.2078 41.9288C23.3918 42.4088 22.6718 43.1768 21.9038 43.7528C22.0238 42.7928 22.3358 41.7848 22.3358 40.8248C22.3358 40.4888 22.0238 40.2008 21.6158 40.2008C21.2318 40.2008 20.9198 40.4888 20.9198 40.8248C20.9198 41.7848 21.2318 42.7928 21.3518 43.7528C20.5598 43.1768 19.8638 42.4088 19.0478 41.9288C18.7598 41.7368 18.3278 41.8808 18.1358 42.2168C17.9438 42.5528 18.0398 42.9608 18.3278 43.1288C19.1438 43.6088 20.1758 43.8488 21.0638 44.2328C20.1758 44.6168 19.1438 44.8568 18.3278 45.3368C18.0398 45.5048 17.9438 45.8888 18.1358 46.2488C18.3278 46.5848 18.7598 46.7048 19.0478 46.5368C19.8638 46.0568 20.5598 45.2888 21.3518 44.7128C21.2318 45.6728 20.9198 46.6808 20.9198 47.6408C20.9198 47.9768 21.2318 48.2648 21.6158 48.2648ZM31.86 48.2648C32.268 48.2648 32.58 47.9768 32.58 47.6408C32.58 46.6808 32.268 45.6728 32.148 44.7128C32.916 45.2888 33.636 46.0568 34.452 46.5368C34.74 46.7288 35.148 46.5848 35.364 46.2488C35.556 45.9128 35.436 45.5048 35.148 45.3368C34.332 44.8568 33.324 44.6168 32.412 44.2328C33.3 43.8488 34.332 43.6088 35.148 43.1288C35.436 42.9608 35.556 42.5768 35.364 42.2168C35.148 41.8808 34.74 41.7608 34.452 41.9288C33.636 42.4088 32.916 43.1768 32.148 43.7528C32.268 42.7928 32.58 41.7848 32.58 40.8248C32.58 40.4888 32.268 40.2008 31.86 40.2008C31.476 40.2008 31.164 40.4888 31.164 40.8248C31.164 41.7848 31.476 42.7928 31.596 43.7528C30.804 43.1768 30.108 42.4088 29.292 41.9288C29.004 41.7368 28.572 41.8808 28.38 42.2168C28.188 42.5528 28.284 42.9608 28.572 43.1288C29.388 43.6088 30.42 43.8488 31.308 44.2328C30.42 44.6168 29.388 44.8568 28.572 45.3368C28.284 45.5048 28.188 45.8888 28.38 46.2488C28.572 46.5848 29.004 46.7048 29.292 46.5368C30.108 46.0568 30.804 45.2888 31.596 44.7128C31.476 45.6728 31.164 46.6808 31.164 47.6408C31.164 47.9768 31.476 48.2648 31.86 48.2648Z" fill="#999999"/>
<path fill-rule="evenodd" clip-rule="evenodd" d="M110.479 83.788C110.419 84.4126 109.898 84.9011 109.263 84.9011C108.588 84.9011 108.041 84.3496 108.041 83.6694V71.1215L108.047 71.0029C108.106 70.3783 108.628 69.8898 109.263 69.8898C109.937 69.8898 110.484 70.4412 110.484 71.1215V83.6694L110.479 83.788ZM124.086 65.9259C124.658 65.5655 125.411 65.7409 125.769 66.3178L132.363 76.959L132.42 77.0626C132.698 77.6239 132.513 78.3169 131.974 78.6562C131.402 79.0167 130.649 78.8412 130.291 78.2644L123.697 67.6231L123.64 67.5196C123.362 66.9583 123.547 66.2652 124.086 65.9259ZM93.2301 66.3178C93.5876 65.7409 94.3411 65.5655 94.9132 65.9259C95.4516 66.2652 95.6373 66.9583 95.3593 67.5196L95.3017 67.6231L88.7079 78.2644C88.3504 78.8412 87.5969 79.0167 87.0249 78.6562C86.4865 78.3169 86.3007 77.6239 86.5787 77.0626L86.6363 76.959L93.2301 66.3178ZM110.479 13.8982C110.419 14.5228 109.898 15.0113 109.263 15.0113C108.588 15.0113 108.041 14.4598 108.041 13.7796V1.23169L108.047 1.11308C108.106 0.488487 108.628 1.52588e-05 109.263 1.52588e-05C109.937 1.52588e-05 110.484 0.551453 110.484 1.23169V13.7796L110.479 13.8982ZM125.769 17.6058C125.411 18.1827 124.658 18.3581 124.086 17.9977C123.547 17.6584 123.362 16.9653 123.64 16.404L123.697 16.3004L130.291 5.65922C130.649 5.08235 131.402 4.90692 131.974 5.26739C132.513 5.60666 132.698 6.29971 132.42 6.86102L132.363 6.9646L125.769 17.6058ZM94.9132 17.9977C94.3411 18.3581 93.5876 18.1827 93.2301 17.6058L86.6363 6.9646L86.5787 6.86102C86.3007 6.29971 86.4865 5.60666 87.0249 5.26739C87.5969 4.90692 88.3504 5.08235 88.7079 5.65922L95.3017 16.3004L95.3593 16.404C95.6373 16.9653 95.4516 17.6584 94.9132 17.9977Z" fill="url(#paint0_linear)"/>
<path fill-rule="evenodd" clip-rule="evenodd" d="M85.35 27.4711C85.7127 26.9025 85.5362 26.1536 84.9558 25.7983L74.2497 19.2444L74.1454 19.1872C73.5807 18.9109 72.8834 19.0955 72.5421 19.6306C72.1794 20.1992 72.3559 20.9482 72.9363 21.3035L83.6424 27.8573L83.7466 27.9146C84.3114 28.1909 85.0087 28.0063 85.35 27.4711ZM85.35 56.4679C85.7127 57.0365 85.5362 57.7855 84.9558 58.1408L74.2497 64.6946L74.1454 64.7518C73.5807 65.0282 72.8834 64.8435 72.5421 64.3084C72.1794 63.7398 72.3559 62.9909 72.9363 62.6356L83.6424 56.0817L83.7466 56.0245C84.3114 55.7481 85.0087 55.9328 85.35 56.4679ZM133.964 58.1408C133.384 57.7855 133.207 57.0365 133.57 56.4679C133.911 55.9328 134.608 55.7481 135.173 56.0245L135.277 56.0817L145.984 62.6356C146.564 62.9909 146.74 63.7398 146.378 64.3084C146.036 64.8435 145.339 65.0282 144.774 64.7518L144.67 64.6946L133.964 58.1408ZM133.57 27.4711C133.207 26.9025 133.384 26.1536 133.964 25.7983L144.67 19.2444L144.774 19.1872C145.339 18.9109 146.036 19.0955 146.378 19.6306C146.74 20.1992 146.564 20.9482 145.984 21.3035L135.277 27.8573L135.173 27.9146C134.608 28.1909 133.911 28.0063 133.57 27.4711Z" fill="url(#paint1_linear)"/>
<defs>
<linearGradient id="paint0_linear" x1="151.392" y1="53.0498" x2="83.2227" y2="81.5561" gradientUnits="userSpaceOnUse">
<stop stop-color="#FF9100"/>
<stop offset="0.518515" stop-color="#F10366"/>
<stop offset="1" stop-color="#6173FF"/>
</linearGradient>
<linearGradient id="paint1_linear" x1="98.8328" y1="83.6094" x2="69.7472" y2="16.6342" gradientUnits="userSpaceOnUse">
<stop stop-color="#FF9100"/>
<stop offset="0.518515" stop-color="#F10366"/>
<stop offset="1" stop-color="#6173FF"/>
</linearGradient>
</defs>
</svg>
