<svg width="252" height="109" viewBox="0 0 252 109" fill="none" xmlns="http://www.w3.org/2000/svg">
<path d="M38.5822 36.0654H0.144374C0.123388 36.0654 0.102643 36.061 0.0835379 36.0523C0.0644333 36.0436 0.0474091 36.0309 0.0336103 36.0151C0.0206159 35.9984 0.0110752 35.9793 0.00554294 35.9589C1.06428e-05 35.9385 -0.00139696 35.9172 0.00139459 35.8962L5.55148 1.12092C5.55725 1.08676 5.57503 1.0558 5.60162 1.03363C5.62822 1.01145 5.66187 0.99953 5.69648 1.00001H33.0301C33.0647 0.99953 33.0983 1.01145 33.1249 1.03363C33.1515 1.0558 33.1693 1.08676 33.175 1.12092L38.7272 35.8962C38.7299 35.9172 38.7285 35.9385 38.723 35.9589C38.7175 35.9793 38.7079 35.9984 38.6949 36.0151C38.6809 36.0312 38.6636 36.044 38.6441 36.0527C38.6246 36.0614 38.6035 36.0657 38.5822 36.0654ZM0.319575 35.7733H38.411L32.9072 1.29018H5.81932L0.319575 35.7733Z" fill="#CCCCCC"/>
<path d="M21.8295 104H17.1615C17.1187 104 17.0776 103.983 17.0473 103.954C17.017 103.924 17 103.884 17 103.843V36.1572C17 36.1155 17.017 36.0755 17.0473 36.046C17.0776 36.0166 17.1187 36 17.1615 36H21.8362C21.8793 36 21.9206 36.0165 21.9513 36.0459C21.9819 36.0753 21.9994 36.1153 22 36.1572V103.843C21.9997 103.864 21.995 103.885 21.9863 103.905C21.9775 103.924 21.9648 103.942 21.9489 103.956C21.933 103.971 21.9142 103.982 21.8937 103.99C21.8732 103.997 21.8514 104.001 21.8295 104ZM17.3163 103.686H21.668V36.3165H17.3163V103.686Z" fill="#CCCCCC"/>
<path d="M9.77491 51.0753C9.73645 51.0753 9.69957 51.06 9.67238 51.0328C9.64519 51.0056 9.62991 50.9687 9.62991 50.9302V36.0755C9.62991 36.037 9.64519 36.0001 9.67238 35.9729C9.69957 35.9457 9.73645 35.9304 9.77491 35.9304C9.81336 35.9304 9.85024 35.9457 9.87743 35.9729C9.90462 36.0001 9.9199 36.037 9.9199 36.0755V50.9302C9.9199 50.9687 9.90462 51.0056 9.87743 51.0328C9.85024 51.06 9.81336 51.0753 9.77491 51.0753Z" fill="#CCCCCC"/>
<path d="M9.82231 53.5036C9.55338 53.5036 9.29049 53.4238 9.0669 53.2742C8.84332 53.1247 8.66909 52.9122 8.56626 52.6635C8.46344 52.4149 8.43664 52.1413 8.48925 51.8774C8.54186 51.6135 8.67153 51.3711 8.86183 51.181C9.05214 50.9909 9.29454 50.8615 9.55835 50.8092C9.82217 50.757 10.0956 50.7842 10.3439 50.8874C10.5923 50.9907 10.8044 51.1653 10.9535 51.3893C11.1027 51.6132 11.182 51.8764 11.1816 52.1455C11.1816 52.324 11.1465 52.5008 11.0781 52.6657C11.0098 52.8306 10.9096 52.9804 10.7834 53.1065C10.6571 53.2327 10.5073 53.3327 10.3424 53.4008C10.1774 53.4689 10.0007 53.5039 9.82231 53.5036ZM9.82231 51.0856C9.61122 51.0856 9.40486 51.1482 9.22934 51.2656C9.05382 51.3829 8.91701 51.5497 8.83623 51.7449C8.75545 51.94 8.73431 52.1547 8.7755 52.3619C8.81668 52.5691 8.91833 52.7593 9.0676 52.9087C9.21686 53.0581 9.40705 53.1598 9.61409 53.201C9.82113 53.2422 10.0357 53.221 10.2308 53.1402C10.4258 53.0594 10.5925 52.9225 10.7098 52.7469C10.827 52.5713 10.8896 52.3648 10.8896 52.1536C10.8907 52.0126 10.8639 51.8729 10.8107 51.7424C10.7576 51.6119 10.6791 51.4932 10.5799 51.3932C10.4807 51.2931 10.3627 51.2138 10.2326 51.1596C10.1026 51.1054 9.96316 51.0775 9.82231 51.0775V51.0856Z" fill="#999999"/>
<path d="M21.6119 35.9788H17.3427V37.8245H21.6119V35.9788Z" fill="#ECECEC"/>
<path d="M226.434 27.9308H204.143C204.105 27.9308 204.069 27.9157 204.042 27.8889C204.015 27.8621 204 27.8257 204 27.7877V1.14306C204 1.10512 204.015 1.06873 204.042 1.0419C204.069 1.01507 204.105 1 204.143 1H226.434C226.472 1 226.508 1.01507 226.535 1.0419C226.562 1.06873 226.577 1.10512 226.577 1.14306V27.7897C226.576 27.8273 226.561 27.8632 226.534 27.8896C226.508 27.916 226.472 27.9308 226.434 27.9308ZM204.282 27.6447H226.295V1.28412H204.28L204.282 27.6447Z" fill="#CCCCCC"/>
<path d="M221.168 7.03101H209.401V21.9039H221.168V7.03101Z" fill="#ECECEC"/>
<path d="M134.64 30.6765H186.24C187.87 30.6765 189.433 31.3244 190.586 32.4778C191.739 33.6311 192.386 35.1953 192.386 36.8264V76.6815H128.494V36.8284C128.494 36.0206 128.652 35.2207 128.961 34.4743C129.27 33.728 129.722 33.0498 130.293 32.4785C130.864 31.9072 131.542 31.454 132.287 31.1448C133.033 30.8357 133.833 30.6765 134.64 30.6765Z" fill="#CADBE5"/>
<path d="M70.848 30.6765H122.448C124.078 30.6765 125.641 31.3244 126.794 32.4778C127.947 33.6311 128.594 35.1953 128.594 36.8264V76.6815H64.7018V36.8284C64.7015 36.0206 64.8603 35.2207 65.1691 34.4743C65.4778 33.728 65.9305 33.0498 66.5013 32.4785C67.072 31.9072 67.7497 31.454 68.4955 31.1448C69.2413 30.8357 70.0407 30.6765 70.848 30.6765Z" fill="#CADBE5"/>
<path d="M79.1039 73.3285H59.2859V59.6787C59.2875 58.2613 59.8512 56.9023 60.8533 55.9004C61.8554 54.8985 63.2139 54.3354 64.6306 54.3349H73.7572C75.1752 54.3349 76.5352 54.8985 77.5379 55.9018C78.5406 56.9051 79.1039 58.2659 79.1039 59.6848V73.3285Z" fill="#B2C7D1"/>
<path d="M69.3101 73.1957C75.8786 72.0368 80.2646 65.7693 79.1063 59.1968C77.9481 52.6243 71.6844 48.2358 65.1158 49.3947C58.5473 50.5536 54.1613 56.8211 55.3195 63.3935C56.4778 69.966 62.7415 74.3546 69.3101 73.1957Z" fill="#B2C7D1"/>
<path d="M59.2055 71.9885H197.619V81.4934C197.619 83.6567 196.761 85.7314 195.232 87.2611C193.703 88.7908 191.629 89.6502 189.467 89.6502H67.3574C65.1954 89.6502 63.1219 88.7908 61.5932 87.2611C60.0644 85.7314 59.2055 83.6567 59.2055 81.4934V71.9885Z" fill="#B2C7D1"/>
<path d="M183.273 54.329H192.398C193.816 54.329 195.176 54.8926 196.178 55.8959C197.181 56.8992 197.744 58.26 197.744 59.6789V73.3286H177.926V59.6789C177.926 58.26 178.49 56.8992 179.492 55.8959C180.495 54.8926 181.855 54.329 183.273 54.329Z" fill="#B2C7D1"/>
<path d="M201.621 63.8425C203.031 57.3194 198.889 50.888 192.369 49.4777C185.85 48.0673 179.423 52.2121 178.013 58.7352C176.604 65.2583 180.746 71.6897 187.265 73.1001C193.784 74.5104 200.212 70.3657 201.621 63.8425Z" fill="#B2C7D1"/>
<path d="M183.46 95.8262H72.5997C70.8749 95.8262 69.2207 95.1408 68.0009 93.9206C66.7811 92.7005 66.0956 91.0455 66.095 89.3197H189.963C189.963 91.0453 189.278 92.7003 188.058 93.9205C186.839 95.1407 185.185 95.8262 183.46 95.8262Z" fill="#292960"/>
<path d="M71.3696 107.6H70.1512C68.079 107.6 67.2393 105.92 68.2744 103.844L72.2819 95.8263H81.0057L76.9982 103.844C75.9631 105.92 73.4418 107.6 71.3696 107.6Z" fill="#292960"/>
<path d="M184.302 107.6H185.51C187.582 107.6 188.422 105.92 187.387 103.844L183.38 95.8263H174.666L178.673 103.844C179.708 105.92 182.23 107.6 184.302 107.6Z" fill="#292960"/>
<path d="M99.0349 65.6897C98.3643 65.6897 94.1716 66.397 94.1716 66.397C94.1716 66.397 94.0326 69.8427 94.9771 70.7938L98.896 70.4129L99.0349 65.6897Z" fill="#E29C40"/>
<path d="M94.4781 69.0366C94.1901 67.473 95.8878 65.7642 96.9148 64.9099C97.1332 64.7259 97.2989 64.4871 97.3948 64.218C97.4907 63.949 97.5134 63.6592 97.4606 63.3784C97.3639 62.8445 95.9965 62.3991 95.6481 61.9861L93.8357 58.8023C93.2049 57.6554 92.1902 56.7678 90.97 56.2956C90.066 55.9584 89.0876 55.872 88.1386 56.0458L86.9585 56.2634L89.8745 72.1418L95.199 71.1625C95.2282 71.1583 95.2558 71.1466 95.2791 71.1285C95.3023 71.1104 95.3204 71.0865 95.3316 71.0592C95.3428 71.0319 95.3467 71.0022 95.3429 70.9729C95.339 70.9437 95.3276 70.916 95.3098 70.8925C94.8859 70.3507 94.6004 69.7137 94.4781 69.0366Z" fill="#405C9B"/>
<path d="M90.3746 72.0322L87.1069 56.2018L86.2194 56.3852L89.4871 72.2156L90.3746 72.0322Z" fill="#3D3D7F"/>
<path d="M166.5 63.2191C166.231 60.9839 165.085 58.9473 163.316 57.557C161.546 56.1668 159.297 55.5369 157.063 55.8058L129.369 59.1447C129.193 59.1257 129.016 59.1156 128.839 59.1145H128.638H128.6H128.543L128.433 59.1266L128.209 59.1528C128.132 59.1528 128.054 59.1709 128.008 59.179L127.403 59.2797L126.308 59.4913L124.199 59.9245L120.041 60.8272L111.784 62.6569L96.6706 66.0824L96.3886 70.717L112.803 69.2057L121.201 68.4702L125.382 68.1317L127.446 67.9826L128.441 67.9242H128.6C128.976 67.9583 129.355 67.9427 129.727 67.8778L156.61 72.595C157.43 72.7355 158.266 72.7579 159.093 72.6615C160.199 72.5284 161.268 72.1786 162.239 71.632C163.21 71.0854 164.064 70.3527 164.752 69.4758C165.439 68.599 165.948 67.5951 166.248 66.5215C166.548 65.4479 166.633 64.3258 166.5 63.2191Z" fill="#292960"/>
<path d="M99.1602 65.0792L96.4033 65.6958L96.3067 71.1827L98.9266 71.6583L99.1602 65.0792Z" fill="#3D3D7F"/>
<path d="M159.194 34.9707C159.342 34.7673 159.467 34.5476 159.565 34.3158C159.591 34.2573 159.613 34.1989 159.635 34.1405L159.649 34.1002C159.649 34.1002 159.637 34.1002 159.629 34.1123L159.526 34.34L159.303 34.9001L158.85 36.0971L157.949 38.5514L156.173 43.5083L152.659 53.4605C152.489 53.9426 152.146 54.3441 151.696 54.5868C151.246 54.8295 150.722 54.8959 150.227 54.7731C149.731 54.6504 149.298 54.3472 149.013 53.9228C148.728 53.4984 148.612 52.983 148.686 52.4772L150.216 41.9991L151.01 36.76L151.429 34.1243L151.656 32.7803L151.787 32.0751L151.874 31.6721L151.956 31.3718L151.978 31.2973V31.2771L151.997 31.2247C152.025 31.1542 152.053 31.0837 152.083 31.0232C152.204 30.7418 152.35 30.472 152.52 30.2172C153.15 29.3314 154.105 28.7322 155.177 28.5514C156.248 28.3706 157.347 28.6229 158.232 29.253C159.118 29.8831 159.717 30.8393 159.897 31.9111C160.078 32.983 159.826 34.0828 159.196 34.9686L159.194 34.9707Z" fill="#EBBB7B"/>
<path d="M110.216 58.6108C109.442 59.04 105.02 62.4978 105.02 62.4978C105.02 62.4978 107.034 66.5843 108.721 67.0921L113.021 64.1864L110.216 58.6108Z" fill="#F2CA95"/>
<path d="M133.338 15.8569L131.644 16.1181C131.533 16.1352 131.457 16.2391 131.474 16.3502L133.358 28.5841C133.375 28.6952 133.479 28.7713 133.59 28.7542L135.284 28.4931C135.395 28.476 135.471 28.372 135.454 28.2609L133.57 16.027C133.553 15.916 133.449 15.8398 133.338 15.8569Z" fill="#333966"/>
<path d="M183.803 28.3068C183.77 25.8609 183.003 23.4813 181.603 21.4762C180.203 19.4711 178.233 17.9329 175.949 17.061C175.991 16.708 176.01 16.3526 176.005 15.9971C175.987 14.7257 175.666 13.4771 175.068 12.3554C174.47 11.2337 173.612 10.2713 172.566 9.54869C171.521 8.82605 170.318 8.36406 169.058 8.20126C167.797 8.03845 166.517 8.17956 165.322 8.61281C164.127 9.04606 163.054 9.75889 162.19 10.6918C161.327 11.6248 160.699 12.7507 160.359 13.9758C160.019 15.2009 159.977 16.4896 160.236 17.7343C160.495 18.9791 161.048 20.1438 161.848 21.1313C160.679 22.6849 159.898 24.4956 159.569 26.4125C159.241 28.3294 159.375 30.2971 159.961 32.1515C158.774 33.283 157.886 34.6904 157.373 36.2485C156.861 37.8066 156.742 39.4672 157.026 41.0826C157.309 42.698 157.988 44.2183 159 45.5082C160.013 46.7982 161.328 47.8179 162.829 48.4767C164.33 49.1355 165.971 49.4131 167.605 49.2846C169.239 49.1562 170.816 48.6258 172.196 47.7406C173.576 46.8553 174.716 45.6426 175.515 44.2103C176.314 42.778 176.746 41.1705 176.774 39.5305C178.901 38.5344 180.695 36.9457 181.942 34.955C183.188 32.9642 183.834 30.6559 183.803 28.3068Z" fill="#B10FC1"/>
<path d="M176.133 30.551C177.862 25.3303 175.034 19.6959 169.816 17.9663C164.598 16.2367 158.967 19.0668 157.239 24.2875C155.51 29.5082 158.339 35.1426 163.556 36.8722C168.774 38.6019 174.405 35.7718 176.133 30.551Z" fill="#B10FC1"/>
<path d="M155.235 3.47734L159.764 3.41565C161.165 3.39656 162.517 3.93526 163.521 4.91326C164.526 5.89125 165.101 7.22842 165.12 8.6306L165.298 21.727L155.486 21.8607C154.084 21.8798 152.733 21.3411 151.728 20.3631C150.724 19.3851 150.149 18.0479 150.13 16.6458L150.024 8.83625C150.005 7.43407 150.543 6.08173 151.52 5.07674C152.498 4.07175 153.834 3.49643 155.235 3.47734Z" fill="#F2CA95"/>
<path d="M162.879 20.9771L156.526 21.5377L156.869 25.4358L163.222 24.8751L162.879 20.9771Z" fill="#F2CA95"/>
<path d="M154.616 2.23852C151.515 2.28084 149.01 3.88883 148.925 8.86392L160.487 8.70675C160.267 3.73568 157.72 2.19016 154.616 2.23852Z" fill="#B10FC1"/>
<path d="M162.163 3.8889H162.109C161.283 3.40543 160.341 3.1567 159.384 3.16954L154.855 3.23201C153.905 3.24296 152.976 3.51005 152.166 4.00512C151.355 4.50019 150.693 5.20491 150.249 6.04498C151.309 6.10543 152.339 6.20349 153.34 6.33917C154.209 6.46316 155.008 6.88599 155.598 7.53501C156.189 8.18404 156.536 9.01874 156.579 9.89569V9.9642C156.659 11.0672 157.06 12.1226 157.733 13.0001C158.406 13.8777 159.321 14.5389 160.364 14.9023C161.408 15.2657 162.536 15.3154 163.608 15.0452C164.679 14.775 165.649 14.1967 166.396 13.3818C167.143 12.5668 167.636 11.5508 167.812 10.4591C167.989 9.36738 167.843 8.24774 167.391 7.2383C166.94 6.22887 166.203 5.3738 165.271 4.77861C164.339 4.18341 163.254 3.87412 162.149 3.8889H162.163Z" fill="#B10FC1"/>
<path d="M168.377 26.2173L162.345 24.962L162.279 12.5756L168.191 12.495L168.377 26.2173Z" fill="#B10FC1"/>
<path d="M160.655 16.9959C161.986 16.9266 163.008 15.7911 162.939 14.4597C162.87 13.1283 161.735 12.1051 160.404 12.1744C159.074 12.2437 158.051 13.3792 158.121 14.7107C158.19 16.0421 159.325 17.0652 160.655 16.9959Z" fill="#F2CA95"/>
<path d="M164.95 51.937L155.267 52.4367L151.181 37.0601C150.835 35.9853 150.738 34.8455 150.9 33.7279C151.062 32.6102 151.477 31.5444 152.114 30.612L156.921 25.0385L162.009 24.5891L164.519 27.4222C165.432 28.8999 166.092 30.5192 166.474 32.214C167.119 35.0162 167.098 37.9309 166.412 40.7234L164.95 51.937Z" fill="#F2CA95"/>
<path d="M152.538 70.4995L129.949 51.5582C129.085 50.8344 128.509 49.8254 128.323 48.7135C128.138 47.6016 128.356 46.4599 128.938 45.4947C129.52 44.5294 130.428 43.8042 131.497 43.4499C132.567 43.0956 133.728 43.1356 134.77 43.5626L162.033 54.7319C164.297 55.6802 166.095 57.4853 167.035 59.754C167.974 62.0227 167.98 64.5711 167.05 66.8439C166.12 69.1166 164.33 70.9295 162.07 71.8875C159.81 72.8455 157.264 72.871 154.985 71.9583C154.101 71.5968 153.277 71.1051 152.538 70.4995Z" fill="#333372"/>
<path d="M167.783 62.248L151.112 57.9741L155.011 49.3982L165.022 50.1861L167.783 62.248Z" fill="#333372"/>
<path d="M140.142 45.3783C140.148 45.433 140.163 45.4862 140.188 45.5354C140.188 45.5354 140.188 45.5516 140.198 45.5516V45.5274L140.186 45.479L140.158 45.3823C140.12 45.2493 140.089 45.1304 140.045 44.9793L139.783 44.131L139.24 42.4101L138.122 38.9544L135.85 32.0428C135.748 31.7423 135.763 31.4143 135.892 31.1245C136.022 30.8346 136.255 30.6042 136.547 30.4795C136.839 30.3547 137.167 30.3447 137.465 30.4515C137.764 30.5583 138.012 30.774 138.158 31.0555L141.582 37.4874L143.285 40.7115L144.131 42.3416L144.554 43.1738C144.624 43.3068 144.699 43.47 144.771 43.6212L144.826 43.734L144.854 43.7924L144.866 43.8206L144.894 43.8892C144.967 44.0907 145.029 44.2801 145.084 44.4775C145.153 44.8062 145.155 45.1454 145.091 45.4751C145.027 45.8047 144.897 46.1181 144.71 46.3968C144.523 46.6755 144.281 46.9138 144 47.0976C143.72 47.2814 143.405 47.407 143.074 47.467C142.744 47.5269 142.405 47.52 142.078 47.4467C141.75 47.3733 141.441 47.235 141.167 47.0399C140.894 46.8448 140.663 46.5969 140.487 46.3108C140.311 46.0247 140.194 45.7062 140.144 45.3742L140.142 45.3783Z" fill="#F2CA95"/>
<path d="M138.947 33.395L135.703 32.0228L133.736 30.6546C133.605 30.5982 133.492 30.5083 133.407 30.394C133.323 30.2797 133.27 30.145 133.254 30.0037L132.326 22.9511C132.319 22.9027 132.327 22.8535 132.346 22.8089C132.366 22.7643 132.398 22.7261 132.438 22.6986C132.479 22.671 132.526 22.6551 132.575 22.6528C132.623 22.6504 132.672 22.6616 132.715 22.6851L133.117 22.9068C133.165 22.9331 133.203 22.9741 133.226 23.0237L134.742 26.1691L137.421 27.0174L138.947 33.395Z" fill="#F2CA95"/>
<path d="M156.517 21.7821C156.517 21.7821 158.271 21.3609 159.337 20.5388C158.642 21.7502 157.748 22.836 156.693 23.7508L156.517 21.7821Z" fill="#7C481A"/>
<path d="M164.748 27.4282L162.301 24.849C162.301 24.849 160.944 27.9078 154.139 28.2745L152.114 30.622C151.477 31.5544 151.062 32.6202 150.9 33.7379C150.738 34.8555 150.835 35.9954 151.181 37.0701L153.813 51.3566L167.419 60.0011C167.419 60.0011 170.055 33.2214 164.748 27.4282Z" fill="#E31587"/>
<path d="M161.758 39.0269C162.008 38.9937 162.253 38.9322 162.489 38.8436L162.662 38.773L162.703 38.7549C162.703 38.7549 162.703 38.7549 162.68 38.7549L162.445 38.8395L161.877 39.0652L160.699 39.5629L158.304 40.5946L153.491 42.7285L143.869 47.0528H143.859C143.393 47.2617 142.867 47.2899 142.381 47.1317C141.896 46.9735 141.487 46.6403 141.233 46.197C140.98 45.7536 140.9 45.2318 141.01 44.733C141.12 44.2342 141.411 43.7941 141.827 43.4983L150.45 37.3847L154.79 34.342L156.985 32.8247L158.115 32.061L158.719 31.6701L159.07 31.4565L159.343 31.3094L159.412 31.2731L159.43 31.2631L159.48 31.2409L159.692 31.1562C159.979 31.0493 160.276 30.9697 160.578 30.9185C161.647 30.7773 162.728 31.0632 163.587 31.7142C164.446 32.3652 165.014 33.3289 165.168 34.3963C165.322 35.4638 165.05 36.5489 164.409 37.4164C163.769 38.284 162.813 38.8641 161.748 39.031L161.758 39.0269Z" fill="#F2CA95"/>
<path d="M162.912 39.176L162.956 39.1559C162.956 39.1559 162.944 39.1559 162.93 39.1559L162.668 39.2486L162.332 39.3856H162.344C162.473 39.3537 162.601 39.3147 162.726 39.2687L162.912 39.176Z" fill="#DB681C"/>
<path d="M161.905 39.4682C162.04 39.4497 162.175 39.4234 162.308 39.3896H162.32C162.187 39.4078 162.048 39.436 161.905 39.4682Z" fill="#DB681C"/>
<path d="M162.332 39.3755L162.668 39.2384L162.93 39.1458C162.944 39.1458 162.948 39.1458 162.956 39.1458L162.912 39.1659L162.711 39.2445C162.585 39.2904 162.458 39.3294 162.328 39.3614C163.461 39.079 164.442 38.3726 165.069 37.3877C165.697 36.4028 165.923 35.2145 165.7 34.0679C165.478 32.9214 164.824 31.9039 163.874 31.2253C162.924 30.5466 161.75 30.2587 160.594 30.4207C160.258 30.4785 159.929 30.5676 159.609 30.6867C159.529 30.7149 159.45 30.7471 159.374 30.7794L159.319 30.8036H159.309H159.289L159.213 30.8439L158.907 31.0071L158.518 31.2448L157.849 31.6801L156.593 32.5284L154.15 34.217L153.834 34.4387L157.759 41.3079L158.053 41.1769L160.721 40.0444L162.032 39.4903L162.306 39.3795C162.173 39.4133 162.039 39.4395 161.903 39.4581C162.048 39.4359 162.187 39.4077 162.332 39.3755Z" fill="#E31587"/>
<path d="M137.449 27.0918L135.234 24.2325C135.207 24.1995 135.174 24.1731 135.135 24.1557C135.097 24.1382 135.055 24.1302 135.013 24.1321C134.971 24.1341 134.93 24.146 134.893 24.167C134.857 24.1879 134.826 24.2173 134.803 24.2526L134.724 24.3735C134.702 24.4081 134.688 24.4474 134.683 24.4883C134.679 24.5292 134.684 24.5707 134.698 24.6093L135.344 26.3523L137.449 27.0918Z" fill="#F2CA95"/>
<path d="M167.087 7.72102C167.507 5.7339 164.389 3.39199 160.123 2.4902C155.858 1.58841 152.059 2.46824 151.64 4.45536C151.22 6.44247 154.338 8.78439 158.604 9.68617C162.869 10.588 166.668 9.70813 167.087 7.72102Z" fill="#B10FC1"/>
<path d="M137.868 49.3157C137.88 47.8146 137.297 46.3699 136.246 45.2991C135.194 44.2282 133.761 43.6189 132.261 43.6051C131.614 43.6145 130.972 43.7232 130.358 43.9275C130.211 43.9759 130.044 44.0403 129.923 44.0907L129.867 44.1169L129.756 44.1733L129.534 44.2882L129.424 44.3466C129.387 44.3668 129.347 44.3869 129.335 44.397L128.864 44.6912L128.475 44.9531L128.113 45.205C127.635 45.5395 127.19 45.8639 126.741 46.1904L124.111 48.1329L118.944 52.042C116.103 54.2088 113.271 56.3803 110.447 58.5566L113.528 63.8561C116.787 62.3368 120.049 60.8241 123.314 59.3183L129.154 56.6584L132.054 55.3708C132.517 55.1693 132.982 54.9678 133.425 54.7844C133.311 54.81 133.194 54.8321 133.075 54.8509L132.907 54.8731C132.843 54.8731 132.777 54.8892 132.706 54.8933C132.636 54.8973 132.561 54.9053 132.489 54.9094C132.38 54.9094 132.273 54.9094 132.164 54.9094C132.271 54.9094 132.38 54.9094 132.489 54.9094C132.561 54.9094 132.634 54.9094 132.706 54.8933C132.779 54.8771 132.837 54.8812 132.907 54.8731L133.075 54.8509C133.197 54.8308 133.32 54.8066 133.439 54.7784H133.465L133.804 54.6414L134.118 54.5205C134.21 54.4862 134.277 54.4701 134.357 54.4439C134.374 54.4439 134.357 54.4439 134.357 54.4439L134.337 54.458L134.297 54.4882L134.277 54.5023C134.172 54.5467 134.021 54.6051 133.89 54.6494C133.745 54.6986 133.598 54.7403 133.449 54.7744H133.435C134.681 54.4981 135.797 53.8085 136.601 52.8175C137.406 51.8265 137.852 50.5924 137.868 49.3157Z" fill="#333372"/>
<path d="M132.487 54.9172C132.378 54.9172 132.27 54.9172 132.163 54.9172C132.272 54.9253 132.378 54.9213 132.487 54.9172Z" fill="#333372"/>
<path d="M133.069 54.8589C133.187 54.84 133.303 54.8179 133.419 54.7924H133.433C133.314 54.8145 133.191 54.8387 133.069 54.8589Z" fill="#333372"/>
<path d="M132.901 54.8812C132.835 54.8812 132.77 54.8974 132.7 54.9014C132.77 54.8974 132.837 54.8893 132.901 54.8812Z" fill="#333372"/>
<path d="M110.616 57.6458L108.443 59.9953L111.881 65.1719L114.628 63.9286L110.616 57.6458Z" fill="#3D3D7F"/>
<path d="M108.893 66.268C107.264 66.2358 105.896 64.1724 105.25 62.9715C105.11 62.7135 104.905 62.4974 104.654 62.3455C104.404 62.1935 104.117 62.1112 103.824 62.107C103.27 62.0949 102.543 63.3765 102.052 63.6505L98.4933 64.8072C97.2123 65.2044 96.1126 66.0415 95.388 67.1708C94.8638 68.0111 94.5758 68.9773 94.5543 69.9676L94.5302 71.1988L111.074 71.5293L111.184 65.9759C111.186 65.946 111.18 65.9161 111.167 65.8893C111.154 65.8624 111.134 65.8394 111.109 65.8226C111.084 65.8057 111.056 65.7956 111.026 65.7932C110.996 65.7907 110.966 65.796 110.939 65.8086C110.305 66.1277 109.602 66.2856 108.893 66.268Z" fill="#4D6AB5"/>
<path d="M111.06 71.0024L94.4926 71.0342L94.4944 71.9631L111.062 71.9313L111.06 71.0024Z" fill="#3D3D7F"/>
<path d="M71.8089 57.9258C72.0767 65.867 65.6224 75.8857 65.6224 75.8857C65.6224 75.8857 58.5056 66.3264 58.2378 58.3852C57.9699 50.444 60.8456 45.5777 64.5934 45.4508C68.3411 45.3238 71.541 49.9826 71.8089 57.9258Z" fill="#B10FC1"/>
<path d="M80.3363 67.2411C78.542 71.8999 72.3495 76.1072 72.3495 76.1072C72.3495 76.1072 70.5814 68.831 72.3757 64.1743C74.17 59.5175 77.0276 57.4098 79.2227 58.2582C81.4177 59.1065 82.1306 62.5844 80.3363 67.2411Z" fill="#B10FC1"/>
<path d="M58.052 63.2756C60.5693 69.9252 56.6021 80.8063 56.6021 80.8063C56.6021 80.8063 46.4283 75.2872 43.915 68.6356C41.4018 61.984 43.0551 56.7953 46.9599 55.3163C50.8647 53.8373 55.5348 56.624 58.052 63.2756Z" fill="#B10FC1"/>
<path d="M65.1603 102.909C65.1236 102.91 65.0879 102.897 65.0595 102.874C65.0311 102.851 65.0119 102.818 65.0052 102.782L62.0308 88.1328C61.8529 87.265 61.4514 86.4589 60.8661 85.7944C60.2807 85.1299 59.5319 84.63 58.6939 84.3445L55.8745 83.3894C55.8379 83.3734 55.8086 83.3442 55.7925 83.3076C55.7763 83.271 55.7746 83.2297 55.7875 83.1919C55.8004 83.154 55.8272 83.1224 55.8623 83.1034C55.8975 83.0844 55.9385 83.0793 55.9773 83.0891L58.7966 84.0443C59.6875 84.3484 60.4835 84.8803 61.1056 85.5872C61.7277 86.2941 62.1542 87.1515 62.3429 88.0743L65.3173 102.724C65.3251 102.765 65.3164 102.808 65.293 102.843C65.2697 102.878 65.2336 102.902 65.1925 102.911L65.1603 102.909Z" fill="#292960"/>
<path d="M63.8882 102.591C63.8551 102.591 63.8227 102.581 63.7956 102.562C63.7685 102.542 63.7481 102.515 63.7372 102.484L52.6008 70.0098C52.5878 69.97 52.5909 69.9267 52.6093 69.8891C52.6277 69.8515 52.66 69.8225 52.6994 69.8083C52.7392 69.7954 52.7825 69.7984 52.8201 69.8169C52.8577 69.8353 52.8866 69.8676 52.9008 69.907L64.0372 102.383C64.0441 102.407 64.0455 102.431 64.0411 102.455C64.0368 102.48 64.0269 102.502 64.0122 102.522C63.9975 102.541 63.9785 102.557 63.9566 102.568C63.9348 102.579 63.9106 102.585 63.8862 102.585L63.8882 102.591Z" fill="#292960"/>
<path d="M65.7964 101.954C65.7547 101.953 65.7148 101.937 65.6852 101.907C65.6555 101.878 65.6383 101.838 65.6373 101.797L65.3191 63.5919C65.3191 63.5497 65.3359 63.5092 65.3657 63.4794C65.3956 63.4495 65.436 63.4327 65.4782 63.4327C65.5204 63.4327 65.5609 63.4495 65.5907 63.4794C65.6205 63.5092 65.6373 63.5497 65.6373 63.5919L65.9555 101.799C65.9558 101.82 65.9519 101.84 65.9441 101.86C65.9363 101.879 65.9248 101.896 65.9102 101.911C65.8956 101.926 65.8782 101.938 65.859 101.946C65.8398 101.954 65.8192 101.958 65.7984 101.958L65.7964 101.954Z" fill="#292960"/>
<path d="M65.8278 101.636C65.7884 101.636 65.7505 101.621 65.7214 101.595C65.6923 101.568 65.6742 101.532 65.6707 101.493L64.0999 85.0077C63.9855 83.8618 64.2835 82.7128 64.9402 81.7672C65.5969 80.8216 66.5693 80.1415 67.6825 79.8492C67.7031 79.8428 67.7248 79.8407 67.7463 79.8429C67.7678 79.8452 67.7886 79.8518 67.8074 79.8623C67.8263 79.8729 67.8427 79.8872 67.8559 79.9043C67.869 79.9215 67.8786 79.9411 67.8839 79.962C67.89 79.9827 67.8919 80.0043 67.8895 80.0257C67.8871 80.0471 67.8805 80.0678 67.87 80.0866C67.8595 80.1054 67.8453 80.1219 67.8283 80.1351C67.8113 80.1483 67.7919 80.158 67.7711 80.1636C66.7325 80.4371 65.8253 81.0719 65.212 81.954C64.5986 82.8361 64.3194 83.908 64.4241 84.9774L65.9929 101.468C65.9968 101.51 65.984 101.552 65.9572 101.585C65.9304 101.617 65.8918 101.638 65.8499 101.642L65.8278 101.636Z" fill="#292960"/>
<path d="M64.0751 102.254C64.0592 102.257 64.0428 102.257 64.0268 102.254C64.0068 102.248 63.9882 102.238 63.9722 102.224C63.9562 102.21 63.943 102.194 63.9335 102.175C63.9239 102.156 63.9182 102.136 63.9166 102.115C63.915 102.094 63.9175 102.073 63.9241 102.053L73.9711 69.8345C73.9772 69.8143 73.9874 69.7955 74.0009 69.7793C74.0144 69.763 74.031 69.7496 74.0498 69.7399C74.0685 69.7301 74.089 69.7242 74.1101 69.7225C74.1311 69.7207 74.1523 69.7232 74.1724 69.7297C74.1926 69.7359 74.2114 69.7461 74.2277 69.7596C74.2439 69.7731 74.2573 69.7898 74.267 69.8085C74.2768 69.8273 74.2827 69.8478 74.2844 69.8689C74.2862 69.8899 74.2837 69.9111 74.2772 69.9312L64.2262 102.135C64.2177 102.169 64.1983 102.199 64.1709 102.221C64.1436 102.242 64.1099 102.254 64.0751 102.254Z" fill="#292960"/>
<path d="M84.2257 69.5322L66.6451 80.2119C66.6451 80.2119 76.0114 82.8918 80.5988 80.103C85.1863 77.3142 86.2758 72.9175 84.2257 69.5322Z" fill="#B10FC1"/>
<path d="M76.6155 98.9113C76.6155 95.659 75.2058 92.707 72.9241 90.5449C72.5686 90.2106 72.099 90.0247 71.6111 90.025H55.5288C55.0414 90.0243 54.5723 90.2104 54.2178 90.5449C51.9321 92.6969 50.5244 95.6489 50.5244 98.9113C50.5244 102.593 52.3268 105.887 55.1562 108.09C55.4928 108.351 55.9064 108.492 56.3323 108.493H70.7935C71.2193 108.492 71.6328 108.35 71.9696 108.09C74.8131 105.877 76.6155 102.583 76.6155 98.9113Z" fill="#E76DFF"/>
<path d="M38.3753 77.0682L57.4119 83.6634C57.4119 83.6634 48.9982 88.165 44.0301 86.4421C39.062 84.7193 37.1086 80.7255 38.3753 77.0682Z" fill="#B10FC1"/>
<path opacity="0.4" d="M74.718 92.6648H52.421C51.9369 93.3955 51.5376 94.179 51.2309 95.0002H75.9082C75.6014 94.179 75.2021 93.3955 74.718 92.6648ZM76.0915 95.5302H51.0476C50.893 96.0163 50.7719 96.5125 50.6851 97.0152H76.462C76.3724 96.5137 76.2486 96.0188 76.0915 95.5342V95.5302Z" fill="white"/>
<path d="M251.547 49.8337H224.143C224.105 49.8337 224.069 49.8186 224.042 49.7918C224.015 49.765 224 49.7286 224 49.6906V37.1431C224 37.1051 224.015 37.0687 224.042 37.0419C224.069 37.0151 224.105 37 224.143 37H251.547C251.585 37.0005 251.62 37.0158 251.647 37.0426C251.673 37.0694 251.688 37.1055 251.688 37.1431V49.6906C251.688 49.7282 251.673 49.7643 251.647 49.7911C251.62 49.8178 251.585 49.8332 251.547 49.8337ZM224.278 49.5475H251.404V37.2902H224.278V49.5475Z" fill="#CCCCCC"/>
<path d="M247.855 40.4215H227.829V46.4122H247.855V40.4215Z" fill="#ECECEC"/>
<path d="M26 102H12C10.3431 102 9 103.343 9 105C9 106.657 10.3431 108 12 108H26C27.6569 108 29 106.657 29 105C29 103.343 27.6569 102 26 102Z" fill="#ECECEC"/>
</svg>
