<svg width="171" height="171" viewBox="0 0 171 171" fill="none" xmlns="http://www.w3.org/2000/svg">
<rect x="14.6572" y="12.2144" width="141.148" height="141.148" rx="6.61129" fill="#FFD567"/>
<path d="M104.674 46.0787C110.196 47.4578 120.217 52.3537 122.329 60.7387C125.503 73.3163 119.154 91.7827 129.23 109.835C132.432 115.6 73.7966 123.337 73.7966 123.337L62.478 59.7871C62.478 59.7871 76.6125 45.996 79.4974 45.0582C85.4465 43.1274 93.7422 43.3343 104.674 46.0787Z" fill="#E76DFF"/>
<path d="M62.341 59.8153C60.3119 64.8905 55.1633 95.1069 60.9606 102.237C61.6094 103.064 57.9791 104.333 58.6279 108.098C58.7383 108.733 59.8426 111.725 59.8426 111.725L64.5356 112.939L78.6839 104.885L75.9232 101.589H74.6396C74.3017 101.269 74.0461 100.873 73.8947 100.433C73.7433 99.994 73.7005 99.5245 73.7699 99.065C74.1012 97.6859 70.5124 95.4379 65.1016 71.9791C63.5004 65.1111 62.7965 58.6982 62.341 59.8153Z" fill="#E31587"/>
<path d="M67.8204 100.804L71.9613 99.88L73.6454 99.6179C73.7034 100.377 74.0373 101.088 74.584 101.618L71.3402 101.714L67.5306 102.542L62.9341 105.148L67.8204 100.804Z" fill="#ECB60D"/>
<path d="M73.8117 104.707C71.703 104.747 69.6381 105.316 67.8072 106.362C65.723 107.659 63.7906 110.5 65.7092 111.989C67.255 113.114 68.8997 114.098 70.6231 114.927C70.6231 114.927 77.9941 115.133 73.8117 104.707Z" fill="#C4D1E1"/>
<path d="M65.6821 112.099L67.6559 111.671C67.6559 111.671 74.4471 111.064 75.4133 111.588C76.3795 112.112 79.5543 114.222 79.5543 114.222L80.1893 114.815C79.6137 115.086 78.9715 115.184 78.3414 115.095C77.7114 115.007 77.1208 114.737 76.6418 114.319C74.5852 112.94 74.4195 113.988 74.4195 113.988L74.7646 115.808V118.111L75.0682 119.091C75.0682 119.091 75.3581 119.615 75.1372 119.808C74.971 119.97 74.763 120.083 74.5364 120.134C74.3098 120.185 74.0734 120.172 73.8536 120.097L71.7831 116.498L71.2172 120.415C71.1205 120.587 70.9879 120.736 70.8283 120.853C70.6688 120.969 70.486 121.05 70.2924 121.09C69.6851 121.214 69.6851 121.09 69.6851 121.09L69.2157 120.084C69.1581 120.353 69.0124 120.596 68.8016 120.773C68.4412 121.02 68.0094 121.141 67.5731 121.118L67.7664 116.981L66.9244 119.077C66.7093 119.411 66.3727 119.648 65.9857 119.739L65.1162 119.959L65.6821 112.099Z" fill="#E4EEF3"/>
<path d="M100.908 95.9354C100.908 95.9354 95.9803 108.347 84.1234 111.768C82.0805 112.333 80.8107 114.526 81.8045 115.257C83.0744 116.167 84.8136 116.374 87.7813 116.36C93.9789 116.36 102.413 114.429 108.238 108.789C116.878 100.514 119.598 96.6387 118.728 92.4462C117.858 88.2537 100.908 95.9354 100.908 95.9354Z" fill="#E9D6B8"/>
<path d="M120.646 56.5359C123.158 60.6733 124.608 67.2792 124.594 76.74C124.594 84.0631 118.244 96.0476 117.278 99.7575C117.113 100.378 116.726 103.012 116.726 103.012L109.714 109.908L95.6348 100.378L99.9137 93.8135L101.197 93.9514C101.587 92.3063 101.786 90.6219 101.791 88.9314C101.57 87.5523 105.683 68.617 107.713 56.4945C108.886 49.5024 118.134 52.4538 120.646 56.5359Z" fill="#E31587"/>
<path d="M108.058 93.7008L103.917 92.432L102.247 92.0183C102.129 92.7687 101.741 93.4504 101.156 93.9353L104.372 94.3076L108.099 95.4523L112.461 98.445L108.058 93.7008Z" fill="#4E99FF"/>
<path d="M85.0041 111.725L77.8403 109.752C77.8403 109.752 75.8112 112.511 76.1839 113.159C76.5566 113.807 76.1839 117.862 76.1839 117.862L79.6623 120.799L82.4229 119.861C82.4229 119.861 82.63 118.634 81.6638 118.482C80.6976 118.331 82.3125 117.655 82.8094 117.365C83.3063 117.076 87.5577 114.979 85.0041 111.725Z" fill="#E9D6B8"/>
<path d="M86.8337 32.4575L82.7564 33.8849C80.4757 34.6833 79.2748 37.1778 80.0739 39.4564L83.698 49.7906C84.4971 52.0692 86.9937 53.2692 89.2744 52.4708L93.3517 51.0433C95.6323 50.2449 96.8333 47.7505 96.0342 45.4718L92.4101 35.1377C91.611 32.859 89.1144 31.6591 86.8337 32.4575Z" fill="#E4EEF3"/>
<path d="M78.2677 54.5499C78.4676 55.2721 78.9462 55.8854 79.5985 56.2551C80.2507 56.6249 81.0231 56.7209 81.7461 56.5221L94.0033 53.1432C94.3662 53.0527 94.7069 52.8895 95.0048 52.6635C95.3026 52.4375 95.5514 52.1533 95.736 51.8283C95.9206 51.5033 96.0371 51.1442 96.0785 50.7728C96.12 50.4015 96.0856 50.0255 95.9772 49.6678L90.9804 31.5186C90.7805 30.7965 90.3019 30.1831 89.6497 29.8133C88.9974 29.4436 88.225 29.3476 87.502 29.5465L75.231 32.9254C74.8681 33.0158 74.5274 33.1791 74.2295 33.4051C73.9317 33.6311 73.6829 33.9153 73.4983 34.2403C73.3137 34.5653 73.1971 34.9243 73.1557 35.2957C73.1142 35.6671 73.1487 36.043 73.2571 36.4007L78.2677 54.5499Z" fill="#E9D6B8"/>
<path d="M74.2805 40.1394C73.2343 39.536 72.3001 38.7567 71.5193 37.8358C71.3181 37.1743 71.286 36.4729 71.4259 35.7958C71.5657 35.1187 71.8732 34.4874 72.3201 33.9596C73.466 32.7871 74.9985 33.9596 74.9985 33.9596C74.9985 33.9596 73.1623 35.7804 73.1761 36.2632C73.1899 36.746 74.2805 40.1394 74.2805 40.1394Z" fill="#292960"/>
<path d="M94.4881 39.3372C94.4881 39.3372 94.4881 31.8486 93.508 29.9041C92.528 27.9595 91.9897 26.5942 89.3671 27.0631C85.5298 27.7526 85.7092 28.5525 83.5836 27.9181C81.4579 27.2837 77.4274 25.4495 76.2265 25.4909C75.6008 25.4575 74.9763 25.5761 74.4065 25.8365C73.8367 26.0969 73.3384 26.4913 72.9545 26.9861C72.5706 27.4808 72.3123 28.0612 72.2018 28.6775C72.0914 29.2937 72.132 29.9274 72.3202 30.5246C72.5224 31.1696 72.5589 31.8551 72.4262 32.5179C72.2935 33.1807 71.996 33.7995 71.561 34.3172C71.7957 34.6068 72.5687 34.7172 73.9076 34.9792C77.7863 35.7377 79.9258 35.5171 82.3551 34.1242C84.7845 32.7312 89.2567 29.904 90.3333 31.6693C91.41 33.4346 92.8317 39.4062 93.1906 39.8061C93.5495 40.2061 94.1154 39.8061 94.4881 39.3372Z" fill="#292960"/>
<path d="M92.1279 45.8467C92.1599 45.9666 92.2154 46.0789 92.2911 46.1773C92.3669 46.2756 92.4615 46.3581 92.5693 46.4196C92.6772 46.4812 92.7962 46.5208 92.9194 46.536C93.0427 46.5513 93.1678 46.542 93.2874 46.5086L95.9376 45.7776C96.0564 45.7442 96.1675 45.6878 96.2644 45.6115C96.3613 45.5351 96.4423 45.4405 96.5025 45.3329C96.5628 45.2253 96.6012 45.1068 96.6156 44.9844C96.63 44.8619 96.6201 44.7378 96.5864 44.6192L95.2061 39.7785C95.1353 39.5372 94.9731 39.3331 94.754 39.2095C94.5349 39.0859 94.2761 39.0525 94.0328 39.1166L91.3826 39.8474C91.2638 39.8808 91.1528 39.9374 91.0559 40.0137C90.959 40.09 90.878 40.1847 90.8178 40.2923C90.7575 40.3999 90.719 40.5183 90.7046 40.6408C90.6902 40.7632 90.7002 40.8873 90.7339 41.0059L92.1279 45.8467Z" fill="#E9D6B8"/>
<path d="M76.3078 50.2022C76.3756 50.4424 76.5351 50.6463 76.752 50.7702C76.9689 50.894 77.2257 50.9277 77.4672 50.8641L80.1175 50.1332C80.3579 50.0655 80.5621 49.9061 80.686 49.6895C80.81 49.4728 80.8437 49.2161 80.78 48.9747L79.3997 44.1203C79.3663 44.0016 79.3097 43.8906 79.2333 43.7938C79.1569 43.6969 79.0623 43.6161 78.9546 43.5559C78.8469 43.4957 78.7283 43.4573 78.6058 43.4429C78.4832 43.4285 78.359 43.4384 78.2402 43.4721L75.59 44.203C75.4712 44.2364 75.3602 44.2929 75.2633 44.3692C75.1664 44.4455 75.0855 44.5402 75.0252 44.6478C74.965 44.7554 74.9266 44.8738 74.9122 44.9963C74.8978 45.1187 74.9077 45.2428 74.9413 45.3614L76.3078 50.2022Z" fill="#E9D6B8"/>
<path d="M93.7426 41.2522L96.3789 50.7819C96.9725 52.9333 97.4142 57.8982 85.2259 61.2632C78.0207 63.2354 76.8198 57.8705 76.3367 56.1329C76.0618 53.89 76.2688 51.6145 76.944 49.458L77.7446 52.4093C78.007 51.4048 78.5269 50.486 79.2531 49.7436C79.9793 49.0011 80.8866 48.4606 81.8856 48.1754C87.4069 46.6584 89.5602 49.5545 91.9895 48.8235C93.8392 48.2581 94.4189 44.8103 93.7426 41.2522Z" fill="#292960"/>
<path d="M85.4498 52.2435L81.6669 53.2781C81.5473 53.3115 81.4221 53.3208 81.2989 53.3055C81.1756 53.2903 81.0565 53.2507 80.9486 53.1891C80.8408 53.1275 80.7462 53.0452 80.6704 52.9468C80.5946 52.8484 80.5391 52.736 80.5072 52.616L80.3691 52.1056L85.9606 50.5469L86.1125 51.0849C86.1459 51.2044 86.1552 51.3294 86.1399 51.4526C86.1247 51.5758 86.0851 51.6947 86.0234 51.8025C85.9618 51.9103 85.8793 52.0048 85.7808 52.0805C85.6823 52.1562 85.5699 52.2116 85.4498 52.2435Z" fill="#E9D6B8"/>
<path d="M25.652 124.76C27.405 129.587 58.0066 147.336 68.2624 146.274L99.1677 147.75C125.394 144.55 137.899 103.742 137.899 103.742C136.85 93.4954 110.956 108.349 101.721 112.955C87.1037 120.237 77.8556 120.609 77.8556 120.609C68.083 121.602 56.7506 114.072 44.3967 113.81C30.8006 113.52 22.8914 117.161 25.652 124.76Z" fill="#292960"/>
<path d="M92.8592 119.851V118.554L39.6479 117.589V118.871L39.7859 119.12C40.1612 119.621 40.6635 120.013 41.241 120.255C41.8185 120.498 42.4502 120.582 43.0711 120.499L89.3808 121.326C89.9978 121.437 90.6331 121.38 91.2206 121.161C91.8081 120.943 92.3263 120.571 92.7212 120.085L92.8592 119.851Z" fill="#B6C2C9"/>
<path d="M80.0368 119.834L80.1609 120.027C80.3619 120.304 80.6209 120.535 80.9201 120.702L89.0226 120.84C89.598 120.94 90.1891 120.901 90.7462 120.726C91.3033 120.551 91.8103 120.245 92.2249 119.834L92.3492 119.641V119.006L80.0229 118.785L80.0368 119.834Z" fill="#D8E5ED"/>
<path d="M72.8452 119.366L46.2603 118.883L46.2879 117.973L72.8728 118.47L72.8452 119.366Z" fill="#879BA6"/>
<path d="M79.7605 118.22L73.342 92.0172C73.2455 91.6703 73.0437 91.362 72.7643 91.1347C72.4849 90.9074 72.1417 90.7724 71.7822 90.7484L34.5136 90.0727C34.3607 90.0617 34.2075 90.089 34.0677 90.152C33.9279 90.2149 33.8059 90.3115 33.7129 90.4333C33.6198 90.555 33.5585 90.698 33.5344 90.8493C33.5104 91.0006 33.5243 91.1554 33.575 91.3L39.9935 117.503L79.7605 118.22Z" fill="#B0BFDE"/>
<path d="M103.847 154.548C100.162 155.182 97.3595 150.907 97.3595 150.907L87.8491 143.432L89.8644 138.371L108.388 146.645C108.388 146.645 107.532 153.927 103.847 154.548Z" fill="#E9D6B8"/>
<path d="M97.3457 150.617C97.4714 151.445 97.7082 152.252 98.0497 153.017C98.7536 154.961 99.6232 155.637 100.548 155.913C104.095 156.961 106.649 156.437 115.193 158.078C123.737 159.719 126.236 158.478 128.803 154.547C131.371 150.617 128.707 147.528 124.538 147.211C118.506 146.755 115.152 147.445 112.018 146.962C108.885 146.48 108.512 145.735 106.594 144.549C104.675 143.363 103.115 150.065 104.827 151.568C106.539 153.072 98.6294 153.127 97.3457 150.617Z" fill="#4D6AB5"/>
<path d="M99.1837 154.426C102.731 155.46 105.285 154.936 113.829 156.577C122.373 158.218 124.871 156.991 127.439 153.047C127.954 152.389 128.278 151.601 128.373 150.771C128.468 149.941 128.331 149.101 127.977 148.344C129.854 149.64 130.489 151.888 128.805 154.55C126.307 158.48 123.739 159.721 115.195 158.08C106.651 156.439 104.153 156.963 100.55 155.915C100.115 155.778 99.7132 155.551 99.3709 155.249C99.0285 154.948 98.7532 154.578 98.5625 154.164C98.7617 154.268 98.9696 154.356 99.1837 154.426Z" fill="white"/>
<path d="M97.428 150.74C97.425 150.699 97.425 150.658 97.428 150.617L97.5099 150.754L97.428 150.74Z" fill="#E9D6B8"/>
<path d="M115.814 153.694C116.09 153.791 116.325 153.28 116.408 152.563C116.576 151.064 116.909 149.588 117.402 148.163C117.65 147.431 117.65 146.783 117.402 146.714C117.153 146.645 116.615 147.156 116.38 147.859C115.915 149.27 115.6 150.727 115.441 152.204C115.372 152.922 115.538 153.584 115.814 153.694Z" fill="white"/>
<path d="M113.163 153.212C113.453 153.212 113.715 152.771 113.798 152.095C113.967 150.684 114.291 149.296 114.764 147.957C115.013 147.267 114.999 146.688 114.682 146.646C114.364 146.605 113.867 147.115 113.632 147.791C113.169 149.13 112.863 150.519 112.721 151.929C112.611 152.564 112.873 153.157 113.163 153.212Z" fill="white"/>
<path d="M110.39 153.087C110.693 153.087 110.983 152.591 111.094 151.887C111.327 150.429 111.716 149 112.253 147.625C112.516 146.921 112.53 146.328 112.253 146.245C111.977 146.162 111.411 146.783 111.149 147.473C110.628 148.836 110.258 150.251 110.044 151.694C109.851 152.466 110.086 153.06 110.39 153.087Z" fill="white"/>
<path d="M103.199 142.343C103.199 142.343 37.8267 115.464 34.0861 115.464C21.47 115.34 24.3549 128.11 30.7596 134.109C38.3099 141.198 95.6345 154.162 95.6345 154.162L103.199 142.343Z" fill="#333372"/>
<path d="M77.2638 147.005L95.1113 130.097L87.5057 122.567L68.0156 143.033L77.2638 147.005Z" fill="#E9D6B8"/>
<path d="M73.5757 133.71C73.5757 133.71 118.988 92.1157 122.053 90.8745C132.419 86.7371 138.837 98.1011 138.478 102.059C138.009 107.19 91.9063 148.839 91.9063 148.839L73.5757 133.71Z" fill="#333372"/>
<path d="M46.6592 148.33C45.5964 149.309 45.417 152.192 45.417 152.192C45.417 152.192 60.6005 157.915 65.8871 158.012C68.0163 157.871 70.1205 157.472 72.1537 156.825C72.554 156.729 73.534 155.681 73.8653 155.571C74.5969 155.364 74.7488 156.067 75.3837 155.86C76.3308 155.592 77.2541 155.246 78.1444 154.826C81.3467 148.027 80.2562 144.675 80.2562 144.675C80.2562 144.675 73.3546 146.675 74.4865 145.117C77.0401 141.793 69.752 138.373 68.1232 140.152C61.6771 147.185 49.7373 145.489 46.6592 148.33Z" fill="#4D6AB5"/>
<path d="M45.8179 149.735C50.4696 151.583 60.256 155.403 62.2161 155.541C70.1805 156.107 75.757 153.28 79.4839 151.611C79.117 152.707 78.6837 153.78 78.1863 154.824C77.2961 155.244 76.3728 155.59 75.4257 155.859C74.7908 156.065 74.639 155.362 73.9074 155.569C73.5209 155.679 72.596 156.727 72.1957 156.824C70.1625 157.471 68.0583 157.869 65.9291 158.01C60.6149 157.913 45.459 152.19 45.459 152.19C45.4744 151.36 45.595 150.535 45.8179 149.735V149.735Z" fill="white"/>
<path d="M56.5287 145.323C56.3907 145.585 56.9843 145.902 57.8262 146.081C59.5777 146.436 61.2921 146.953 62.9473 147.626C63.7755 147.97 64.5346 148.039 64.645 147.75C64.7554 147.46 64.1895 146.922 63.3752 146.591C61.7362 145.94 60.0403 145.441 58.3093 145.102C57.4673 144.936 56.6668 145.061 56.5287 145.323Z" fill="white"/>
<path d="M59.9235 144.123C59.7993 144.399 60.379 144.771 61.2072 145.019C62.911 145.514 64.5653 146.165 66.1487 146.964C66.9493 147.364 67.6809 147.488 67.7775 147.185C67.8741 146.881 67.3358 146.274 66.549 145.888C64.9759 145.112 63.3359 144.48 61.6489 143.999C60.8207 143.778 60.0477 143.861 59.9235 144.123Z" fill="white"/>
<path d="M63.1964 143.048C63.086 143.323 63.6519 143.765 64.4524 144.068C66.1069 144.694 67.7009 145.47 69.2146 146.385C69.9875 146.84 70.6777 147.006 70.7743 146.688C70.8709 146.371 70.3603 145.709 69.6011 145.309C68.0927 144.421 66.5082 143.669 64.8665 143.061C64.0659 142.758 63.3206 142.786 63.1964 143.048Z" fill="white"/>
</svg>
