<svg width="16" height="16" viewBox="0 0 16 16" fill="none" xmlns="http://www.w3.org/2000/svg">
<path d="M7.90361 0.5C3.77612 0.5 0.42627 3.86 0.42627 8C0.42627 12.14 3.77612 15.5 7.90361 15.5C12.0311 15.5 15.381 12.14 15.381 8C15.381 3.86 12.0311 0.5 7.90361 0.5ZM1.92174 8C1.92174 4.685 4.59863 2 7.90361 2C9.28692 2 10.5581 2.4725 11.5675 3.2675L3.18541 11.675C2.39281 10.6625 1.92174 9.3875 1.92174 8ZM7.90361 14C6.5203 14 5.24916 13.5275 4.23971 12.7325L12.6218 4.325C13.4144 5.3375 13.8855 6.6125 13.8855 8C13.8855 11.315 11.2086 14 7.90361 14Z" fill="#999999"/>
</svg>
