<svg width="16" height="16" viewBox="0 0 16 16" fill="none" xmlns="http://www.w3.org/2000/svg">
<g clip-path="url(#clip0_823_5071)">
<path d="M8 1.75C4.55 1.75 1.75 4.55 1.75 8C1.75 11.45 4.55 14.25 8 14.25C11.45 14.25 14.25 11.45 14.25 8C14.25 4.55 11.45 1.75 8 1.75ZM3 8C3 5.2375 5.2375 3 8 3C9.15625 3 10.2188 3.39375 11.0625 4.05625L4.05625 11.0625C3.39375 10.2188 3 9.15625 3 8ZM8 13C6.84375 13 5.78125 12.6062 4.9375 11.9437L11.9437 4.9375C12.6062 5.78125 13 6.84375 13 8C13 10.7625 10.7625 13 8 13Z" fill="#722291"/>
</g>
<defs>
<clipPath id="clip0_823_5071">
<rect width="15" height="15" fill="white" transform="translate(0.5 0.5)"/>
</clipPath>
</defs>
</svg>
