<svg width="24" height="24" viewBox="0 0 24 24" fill="none" xmlns="http://www.w3.org/2000/svg">
<path d="M5.77778 6.22223C4.796 6.22223 4 7.01823 4 8.00001V16C4 16.9818 4.796 17.7778 5.77778 17.7778H8.44444V6.22223H5.77778ZM18.2222 6.22223H15.5556V17.7778H18.2222C19.204 17.7778 20 16.9818 20 16V8.00001C20 7.01823 19.204 6.22223 18.2222 6.22223Z" fill="#D52B1E"/>
<path d="M8.44446 6.22223H15.5556V17.7778H8.44446V6.22223Z" fill="#EEEEEE"/>
<path d="M12.2733 13.828C12.8058 13.8898 13.2831 13.9453 13.8151 14.0062L13.6795 13.5609C13.6578 13.4827 13.6889 13.3973 13.7502 13.3493L15.2964 12.0898L14.9764 11.9391C14.8355 11.8889 14.8742 11.8093 14.9253 11.6182L15.1613 10.7578L14.2631 10.9475C14.1755 10.9609 14.1173 10.9053 14.104 10.852L13.988 10.4471L13.2778 11.2444C13.1769 11.3724 12.9724 11.3724 13.036 11.0773L13.3395 9.46221L12.932 9.67333C12.8178 9.73733 12.7035 9.74799 12.64 9.63377L12.0778 8.58221V8.60844V8.58221L11.5155 9.63377C11.4515 9.74799 11.3373 9.73733 11.2231 9.67333L10.816 9.46221L11.1195 11.0773C11.1835 11.3724 10.9786 11.3724 10.8778 11.2444L10.1675 10.4475L10.052 10.8524C10.0386 10.9058 9.97998 10.9613 9.89242 10.948L8.9942 10.7582L9.2302 11.6187C9.28042 11.8098 9.31953 11.8893 9.17864 11.9395L8.85864 12.0902L10.4049 13.3498C10.4662 13.3973 10.4973 13.4831 10.4751 13.5613L10.3395 14.0067L11.8818 13.8284C11.9289 13.8284 11.96 13.8547 11.9595 13.9089L11.8644 15.5551H12.2893L12.1946 13.9089C12.1955 13.8542 12.2262 13.828 12.2733 13.828Z" fill="#D52B1E"/>
</svg>
