<svg width="18" height="16" viewBox="0 0 18 16" fill="none" xmlns="http://www.w3.org/2000/svg">
<g clip-path="url(#clip0_717_36)">
<path d="M9 3.4999C11.8425 3.4999 14.3775 5.0974 15.615 7.6249C15.1725 8.5399 14.55 9.3274 13.8075 9.9649L14.865 11.0224C15.9075 10.0999 16.7325 8.9449 17.25 7.6249C15.9525 4.3324 12.75 1.9999 9 1.9999C8.0475 1.9999 7.1325 2.1499 6.27 2.4274L7.5075 3.6649C7.995 3.5674 8.49 3.4999 9 3.4999ZM8.1975 4.3549L9.75 5.9074C10.1775 6.0949 10.5225 6.4399 10.71 6.8674L12.2625 8.4199C12.3225 8.1649 12.3675 7.8949 12.3675 7.6174C12.375 5.7574 10.86 4.2499 9 4.2499C8.7225 4.2499 8.46 4.2874 8.1975 4.3549ZM1.5075 1.9024L3.5175 3.9124C2.295 4.8724 1.3275 6.1474 0.75 7.6249C2.0475 10.9174 5.25 13.2499 9 13.2499C10.14 13.2499 11.235 13.0324 12.24 12.6349L14.805 15.1999L15.8625 14.1424L2.565 0.837402L1.5075 1.9024ZM7.1325 7.5274L9.09 9.4849C9.06 9.4924 9.03 9.4999 9 9.4999C7.965 9.4999 7.125 8.6599 7.125 7.6249C7.125 7.5874 7.1325 7.5649 7.1325 7.5274ZM4.5825 4.9774L5.895 6.2899C5.7225 6.7024 5.625 7.1524 5.625 7.6249C5.625 9.4849 7.14 10.9999 9 10.9999C9.4725 10.9999 9.9225 10.9024 10.3275 10.7299L11.0625 11.4649C10.4025 11.6449 9.7125 11.7499 9 11.7499C6.1575 11.7499 3.6225 10.1524 2.385 7.6249C2.91 6.5524 3.675 5.6674 4.5825 4.9774Z" fill="#999999"/>
</g>
<defs>
<clipPath id="clip0_717_36">
<rect width="18" height="16" fill="white"/>
</clipPath>
</defs>
</svg>
