<svg version="1.1" id="Layer_1" xmlns="http://www.w3.org/2000/svg" xmlns:xlink="http://www.w3.org/1999/xlink" x="0px" y="0px" viewBox="0 0 48 48" style="" xml:space="preserve">
	<path fill="url(#paint0_linear_714_179)" d="M43.4,10.5L26,0.5C25.4,0.2,24.7,0,24,0s-1.4,0.2-2,0.5l-17.5,10C3.9,10.8,3.4,11.4,3,12
		c-0.4,0.6-0.6,1.4-0.6,2.1v19.9c0,0.7,0.2,1.5,0.6,2.1s0.9,1.2,1.5,1.5L22,47.4c0.6,0.4,1.3,0.6,2,0.6c0.7,0,1.4-0.2,2-0.6
		l17.4-9.9c0.6-0.4,1.2-0.9,1.5-1.5c0.4-0.6,0.6-1.4,0.6-2.1V14.1c0-0.7-0.2-1.5-0.5-2.1C44.6,11.3,44.1,10.8,43.4,10.5z"/>
	<path fill="#20133A" d="M11.9,29.2l-1,0.6c-0.2,0.1-0.4,0.2-0.5,0.4c-0.1,0.2-0.2,0.4-0.3,0.6C10,31,10,31.2,10,31.5
		c0,0.2,0.1,0.4,0.2,0.6c0.1,0.3,0.3,0.5,0.6,0.6c0.2,0.2,0.5,0.2,0.8,0.2c0.3,0,0.5-0.1,0.8-0.2l1-0.6c0.2-0.1,0.4-0.2,0.5-0.4
		c0.1-0.2,0.2-0.4,0.3-0.6c0.1-0.2,0.1-0.4,0-0.6c0-0.2-0.1-0.4-0.2-0.6c-0.1-0.2-0.2-0.4-0.4-0.5c-0.2-0.1-0.4-0.2-0.6-0.3
		C12.9,29,12.7,29,12.5,29C12.3,29,12,29.1,11.9,29.2z M18.2,25.5l-2.1,1.2c-0.2,0.1-0.4,0.2-0.5,0.4c-0.1,0.2-0.2,0.4-0.3,0.6
		c-0.1,0.2-0.1,0.4,0,0.6c0,0.2,0.1,0.4,0.2,0.6c0.1,0.3,0.3,0.5,0.6,0.6c0.2,0.2,0.5,0.2,0.8,0.2c0.3,0,0.5-0.1,0.8-0.2l2.1-1.2
		c0.2-0.1,0.4-0.2,0.5-0.4c0.1-0.2,0.2-0.4,0.3-0.6c0.1-0.2,0.1-0.4,0-0.6c0-0.2-0.1-0.4-0.2-0.6c-0.1-0.2-0.2-0.4-0.4-0.5
		c-0.2-0.1-0.4-0.2-0.6-0.3c-0.2-0.1-0.4-0.1-0.6-0.1C18.6,25.4,18.4,25.4,18.2,25.5z M26.9,22.5c-0.1-0.2-0.2-0.3-0.4-0.5
		c-0.1-0.1-0.3-0.2-0.5-0.3V9.2c0-0.2,0-0.4-0.1-0.6c-0.1-0.2-0.2-0.4-0.4-0.5c-0.2-0.2-0.3-0.3-0.5-0.4c-0.2-0.1-0.4-0.1-0.6-0.1
		c-0.2,0-0.4,0-0.6,0.1c-0.2,0.1-0.4,0.2-0.5,0.4c-0.1,0.2-0.3,0.3-0.3,0.5c-0.1,0.2-0.1,0.4-0.1,0.6v12.6c-0.2,0.1-0.4,0.2-0.5,0.3
		c-0.1,0.1-0.3,0.3-0.4,0.5c-0.1,0.2-0.2,0.5-0.2,0.7c0,0.2,0,0.5,0.1,0.7c-0.1,0.2-0.1,0.5-0.1,0.7c0,0.2,0.1,0.5,0.2,0.7
		c0.1,0.2,0.2,0.3,0.4,0.5c0.1,0.1,0.3,0.2,0.5,0.3v12.6c0,0.4,0.2,0.9,0.5,1.2c0.3,0.3,0.7,0.5,1.2,0.5c0.4,0,0.9-0.2,1.2-0.5
		c0.3-0.3,0.5-0.7,0.5-1.2V26.1c0.2-0.1,0.4-0.2,0.5-0.3c0.1-0.1,0.3-0.3,0.4-0.5c0.1-0.2,0.2-0.5,0.2-0.7c0-0.2,0-0.5-0.1-0.7
		C27.1,23.4,27.1,22.9,26.9,22.5z M31.1,18.2l-2.1,1.2c-0.2,0.1-0.4,0.2-0.5,0.4c-0.1,0.2-0.2,0.4-0.3,0.6c-0.1,0.2-0.1,0.4,0,0.6
		c0,0.2,0.1,0.4,0.2,0.6c0.1,0.3,0.3,0.5,0.6,0.6c0.2,0.2,0.5,0.2,0.8,0.2c0.3,0,0.5-0.1,0.8-0.2l2.1-1.2c0.2-0.1,0.4-0.2,0.5-0.4
		c0.1-0.2,0.2-0.4,0.3-0.6c0.1-0.2,0.1-0.4,0-0.6c0-0.2-0.1-0.4-0.2-0.6c-0.1-0.2-0.2-0.4-0.4-0.5c-0.2-0.1-0.4-0.2-0.6-0.3
		C32.1,18,31.9,18,31.7,18C31.5,18,31.2,18.1,31.1,18.2z M36.1,18.8c0.3,0,0.5-0.1,0.8-0.2l1-0.6c0.2-0.1,0.4-0.2,0.5-0.4
		c0.1-0.2,0.2-0.4,0.3-0.6c0.1-0.2,0.1-0.4,0-0.6c0-0.2-0.1-0.4-0.2-0.6c-0.1-0.2-0.2-0.4-0.4-0.5C38,15.1,37.8,15,37.6,15
		c-0.2-0.1-0.4-0.1-0.6,0c-0.2,0-0.4,0.1-0.6,0.2l-1,0.6c-0.2,0.1-0.4,0.2-0.5,0.4c-0.1,0.2-0.2,0.4-0.3,0.6c-0.1,0.2-0.1,0.4,0,0.6
		c0,0.2,0.1,0.4,0.2,0.6c0.1,0.3,0.3,0.5,0.6,0.6C35.6,18.7,35.9,18.8,36.1,18.8z M38,29.8l-1-0.6c-0.4-0.2-0.8-0.3-1.2-0.1
		c-0.4,0.1-0.8,0.4-1,0.8c-0.2,0.4-0.3,0.8-0.2,1.2c0.1,0.4,0.4,0.8,0.8,1l1,0.6c0.2,0.1,0.5,0.2,0.8,0.2c0.3,0,0.6-0.1,0.8-0.2
		c0.2-0.2,0.5-0.4,0.6-0.6c0.1-0.2,0.2-0.4,0.2-0.6c0-0.2,0-0.4,0-0.6c-0.1-0.2-0.2-0.4-0.3-0.6C38.3,30.1,38.2,29.9,38,29.8z
		 M32.6,26.8l-2.1-1.2c-0.2-0.1-0.4-0.2-0.6-0.2c-0.2,0-0.4,0-0.6,0s-0.4,0.2-0.6,0.3c-0.2,0.1-0.3,0.3-0.4,0.5
		c-0.1,0.2-0.2,0.4-0.2,0.6c0,0.2,0,0.4,0,0.6c0.1,0.2,0.2,0.4,0.3,0.6c0.1,0.2,0.3,0.3,0.5,0.4l2.1,1.2c0.2,0.1,0.5,0.2,0.8,0.2
		c0.3,0,0.6-0.1,0.8-0.2c0.2-0.2,0.5-0.4,0.6-0.6c0.1-0.2,0.2-0.4,0.2-0.6c0-0.2,0-0.4,0-0.6c-0.1-0.2-0.2-0.4-0.3-0.6
		C33,27,32.8,26.9,32.6,26.8z M16.1,21.1l2.1,1.2c0.2,0.1,0.5,0.2,0.8,0.2c0.3,0,0.6-0.1,0.8-0.2c0.2-0.2,0.5-0.4,0.6-0.6
		c0.1-0.2,0.2-0.4,0.2-0.6c0-0.2,0-0.4,0-0.6c-0.1-0.2-0.2-0.4-0.3-0.6c-0.1-0.2-0.3-0.3-0.5-0.4l-2.1-1.2c-0.2-0.1-0.4-0.2-0.6-0.2
		c-0.2,0-0.4,0-0.6,0c-0.2,0.1-0.4,0.2-0.6,0.3c-0.2,0.1-0.3,0.3-0.4,0.5c-0.2,0.4-0.3,0.8-0.1,1.3C15.4,20.5,15.7,20.8,16.1,21.1z
		 M13.5,15.8l-1-0.6C12.2,15,12,15,11.8,14.9c-0.2,0-0.4,0-0.6,0c-0.2,0.1-0.4,0.2-0.6,0.3c-0.2,0.1-0.3,0.3-0.4,0.5
		c-0.1,0.2-0.2,0.4-0.2,0.6c0,0.2,0,0.4,0,0.6c0.1,0.2,0.2,0.4,0.3,0.6c0.1,0.2,0.3,0.3,0.5,0.4l1,0.6c0.2,0.1,0.5,0.2,0.8,0.2
		c0.3,0,0.6-0.1,0.8-0.2c0.2-0.2,0.5-0.4,0.6-0.6c0.1-0.2,0.2-0.4,0.2-0.6c0-0.2,0-0.4,0-0.6c-0.1-0.2-0.2-0.4-0.3-0.6
		C13.8,16,13.6,15.9,13.5,15.8z"/>
	<defs>
		<linearGradient id="paint0_linear_714_179" x1="7.13608e-05" y1="14.001" x2="25.1156" y2="14.001" gradientUnits="userSpaceOnUse">
			<stop stop-color="#9059FF"/>
			<stop offset="1" stop-color="#F770FF"/>
		</linearGradient>
	</defs>
</svg>