<svg width="18" height="18" viewBox="0 0 18 18" fill="none" xmlns="http://www.w3.org/2000/svg">
<path d="M10.2225 8.98947L14.7594 4.45261C14.9155 4.29095 15.0019 4.07443 15 3.84969C14.998 3.62495 14.9079 3.40997 14.7489 3.25105C14.59 3.09213 14.375 3.00199 14.1503 3.00003C13.9256 2.99808 13.709 3.08447 13.5474 3.24061L9.01053 7.77747L4.47368 3.24061C4.31202 3.08447 4.0955 2.99808 3.87076 3.00003C3.64602 3.00199 3.43104 3.09213 3.27212 3.25105C3.1132 3.40997 3.02305 3.62495 3.0211 3.84969C3.01914 4.07443 3.10554 4.29095 3.26168 4.45261L7.79853 8.98947L3.26168 13.5263C3.17981 13.6054 3.11451 13.7 3.06959 13.8045C3.02467 13.9091 3.00102 14.0216 3.00003 14.1354C2.99904 14.2492 3.02073 14.3621 3.06383 14.4674C3.10693 14.5728 3.17057 14.6685 3.25105 14.7489C3.33153 14.8294 3.42723 14.8931 3.53257 14.9362C3.63791 14.9793 3.75078 15.001 3.86459 15C3.9784 14.999 4.09088 14.9753 4.19545 14.9304C4.30003 14.8855 4.39461 14.8202 4.47368 14.7383L9.01053 10.2015L13.5474 14.7383C13.709 14.8945 13.9256 14.9809 14.1503 14.9789C14.375 14.9769 14.59 14.8868 14.7489 14.7279C14.9079 14.569 14.998 14.354 15 14.1292C15.0019 13.9045 14.9155 13.688 14.7594 13.5263L10.2225 8.98947Z" fill="white"/>
</svg>
