<svg width="15" height="14" viewBox="0 0 15 14" fill="none" xmlns="http://www.w3.org/2000/svg">
<path d="M4.43087 0H3.383C1.64683 0 0.23938 1.34315 0.23938 3V11C0.23938 12.6569 1.64683 14 3.383 14H11.766C13.5022 14 14.9096 12.6569 14.9096 11V10C14.9096 9.44771 14.4404 9 13.8617 9C13.283 9 12.8139 9.44771 12.8139 10V11C12.8139 11.5523 12.3447 12 11.766 12H3.383C2.80427 12 2.33513 11.5523 2.33513 11V3C2.33513 2.44772 2.80427 2 3.383 2H4.43087C5.00959 2 5.47874 1.55228 5.47874 1C5.47874 0.447715 5.00959 0 4.43087 0Z" fill="#0060DF"/>
<path d="M14.8415 0.618C14.6796 0.244353 14.2979 0.00047005 13.8743 0H8.63491C8.05618 0 7.58704 0.447715 7.58704 1C7.58704 1.55228 8.05618 2 8.63491 2H11.3447L7.89406 5.293C7.4849 5.68374 7.48514 6.31703 7.89459 6.7075C8.30403 7.09796 8.96764 7.09774 9.3768 6.707L12.8274 3.414V6C12.8274 6.55228 13.2966 7 13.8753 7C14.454 7 14.9232 6.55228 14.9232 6V1C14.9228 0.868849 14.8954 0.739052 14.8425 0.618H14.8415Z" fill="#0060DF"/>
</svg>
