<svg width="24" height="24" viewBox="0 0 24 24" fill="none" xmlns="http://www.w3.org/2000/svg">
<path d="M19.7533 6.88889C19.4453 6.35956 18.8787 6 18.2222 6H12V6.88889H19.7533ZM4 14.8889H20V15.7778H4V14.8889ZM12 11.3333H20V12.2222H12V11.3333ZM12 9.55556H20V10.4444H12V9.55556ZM4 13.1111H20V14H4V13.1111ZM5.77778 17.5556H18.2222C18.8787 17.5556 19.4453 17.196 19.7533 16.6667H4.24667C4.55467 17.196 5.12133 17.5556 5.77778 17.5556ZM12 7.77778H20V8.66667H12V7.77778Z" fill="#B22334"/>
<path d="M4.03022 16.0793C4.03778 16.1207 4.04622 16.162 4.05644 16.2024C4.068 16.2473 4.08222 16.2905 4.09733 16.334C4.13689 16.4491 4.18489 16.5602 4.24533 16.6642L4.24667 16.6664H19.7533L19.7542 16.6647C19.8142 16.5611 19.8622 16.45 19.9018 16.3353C19.9169 16.2913 19.9316 16.2473 19.9431 16.2016C19.9533 16.1616 19.9618 16.1207 19.9693 16.0793C19.9876 15.9816 20 15.8811 20 15.7776H4C4 15.8811 4.01244 15.9811 4.03022 16.0793ZM4 13.9998H20V14.8887H4V13.9998ZM4 12.222V13.1109H20V12.222H12H4ZM12 10.4442H20V11.3331H12V10.4442ZM12 8.66645H20V9.55534H12V8.66645ZM4 7.77756C4 7.67401 4.01333 7.57445 4.03022 7.47578C4.01244 7.57401 4 7.67401 4 7.77756ZM4.24667 6.88867L4.24533 6.89089L4.24667 6.88867ZM4.05689 7.35267C4.068 7.30734 4.08356 7.26423 4.09778 7.22067C4.08267 7.26423 4.06844 7.30778 4.05689 7.35267ZM12 7.77756H20C20 7.67401 19.9876 7.57356 19.9693 7.47534C19.9618 7.43445 19.9538 7.39356 19.9431 7.35356C19.9311 7.30778 19.9169 7.26334 19.9013 7.21934C19.8618 7.10467 19.8138 6.99401 19.7538 6.89045C19.7542 6.89001 19.7538 6.88912 19.7533 6.88867H12V7.77756Z" fill="#EEEEEE"/>
<path d="M12 6H5.77778C4.796 6 4 6.796 4 7.77778V12.2222H12V6Z" fill="#3C3B6E"/>
<path d="M4.88867 7.21134L5.16334 7.41089L5.05845 7.73312L5.33267 7.53401L5.60734 7.73312L5.50245 7.41089L5.77712 7.21134H5.43756L5.33267 6.88867L5.22823 7.21134H4.88867ZM5.77756 8.10023L6.05223 8.29978L5.94734 8.62201L6.22156 8.42289L6.49623 8.62201L6.39134 8.29978L6.66601 8.10023H6.32645L6.22156 7.77756L6.11712 8.10023H5.77756ZM7.55534 8.10023L7.83001 8.29978L7.72512 8.62201L7.99934 8.42289L8.27401 8.62201L8.16912 8.29978L8.44378 8.10023H8.10423L7.99934 7.77756L7.89489 8.10023H7.55534ZM9.33312 8.10023L9.60778 8.29978L9.50289 8.62201L9.77712 8.42289L10.0518 8.62201L9.94689 8.29978L10.2216 8.10023H9.88201L9.77712 7.77756L9.67267 8.10023H9.33312ZM5.77756 9.87801L6.05223 10.0776L5.94734 10.3998L6.22156 10.2007L6.49623 10.3998L6.39134 10.0776L6.66601 9.87801H6.32645L6.22156 9.55534L6.11712 9.87801H5.77756ZM7.55534 9.87801L7.83001 10.0776L7.72512 10.3998L7.99934 10.2007L8.27401 10.3998L8.16912 10.0776L8.44378 9.87801H8.10423L7.99934 9.55534L7.89489 9.87801H7.55534ZM9.33312 9.87801L9.60778 10.0776L9.50289 10.3998L9.77712 10.2007L10.0518 10.3998L9.94689 10.0776L10.2216 9.87801H9.88201L9.77712 9.55534L9.67267 9.87801H9.33312ZM6.66645 7.21134L6.94112 7.41089L6.83623 7.73312L7.11045 7.53401L7.38512 7.73312L7.28023 7.41089L7.55489 7.21134H7.21534L7.11045 6.88867L7.00601 7.21134H6.66645ZM8.44423 7.21134L8.71889 7.41089L8.61401 7.73312L8.88823 7.53401L9.16289 7.73312L9.05801 7.41089L9.33267 7.21134H8.99312L8.88823 6.88867L8.78378 7.21134H8.44423ZM10.222 7.21134L10.4967 7.41089L10.3918 7.73312L10.666 7.53401L10.9407 7.73312L10.8358 7.41089L11.1104 7.21134H10.7709L10.666 6.88867L10.5616 7.21134H10.222ZM4.88867 8.98912L5.16334 9.18867L5.05845 9.51089L5.33267 9.31178L5.60734 9.51089L5.50245 9.18867L5.77712 8.98912H5.43756L5.33267 8.66645L5.22823 8.98912H4.88867ZM6.83623 9.51089L7.11045 9.31178L7.38512 9.51089L7.28023 9.18867L7.55489 8.98912H7.21534L7.11045 8.66645L7.00601 8.98912H6.66645L6.94112 9.18867L6.83623 9.51089ZM8.44423 8.98912L8.71889 9.18867L8.61401 9.51089L8.88823 9.31178L9.16289 9.51089L9.05801 9.18867L9.33267 8.98912H8.99312L8.88823 8.66645L8.78378 8.98912H8.44423ZM10.222 8.98912L10.4967 9.18867L10.3918 9.51089L10.666 9.31178L10.9407 9.51089L10.8358 9.18867L11.1104 8.98912H10.7709L10.666 8.66645L10.5616 8.98912H10.222ZM4.88867 10.7669L5.16334 10.9664L5.05845 11.2887L5.33267 11.0896L5.60734 11.2887L5.50245 10.9664L5.77712 10.7669H5.43756L5.33267 10.4442L5.22823 10.7669H4.88867ZM6.83623 11.2887L7.11045 11.0896L7.38512 11.2887L7.28023 10.9664L7.55489 10.7669H7.21534L7.11045 10.4442L7.00601 10.7669H6.66645L6.94112 10.9664L6.83623 11.2887ZM8.44423 10.7669L8.71889 10.9664L8.61401 11.2887L8.88823 11.0896L9.16289 11.2887L9.05801 10.9664L9.33267 10.7669H8.99312L8.88823 10.4442L8.78378 10.7669H8.44423ZM10.222 10.7669L10.4967 10.9664L10.3918 11.2887L10.666 11.0896L10.9407 11.2887L10.8358 10.9664L11.1104 10.7669H10.7709L10.666 10.4442L10.5616 10.7669H10.222Z" fill="white"/>
</svg>
