<svg width="149" height="165" viewBox="0 0 149 165" fill="none" xmlns="http://www.w3.org/2000/svg">
<rect y="5" width="128" height="160" rx="8" fill="#F5F7F9"/>
<path d="M67.7814 80.5729C50.9148 70.7979 34.8787 76.4999 28.969 80.5729C34.0801 67.7152 53.1669 42 88.6252 42C124.083 42 143.17 67.7152 148.281 80.5729C131.798 70.7979 115.059 76.4999 108.75 80.5729C91.6918 70.9895 74.33 76.5798 67.7814 80.5729Z" fill="#EF6FFF"/>
<path d="M108.75 80.5731C91.2606 71.2294 77.8439 76.5002 67.7814 80.5731C67.7814 57.3333 81.5974 45.2545 88.3856 42.0002C103.144 49.4294 108.111 70.7311 108.75 80.5731Z" fill="#9A5BFF"/>
<rect x="86.9481" y="76.0209" width="1.91666" height="35.4583" fill="#CCCCCC"/>
<rect x="85.9898" y="111.958" width="3.83333" height="11.9791" fill="#EF6FFF"/>
<path fill-rule="evenodd" clip-rule="evenodd" d="M85.9898 123.937C85.9898 123.937 85.9898 123.937 85.9898 123.937C85.9898 129.495 90.4949 134 96.0523 134C101.61 134 106.115 129.495 106.115 123.937C106.115 123.937 106.115 123.937 106.115 123.937H102.281C102.281 123.937 102.281 123.938 102.281 123.938C102.281 127.378 99.4926 130.167 96.0523 130.167C92.612 130.167 89.8232 127.378 89.8232 123.938C89.8232 123.938 89.8232 123.937 89.8232 123.937H85.9898Z" fill="#EF6FFF"/>
<line x1="24" y1="96" x2="24" y2="132" stroke="#0060DF" stroke-width="2" stroke-linecap="round"/>
<line x1="58" y1="2" x2="58" y2="20" stroke="#0060DF" stroke-width="2" stroke-linecap="round"/>
<line x1="24" y1="21" x2="24" y2="39" stroke="#0060DF" stroke-width="2" stroke-linecap="round"/>
<line x1="102" y1="1" x2="102" y2="19" stroke="#0060DF" stroke-width="2" stroke-linecap="round"/>
<line x1="8" y1="136" x2="8" y2="154" stroke="#0060DF" stroke-width="2" stroke-linecap="round"/>
<line x1="24" y1="50" x2="24" y2="68" stroke="#0060DF" stroke-width="2" stroke-linecap="round"/>
<line x1="8" y1="93" x2="8" y2="121" stroke="#0060DF" stroke-width="2" stroke-linecap="round"/>
<line x1="94" y1="14" x2="94" y2="32" stroke="#0060DF" stroke-width="2" stroke-linecap="round"/>
<line x1="32" y1="9" x2="32" y2="27" stroke="#0060DF" stroke-width="2" stroke-linecap="round"/>
<line x1="67" y1="12" x2="67" y2="34" stroke="#0060DF" stroke-width="2" stroke-linecap="round"/>
<line x1="75" y1="1" x2="75" y2="27" stroke="#0060DF" stroke-width="2" stroke-linecap="round"/>
<line x1="32" y1="35" x2="32" y2="61" stroke="#0060DF" stroke-width="2" stroke-linecap="round"/>
<line x1="16" y1="39" x2="16" y2="88" stroke="#0060DF" stroke-width="2" stroke-linecap="round"/>
<line x1="41" y1="26" x2="41" y2="50" stroke="#0060DF" stroke-width="2" stroke-linecap="round"/>
<line x1="102" y1="25" x2="102" y2="34" stroke="#0060DF" stroke-width="2" stroke-linecap="round"/>
<line x1="111" y1="8" x2="111" y2="17" stroke="#0060DF" stroke-width="2" stroke-linecap="round"/>
<line x1="48" y1="19" x2="48" y2="28" stroke="#0060DF" stroke-width="2" stroke-linecap="round"/>
<line x1="8" y1="31" x2="8" y2="49" stroke="#0060DF" stroke-width="2" stroke-linecap="round"/>
<line x1="120" y1="28" x2="120" y2="46" stroke="#0060DF" stroke-width="2" stroke-linecap="round"/>
<line x1="8" y1="70" x2="8" y2="84" stroke="#0060DF" stroke-width="2" stroke-linecap="round"/>
<line x1="120" y1="12" x2="120" y2="23" stroke="#0060DF" stroke-width="2" stroke-linecap="round"/>
<line x1="85" y1="9" x2="85" y2="18" stroke="#0060DF" stroke-width="2" stroke-linecap="round"/>
<line x1="8" y1="9" x2="8" y2="18" stroke="#0060DF" stroke-width="2" stroke-linecap="round"/>
<line x1="85" y1="24" x2="85" y2="33" stroke="#0060DF" stroke-width="2" stroke-linecap="round"/>
<line x1="48" y1="35" x2="48" y2="44" stroke="#0060DF" stroke-width="2" stroke-linecap="round"/>
<line x1="24" y1="78" x2="24" y2="87" stroke="#0060DF" stroke-width="2" stroke-linecap="round"/>
<line x1="16" y1="99" x2="16" y2="112" stroke="#0060DF" stroke-width="2" stroke-linecap="round"/>
<line x1="8" y1="56" x2="8" y2="65" stroke="#0060DF" stroke-width="2" stroke-linecap="round"/>
<line x1="16" y1="124" x2="16" y2="133" stroke="#0060DF" stroke-width="2" stroke-linecap="round"/>
<line x1="75" y1="33" x2="75" y2="39" stroke="#0060DF" stroke-width="2" stroke-linecap="round"/>
<line x1="58" y1="39" x2="58" y2="45" stroke="#0060DF" stroke-width="2" stroke-linecap="round"/>
<line x1="48" y1="3" x2="48" y2="12" stroke="#0060DF" stroke-width="2" stroke-linecap="round"/>
<line x1="58" y1="25" x2="58" y2="34" stroke="#0060DF" stroke-width="2" stroke-linecap="round"/>
<line x1="23" y1="151" x2="23" y2="157" stroke="#0060DF" stroke-width="2" stroke-linecap="round"/>
<line x1="16" y1="16" x2="16" y2="30" stroke="#0060DF" stroke-width="2" stroke-linecap="round"/>
<line x1="24" y1="139" x2="24" y2="145" stroke="#0060DF" stroke-width="2" stroke-linecap="round"/>
<line x1="111" y1="24" x2="111" y2="40" stroke="#0060DF" stroke-width="2" stroke-linecap="round"/>
</svg>
