<svg width="149" height="166" viewBox="0 0 149 166" fill="none" xmlns="http://www.w3.org/2000/svg">
<rect x="9" width="140" height="160" rx="8" fill="url(#paint0_linear_207_529)"/>
<circle opacity="0.2" cx="27.5" cy="89.5" r="27.5" fill="white"/>
<circle opacity="0.4" cx="52.5" cy="49.5" r="27.5" fill="white"/>
<circle opacity="0.4" cx="109.5" cy="128.5" r="37.5" fill="white"/>
<circle opacity="0.2" cx="64.5" cy="136.5" r="18.5" fill="white"/>
<rect x="19.5" y="14.5" width="119" height="25" rx="3.5" fill="white" stroke="#CCCCCC"/>
<g clip-path="url(#clip0_207_529)">
<path d="M37.9959 23.498C37.9959 22.8834 37.493 22.3806 36.8785 22.3806H27.9392C27.3246 22.3806 26.8218 22.8834 26.8218 23.498V30.2025C26.8218 30.8171 27.3246 31.3199 27.9392 31.3199H36.8785C37.493 31.3199 37.9959 30.8171 37.9959 30.2025V23.498ZM36.8785 23.498L32.4088 26.286L27.9392 23.498H36.8785ZM36.8785 30.2025H27.9392V24.6154L32.4088 27.409L36.8785 24.6154V30.2025Z" fill="#CCCCCC"/>
</g>
<g filter="url(#filter0_d_207_529)">
<rect x="39" y="46" width="100" height="94" rx="4" fill="#F5F7F9"/>
</g>
<rect opacity="0.5" x="48" y="99" width="84" height="8" rx="4" fill="#CCCCCC"/>
<rect opacity="0.5" x="48" y="85" width="63" height="8" rx="4" fill="#CCCCCC"/>
<rect opacity="0.5" x="48" y="71" width="78" height="8" rx="4" fill="#CCCCCC"/>
<rect opacity="0.5" x="48" y="57" width="84" height="8" rx="4" fill="#CCCCCC"/>
<g clip-path="url(#clip1_207_529)">
<path d="M60.4149 116.164L55.1367 113.154C54.9513 113.052 54.7437 112.998 54.5327 112.998C54.3217 112.998 54.1141 113.052 53.9287 113.154L48.6319 116.164C48.4407 116.273 48.2814 116.431 48.1704 116.623C48.0594 116.815 48.0006 117.033 48 117.255V123.257C47.9983 123.479 48.0561 123.698 48.1673 123.89C48.2786 124.082 48.4391 124.241 48.6319 124.348L53.9101 127.339C54.0952 127.452 54.3074 127.51 54.5234 127.508C54.739 127.508 54.9507 127.449 55.1367 127.339L60.4149 124.348C60.6061 124.239 60.7654 124.08 60.8764 123.889C60.9874 123.697 61.0462 123.479 61.0468 123.257V117.255C61.0523 117.032 60.996 116.811 60.8844 116.618C60.7727 116.426 60.6102 116.268 60.4149 116.164V116.164Z" fill="url(#paint1_linear_207_529)"/>
<path d="M50.8435 121.827L50.5276 122.015C50.471 122.047 50.4213 122.09 50.3813 122.141C50.3413 122.193 50.3117 122.252 50.2944 122.315C50.2771 122.378 50.2724 122.444 50.2805 122.508C50.2886 122.573 50.3094 122.636 50.3417 122.693C50.3832 122.771 50.4448 122.837 50.5199 122.883C50.5951 122.93 50.6812 122.955 50.7692 122.956C50.8528 122.955 50.9353 122.936 51.0108 122.9L51.3267 122.711C51.3833 122.68 51.433 122.637 51.473 122.586C51.5131 122.534 51.5426 122.475 51.5599 122.412C51.5772 122.349 51.5819 122.283 51.5738 122.218C51.5657 122.154 51.5449 122.091 51.5126 122.034C51.4839 121.974 51.4433 121.921 51.3934 121.878C51.3435 121.835 51.2854 121.803 51.2226 121.783C51.1598 121.764 51.0937 121.758 51.0285 121.765C50.9633 121.773 50.9003 121.794 50.8435 121.827V121.827ZM52.7764 120.717L52.1259 121.094C52.0694 121.125 52.0196 121.168 51.9796 121.219C51.9396 121.271 51.9101 121.33 51.8928 121.393C51.8755 121.456 51.8707 121.522 51.8789 121.587C51.887 121.651 51.9078 121.714 51.9401 121.771C51.9816 121.849 52.0431 121.915 52.1183 121.962C52.1935 122.008 52.2795 122.033 52.3675 122.034C52.4512 122.033 52.5336 122.014 52.6091 121.978L53.2596 121.601C53.3161 121.57 53.3659 121.527 53.4059 121.476C53.4459 121.424 53.4755 121.365 53.4928 121.302C53.5101 121.239 53.5148 121.173 53.5067 121.108C53.4985 121.044 53.4777 120.981 53.4455 120.924C53.4168 120.864 53.3762 120.811 53.3263 120.768C53.2764 120.725 53.2183 120.693 53.1555 120.673C53.0927 120.654 53.0266 120.648 52.9614 120.655C52.8962 120.663 52.8332 120.684 52.7764 120.717V120.717ZM55.3969 119.797C55.3707 119.744 55.3342 119.696 55.2895 119.658C55.2448 119.619 55.1928 119.59 55.1367 119.572V115.788C55.137 115.721 55.1242 115.655 55.099 115.593C55.0739 115.532 55.0369 115.476 54.9903 115.428C54.9437 115.381 54.8882 115.344 54.8272 115.318C54.7663 115.293 54.7009 115.28 54.6349 115.28C54.5699 115.28 54.5057 115.294 54.4459 115.32C54.3862 115.345 54.3322 115.383 54.2871 115.431C54.242 115.478 54.2068 115.534 54.1835 115.595C54.1603 115.657 54.1495 115.722 54.1517 115.788V119.588C54.0956 119.606 54.0436 119.636 53.9989 119.675C53.9542 119.713 53.9177 119.761 53.8915 119.814C53.8566 119.88 53.8368 119.954 53.8336 120.028C53.8304 120.103 53.8438 120.178 53.8729 120.247C53.8438 120.316 53.8304 120.391 53.8336 120.465C53.8368 120.54 53.8566 120.614 53.8915 120.68C53.9177 120.733 53.9542 120.781 53.9989 120.819C54.0436 120.858 54.0956 120.887 54.1517 120.905V124.706C54.1517 124.84 54.2046 124.97 54.2987 125.065C54.3928 125.16 54.5204 125.214 54.6535 125.214C54.7866 125.214 54.9142 125.16 55.0083 125.065C55.1024 124.97 55.1553 124.84 55.1553 124.706V120.887C55.2114 120.869 55.2634 120.839 55.3081 120.8C55.3528 120.762 55.3893 120.714 55.4155 120.661C55.4504 120.595 55.4702 120.521 55.4734 120.447C55.4767 120.372 55.4632 120.297 55.4341 120.228C55.4771 120.085 55.4638 119.931 55.3969 119.797V119.797ZM56.6626 118.497L56.0121 118.874C55.9556 118.905 55.9058 118.948 55.8658 118.999C55.8258 119.051 55.7962 119.11 55.7789 119.173C55.7616 119.236 55.7569 119.302 55.765 119.367C55.7732 119.432 55.794 119.494 55.8262 119.551C55.8677 119.629 55.9293 119.695 56.0045 119.742C56.0796 119.788 56.1657 119.813 56.2537 119.814C56.3373 119.813 56.4198 119.794 56.4953 119.758L57.1458 119.381C57.2023 119.35 57.2521 119.307 57.2921 119.256C57.3321 119.204 57.3616 119.145 57.3789 119.082C57.3962 119.019 57.401 118.953 57.3928 118.888C57.3847 118.824 57.3639 118.761 57.3316 118.704C57.3029 118.644 57.2624 118.591 57.2125 118.548C57.1626 118.505 57.1044 118.473 57.0416 118.453C56.9789 118.434 56.9128 118.428 56.8476 118.435C56.7824 118.443 56.7194 118.464 56.6626 118.497V118.497ZM58.2033 118.685C58.2869 118.685 58.3694 118.665 58.4449 118.629L58.7609 118.441C58.8173 118.409 58.867 118.366 58.907 118.315C58.947 118.263 58.9766 118.204 58.9941 118.141C59.0116 118.078 59.0166 118.012 59.0088 117.947C59.001 117.882 58.9806 117.819 58.9488 117.762C58.917 117.705 58.8743 117.655 58.8233 117.615C58.7723 117.575 58.714 117.545 58.6516 117.528C58.5892 117.51 58.5241 117.506 58.4599 117.514C58.3957 117.522 58.3338 117.543 58.2776 117.575L57.9617 117.764C57.9052 117.795 57.8554 117.838 57.8154 117.889C57.7754 117.941 57.7458 118 57.7285 118.063C57.7112 118.126 57.7065 118.192 57.7146 118.257C57.7228 118.322 57.7436 118.384 57.7758 118.441C57.8184 118.517 57.8807 118.58 57.956 118.623C58.0313 118.666 58.1168 118.688 58.2033 118.685ZM58.7609 122.015L58.4449 121.827C58.3316 121.763 58.1978 121.747 58.0728 121.783C57.9478 121.818 57.8418 121.902 57.7779 122.017C57.714 122.131 57.6975 122.266 57.7319 122.393C57.7664 122.52 57.849 122.627 57.9617 122.693L58.2776 122.881C58.3531 122.917 58.4356 122.937 58.5192 122.937C58.6072 122.936 58.6933 122.911 58.7685 122.865C58.8437 122.818 58.9052 122.752 58.9467 122.674C58.98 122.619 59.0016 122.558 59.0102 122.494C59.0188 122.43 59.0142 122.365 58.9968 122.303C58.9793 122.241 58.9493 122.184 58.9087 122.134C58.8681 122.085 58.8177 122.044 58.7609 122.015V122.015ZM57.1439 121.094L56.4935 120.717C56.4373 120.685 56.3754 120.664 56.3112 120.656C56.247 120.647 56.1819 120.652 56.1195 120.67C56.0571 120.687 55.9988 120.717 55.9478 120.757C55.8968 120.797 55.8541 120.847 55.8223 120.904C55.7905 120.961 55.7701 121.024 55.7623 121.089C55.7545 121.154 55.7595 121.22 55.777 121.283C55.7944 121.346 55.824 121.405 55.8641 121.456C55.9041 121.508 55.9538 121.551 56.0102 121.583L56.6607 121.959C56.7362 121.995 56.8187 122.015 56.9023 122.015C56.9903 122.014 57.0764 121.989 57.1516 121.943C57.2267 121.896 57.2883 121.831 57.3298 121.752C57.3636 121.697 57.3857 121.636 57.3946 121.572C57.4036 121.508 57.3991 121.443 57.3816 121.381C57.3641 121.319 57.3339 121.261 57.2929 121.212C57.252 121.162 57.2012 121.122 57.1439 121.094V121.094ZM52.1259 119.363L52.7764 119.739C52.8519 119.775 52.9344 119.795 53.018 119.795C53.106 119.794 53.1921 119.769 53.2672 119.723C53.3424 119.676 53.404 119.611 53.4455 119.532C53.4777 119.475 53.4985 119.413 53.5067 119.348C53.5148 119.283 53.5101 119.217 53.4928 119.154C53.4755 119.091 53.4459 119.032 53.4059 118.981C53.3659 118.929 53.3161 118.886 53.2596 118.855L52.6091 118.478C52.5531 118.446 52.4913 118.425 52.4271 118.416C52.363 118.408 52.2979 118.413 52.2356 118.431C52.1734 118.448 52.1152 118.478 52.0644 118.518C52.0137 118.559 51.9714 118.609 51.9401 118.667C51.8778 118.785 51.8624 118.923 51.8969 119.052C51.9314 119.181 52.0133 119.292 52.1259 119.363V119.363ZM51.3267 117.764L51.0108 117.575C50.9546 117.543 50.8927 117.522 50.8285 117.514C50.7643 117.506 50.6992 117.51 50.6368 117.528C50.5745 117.545 50.5161 117.575 50.4651 117.615C50.4141 117.655 50.3715 117.705 50.3396 117.762C50.3078 117.819 50.2874 117.882 50.2797 117.947C50.2719 118.012 50.2769 118.078 50.2943 118.141C50.3118 118.204 50.3414 118.263 50.3814 118.315C50.4214 118.366 50.4711 118.409 50.5276 118.441L50.8435 118.629C50.919 118.665 51.0015 118.685 51.0851 118.685C51.1731 118.684 51.2592 118.659 51.3344 118.613C51.4096 118.566 51.4711 118.501 51.5126 118.422C51.5442 118.367 51.5645 118.305 51.5723 118.242C51.58 118.179 51.5751 118.114 51.5577 118.053C51.5404 117.991 51.511 117.934 51.4713 117.884C51.4316 117.835 51.3825 117.794 51.3267 117.764V117.764Z" fill="#20133A"/>
</g>
<path d="M40.9982 120.029C41.0149 119.861 40.907 119.705 40.7434 119.662C40.0688 119.542 38.195 119.1 37.5654 118.463C36.9357 117.826 36.486 115.952 36.3661 115.285C36.3372 115.121 36.1953 115.001 36.0288 115V119.999L40.9982 120.029Z" fill="#FFEA80"/>
<path d="M35.9991 115.03C35.8314 115.034 35.6903 115.157 35.6618 115.322C35.5568 115.989 35.1371 117.863 34.5075 118.493C33.8779 119.122 31.9666 119.572 31.292 119.692C31.1281 119.721 31.0082 119.863 31.0071 120.029H36.0066L35.9991 115.03Z" fill="#FFD567"/>
<path d="M35.9997 120.029V125.029C36.1662 125.028 36.3081 124.908 36.337 124.744C36.4569 124.062 36.8992 122.166 37.5363 121.528C38.1734 120.891 40.0397 120.479 40.7068 120.374C40.8749 120.345 40.998 120.2 40.9991 120.029H35.9997Z" fill="#FFD567"/>
<path d="M31 120.029C30.9975 120.199 31.1182 120.345 31.2849 120.374C31.9669 120.479 33.8633 120.899 34.5004 121.528C35.1375 122.158 35.5497 124.062 35.6547 124.737C35.6804 124.903 35.8231 125.027 35.992 125.029V120.029H31Z" fill="#FFA266"/>
<path d="M34.0043 135.026C34.0177 134.892 33.9313 134.767 33.8003 134.732C33.2603 134.636 31.7601 134.282 31.2561 133.772C30.752 133.262 30.392 131.762 30.296 131.228C30.2728 131.097 30.1592 131.001 30.0259 131V135.002L34.0043 135.026Z" fill="#FFEA80"/>
<path d="M30.0021 131.024C29.8678 131.028 29.7549 131.126 29.7321 131.258C29.6481 131.792 29.312 133.292 28.808 133.796C28.3039 134.3 26.7738 134.66 26.2337 134.756C26.1025 134.779 26.0065 134.893 26.0057 135.026H30.0081L30.0021 131.024Z" fill="#FFD567"/>
<path d="M30.0027 135.026V139.029C30.1359 139.028 30.2495 138.932 30.2727 138.801C30.3687 138.255 30.7228 136.737 31.2328 136.227C31.7429 135.717 33.237 135.387 33.7711 135.303C33.9056 135.279 34.0042 135.163 34.0051 135.026H30.0027Z" fill="#FFD567"/>
<path d="M26 135.026C25.998 135.162 26.0946 135.279 26.2281 135.303C26.7741 135.387 28.2923 135.723 28.8023 136.227C29.3124 136.731 29.6424 138.255 29.7264 138.795C29.747 138.928 29.8613 139.028 29.9964 139.029V135.026H26Z" fill="#FFA266"/>
<path d="M56.997 143.053C57.027 142.75 56.8327 142.47 56.5383 142.392C55.324 142.176 51.9511 141.38 50.8178 140.233C49.6845 139.086 48.8749 135.713 48.6591 134.513C48.607 134.218 48.3515 134.002 48.0519 134V142.999L56.997 143.053Z" fill="#FFEA80"/>
<path d="M47.9983 134.054C47.6965 134.062 47.4425 134.282 47.3912 134.58C47.2023 135.781 46.4468 139.154 45.3134 140.287C44.1801 141.42 40.7397 142.23 39.5254 142.446C39.2304 142.498 39.0147 142.753 39.0128 143.053H48.0118L47.9983 134.054Z" fill="#FFD567"/>
<path d="M47.9997 143.053V152.052C48.2993 152.05 48.5547 151.835 48.6068 151.539C48.8227 150.312 49.6187 146.898 50.7655 145.751C51.9123 144.605 55.2718 143.863 56.4725 143.674C56.775 143.621 56.9967 143.36 56.9987 143.053H47.9997Z" fill="#FFD567"/>
<path d="M39.0001 143.053C38.9954 143.358 39.2127 143.621 39.5128 143.674C40.7405 143.863 44.154 144.618 45.3008 145.751C46.4476 146.885 47.1896 150.312 47.3785 151.526C47.4247 151.826 47.6817 152.049 47.9856 152.052V143.053H39.0001Z" fill="#FFA266"/>
<rect x="43" y="23" width="66" height="8" rx="4" fill="#ECECEC"/>
<rect x="65" y="116" width="67" height="8" rx="4" fill="#E76DFF"/>
<defs>
<filter id="filter0_d_207_529" x="29" y="40" width="120" height="114" filterUnits="userSpaceOnUse" color-interpolation-filters="sRGB">
<feFlood flood-opacity="0" result="BackgroundImageFix"/>
<feColorMatrix in="SourceAlpha" type="matrix" values="0 0 0 0 0 0 0 0 0 0 0 0 0 0 0 0 0 0 127 0" result="hardAlpha"/>
<feOffset dy="4"/>
<feGaussianBlur stdDeviation="5"/>
<feComposite in2="hardAlpha" operator="out"/>
<feColorMatrix type="matrix" values="0 0 0 0 0 0 0 0 0 0 0 0 0 0 0 0 0 0 0.16 0"/>
<feBlend mode="normal" in2="BackgroundImageFix" result="effect1_dropShadow_207_529"/>
<feBlend mode="normal" in="SourceGraphic" in2="effect1_dropShadow_207_529" result="shape"/>
</filter>
<linearGradient id="paint0_linear_207_529" x1="79" y1="53" x2="79" y2="199" gradientUnits="userSpaceOnUse">
<stop stop-color="#B00FBF"/>
<stop offset="1" stop-color="#660D7D"/>
</linearGradient>
<linearGradient id="paint1_linear_207_529" x1="48" y1="120.254" x2="61.0487" y2="120.254" gradientUnits="userSpaceOnUse">
<stop stop-color="#9059FF"/>
<stop offset="1" stop-color="#F770FF"/>
</linearGradient>
<clipPath id="clip0_207_529">
<rect width="13.4089" height="13.4089" fill="white" transform="translate(25.7044 20.1458)"/>
</clipPath>
<clipPath id="clip1_207_529">
<rect width="14.3478" height="15" fill="white" transform="translate(48 113)"/>
</clipPath>
</defs>
</svg>
