<svg width="10" height="11" viewBox="0 0 10 11" fill="none" xmlns="http://www.w3.org/2000/svg">
<path d="M9.72504 0.982192C9.43254 0.695428 8.96004 0.695428 8.66754 0.982192L5.00004 4.57043L1.33254 0.974839C1.04004 0.688074 0.567539 0.688074 0.275039 0.974839C-0.0174609 1.2616 -0.0174609 1.72484 0.275039 2.0116L3.94254 5.60719L0.275039 9.20278C-0.0174609 9.48954 -0.0174609 9.95278 0.275039 10.2395C0.567539 10.5263 1.04004 10.5263 1.33254 10.2395L5.00004 6.64396L8.66754 10.2395C8.96004 10.5263 9.43254 10.5263 9.72504 10.2395C10.0175 9.95278 10.0175 9.48954 9.72504 9.20278L6.05754 5.60719L9.72504 2.0116C10.01 1.73219 10.01 1.2616 9.72504 0.982192V0.982192Z" fill="#6D6D6E"/>
</svg>
