<svg width="94" height="16" viewBox="0 0 94 16" fill="none" xmlns="http://www.w3.org/2000/svg">
<path d="M9.18822 3.26713V1.42539H0.857666V12.5243H2.87182V7.91994H8.59203V6.0782H2.87182V3.26713H9.18822Z" fill="black"/>
<path d="M11.2074 2.9117C11.8197 2.9117 12.3192 2.37857 12.3192 1.78081C12.3192 1.18306 11.8197 0.666077 11.2074 0.666077C10.579 0.666077 10.0794 1.18306 10.0794 1.78081C10.0794 2.37857 10.579 2.9117 11.2074 2.9117ZM10.2084 12.5243H12.1742V4.17184H10.2084V12.5243Z" fill="black"/>
<path d="M15.6896 5.7874V4.17184H13.7238V12.5243H15.6896V8.30767C15.6896 6.72442 16.882 5.65815 18.6705 5.65815V3.97797C17.3009 3.97797 16.2213 4.67266 15.6896 5.7874Z" fill="black"/>
<path d="M23.3389 10.9733C22.1466 10.9733 21.2764 10.1656 21.0347 9.01852H27.3189C27.3189 5.9328 25.8204 3.97797 23.2423 3.97797C20.8736 3.97797 19.0045 5.81971 19.0045 8.32383C19.0045 10.8926 20.9703 12.7181 23.3551 12.7181C24.5636 12.7181 26.0137 12.2012 26.7388 11.4257L25.4981 10.1333C25.0308 10.6179 24.1124 10.9733 23.3389 10.9733ZM23.3228 5.72278C24.4991 5.72278 25.2081 6.46593 25.4337 7.51605H21.0509C21.3409 6.41747 22.2271 5.72278 23.3228 5.72278Z" fill="black"/>
<path d="M30.8652 3.47715C30.8652 2.9117 31.2197 2.50781 31.687 2.50781C32.0253 2.50781 32.3315 2.63706 32.5087 2.81477L33.0727 1.55463C32.6054 1.15074 31.9287 0.892255 31.3002 0.892255C29.9145 0.892255 28.9477 1.8939 28.9477 3.29944V4.17184H27.7392V5.80356H28.9477V12.5243H30.8652V5.80356H32.7504V4.17184H30.8652V3.47715Z" fill="black"/>
<path d="M37.6722 12.7181C40.0892 12.7181 42.1356 10.7149 42.1356 8.33998C42.1356 5.96511 40.0892 3.97797 37.6722 3.97797C35.2553 3.97797 33.2089 5.96511 33.2089 8.33998C33.2089 10.7149 35.2553 12.7181 37.6722 12.7181ZM37.6722 11.038C36.2865 11.038 35.1263 9.81014 35.1263 8.33998C35.1263 6.88598 36.2865 5.65815 37.6722 5.65815C39.0419 5.65815 40.202 6.88598 40.202 8.33998C40.202 9.81014 39.0419 11.038 37.6722 11.038Z" fill="black"/>
<path d="M50.8069 12.5243L47.6809 8.24305L50.6619 4.17184H48.5188L46.6175 6.77289L44.7161 4.17184H42.5569L45.5379 8.25921L42.4119 12.5243H44.555L46.6013 9.72936L48.6316 12.5243H50.8069Z" fill="black"/>
<path d="M65.2573 4.9312C65.2573 2.87944 63.5332 1.42543 61.2612 1.42543H56.7173V12.5243H57.7485V8.42081H60.9551L63.8393 12.5243H65.0317L62.0991 8.35618C63.9521 8.04923 65.2573 6.72447 65.2573 4.9312ZM57.7485 2.41093H61.084C62.937 2.41093 64.2261 3.38026 64.2261 4.9312C64.2261 6.46598 62.937 7.43532 61.084 7.43532H57.7485V2.41093Z" fill="black"/>
<path d="M70.1367 11.7973C68.4287 11.7973 67.1557 10.4726 66.9785 8.74392H74.02C74.02 5.86822 72.5376 3.97802 70.0722 3.97802C67.8164 3.97802 65.9634 5.85207 65.9634 8.32387C65.9634 10.828 67.9131 12.7182 70.1367 12.7182C71.3613 12.7182 72.8276 12.2012 73.5366 11.4257L72.9082 10.7472C72.3281 11.3773 71.1841 11.7973 70.1367 11.7973ZM70.1045 4.89889C71.8608 4.89889 72.8921 6.14287 73.021 7.82305H66.9946C67.2041 6.0944 68.477 4.89889 70.1045 4.89889Z" fill="black"/>
<path d="M75.3261 12.5243H76.3252V1.23157H75.3261V12.5243Z" fill="black"/>
<path d="M81.4363 3.97802C80.6145 3.97802 79.5833 4.2042 78.4876 4.7858L78.8904 5.60973C79.6477 5.18969 80.5178 4.86658 81.3557 4.86658C83.2249 4.86658 83.7727 6.20749 83.7727 7.43532V7.77458C82.8865 7.48378 81.8875 7.27376 80.9851 7.27376C79.116 7.27376 77.6819 8.40465 77.6819 10.0525C77.6819 11.6681 78.971 12.7182 80.7112 12.7182C81.8391 12.7182 83.1604 12.1851 83.7727 11.1996V12.5243H84.7717V7.43532C84.7717 5.41587 83.6277 3.97802 81.4363 3.97802ZM80.8723 11.8135C79.6316 11.8135 78.6648 11.1188 78.6648 10.0041C78.6648 8.92163 79.7444 8.14616 81.1301 8.14616C82.0647 8.14616 82.9832 8.32387 83.7727 8.56621V9.90712C83.4505 11.1996 82.0325 11.8135 80.8723 11.8135Z" fill="black"/>
<path d="M87.6676 15.4323C88.8277 15.4162 89.6334 14.883 90.1651 13.5583L94.0001 4.17189H92.9205L90.004 11.4581L86.9263 4.17189H85.8306L89.4884 12.6536L88.9888 13.736C88.6827 14.2853 88.2476 14.5115 87.6353 14.5115C87.2808 14.5115 86.9102 14.4307 86.6041 14.2691L86.3463 15.1577C86.733 15.3354 87.2003 15.4323 87.6676 15.4323Z" fill="black"/>
</svg>
