<svg width="129" height="131" viewBox="0 0 129 131" fill="none" xmlns="http://www.w3.org/2000/svg">
<path fill-rule="evenodd" clip-rule="evenodd" d="M22.5374 75.7588L21.0627 79.8744L72.3994 91.9291L73.6598 85.997L22.5374 75.7588Z" fill="#7FC1C1"/>
<path d="M108.774 125.629C108.774 128.093 84.4225 130.1 54.3869 130.1C24.3512 130.1 0 128.093 0 125.629C0 123.164 24.3512 121.157 54.3869 121.157C84.4225 121.157 108.774 123.088 108.774 125.629Z" fill="#B5B5B4"/>
<path fill-rule="evenodd" clip-rule="evenodd" d="M95.3766 127.56H61.3455C60.1235 127.185 59.0804 126.371 58.4137 125.273C57.747 124.175 57.5031 122.869 57.7281 121.602C58.4087 116.877 62.7697 117.347 67.8996 118.172C73.0295 118.998 93.5489 121.17 93.5489 121.17L95.3766 127.56Z" fill="#2F7274"/>
<path d="M24.7138 27.72C26.1358 27.5718 27.5725 27.6921 28.9491 28.0746C30.3359 28.4383 31.6447 29.0509 32.8118 29.8826C33.1191 30.0792 33.3753 30.3254 33.6571 30.5468L34.0288 30.9285L34.4087 31.3188C34.6565 31.5732 34.9042 31.8277 35.152 32.0822L35.8101 32.9452C35.934 33.0725 36.0579 33.1998 36.1308 33.3766L36.4092 33.8326L36.9741 34.7698C37.3002 35.4108 37.5923 36.0848 37.9098 36.734L37.9759 36.8019C38.0775 37.0142 38.2592 37.1773 38.4812 37.2555C38.7032 37.3337 38.9473 37.3206 39.1599 37.219C39.2644 37.1689 39.358 37.0987 39.4353 37.0124C39.5126 36.926 39.572 36.8253 39.6102 36.7159C39.6484 36.6065 39.6645 36.4907 39.6577 36.3751C39.6509 36.2596 39.6213 36.1465 39.5705 36.0425V36.0425C39.2119 35.3341 38.8786 34.6176 38.4945 33.934L37.8385 32.9203L37.5273 32.4136C37.3869 32.2694 37.2465 32.1252 37.1061 31.9809L36.3566 31.0582C36.0758 30.7698 35.795 30.4813 35.5307 30.2099L35.1095 29.7772L34.6371 29.4109C34.3562 29.1225 34.0074 28.9003 33.6751 28.695C32.3399 27.7991 30.8527 27.1531 29.2859 26.7883C27.7144 26.3858 26.0789 26.2942 24.4711 26.5186C24.389 26.5292 24.3098 26.5557 24.2379 26.5968C24.166 26.638 24.1028 26.6929 24.0521 26.7584C24.0013 26.8239 23.964 26.8988 23.9422 26.9786C23.9203 27.0585 23.9143 27.142 23.9247 27.2241C23.9351 27.3062 23.9616 27.3855 24.0026 27.4573C24.0436 27.5291 24.0984 27.5922 24.1638 27.6428C24.2292 27.6934 24.3041 27.7306 24.384 27.7523C24.4638 27.774 24.5472 27.7797 24.6294 27.7692L24.7138 27.72Z" fill="#C878B2"/>
<path d="M23.8086 29.3918C23.311 29.672 22.7349 29.7797 22.1702 29.6981C21.5028 29.5978 20.9025 29.238 20.5 28.6968C20.1003 28.1499 19.9296 27.4685 20.0243 26.797V26.797C20.1287 26.1308 20.4929 25.5326 21.0369 25.1336C21.304 24.9306 21.6095 24.7843 21.9348 24.7034C22.2602 24.6224 22.5985 24.6086 22.9292 24.6628C23.2587 24.7119 23.5752 24.8255 23.8605 24.997C24.1459 25.1686 24.3946 25.3947 24.5924 25.6626C24.7901 25.9304 24.9331 26.2347 25.013 26.5581C25.093 26.8814 25.1084 27.2175 25.0585 27.547C24.9582 28.215 24.597 28.8163 24.0541 29.2189L23.8086 29.3918ZM21.8711 25.9904L21.7606 26.0979C21.4709 26.3125 21.2767 26.6321 21.2199 26.9879V26.9879C21.1668 27.3461 21.2548 27.7107 21.4652 28.0049C21.5711 28.1495 21.7052 28.2711 21.8594 28.3623C22.0137 28.4535 22.1849 28.5125 22.3627 28.5357C22.5399 28.5653 22.7212 28.5589 22.896 28.5169C23.0708 28.4749 23.2354 28.3982 23.38 28.2913C23.5246 28.1844 23.6464 28.0495 23.7379 27.8947C23.8294 27.7399 23.8888 27.5684 23.9126 27.3902C23.9405 27.2136 23.9324 27.0331 23.8888 26.8598C23.8452 26.6864 23.767 26.5237 23.6589 26.3814C23.4611 26.1129 23.1714 25.9265 22.8449 25.8575C22.5184 25.7886 22.1778 25.8418 21.8876 26.0073L21.8711 25.9904Z" fill="#587078"/>
<path fill-rule="evenodd" clip-rule="evenodd" d="M69.6395 88.6643L20.1304 76.7239C20.1304 76.7239 14.3325 75.0091 17.9247 64.6946C21.5168 54.3801 26.1678 40.9027 31.0835 37.0792C35.9991 33.2558 48.9939 35.8979 55.0313 37.3206C61.0687 38.7433 74.1643 41.8808 79.9874 43.9132C84.9408 45.6408 87.6634 49.7691 85.5333 57.1874C83.9829 62.5733 78.8405 77.3971 76.1432 85.133C75.6789 86.424 74.7592 87.4976 73.5596 88.1489C72.3601 88.8002 70.9647 88.9837 69.6395 88.6643V88.6643Z" fill="#B5EEEA"/>
<path fill-rule="evenodd" clip-rule="evenodd" d="M31.0078 79.3408C31.0078 79.3408 25.109 77.6005 28.7642 67.1082C32.4194 56.6159 33.4655 45.2979 39.1626 40.255C42.5909 37.2064 49.7627 36.7745 54.7665 37.2445C48.6031 35.8218 35.8604 33.3067 31.0835 37.0794C26.3065 40.852 21.5168 54.3676 17.9247 64.6566C14.3325 74.9457 20.1304 76.6859 20.1304 76.6859L74.5046 89.8077L31.0078 79.3408Z" fill="#95D5D6"/>
<path fill-rule="evenodd" clip-rule="evenodd" d="M39.3643 49.6537C37.8897 54.6585 34.7513 65.7352 34.0959 69.6094C33.4405 73.4837 34.8142 76.7864 39.3643 78.0947C42.591 79.022 59.0898 81.9055 68.3538 83.4044C70.1065 83.6965 71.9048 83.3354 73.4126 82.3886C74.9203 81.4419 76.0343 79.9742 76.5465 78.2599L82.2436 59.1298C83.3024 55.5731 84.1847 51.1907 77.6809 49.0567C71.1772 46.9227 56.2539 43.6454 50.4434 42.5657C44.6329 41.486 41.0659 43.8614 39.3643 49.6537Z" fill="#EEFFFF"/>
<path fill-rule="evenodd" clip-rule="evenodd" d="M78.8534 49.5029C83.0758 51.8275 82.2817 55.5747 81.3742 58.6996C80.681 61.0241 77.6812 71.0973 75.6898 77.7534C75.2855 79.1034 74.5054 80.3082 73.4419 81.2246C72.3784 82.141 71.0763 82.7306 69.6902 82.9233C69.0368 83.0733 68.3688 83.15 67.6986 83.152C67.4844 83.152 67.2827 83.152 67.0811 83.152L68.3415 83.3806C70.0941 83.6727 71.8924 83.3117 73.4002 82.3649C74.9079 81.4181 76.0219 79.9504 76.5341 78.2361L82.2312 59.1061C83.227 55.7653 84.0715 51.764 78.8534 49.5029Z" fill="#60BFB8"/>
<path fill-rule="evenodd" clip-rule="evenodd" d="M21.2768 78.2226L69.2607 89.8962C70.6893 90.2452 71.9332 91.128 72.7405 92.3661C73.5478 93.6041 73.8582 95.105 73.6092 96.5651L68.996 123.609C68.7162 124.701 68.0838 125.668 67.1983 126.358C66.3129 127.048 65.2248 127.422 64.1056 127.42H17.6216C16.3573 127.418 15.1081 127.143 13.9586 126.612C12.8091 126.082 11.7861 125.309 10.959 124.345C10.1319 123.381 9.52002 122.25 9.16469 121.027C8.80935 119.804 8.71898 118.519 8.89959 117.258L13.7143 83.5068C13.8399 82.6467 14.1394 81.8217 14.5942 81.0829C15.049 80.3441 15.6496 79.7073 16.3585 79.2119C17.0675 78.7165 17.8698 78.3731 18.7158 78.2029C19.5618 78.0327 20.4334 78.0394 21.2768 78.2226Z" fill="#B5EEEA"/>
<path fill-rule="evenodd" clip-rule="evenodd" d="M24.1118 118.706L29.1535 83.5196C29.3181 82.3315 29.8019 81.2114 30.5525 80.2804L21.2759 78.2226C20.4326 78.0394 19.5609 78.0327 18.7149 78.2029C17.8689 78.3731 17.0666 78.7165 16.3576 79.2119C15.6487 79.7073 15.0482 80.3441 14.5933 81.0829C14.1385 81.8217 13.839 82.6467 13.7134 83.5068L8.93641 117.283C8.7558 118.544 8.84633 119.83 9.20167 121.052C9.557 122.275 10.1689 123.407 10.996 124.37C11.8231 125.334 12.8461 126.107 13.9956 126.638C15.1451 127.168 16.3942 127.443 17.6585 127.445H27.7418C26.4089 126.455 25.3674 125.12 24.7282 123.581C24.0889 122.042 23.8759 120.357 24.1118 118.706V118.706Z" fill="#95D5D6"/>
<path fill-rule="evenodd" clip-rule="evenodd" d="M52.7111 57.5814C53.4295 56.5398 54.1732 55.803 54.753 56.2222C55.3327 56.6414 55.2194 57.8481 54.4883 58.8897C53.7573 59.9314 52.6985 60.4395 52.1187 60.0076C51.5389 59.5757 51.9801 58.623 52.7111 57.5814Z" fill="#2F7274"/>
<path fill-rule="evenodd" clip-rule="evenodd" d="M68.4764 60.7204C69.1696 59.6533 69.888 58.8912 70.4804 59.3104C71.0728 59.7296 70.9845 60.9236 70.2913 61.9779C69.5981 63.0322 68.5393 63.5784 67.9469 63.1592C67.3545 62.7401 67.7705 61.7747 68.4764 60.7204Z" fill="#2F7274"/>
<path fill-rule="evenodd" clip-rule="evenodd" d="M65.0253 127.56H30.9942C29.7722 127.185 28.7291 126.371 28.0624 125.273C27.3957 124.175 27.1518 122.869 27.3768 121.602C28.0574 116.877 32.4185 117.347 37.5484 118.172C42.6783 118.998 63.2104 121.17 63.2104 121.17L65.0253 127.56Z" fill="#2F7274"/>
<path fill-rule="evenodd" clip-rule="evenodd" d="M30.022 115.746L56.0748 116.012L67.7967 73.2682C67.9953 72.5392 68.4534 71.9095 69.0835 71.4995C69.7136 71.0894 70.4715 70.9277 71.2124 71.0452L114.407 75.5038C114.747 75.5649 115.07 75.6957 115.358 75.888C115.645 76.0803 115.891 76.33 116.079 76.6218C116.267 76.9136 116.393 77.2411 116.45 77.5841C116.507 77.9271 116.494 78.2783 116.411 78.6159L105.723 120.966C105.503 121.791 105.005 122.513 104.315 123.009C103.626 123.504 102.787 123.743 101.941 123.685L29.8331 119.188C29.3839 119.155 28.9651 118.947 28.6661 118.608C28.367 118.268 28.2114 117.825 28.2323 117.371V117.371C28.2436 117.146 28.2988 116.925 28.395 116.722C28.4911 116.518 28.6261 116.335 28.7924 116.184C28.9586 116.033 29.153 115.917 29.364 115.841C29.575 115.766 29.7985 115.734 30.022 115.746V115.746Z" fill="#C9E2E2"/>
<path fill-rule="evenodd" clip-rule="evenodd" d="M75.551 104.848C75.551 104.848 68.3289 101.456 64.8249 111.58C63.4785 115.399 62.3837 119.302 61.5477 123.266C61.4408 123.786 61.4505 124.324 61.5759 124.84C61.7013 125.356 61.9393 125.837 62.2726 126.248C62.6058 126.659 63.0261 126.991 63.5025 127.218C63.9789 127.444 64.4995 127.561 65.0265 127.56H65.7953L68.2027 123.216L75.551 104.848Z" fill="#2F7274"/>
<path fill-rule="evenodd" clip-rule="evenodd" d="M65.3904 127.56H67.533C68.1369 127.562 68.7295 127.396 69.2455 127.08C69.7615 126.764 70.1809 126.31 70.4573 125.769C72.9781 120.688 79.7591 106.525 75.5997 104.848C71.4403 103.172 65.7559 119.418 63.8275 125.401C63.7449 125.649 63.7226 125.914 63.7623 126.172C63.8019 126.431 63.9025 126.676 64.0555 126.888C64.2085 127.099 64.4095 127.27 64.6417 127.387C64.874 127.505 65.1307 127.564 65.3904 127.56V127.56Z" fill="#236363"/>
<path fill-rule="evenodd" clip-rule="evenodd" d="M105.107 104.848C105.107 104.848 97.8847 101.456 94.3808 111.58C93.0403 115.4 91.9457 119.304 91.1037 123.266C90.9968 123.786 91.0063 124.324 91.1317 124.84C91.2571 125.356 91.4952 125.837 91.8285 126.248C92.1618 126.659 92.5819 126.991 93.0583 127.218C93.5348 127.444 94.0555 127.561 94.5825 127.56H95.3513L97.7712 123.216L105.107 104.848Z" fill="#2F7274"/>
<path fill-rule="evenodd" clip-rule="evenodd" d="M94.8975 127.56H97.0402C97.644 127.562 98.2366 127.396 98.7526 127.08C99.2687 126.764 99.6881 126.31 99.9644 125.769C102.485 120.688 109.279 106.525 105.107 104.848C100.935 103.172 95.2757 119.418 93.3346 125.401C93.255 125.649 93.2348 125.913 93.2757 126.17C93.3166 126.427 93.4174 126.672 93.5699 126.882C93.7224 127.093 93.9221 127.264 94.1529 127.382C94.3836 127.5 94.6388 127.561 94.8975 127.56V127.56Z" fill="#236363"/>
<path d="M61.0802 98.0886L52.7868 90.5306C52.511 90.2805 52.1755 90.1069 51.8132 90.0268C51.4508 89.9466 51.074 89.9626 50.7197 90.0733L40.0945 93.503C39.7406 93.6201 39.4231 93.8281 39.1733 94.1065C38.9236 94.385 38.7502 94.7242 38.6702 95.0908L36.3132 106.078C36.2311 106.442 36.2474 106.822 36.3605 107.177C36.4736 107.532 36.6791 107.85 36.9559 108.098L45.2117 115.72C45.4855 115.973 45.821 116.149 46.1841 116.229C46.5471 116.31 46.9248 116.292 47.2788 116.177L57.9041 112.747C58.2558 112.63 58.5715 112.424 58.821 112.148C59.0704 111.872 59.2451 111.536 59.3282 111.172L61.6854 100.185C61.7811 99.8126 61.7752 99.4216 61.6687 99.0527C61.5623 98.6838 61.3589 98.3507 61.0802 98.0886V98.0886ZM42.174 96.8183C42.3447 96.6567 42.5701 96.5667 42.8043 96.5667C43.0384 96.5667 43.2638 96.6567 43.4345 96.8183L44.0144 97.3391C44.1037 97.4225 44.1759 97.5229 44.2268 97.6344C44.2777 97.7459 44.3063 97.8665 44.311 97.9891C44.3157 98.1118 44.2963 98.2342 44.2541 98.3494C44.2118 98.4645 44.1474 98.5701 44.0647 98.6602C43.9819 98.7503 43.8824 98.823 43.7717 98.8743C43.6611 98.9257 43.5414 98.9545 43.4197 98.9592C43.298 98.9639 43.1765 98.9444 43.0623 98.9018C42.948 98.8593 42.8433 98.7944 42.7539 98.711L42.174 98.1902C42.086 98.1029 42.0164 97.9986 41.9693 97.8836C41.9221 97.7685 41.8984 97.6451 41.8996 97.5206C41.9007 97.3962 41.9269 97.2732 41.9762 97.1591C42.0255 97.045 42.097 96.9421 42.1867 96.8564L42.174 96.8183ZM42.174 106.282L41.4304 106.51C41.3163 106.55 41.1956 106.565 41.0753 106.556C40.9551 106.547 40.8378 106.514 40.7307 106.458C40.6236 106.402 40.5288 106.325 40.4519 106.232C40.375 106.138 40.3177 106.03 40.2834 105.913C40.2443 105.797 40.2288 105.675 40.2376 105.553C40.2463 105.431 40.2793 105.312 40.3345 105.203C40.3897 105.094 40.4661 104.997 40.5591 104.918C40.6521 104.84 40.7599 104.781 40.8759 104.745L41.6069 104.516C41.7219 104.477 41.8435 104.461 41.9646 104.47C42.0857 104.479 42.2038 104.512 42.3119 104.567C42.42 104.623 42.516 104.7 42.5941 104.794C42.6722 104.888 42.7309 104.996 42.7666 105.113C42.8072 105.234 42.823 105.362 42.813 105.489C42.8031 105.616 42.7675 105.74 42.7085 105.853C42.6496 105.966 42.5685 106.065 42.4701 106.146C42.3717 106.226 42.2582 106.285 42.1363 106.32L42.174 106.282ZM46.0436 105.011L44.7832 105.405C44.6682 105.445 44.5466 105.46 44.4255 105.452C44.3044 105.443 44.1862 105.409 44.078 105.354C43.9699 105.298 43.8741 105.221 43.796 105.127C43.7179 105.034 43.6592 104.925 43.6235 104.808C43.552 104.576 43.5741 104.324 43.6849 104.108C43.7958 103.892 43.9864 103.728 44.2159 103.652L45.4763 103.246C45.7103 103.174 45.963 103.197 46.1799 103.312C46.3968 103.426 46.5606 103.621 46.636 103.856C46.6786 103.976 46.6958 104.105 46.6867 104.232C46.6777 104.36 46.6424 104.485 46.5832 104.598C46.524 104.711 46.4421 104.811 46.3427 104.891C46.2433 104.971 46.1286 105.029 46.0057 105.062L46.0436 105.011ZM47.178 101.34C47.0074 101.502 46.782 101.592 46.5478 101.592C46.3136 101.592 46.0882 101.502 45.9176 101.34L44.9723 100.464C44.8119 100.292 44.7226 100.065 44.7226 99.8288C44.7226 99.5928 44.8119 99.3657 44.9723 99.1937V99.1937C45.1429 99.032 45.3683 98.942 45.6025 98.942C45.8367 98.942 46.0621 99.032 46.2327 99.1937L47.178 100.07C47.2625 100.159 47.3284 100.264 47.3723 100.379C47.4162 100.493 47.4371 100.616 47.4336 100.739C47.43 100.862 47.4022 100.983 47.3519 101.095C47.3015 101.207 47.2296 101.308 47.1402 101.391L47.178 101.34ZM50.2281 104.122C50.0873 104.281 49.8954 104.385 49.6862 104.414L48.1862 111.388C48.1606 111.507 48.1118 111.62 48.0428 111.721C47.9738 111.821 47.886 111.907 47.7842 111.973C47.6824 112.039 47.5686 112.084 47.4494 112.106C47.3303 112.127 47.208 112.125 47.0897 112.099C46.9713 112.074 46.8592 112.025 46.7597 111.955C46.6601 111.885 46.5752 111.797 46.5096 111.694C46.4441 111.592 46.3994 111.477 46.3778 111.357C46.3562 111.237 46.3583 111.114 46.3839 110.994L47.8964 103.995C47.7457 103.886 47.635 103.73 47.5813 103.551C47.5406 103.418 47.5286 103.278 47.546 103.14C47.5634 103.002 47.6097 102.869 47.682 102.75C47.6685 102.618 47.6828 102.483 47.724 102.356C47.7653 102.229 47.8327 102.113 47.9216 102.014C48.0384 101.873 48.1978 101.775 48.3753 101.734L49.8878 94.6843C49.9421 94.4448 50.0873 94.2363 50.2923 94.1034C50.4972 93.9704 50.7456 93.9236 50.9843 93.973C51.1028 93.9986 51.2151 94.0475 51.3148 94.117C51.4145 94.1864 51.4996 94.2751 51.5651 94.3777C51.6307 94.4804 51.6755 94.5951 51.697 94.7153C51.7185 94.8355 51.7162 94.9588 51.6902 95.0781L50.1778 102.09C50.3536 102.21 50.4861 102.383 50.5558 102.585C50.596 102.714 50.6079 102.85 50.5904 102.984C50.573 103.118 50.5268 103.246 50.455 103.36C50.4769 103.507 50.4642 103.657 50.4183 103.798C50.3723 103.939 50.2942 104.068 50.1903 104.173L50.2281 104.122ZM52.0935 101.112L53.3539 100.718C53.5863 100.645 53.8376 100.667 54.0543 100.779C54.2709 100.89 54.4357 101.083 54.5135 101.315V101.315C54.5506 101.432 54.5644 101.555 54.554 101.677C54.5436 101.799 54.5092 101.918 54.4529 102.027C54.3967 102.135 54.3196 102.232 54.2261 102.31C54.1327 102.389 54.0248 102.448 53.9086 102.484L52.6481 102.877C52.5331 102.915 52.4119 102.929 52.2914 102.92C52.1708 102.91 52.0532 102.877 51.9455 102.821C51.8378 102.766 51.742 102.689 51.6636 102.597C51.5852 102.504 51.5257 102.396 51.4885 102.28V102.28C51.4268 102.056 51.4509 101.817 51.5559 101.61C51.661 101.403 51.8394 101.243 52.0558 101.163L52.0935 101.112ZM53.2784 106.917C53.1077 107.079 52.8823 107.169 52.6481 107.169C52.414 107.169 52.1886 107.079 52.0179 106.917L51.06 106.04C50.9024 105.867 50.8149 105.64 50.8149 105.405C50.8149 105.17 50.9024 104.943 51.06 104.77C51.2307 104.608 51.456 104.518 51.6902 104.518C51.9244 104.518 52.1498 104.608 52.3204 104.77L53.2784 105.647C53.3628 105.735 53.429 105.84 53.4728 105.955C53.5167 106.07 53.5374 106.192 53.5339 106.315C53.5304 106.438 53.5026 106.559 53.4522 106.671C53.4018 106.783 53.3299 106.884 53.2405 106.968L53.2784 106.917ZM55.9 109.318C55.7293 109.479 55.5039 109.569 55.2698 109.569C55.0356 109.569 54.8102 109.479 54.6395 109.318L54.0724 108.797C53.912 108.625 53.8227 108.398 53.8227 108.162C53.8227 107.926 53.912 107.699 54.0724 107.527C54.2416 107.362 54.4675 107.27 54.7026 107.27C54.9377 107.27 55.1637 107.362 55.3328 107.527L55.9 108.047C55.9844 108.136 56.0506 108.241 56.0944 108.356C56.1383 108.471 56.159 108.593 56.1555 108.716C56.152 108.839 56.1243 108.96 56.074 109.072C56.0236 109.184 55.9515 109.285 55.8621 109.368L55.9 109.318ZM57.2739 101.391L56.5302 101.633C56.4152 101.67 56.294 101.683 56.1737 101.673C56.0534 101.662 55.9363 101.627 55.8295 101.571C55.7227 101.514 55.6283 101.436 55.5516 101.342C55.475 101.248 55.4178 101.14 55.3833 101.023C55.3444 100.908 55.3289 100.786 55.3378 100.665C55.3467 100.544 55.3797 100.426 55.435 100.318C55.4903 100.21 55.5667 100.114 55.6596 100.037C55.7525 99.9592 55.8601 99.9015 55.9757 99.8669L56.7066 99.6256C56.8217 99.588 56.9429 99.5736 57.0634 99.5832C57.184 99.5929 57.3016 99.6264 57.4093 99.6818C57.517 99.7373 57.6128 99.8136 57.6912 99.9064C57.7696 99.9992 57.8291 100.107 57.8663 100.223C57.9174 100.347 57.9413 100.481 57.9366 100.616C57.9318 100.75 57.8985 100.882 57.8387 101.003C57.779 101.123 57.6942 101.229 57.5903 101.314C57.4863 101.398 57.3655 101.459 57.2361 101.493L57.2739 101.391Z" fill="#EC6EFF"/>
<path fill-rule="evenodd" clip-rule="evenodd" d="M29.8982 119.188L57.1735 120.89L70.8363 71.0075C70.1533 70.9851 69.4827 71.1946 68.9319 71.6023C68.3811 72.01 67.9821 72.5923 67.7989 73.2558L56.077 116L30.0242 115.733C29.5834 115.726 29.1572 115.891 28.8351 116.195C28.5131 116.498 28.3202 116.915 28.2974 117.359C28.2731 117.815 28.4273 118.261 28.7267 118.604C29.0261 118.946 29.4467 119.156 29.8982 119.188V119.188Z" fill="#9FC6C4"/>
<path fill-rule="evenodd" clip-rule="evenodd" d="M54.6007 108.86V114.373C54.6394 114.801 54.5087 115.226 54.2372 115.557C53.9656 115.888 53.5753 116.097 53.1514 116.139V116.139C52.7593 116.176 52.3674 116.067 52.0493 115.833C51.7312 115.599 51.509 115.256 51.4246 114.868L49.7986 110.156L49.4709 110.359L49.6853 114.475C49.7083 114.695 49.6849 114.918 49.6168 115.128C49.5486 115.339 49.4372 115.533 49.2897 115.697C49.1422 115.861 48.962 115.992 48.7609 116.081C48.5597 116.171 48.3421 116.216 48.1224 116.215V116.215C47.7618 116.213 47.4128 116.085 47.1349 115.854C46.8569 115.622 46.6669 115.301 46.5971 114.945L45.3367 110.384L44.8201 110.664L44.9839 114.373C45.0068 114.601 44.9821 114.83 44.9115 115.048C44.8409 115.265 44.7259 115.465 44.5739 115.635C44.4219 115.805 44.2363 115.941 44.0291 116.034C43.8218 116.128 43.5975 116.176 43.3706 116.177V116.177C43.0231 116.178 42.6844 116.066 42.4051 115.858C42.1258 115.65 41.9207 115.356 41.8203 115.021L41.0639 112.938C41.0639 112.938 37.3835 114.5 35.871 110.918C35.7292 110.509 35.6701 110.075 35.697 109.642C35.7239 109.21 35.8364 108.787 36.0278 108.399C36.2192 108.011 36.4857 107.665 36.8116 107.382C37.1375 107.099 37.5162 106.885 37.9255 106.751C41.6591 105.161 45.6581 104.299 49.7105 104.211C50.9573 104.221 52.1542 104.706 53.0612 105.568C53.9682 106.43 54.5181 107.606 54.6007 108.86Z" fill="#2F7274"/>
<path d="M21.1759 87.8756C18.94 91.0268 17.2679 94.5476 16.235 98.279C15.7602 100.01 15.5811 101.81 15.7056 103.601C15.8084 105.224 16.3584 106.786 17.2937 108.111C17.5298 108.44 17.7911 108.75 18.0751 109.038C18.2012 109.178 18.3651 109.33 18.5038 109.457L18.8692 109.749C19.493 110.161 20.1844 110.458 20.9111 110.626C21.7713 110.828 22.6497 110.943 23.5328 110.969C24.483 111.006 25.4345 110.981 26.3814 110.893C28.3615 110.701 30.3247 110.362 32.2548 109.876C33.2379 109.648 34.2085 109.368 35.179 109.076L36.6285 108.606L37.3343 108.365L37.6872 108.238L38.015 108.111C38.5916 107.892 39.231 107.913 39.7923 108.169C40.3537 108.425 40.7912 108.895 41.0085 109.476C41.2257 110.057 41.205 110.702 40.9509 111.268C40.6968 111.833 40.2301 112.274 39.6534 112.493L39.2502 112.658L38.8593 112.798L38.0779 113.077C37.5611 113.268 37.0444 113.446 36.515 113.611C35.4815 113.954 34.4227 114.259 33.364 114.538C31.2183 115.127 29.0317 115.552 26.8225 115.809C25.6771 115.956 24.5237 116.033 23.369 116.037C22.1464 116.035 20.9267 115.916 19.7264 115.682C18.3881 115.417 17.1075 114.914 15.9451 114.195C15.6269 114.003 15.3236 113.786 15.0377 113.547C14.773 113.319 14.546 113.128 14.3065 112.9C13.822 112.451 13.3713 111.967 12.9579 111.452C12.132 110.414 11.4572 109.264 10.9539 108.035C10.4598 106.813 10.1251 105.532 9.95815 104.224C9.78903 102.987 9.73839 101.736 9.80691 100.489C9.86924 99.2862 10.0166 98.0891 10.248 96.9071C10.7003 94.6144 11.3758 92.3721 12.2647 90.2129C13.1287 88.0861 14.1483 86.0268 15.3149 84.0522C15.7812 83.2571 16.5418 82.6813 17.4294 82.4514C18.317 82.2215 19.2589 82.3564 20.0478 82.8264C20.8367 83.2963 21.408 84.0629 21.6361 84.9574C21.8642 85.8519 21.7303 86.8011 21.264 87.5962C21.2412 87.6913 21.2118 87.7847 21.1759 87.8756V87.8756Z" fill="#2F7274"/>
<path d="M109.004 41.7446L111.966 45.0659L127.834 32.8031L122.897 27.2676L109.004 41.7446ZM101.977 51.0198C103.443 52.6637 106.044 52.7437 107.75 51.2115C109.321 49.7994 109.529 47.1955 108.063 45.5517C106.507 43.8071 103.876 43.6935 102.304 45.1056C100.598 46.6379 100.421 49.2753 101.977 51.0198Z" fill="#EC6EFF"/>
<path d="M95.789 25.4486L101.155 27.7554L113.249 4.37516L104.305 0.530476L95.789 25.4486ZM92.5632 40.3743C95.2193 41.5161 98.3602 40.1689 99.5412 37.4012C100.63 34.8506 99.4339 31.6393 96.7778 30.4976C93.9591 29.2859 90.764 30.6098 89.6757 33.1604C88.4947 35.9281 89.7445 39.1627 92.5632 40.3743Z" fill="#00E5E2"/>
<path d="M75.6789 25.7246L80.1117 25.329L79.8241 5.27071L72.436 5.93002L75.6789 25.7246ZM78.8805 36.9025C81.0745 36.7067 82.6989 34.6662 82.4966 32.3825C82.3102 30.2779 80.3525 28.5571 78.1585 28.7528C75.8301 28.9606 74.1609 31.0052 74.3474 33.1097C74.5497 35.3935 76.5521 37.1103 78.8805 36.9025Z" fill="#45278D"/>
</svg>
