<svg width="260" height="160" viewBox="0 0 260 160" fill="none" xmlns="http://www.w3.org/2000/svg">
<rect x="8" y="12" width="252" height="135" rx="8" fill="#F5F7F9"/>
<path d="M143.047 89.7317C120.863 76.8755 99.7726 84.3749 92 89.7317C98.7222 72.8211 123.825 39 170.461 39C217.096 39 242.199 72.8211 248.922 89.7317C227.243 76.8754 205.227 84.3749 196.93 89.7317C174.494 77.1275 151.66 84.48 143.047 89.7317Z" fill="#EF6FFF"/>
<path d="M196.93 89.7319C173.928 77.4429 156.282 84.3752 143.048 89.7319C143.048 59.1665 161.219 43.2802 170.147 39.0002C189.557 48.7712 196.09 76.7876 196.93 89.7319Z" fill="#9A5BFF"/>
<rect x="168.255" y="83.7449" width="2.52083" height="46.6353" fill="#CCCCCC"/>
<rect x="166.994" y="131.01" width="5.04166" height="15.7552" fill="#EF6FFF"/>
<path fill-rule="evenodd" clip-rule="evenodd" d="M166.995 146.766C166.995 146.766 166.995 146.766 166.995 146.766C166.995 154.075 172.92 160 180.229 160C187.538 160 193.464 154.075 193.464 146.766C193.464 146.766 193.464 146.766 193.464 146.766H188.422C188.422 146.766 188.422 146.766 188.422 146.766C188.422 151.29 184.754 154.958 180.229 154.958C175.704 154.958 172.036 151.29 172.036 146.766C172.036 146.766 172.036 146.766 172.036 146.766H166.995Z" fill="#EF6FFF"/>
<line x1="96" y1="37" x2="96" y2="55" stroke="#0060DF" stroke-width="2" stroke-linecap="round"/>
<line x1="84" y1="86" x2="84" y2="122" stroke="#0060DF" stroke-width="2" stroke-linecap="round"/>
<line x1="56" y1="87" x2="56" y2="105" stroke="#0060DF" stroke-width="2" stroke-linecap="round"/>
<line x1="107" y1="20" x2="107" y2="38" stroke="#0060DF" stroke-width="2" stroke-linecap="round"/>
<line x1="84" y1="11" x2="84" y2="29" stroke="#0060DF" stroke-width="2" stroke-linecap="round"/>
<line x1="234" y1="41" x2="234" y2="59" stroke="#0060DF" stroke-width="2" stroke-linecap="round"/>
<line x1="127" y1="27" x2="127" y2="45" stroke="#0060DF" stroke-width="2" stroke-linecap="round"/>
<line x1="33" y1="84" x2="33" y2="102" stroke="#0060DF" stroke-width="2" stroke-linecap="round"/>
<line x1="70" y1="112" x2="70" y2="130" stroke="#0060DF" stroke-width="2" stroke-linecap="round"/>
<line x1="84" y1="40" x2="84" y2="58" stroke="#0060DF" stroke-width="2" stroke-linecap="round"/>
<line x1="222" y1="16" x2="222" y2="34" stroke="#0060DF" stroke-width="2" stroke-linecap="round"/>
<line x1="135" y1="3" x2="135" y2="19" stroke="#0060DF" stroke-width="2" stroke-linecap="round"/>
<line x1="23" y1="6" x2="23" y2="44" stroke="#0060DF" stroke-width="2" stroke-linecap="round"/>
<line x1="244" y1="9" x2="244" y2="27" stroke="#0060DF" stroke-width="2" stroke-linecap="round"/>
<line x1="41" y1="58" x2="41" y2="76" stroke="#0060DF" stroke-width="2" stroke-linecap="round"/>
<line x1="13" y1="65" x2="13" y2="83" stroke="#0060DF" stroke-width="2" stroke-linecap="round"/>
<line x1="222" y1="2" x2="222" y2="9" stroke="#0060DF" stroke-width="2" stroke-linecap="round"/>
<line x1="209" y1="6" x2="209" y2="24" stroke="#0060DF" stroke-width="2" stroke-linecap="round"/>
<line x1="199" y1="17" x2="199" y2="35" stroke="#0060DF" stroke-width="2" stroke-linecap="round"/>
<line x1="177" y1="2" x2="177" y2="28" stroke="#0060DF" stroke-width="2" stroke-linecap="round"/>
<line x1="41" y1="18" x2="41" y2="44" stroke="#0060DF" stroke-width="2" stroke-linecap="round"/>
<line x1="33" y1="30" x2="33" y2="56" stroke="#0060DF" stroke-width="2" stroke-linecap="round"/>
<line x1="13" y1="30" x2="13" y2="56" stroke="#0060DF" stroke-width="2" stroke-linecap="round"/>
<line x1="3" y1="45" x2="3" y2="94" stroke="#0060DF" stroke-width="2" stroke-linecap="round"/>
<line x1="144" y1="4" x2="144" y2="12" stroke="#0060DF" stroke-width="2" stroke-linecap="round"/>
<line x1="155" y1="17" x2="155" y2="35" stroke="#0060DF" stroke-width="2" stroke-linecap="round"/>
<line x1="118" y1="40" x2="118" y2="49" stroke="#0060DF" stroke-width="2" stroke-linecap="round"/>
<line x1="118" y1="4" x2="118" y2="11" stroke="#0060DF" stroke-width="2" stroke-linecap="round"/>
<line x1="56" y1="7" x2="56" y2="25" stroke="#0060DF" stroke-width="2" stroke-linecap="round"/>
<line x1="23" y1="97" x2="23" y2="106" stroke="#0060DF" stroke-width="2" stroke-linecap="round"/>
<line x1="41" y1="109" x2="41" y2="118" stroke="#0060DF" stroke-width="2" stroke-linecap="round"/>
<line x1="56" y1="47" x2="56" y2="56" stroke="#0060DF" stroke-width="2" stroke-linecap="round"/>
<line x1="70" y1="21" x2="70" y2="39" stroke="#0060DF" stroke-width="2" stroke-linecap="round"/>
<line x1="33" y1="113" x2="33" y2="131" stroke="#0060DF" stroke-width="2" stroke-linecap="round"/>
<line x1="118" y1="19" x2="118" y2="30" stroke="#0060DF" stroke-width="2" stroke-linecap="round"/>
<line x1="70" y1="67" x2="70" y2="81" stroke="#0060DF" stroke-width="2" stroke-linecap="round"/>
<line x1="13" y1="93" x2="13" y2="111" stroke="#0060DF" stroke-width="2" stroke-linecap="round"/>
<line x1="56" y1="69" x2="56" y2="78" stroke="#0060DF" stroke-width="2" stroke-linecap="round"/>
<line x1="70" y1="4" x2="70" y2="13" stroke="#0060DF" stroke-width="2" stroke-linecap="round"/>
<line x1="107" y1="47" x2="107" y2="56" stroke="#0060DF" stroke-width="2" stroke-linecap="round"/>
<line x1="23" y1="73" x2="23" y2="82" stroke="#0060DF" stroke-width="2" stroke-linecap="round"/>
<line x1="56" y1="32" x2="56" y2="41" stroke="#0060DF" stroke-width="2" stroke-linecap="round"/>
<line x1="84" y1="68" x2="84" y2="77" stroke="#0060DF" stroke-width="2" stroke-linecap="round"/>
<line x1="96" y1="11" x2="96" y2="20" stroke="#0060DF" stroke-width="2" stroke-linecap="round"/>
<line x1="70" y1="46" x2="70" y2="55" stroke="#0060DF" stroke-width="2" stroke-linecap="round"/>
<line x1="23" y1="55" x2="23" y2="64" stroke="#0060DF" stroke-width="2" stroke-linecap="round"/>
<line x1="127" y1="11" x2="127" y2="20" stroke="#0060DF" stroke-width="2" stroke-linecap="round"/>
<line x1="222" y1="40" x2="222" y2="49" stroke="#0060DF" stroke-width="2" stroke-linecap="round"/>
<line x1="107" y1="4" x2="107" y2="13" stroke="#0060DF" stroke-width="2" stroke-linecap="round"/>
<line x1="199" y1="2" x2="199" y2="11" stroke="#0060DF" stroke-width="2" stroke-linecap="round"/>
<line x1="234" y1="5" x2="234" y2="14" stroke="#0060DF" stroke-width="2" stroke-linecap="round"/>
<line x1="33" y1="68" x2="33" y2="77" stroke="#0060DF" stroke-width="2" stroke-linecap="round"/>
<line x1="33" y1="12" x2="33" y2="21" stroke="#0060DF" stroke-width="2" stroke-linecap="round"/>
<line x1="234" y1="26" x2="234" y2="35" stroke="#0060DF" stroke-width="2" stroke-linecap="round"/>
<line x1="70" y1="96" x2="70" y2="105" stroke="#0060DF" stroke-width="2" stroke-linecap="round"/>
<line x1="188" y1="18" x2="188" y2="27" stroke="#0060DF" stroke-width="2" stroke-linecap="round"/>
<line x1="188" y1="2" x2="188" y2="11" stroke="#0060DF" stroke-width="2" stroke-linecap="round"/>
<line x1="167" y1="14" x2="167" y2="23" stroke="#0060DF" stroke-width="2" stroke-linecap="round"/>
<line x1="135" y1="27" x2="135" y2="36" stroke="#0060DF" stroke-width="2" stroke-linecap="round"/>
<line x1="167" y1="28" x2="167" y2="34" stroke="#0060DF" stroke-width="2" stroke-linecap="round"/>
<line x1="56" y1="116" x2="56" y2="122" stroke="#0060DF" stroke-width="2" stroke-linecap="round"/>
<line x1="56" y1="129" x2="56" y2="143" stroke="#0060DF" stroke-width="2" stroke-linecap="round"/>
<line x1="84" y1="129" x2="84" y2="135" stroke="#0060DF" stroke-width="2" stroke-linecap="round"/>
<line x1="167" y1="3" x2="167" y2="8" stroke="#0060DF" stroke-width="2" stroke-linecap="round"/>
<line x1="155" y1="3" x2="155" y2="12" stroke="#0060DF" stroke-width="2" stroke-linecap="round"/>
<line x1="41" y1="84" x2="41" y2="100" stroke="#0060DF" stroke-width="2" stroke-linecap="round"/>
<line x1="144" y1="18" x2="144" y2="27" stroke="#0060DF" stroke-width="2" stroke-linecap="round"/>
<line x1="209" y1="32" x2="209" y2="41" stroke="#0060DF" stroke-width="2" stroke-linecap="round"/>
</svg>
