<svg width="293" height="134" viewBox="0 0 293 134" fill="none" xmlns="http://www.w3.org/2000/svg">
<g clip-path="url(#clip0_819_952)">
<rect width="293" height="134" rx="8" fill="#F5F7F9"/>
<path d="M158.188 50.2686L146.403 61.9723L135.89 51.6004L135.043 50.773L133.691 52.2461L103.019 84.5725C103.604 85.2042 104.312 85.7092 105.1 86.0562C105.888 86.4033 106.738 86.5851 107.599 86.5904H185.207C186.068 86.5839 186.918 86.4016 187.706 86.0546C188.494 85.7076 189.202 85.2032 189.788 84.5725L159.519 51.8627L158.188 50.2686Z" fill="#7542E5"/>
<path d="M135.304 52.1248L102.877 22.018C101.709 23.2218 101.039 24.8215 101 26.4977V80.0321C101.015 80.8854 101.202 81.7269 101.549 82.5068C101.895 83.2867 102.395 83.9891 103.018 84.5723L134.053 53.5979L135.304 52.1248ZM189.787 21.8566L157.501 51.7212L158.954 53.1338L189.787 84.5723C190.407 83.9908 190.904 83.2915 191.251 82.5154C191.597 81.7393 191.785 80.902 191.805 80.0523V26.7197C191.771 26.0227 191.606 25.3383 191.32 24.7018C191.058 23.6328 190.531 22.6472 189.787 21.8364V21.8566Z" fill="#9059FF"/>
<path d="M135.103 53.2549L135.93 54.0822L146.484 64.3936L158.289 52.7504L189.788 21.8365C189.229 21.2608 188.561 20.802 187.823 20.4868C187.085 20.1716 186.292 20.0061 185.49 20.0002H107.579C106.719 19.9934 105.868 20.1698 105.082 20.5177C104.295 20.8657 103.592 21.3771 103.019 22.0181L135.103 53.2549Z" fill="#C689FF"/>
<g clip-path="url(#clip1_819_952)">
<path d="M227.68 76.1234L227.321 76.303L225.795 74.7767L226.244 74.5073L227.68 76.1234Z" fill="#FCEE21"/>
<path d="M236.568 114.999L235.581 113.832L237.735 113.383L238.723 114.64L236.568 114.999Z" fill="#ED1E79"/>
<path d="M257.307 46.4055L257.756 45.3281L268.08 43.8018L267.631 44.8792L257.307 46.4055Z" fill="#39B54A"/>
<path d="M201.016 84.7427L203.261 85.6405L201.196 89.8603L198.951 88.8727L201.016 84.7427Z" fill="#FBB03B"/>
<path d="M114.291 111.139L115.009 110.78L116.266 119.579L115.548 120.027L114.291 111.139Z" fill="#39B54A"/>
<path d="M210.084 98.1205L210.892 87.3466L211.61 87.167L210.712 97.941L210.084 98.1205Z" fill="#FBB03B"/>
<path d="M151.818 37.876L152.716 36.4395L153.344 40.6592L152.536 42.0958L151.818 37.876Z" fill="#00FFFF"/>
<path d="M147.688 82.1389L143.379 80.7023L144.187 79.5352L148.496 80.9717L147.688 82.1389Z" fill="#ED1E79"/>
<path d="M244.199 44.0708L248.688 44.8788L248.239 49.5476L243.66 48.8293L244.199 44.0708Z" fill="#00FFFF"/>
<path d="M140.775 131.699L147.599 138.253L143.828 140.049L136.915 133.405L140.775 131.699Z" fill="#00FFFF"/>
<path d="M212.238 94.6187L210.802 99.8261L209.455 98.3895L210.892 93.1821L212.238 94.6187Z" fill="#FCEE21"/>
<path d="M138.352 47.3034L137.454 51.7028L134.312 50.5356L135.209 46.1362L138.352 47.3034Z" fill="#FBB03B"/>
<path d="M112.675 66.7861L110.61 63.2846L113.304 61.7583L115.369 65.3496L112.675 66.7861Z" fill="#ED1C24"/>
<path d="M157.295 38.1453L156.576 38.5942L155.499 36.8884L156.127 36.4395L157.295 38.1453Z" fill="#FBB03B"/>
<path d="M237.466 103.328L236.748 107.278L234.234 106.201L234.952 102.34L237.466 103.328Z" fill="#FBB03B"/>
<path d="M154.242 47.2134L151.998 48.9193L147.958 49.9967L150.202 48.2908L154.242 47.2134Z" fill="#00FFFF"/>
<path d="M107.558 1.06488L106.301 2.41163L104.865 -0.461426" fill="#00FFFF"/>
<path d="M214.573 112.036L215.65 110.69L216.997 110.331L215.83 111.677L214.573 112.036Z" fill="#00FFFF"/>
<path d="M227.231 44.3406L224.089 42.6347L225.256 41.8267L228.488 43.5325L227.231 44.3406Z" fill="#ED1C24"/>
<path d="M67.5171 57.8976L66.0807 64.6314L63.5669 64.1824L65.0033 57.4487L67.5171 57.8976Z" fill="#00FFFF"/>
<path d="M181.355 116.705L179.021 117.334L174.981 108.984L177.225 108.355L181.355 116.705Z" fill="#FBB03B"/>
<path d="M192.128 52.1513L189.615 49.9067L190.063 45.5972L192.577 47.8417L192.128 52.1513Z" fill="#00FFFF"/>
<path d="M149.394 124.247L148.856 130.173L142.661 126.043L143.11 120.117L149.394 124.247Z" fill="#39B54A"/>
<path d="M202.812 34.7335L204.428 29.8853L212.598 32.5787L210.982 37.427L202.812 34.7335Z" fill="#39B54A"/>
<path d="M184.766 126.312L182.522 121.015L188.268 121.733L190.512 126.941L184.766 126.312Z" fill="#FBB03B"/>
<path d="M267.452 138.343L267.003 137.535L270.773 133.674L271.222 134.393L267.452 138.343Z" fill="#ED1C24"/>
<path d="M167.709 17.4951L164.926 19.2908L166.721 15.6995L169.504 13.9038L167.709 17.4951Z" fill="#00FFFF"/>
<path d="M39.327 26.3838L37.4417 25.7553L37.5314 24.9473L39.4168 25.5757L39.327 26.3838Z" fill="#ED1C24"/>
<path d="M62.6693 113.833L59.4373 112.486L59.168 106.65L62.4 107.997L62.6693 113.833Z" fill="#ED1C24"/>
<path d="M199.849 49.9067L200.747 51.2535L201.375 56.1018L200.388 54.755L199.849 49.9067Z" fill="#FBB03B"/>
<path d="M75.1482 43.4424L73.1731 42.6344L72.9038 36.2598L74.8789 37.0678L75.1482 43.4424Z" fill="#FBB03B"/>
<path d="M249.676 36.2599V35.7212L253.626 38.3249V38.8636L249.676 36.2599Z" fill="#ED1C24"/>
<path d="M111.149 97.3124L110.969 98.3898L109.982 98.2102L110.161 97.1328L111.149 97.3124Z" fill="#ED1C24"/>
<path d="M215.471 101.981L212.328 103.418L209.276 97.2227L212.418 95.7861L215.471 101.981Z" fill="#39B54A"/>
<path d="M181.804 12.0186L180.547 11.2106L181.175 9.23535L182.432 10.1332L181.804 12.0186Z" fill="#FBB03B"/>
<path d="M54.1403 70.5569L53.2426 71.2752L47.1377 71.0058L48.0355 70.1978L54.1403 70.5569Z" fill="#39B54A"/>
<path d="M69.2229 95.7858L65.6318 94.1697L65.9909 92.4639L69.582 93.9902L69.2229 95.7858Z" fill="#FBB03B"/>
<path d="M205.326 37.876L206.134 38.5942L205.326 40.3001L204.518 39.4921L205.326 37.876Z" fill="#39B54A"/>
<path d="M107.199 82.0493L111.328 79.8047L112.316 80.8821L108.186 83.1267L107.199 82.0493Z" fill="#FBB03B"/>
<path d="M228.668 39.6719L228.937 40.5697H228.488L228.219 39.6719H228.668Z" fill="#39B54A"/>
<path d="M112.226 16.7769L115.728 22.074L113.932 23.4208L110.431 18.1236L112.226 16.7769Z" fill="#39B54A"/>
<path d="M264.22 15.879L262.155 13.2753L263.412 8.78613L265.387 11.3898L264.22 15.879Z" fill="#FCEE21"/>
<path d="M26.3093 25.1267L28.1946 27.4611L23.8853 24.8574L22 22.6128L26.3093 25.1267Z" fill="#ED1C24"/>
<path d="M213.675 31.5912L211.251 32.8482L209.635 27.551L211.969 26.3838L213.675 31.5912Z" fill="#FBB03B"/>
<path d="M60.6942 71.9936L60.1555 71.2753L61.6817 69.749L62.2204 70.4673L60.6942 71.9936Z" fill="#ED1C24"/>
<path d="M107.468 58.7056L107.738 67.7736L101.722 67.9532L101.453 58.9749L107.468 58.7056Z" fill="#ED1C24"/>
<path d="M55.7563 70.1079L59.0781 67.8633L60.0657 69.3896L56.7439 71.6342L55.7563 70.1079Z" fill="#ED1E79"/>
<path d="M132.067 16.4177L131.618 16.2382L131.798 13.9038L132.336 14.1732L132.067 16.4177Z" fill="#FCEE21"/>
<path d="M111.239 2.32178L113.483 3.30939L112.137 7.08027L109.892 6.09266L111.239 2.32178Z" fill="#FBB03B"/>
<path d="M133.055 101.352L131.887 102.879L131.259 102.609L132.336 101.083L133.055 101.352Z" fill="#FCEE21"/>
<path d="M132.875 51.074L137.633 47.8418L140.417 51.4331L135.569 54.6653L132.875 51.074Z" fill="#39B54A"/>
<path d="M216.907 96.4146L217.445 97.4022L214.303 99.0183L213.675 98.0306L216.907 96.4146Z" fill="#FBB03B"/>
<path d="M160.347 100.275L160.976 99.0179L161.784 98.8384L161.245 100.006L160.347 100.275Z" fill="#39B54A"/>
<path d="M183.061 20.9069L176.776 23.2413L178.572 20.6376L184.946 18.3032L183.061 20.9069Z" fill="#FBB03B"/>
<path d="M79.1882 50.7148L78.9189 57.7179L77.2131 57.6281L77.4825 50.7148H79.1882Z" fill="#FCEE21"/>
<path d="M194.642 68.6718L195.719 67.7739L201.465 70.647L200.388 71.5448L194.642 68.6718Z" fill="#00FFFF"/>
<path d="M95.4378 55.7428L94.8992 54.3062L98.3107 52.9595L98.8494 54.396L95.4378 55.7428Z" fill="#00FFFF"/>
<path d="M193.655 51.4331L193.565 60.142L187.729 60.591L187.909 51.9718L193.655 51.4331Z" fill="#FBB03B"/>
<path d="M107.019 130.263L106.84 128.557L110.88 129.365L111.059 130.981L107.019 130.263Z" fill="#39B54A"/>
<path d="M174.083 23.062L180.278 18.6626L183.779 27.3715L177.584 31.7709L174.083 23.062Z" fill="#ED1C24"/>
<path d="M54.2302 89.1422L52.8835 87.0771L58.4497 88.0648L59.7964 90.1298L54.2302 89.1422Z" fill="#39B54A"/>
<path d="M232.438 47.842L236.658 40.9287L237.286 43.2631L233.067 50.1763L232.438 47.842Z" fill="#ED1C24"/>
<path d="M268.978 88.1544L269.606 86.8975L270.953 87.4362L270.324 88.7829L268.978 88.1544Z" fill="#FCEE21"/>
<path d="M202.183 96.6836L202.453 101.173L196.617 102.071L196.438 97.5814L202.183 96.6836Z" fill="#FBB03B"/>
<path d="M170.941 29.7058L169.415 27.9999L170.402 27.1919L171.928 28.9875L170.941 29.7058Z" fill="#39B54A"/>
<path d="M226.872 60.3218L226.782 61.489L223.371 61.6685L223.461 60.5013L226.872 60.3218Z" fill="#39B54A"/>
<path d="M147.778 80.3433L141.045 75.1359L142.661 74.5972L149.394 79.8944L147.778 80.3433Z" fill="#00FFFF"/>
<path d="M146.521 62.8358L142.661 62.1175L142.84 61.1299L146.701 61.8481L146.521 62.8358Z" fill="#FBB03B"/>
<path d="M174.711 30.2443L172.467 24.4084L173.455 23.9595L175.699 29.7954L174.711 30.2443Z" fill="#ED1C24"/>
<path d="M177.495 19.6499L171.21 18.7521L175.16 17.4951L181.445 18.3929L177.495 19.6499Z" fill="#ED1C24"/>
<path d="M85.2932 104.944L86.4603 106.111L86.5501 113.294L85.383 112.126L85.2932 104.944Z" fill="#ED1E79"/>
<path d="M48.7537 61.4887L52.255 57.7178L52.3448 58.436L48.8434 62.2069L48.7537 61.4887Z" fill="#FBB03B"/>
<path d="M270.684 35.3619L267.093 35.9006L266.823 34.5538L270.504 34.0151L270.684 35.3619Z" fill="#FBB03B"/>
<path d="M230.463 102.699L231.72 103.058L231.451 104.315L230.194 103.956L230.463 102.699Z" fill="#FBB03B"/>
<path d="M150.561 60.4113L153.883 59.2441L153.973 61.3092L150.741 62.4763L150.561 60.4113Z" fill="#FBB03B"/>
<path d="M155.409 34.6438L156.666 32.8481H158.013L156.756 34.554L155.409 34.6438Z" fill="#ED1C24"/>
<path d="M50.9083 1.15479L56.0256 4.2074L51.8959 11.1207L46.7786 8.06807L50.9083 1.15479Z" fill="#FBB03B"/>
<path d="M232.259 60.9501L233.067 60.7705L235.042 64.6312L234.234 64.8107L232.259 60.9501Z" fill="#39B54A"/>
<path d="M140.775 54.4858L141.135 54.9348L136.915 56.3713L136.556 55.8326L140.775 54.4858Z" fill="#FBB03B"/>
<path d="M102.351 38.5942L103.518 33.0277L104.236 32.04L103.159 37.6066L102.351 38.5942Z" fill="#FBB03B"/>
<path d="M235.311 132.597L235.67 132.058L236.837 131.52L236.389 132.058L235.311 132.597Z" fill="#00FFFF"/>
<path d="M115.369 11.4799L120.037 9.86377L121.474 13.0062L116.715 14.6223L115.369 11.4799Z" fill="#FBB03B"/>
<path d="M241.685 40.7491L241.596 38.6841L249.227 45.6871V47.7522L241.685 40.7491Z" fill="#00FFFF"/>
<path d="M153.524 41.7365L157.474 40.4795L157.564 43.8912L153.524 45.238V41.7365Z" fill="#39B54A"/>
<path d="M73.7119 44.5197L70.3901 37.8758L78.0212 34.0151L81.343 40.6591L73.7119 44.5197Z" fill="#39B54A"/>
<path d="M200.118 89.2319L195.809 94.3495H195.45L199.759 89.2319H200.118Z" fill="#FBB03B"/>
<path d="M223.73 79.0865L224.179 74.328L230.104 73.4302L229.745 78.1887L223.73 79.0865Z" fill="#FCEE21"/>
<path d="M142.212 119.219L139.429 115.538L139.968 115.089L142.751 118.77L142.212 119.219Z" fill="#ED1C24"/>
<path d="M193.924 81.9592L195.45 80.1636L196.886 81.1512L195.27 82.9468L193.924 81.9592Z" fill="#39B54A"/>
<path d="M111.239 56.0122L113.932 58.7955L111.778 60.8605L109.084 58.0772L111.239 56.0122Z" fill="#FBB03B"/>
<path d="M102.081 57.6281L100.286 52.1514L102.261 51.4331L104.057 56.9099L102.081 57.6281Z" fill="#FCEE21"/>
<path d="M113.304 11.3901L117.793 14.2632L112.855 17.8545L108.366 14.8917L113.304 11.3901Z" fill="#FBB03B"/>
<path d="M37.1725 118.681L34.6587 114.371L36.4542 112.755L38.968 116.975L37.1725 118.681Z" fill="#FBB03B"/>
<path d="M42.3794 6.7215L42.1101 5.01563L43.1874 4.29736L43.4568 6.09302L42.3794 6.7215Z" fill="#ED1C24"/>
<path d="M79.9963 104.315L79.6372 102.071L89.0638 100.006L89.5127 102.34L79.9963 104.315Z" fill="#39B54A"/>
<path d="M43.7262 11.0307L42.6488 12.0183L42.2 7.61896L43.3671 6.63135L43.7262 11.0307Z" fill="#ED1C24"/>
<path d="M185.215 120.566V120.387H185.485V120.566H185.215Z" fill="#FCEE21"/>
<path d="M53.6915 76.0339L51.896 77.2908L51.5369 76.1237L53.3324 74.8667L53.6915 76.0339Z" fill="#FBB03B"/>
<path d="M242.494 47.0339L240.967 53.1391L239.71 52.6902L241.237 46.585L242.494 47.0339Z" fill="#FCEE21"/>
<path d="M178.213 54.3962L169.504 53.1392L172.826 51.7925L181.535 53.0494L178.213 54.3962Z" fill="#FBB03B"/>
<path d="M226.064 126.312L223.82 127.659L222.653 116.526L224.897 115.179L226.064 126.312Z" fill="#FBB03B"/>
<path d="M245.456 59.0649V60.681L242.314 61.5789V59.9628L245.456 59.0649Z" fill="#ED1C24"/>
<path d="M216.099 132.238L217.266 131.789L217.446 132.418L216.368 132.777L216.099 132.238Z" fill="#39B54A"/>
<path d="M110.341 68.5819L106.301 75.6748L98.0415 73.3404L102.171 66.2476L110.341 68.5819Z" fill="#00FFFF"/>
<path d="M231.092 86.3589L231.72 77.0215L234.683 78.7274L234.144 88.0648L231.092 86.3589Z" fill="#ED1C24"/>
<path d="M64.5546 116.885L62.5795 117.423L61.4124 110.959L63.3875 110.42L64.5546 116.885Z" fill="#ED1C24"/>
<path d="M129.104 57.6281L133.773 53.5879L135.03 54.4857L130.361 58.5259L129.104 57.6281Z" fill="#FBB03B"/>
<path d="M211.61 101.622L210.353 102.25L207.211 101.532L208.468 100.814L211.61 101.622Z" fill="#ED1E79"/>
<path d="M149.484 26.0247L158.013 22.7925L159.18 25.7553L150.561 28.9875L149.484 26.0247Z" fill="#FCEE21"/>
<path d="M51.9856 106.47L48.7536 113.473L42.1101 110.421L45.3421 103.507L51.9856 106.47Z" fill="#FBB03B"/>
<path d="M136.287 64.4517L137.544 64.6312L136.915 66.5167L135.658 66.3371L136.287 64.4517Z" fill="#39B54A"/>
<path d="M97.5927 85.3712L96.5154 84.9223L97.6825 84.8325L98.7598 85.1916L97.5927 85.3712Z" fill="#ED1E79"/>
<path d="M34.0302 7.61902L32.2347 9.95338L27.0276 6.90076L28.8231 4.56641L34.0302 7.61902Z" fill="#00FFFF"/>
<path d="M196.976 49.1887L191.5 48.3806L187.999 45.1484L193.475 45.9565L196.976 49.1887Z" fill="#ED1C24"/>
<path d="M93.373 130.622L91.6672 130.891L92.0263 130.442L93.7321 130.173L93.373 130.622Z" fill="#39B54A"/>
<path d="M25.9502 13.0961L28.464 9.41504L31.6062 12.2881L29.0026 15.9692L25.9502 13.0961Z" fill="#39B54A"/>
<path d="M74.5198 88.1544L71.2878 86.9872L74.4301 78.9067L77.5723 80.0739L74.5198 88.1544Z" fill="#FCEE21"/>
<path d="M104.685 65.6191L106.66 67.0557L106.301 69.7492L104.326 68.3126L104.685 65.6191Z" fill="#FCEE21"/>
<path d="M62.6691 132.328L66.7091 133.764L65.2727 134.572L61.2327 133.136L62.6691 132.328Z" fill="#00FFFF"/>
<path d="M120.037 120.386L118.241 120.027L118.152 119.309L119.947 119.668L120.037 120.386Z" fill="#39B54A"/>
<path d="M220.947 7.97845L220.767 13.3654L215.83 13.2756L216.009 7.88867L220.947 7.97845Z" fill="#FCEE21"/>
<path d="M237.017 98.2099L237.645 102.519L235.85 101.622L235.221 97.4019L237.017 98.2099Z" fill="#00FFFF"/>
<path d="M91.6673 95.1577L92.5651 97.3125L92.3855 99.3775L91.3979 97.2227L91.6673 95.1577Z" fill="#FCEE21"/>
<path d="M181.535 103.328L181.983 104.495L179.829 103.418L179.47 102.25L181.535 103.328Z" fill="#39B54A"/>
<path d="M53.8709 2.32178L55.6664 5.28461L55.3971 7.17005L53.6016 4.297L53.8709 2.32178Z" fill="#ED1C24"/>
<path d="M124.077 82.4084L122.371 80.074L123.718 79.8047L125.424 82.0493L124.077 82.4084Z" fill="#ED1C24"/>
<path d="M186.742 92.1049L185.395 89.5909L186.383 89.0522L187.729 91.4764L186.742 92.1049Z" fill="#ED1E79"/>
<path d="M129.643 77.7397L130.361 78.9069L128.297 79.715L127.578 78.5478L129.643 77.7397Z" fill="#39B54A"/>
<path d="M59.2576 63.1052L59.5269 62.0278L60.2451 64.1826L59.9758 65.26L59.2576 63.1052Z" fill="#00FFFF"/>
<path d="M103.428 88.5137L112.765 89.5911L111.957 96.4146L102.62 95.3372L103.428 88.5137Z" fill="#ED1C24"/>
</g>
<path d="M102.174 118H118.782V113.744H109.47L113.47 110.64C117.31 107.856 118.59 105.584 118.59 102.64C118.59 98.512 115.198 95.632 110.526 95.632C106.974 95.632 104.19 97.168 102.014 99.92L105.022 102.832C106.622 101.008 108.254 99.92 110.398 99.92C112.19 99.92 113.726 101.008 113.726 102.832C113.726 104.368 112.894 105.808 110.27 107.888L102.174 114.16V118ZM129.992 118.416C135.24 118.416 138.728 115.44 138.728 110.768C138.728 106.288 135.368 103.792 131.464 103.792C129.672 103.792 128.264 104.368 127.176 105.136L127.304 100.272H137.512V96.016H122.952L122.632 107.888L125.8 109.168C126.984 108.272 128.392 107.728 130.056 107.728C132.456 107.728 134.024 109.008 134.024 110.928C134.024 112.816 132.488 114.288 130.024 114.288C127.912 114.288 125.896 113.264 124.264 111.696L121.48 115.024C123.528 117.072 126.312 118.416 129.992 118.416ZM142.477 118H147.181V104.304L153.997 116.72L160.781 104.304V118H165.517V96.016H160.781L153.997 108.432L147.181 96.016H142.477V118ZM170.227 118H181.779C185.971 118 188.979 115.568 188.979 112.048C188.979 109.616 187.507 107.568 184.947 106.416C186.899 105.392 188.019 103.76 188.019 101.52C188.019 98.32 185.299 96.016 181.363 96.016H170.227V118ZM174.931 104.88V100.048H180.179C181.939 100.048 183.187 101.072 183.187 102.448C183.187 103.856 181.939 104.88 180.179 104.88H174.931ZM174.931 113.968V108.592H180.915C182.803 108.592 184.147 109.712 184.147 111.28C184.147 112.848 182.803 113.968 180.915 113.968H174.931Z" fill="black"/>
</g>
<defs>
<clipPath id="clip0_819_952">
<rect width="293" height="134" fill="white"/>
</clipPath>
<clipPath id="clip1_819_952">
<rect width="249.222" height="146.705" fill="white" transform="translate(22 -1)"/>
</clipPath>
</defs>
</svg>
