<svg width="293" height="134" viewBox="0 0 293 134" fill="none" xmlns="http://www.w3.org/2000/svg">
<rect y="9" width="293" height="112" rx="8" fill="#F5F7F9"/>
<path d="M161.529 75.1498C143.202 64.3827 125.777 70.6635 119.355 75.1498C124.909 60.9872 145.649 32.6621 184.178 32.6621C222.707 32.6621 243.446 60.9872 249 75.1498C231.089 64.3827 212.901 70.6635 206.045 75.1498C187.51 64.5938 168.645 70.7515 161.529 75.1498Z" fill="#EF6FFF"/>
<path d="M206.046 75.1503C187.042 64.8582 172.464 70.664 161.53 75.1503C161.53 49.5518 176.542 36.2471 183.918 32.6626C199.955 40.8457 205.352 64.3094 206.046 75.1503Z" fill="#9A5BFF"/>
<rect x="182.355" y="70.1362" width="2.08264" height="39.057" fill="#CCCCCC"/>
<rect x="181.314" y="109.721" width="4.16528" height="13.1949" fill="#EF6FFF"/>
<path fill-rule="evenodd" clip-rule="evenodd" d="M181.314 122.916C181.314 122.916 181.314 122.916 181.314 122.916C181.314 129.037 186.209 133.999 192.248 133.999C198.287 133.999 203.182 129.037 203.182 122.916C203.182 122.916 203.182 122.916 203.182 122.916H199.017C199.017 122.916 199.017 122.916 199.017 122.916C199.017 126.705 195.986 129.777 192.248 129.777C188.51 129.777 185.479 126.705 185.479 122.916C185.479 122.916 185.479 122.916 185.479 122.916H181.314Z" fill="#EF6FFF"/>
<line x1="122.671" y1="30.9874" x2="122.671" y2="46.0624" stroke="#0060DF" stroke-width="1.675" stroke-linecap="round"/>
<line x1="112.757" y1="72.025" x2="112.757" y2="102.175" stroke="#0060DF" stroke-width="1.675" stroke-linecap="round"/>
<line x1="89.6249" y1="72.8624" x2="89.6249" y2="87.9374" stroke="#0060DF" stroke-width="1.675" stroke-linecap="round"/>
<line x1="131.759" y1="16.7496" x2="131.759" y2="31.8246" stroke="#0060DF" stroke-width="1.675" stroke-linecap="round"/>
<line x1="112.757" y1="9.2125" x2="112.757" y2="24.2875" stroke="#0060DF" stroke-width="1.675" stroke-linecap="round"/>
<line x1="236.684" y1="34.3375" x2="236.684" y2="49.4125" stroke="#0060DF" stroke-width="1.675" stroke-linecap="round"/>
<line x1="148.283" y1="22.6124" x2="148.283" y2="37.6874" stroke="#0060DF" stroke-width="1.675" stroke-linecap="round"/>
<line x1="70.6227" y1="70.3497" x2="70.6227" y2="85.4247" stroke="#0060DF" stroke-width="1.675" stroke-linecap="round"/>
<line x1="101.191" y1="93.7999" x2="101.191" y2="108.875" stroke="#0060DF" stroke-width="1.675" stroke-linecap="round"/>
<line x1="112.757" y1="33.4996" x2="112.757" y2="48.5746" stroke="#0060DF" stroke-width="1.675" stroke-linecap="round"/>
<line x1="226.77" y1="13.4" x2="226.77" y2="28.475" stroke="#0060DF" stroke-width="1.675" stroke-linecap="round"/>
<line x1="154.892" y1="2.5123" x2="154.892" y2="15.9123" stroke="#0060DF" stroke-width="1.675" stroke-linecap="round"/>
<line x1="62.3609" y1="5.025" x2="62.3609" y2="36.8499" stroke="#0060DF" stroke-width="1.675" stroke-linecap="round"/>
<line x1="244.945" y1="7.53769" x2="244.945" y2="22.6127" stroke="#0060DF" stroke-width="1.675" stroke-linecap="round"/>
<line x1="77.232" y1="48.5748" x2="77.232" y2="63.6498" stroke="#0060DF" stroke-width="1.675" stroke-linecap="round"/>
<line x1="54.0992" y1="54.4371" x2="54.0992" y2="69.5121" stroke="#0060DF" stroke-width="1.675" stroke-linecap="round"/>
<line x1="226.77" y1="1.67539" x2="226.77" y2="7.53788" stroke="#0060DF" stroke-width="1.675" stroke-linecap="round"/>
<line x1="216.029" y1="5.025" x2="216.029" y2="20.1" stroke="#0060DF" stroke-width="1.675" stroke-linecap="round"/>
<line x1="207.767" y1="14.2379" x2="207.767" y2="29.3129" stroke="#0060DF" stroke-width="1.675" stroke-linecap="round"/>
<line x1="189.591" y1="1.67539" x2="189.591" y2="23.4503" stroke="#0060DF" stroke-width="1.675" stroke-linecap="round"/>
<line x1="77.232" y1="15.0748" x2="77.232" y2="36.8498" stroke="#0060DF" stroke-width="1.675" stroke-linecap="round"/>
<line x1="70.6227" y1="25.1246" x2="70.6227" y2="46.8996" stroke="#0060DF" stroke-width="1.675" stroke-linecap="round"/>
<line x1="54.0992" y1="25.1246" x2="54.0992" y2="46.8996" stroke="#0060DF" stroke-width="1.675" stroke-linecap="round"/>
<line x1="162.328" y1="3.35019" x2="162.328" y2="10.0502" stroke="#0060DF" stroke-width="1.675" stroke-linecap="round"/>
<line x1="171.416" y1="14.2379" x2="171.416" y2="29.3129" stroke="#0060DF" stroke-width="1.675" stroke-linecap="round"/>
<line x1="140.848" y1="33.4996" x2="140.848" y2="41.0371" stroke="#0060DF" stroke-width="1.675" stroke-linecap="round"/>
<line x1="140.848" y1="3.35019" x2="140.848" y2="9.21268" stroke="#0060DF" stroke-width="1.675" stroke-linecap="round"/>
<line x1="89.6249" y1="5.86289" x2="89.6249" y2="20.9379" stroke="#0060DF" stroke-width="1.675" stroke-linecap="round"/>
<line x1="62.3609" y1="81.2374" x2="62.3609" y2="88.7749" stroke="#0060DF" stroke-width="1.675" stroke-linecap="round"/>
<line x1="77.232" y1="91.2872" x2="77.232" y2="98.8247" stroke="#0060DF" stroke-width="1.675" stroke-linecap="round"/>
<line x1="89.6249" y1="39.3624" x2="89.6249" y2="46.8999" stroke="#0060DF" stroke-width="1.675" stroke-linecap="round"/>
<line x1="101.191" y1="17.5875" x2="101.191" y2="32.6625" stroke="#0060DF" stroke-width="1.675" stroke-linecap="round"/>
<line x1="70.6227" y1="94.6373" x2="70.6227" y2="109.712" stroke="#0060DF" stroke-width="1.675" stroke-linecap="round"/>
<line x1="140.848" y1="15.9127" x2="140.848" y2="25.1252" stroke="#0060DF" stroke-width="1.675" stroke-linecap="round"/>
<line x1="101.191" y1="56.1124" x2="101.191" y2="67.8374" stroke="#0060DF" stroke-width="1.675" stroke-linecap="round"/>
<line x1="54.0992" y1="77.8873" x2="54.0992" y2="92.9623" stroke="#0060DF" stroke-width="1.675" stroke-linecap="round"/>
<line x1="89.6249" y1="57.7877" x2="89.6249" y2="65.3252" stroke="#0060DF" stroke-width="1.675" stroke-linecap="round"/>
<line x1="101.191" y1="3.35019" x2="101.191" y2="10.8877" stroke="#0060DF" stroke-width="1.675" stroke-linecap="round"/>
<line x1="131.759" y1="39.3624" x2="131.759" y2="46.8999" stroke="#0060DF" stroke-width="1.675" stroke-linecap="round"/>
<line x1="62.3609" y1="61.1373" x2="62.3609" y2="68.6748" stroke="#0060DF" stroke-width="1.675" stroke-linecap="round"/>
<line x1="89.6249" y1="26.7999" x2="89.6249" y2="34.3374" stroke="#0060DF" stroke-width="1.675" stroke-linecap="round"/>
<line x1="112.757" y1="56.9498" x2="112.757" y2="64.4873" stroke="#0060DF" stroke-width="1.675" stroke-linecap="round"/>
<line x1="122.671" y1="9.2125" x2="122.671" y2="16.75" stroke="#0060DF" stroke-width="1.675" stroke-linecap="round"/>
<line x1="101.191" y1="38.525" x2="101.191" y2="46.0625" stroke="#0060DF" stroke-width="1.675" stroke-linecap="round"/>
<line x1="62.3609" y1="46.0621" x2="62.3609" y2="53.5996" stroke="#0060DF" stroke-width="1.675" stroke-linecap="round"/>
<line x1="148.283" y1="9.2125" x2="148.283" y2="16.75" stroke="#0060DF" stroke-width="1.675" stroke-linecap="round"/>
<line x1="226.77" y1="33.4996" x2="226.77" y2="41.0371" stroke="#0060DF" stroke-width="1.675" stroke-linecap="round"/>
<line x1="131.759" y1="3.35019" x2="131.759" y2="10.8877" stroke="#0060DF" stroke-width="1.675" stroke-linecap="round"/>
<line x1="207.767" y1="1.67539" x2="207.767" y2="9.21287" stroke="#0060DF" stroke-width="1.675" stroke-linecap="round"/>
<line x1="236.684" y1="4.18711" x2="236.684" y2="11.7246" stroke="#0060DF" stroke-width="1.675" stroke-linecap="round"/>
<line x1="70.6227" y1="56.9498" x2="70.6227" y2="64.4873" stroke="#0060DF" stroke-width="1.675" stroke-linecap="round"/>
<line x1="70.6227" y1="10.0504" x2="70.6227" y2="17.5879" stroke="#0060DF" stroke-width="1.675" stroke-linecap="round"/>
<line x1="236.684" y1="21.775" x2="236.684" y2="29.3125" stroke="#0060DF" stroke-width="1.675" stroke-linecap="round"/>
<line x1="101.191" y1="80.4" x2="101.191" y2="87.9375" stroke="#0060DF" stroke-width="1.675" stroke-linecap="round"/>
<line x1="198.679" y1="15.0748" x2="198.679" y2="22.6123" stroke="#0060DF" stroke-width="1.675" stroke-linecap="round"/>
<line x1="198.679" y1="1.67539" x2="198.679" y2="9.21287" stroke="#0060DF" stroke-width="1.675" stroke-linecap="round"/>
<line x1="181.33" y1="11.7252" x2="181.33" y2="19.2627" stroke="#0060DF" stroke-width="1.675" stroke-linecap="round"/>
<line x1="154.892" y1="22.6124" x2="154.892" y2="30.1499" stroke="#0060DF" stroke-width="1.675" stroke-linecap="round"/>
<line x1="181.33" y1="23.4498" x2="181.33" y2="28.4748" stroke="#0060DF" stroke-width="1.675" stroke-linecap="round"/>
<line x1="89.6249" y1="97.15" x2="89.6249" y2="102.175" stroke="#0060DF" stroke-width="1.675" stroke-linecap="round"/>
<line x1="89.6249" y1="108.037" x2="89.6249" y2="119.762" stroke="#0060DF" stroke-width="1.675" stroke-linecap="round"/>
<line x1="112.757" y1="108.037" x2="112.757" y2="113.062" stroke="#0060DF" stroke-width="1.675" stroke-linecap="round"/>
<line x1="181.33" y1="2.5123" x2="181.33" y2="6.69979" stroke="#0060DF" stroke-width="1.675" stroke-linecap="round"/>
<line x1="171.416" y1="2.5123" x2="171.416" y2="10.0498" stroke="#0060DF" stroke-width="1.675" stroke-linecap="round"/>
<line x1="77.232" y1="70.3497" x2="77.232" y2="83.7497" stroke="#0060DF" stroke-width="1.675" stroke-linecap="round"/>
<line x1="162.328" y1="15.0748" x2="162.328" y2="22.6123" stroke="#0060DF" stroke-width="1.675" stroke-linecap="round"/>
<line x1="216.029" y1="26.7999" x2="216.029" y2="34.3374" stroke="#0060DF" stroke-width="1.675" stroke-linecap="round"/>
<line x1="45.8375" y1="37.6871" x2="45.8375" y2="78.7245" stroke="#0060DF" stroke-width="1.675" stroke-linecap="round"/>
</svg>
