<svg width="260" height="160" viewBox="0 0 260 160" fill="none" xmlns="http://www.w3.org/2000/svg">
<rect width="260" height="160" rx="8" fill="url(#paint0_linear_204_434)"/>
<circle opacity="0.2" cx="55.5" cy="83.5" r="51.5" fill="white"/>
<circle opacity="0.1" cx="153.5" cy="56.5" r="35.5" fill="white"/>
<rect x="30.5" y="63.5" width="94" height="22" rx="3.5" fill="white"/>
<rect x="30.5" y="63.5" width="94" height="22" rx="3.5" stroke="#0A84FF"/>
<rect x="30.5" y="63.5" width="94" height="22" rx="3.5" stroke="#0A84FF" stroke-opacity="0.291712"/>
<rect x="30.5" y="91.5" width="94" height="22" rx="3.5" fill="white"/>
<rect x="30.5" y="91.5" width="94" height="22" rx="3.5" stroke="#0A84FF"/>
<rect x="30.5" y="91.5" width="94" height="22" rx="3.5" stroke="#0A84FF" stroke-opacity="0.291712"/>
<rect x="30.5" y="119.5" width="94" height="22" rx="3.5" fill="#0A84FF" stroke="#0A84FF"/>
<g filter="url(#filter0_d_204_434)">
<rect x="107" y="47" width="138" height="80" rx="4" fill="white"/>
</g>
<rect opacity="0.1" x="111" y="100" width="129" height="20" rx="2" fill="#45A1FF"/>
<rect x="116" y="57" width="115" height="6" rx="3" fill="#ECECEC"/>
<rect x="116" y="72" width="91" height="6" rx="3" fill="#ECECEC"/>
<rect x="116" y="86" width="104" height="6" rx="3" fill="#ECECEC"/>
<rect x="134" y="106" width="99" height="8" rx="4" fill="#E76DFF"/>
<g filter="url(#filter1_d_204_434)">
<path fill-rule="evenodd" clip-rule="evenodd" d="M220.651 121.845L222.1 121.065L223.356 120.412L221.358 116.667H224.728L215.877 107.794V120.25L218.457 117.745L220.651 121.845Z" fill="white"/>
<path fill-rule="evenodd" clip-rule="evenodd" d="M220.871 120.699L222.244 119.967L220.086 115.922H222.889L216.647 109.666V118.368L218.615 116.469L220.871 120.699Z" fill="black"/>
</g>
<path fill-rule="evenodd" clip-rule="evenodd" d="M227.805 133.65C227.912 134.038 227.705 134.454 227.315 134.603C226.901 134.762 226.439 134.561 226.283 134.153L223.399 126.64L223.375 126.568C223.268 126.18 223.476 125.765 223.865 125.615C224.279 125.456 224.741 125.658 224.897 126.065L227.781 133.578L227.805 133.65ZM230.43 120.478C230.698 120.127 231.2 120.055 231.552 120.316L238.042 125.135L238.101 125.184C238.401 125.454 238.446 125.913 238.194 126.243C237.926 126.593 237.423 126.666 237.072 126.404L230.581 121.586L230.522 121.537C230.223 121.266 230.177 120.808 230.43 120.478ZM215.144 127.902C215.23 127.473 215.652 127.19 216.086 127.271C216.494 127.348 216.768 127.719 216.726 128.12L216.714 128.196L215.116 136.12C215.029 136.549 214.607 136.832 214.174 136.751C213.765 136.674 213.492 136.303 213.534 135.902L213.545 135.826L215.144 127.902ZM213.98 103.657C214.087 104.045 213.879 104.46 213.49 104.61C213.076 104.769 212.614 104.567 212.458 104.16L209.574 96.6471L209.55 96.5748C209.443 96.1869 209.651 95.7716 210.04 95.6221C210.454 95.4633 210.916 95.6647 211.072 96.072L213.956 103.585L213.98 103.657ZM222.659 103.457C222.572 103.886 222.151 104.169 221.717 104.088C221.309 104.011 221.035 103.64 221.077 103.239L221.088 103.163L222.687 95.2392C222.774 94.8096 223.196 94.5272 223.629 94.6083C224.038 94.6847 224.311 95.0559 224.269 95.4574L224.258 95.533L222.659 103.457ZM206.398 109.595C206.13 109.945 205.627 110.018 205.275 109.756L198.785 104.937L198.726 104.889C198.427 104.618 198.381 104.16 198.633 103.83C198.901 103.479 199.404 103.407 199.756 103.668L206.246 108.487L206.305 108.535C206.605 108.806 206.65 109.265 206.398 109.595Z" fill="url(#paint1_linear_204_434)"/>
<path d="M128.759 106.253L123.335 103.16C123.144 103.055 122.931 103 122.714 103C122.497 103 122.284 103.055 122.093 103.16L116.649 106.253C116.453 106.365 116.289 106.528 116.175 106.725C116.061 106.922 116.001 107.146 116 107.375V113.543C115.998 113.772 116.058 113.997 116.172 114.194C116.286 114.392 116.451 114.554 116.649 114.664L122.074 117.739C122.264 117.854 122.483 117.915 122.704 117.913C122.926 117.912 123.144 117.852 123.335 117.739L128.759 114.664C128.956 114.552 129.12 114.389 129.234 114.192C129.348 113.995 129.408 113.771 129.409 113.543V107.375C129.415 107.145 129.357 106.919 129.242 106.72C129.127 106.522 128.96 106.361 128.759 106.253V106.253Z" fill="url(#paint2_linear_204_434)"/>
<path d="M118.923 112.074L118.598 112.267C118.54 112.3 118.489 112.344 118.447 112.396C118.406 112.449 118.376 112.51 118.358 112.575C118.34 112.639 118.336 112.707 118.344 112.774C118.352 112.841 118.374 112.905 118.407 112.963C118.449 113.044 118.513 113.112 118.59 113.159C118.667 113.207 118.756 113.233 118.846 113.234C118.932 113.233 119.017 113.213 119.094 113.176L119.419 112.983C119.477 112.95 119.528 112.906 119.57 112.853C119.611 112.8 119.641 112.74 119.659 112.675C119.677 112.61 119.681 112.542 119.673 112.476C119.665 112.409 119.643 112.345 119.61 112.286C119.581 112.225 119.539 112.17 119.488 112.126C119.436 112.082 119.377 112.048 119.312 112.028C119.248 112.008 119.18 112.002 119.113 112.01C119.046 112.018 118.981 112.039 118.923 112.074V112.074ZM120.909 110.933L120.241 111.32C120.182 111.352 120.131 111.396 120.09 111.449C120.049 111.502 120.019 111.562 120.001 111.627C119.983 111.692 119.978 111.76 119.987 111.826C119.995 111.893 120.016 111.957 120.049 112.016C120.092 112.096 120.155 112.164 120.233 112.212C120.31 112.259 120.398 112.285 120.489 112.286C120.575 112.286 120.66 112.266 120.737 112.228L121.406 111.842C121.464 111.809 121.515 111.765 121.556 111.712C121.597 111.66 121.628 111.599 121.645 111.534C121.663 111.469 121.668 111.402 121.66 111.335C121.651 111.268 121.63 111.204 121.597 111.146C121.567 111.084 121.525 111.03 121.474 110.985C121.423 110.941 121.363 110.908 121.299 110.888C121.234 110.868 121.166 110.861 121.099 110.869C121.032 110.877 120.967 110.899 120.909 110.933V110.933ZM123.602 109.987C123.575 109.933 123.538 109.884 123.492 109.844C123.446 109.804 123.393 109.774 123.335 109.755V105.867C123.335 105.798 123.322 105.73 123.296 105.667C123.27 105.603 123.232 105.546 123.184 105.497C123.136 105.449 123.079 105.41 123.017 105.384C122.954 105.358 122.887 105.345 122.819 105.345C122.752 105.345 122.686 105.359 122.625 105.386C122.563 105.412 122.508 105.451 122.462 105.5C122.415 105.548 122.379 105.606 122.355 105.669C122.331 105.732 122.32 105.799 122.323 105.867V109.773C122.265 109.791 122.211 109.821 122.165 109.861C122.12 109.901 122.082 109.95 122.055 110.005C122.019 110.073 121.999 110.148 121.996 110.225C121.992 110.302 122.006 110.379 122.036 110.45C122.006 110.52 121.992 110.597 121.996 110.674C121.999 110.751 122.019 110.826 122.055 110.894C122.082 110.949 122.12 110.998 122.165 111.038C122.211 111.078 122.265 111.108 122.323 111.126V115.032C122.323 115.171 122.377 115.303 122.474 115.401C122.57 115.499 122.701 115.554 122.838 115.554C122.975 115.554 123.106 115.499 123.203 115.401C123.3 115.303 123.354 115.171 123.354 115.032V111.107C123.412 111.088 123.465 111.058 123.511 111.018C123.557 110.979 123.594 110.93 123.621 110.875C123.657 110.807 123.678 110.732 123.681 110.655C123.684 110.578 123.67 110.501 123.64 110.43C123.685 110.283 123.671 110.125 123.602 109.987V109.987ZM124.903 108.651L124.235 109.038C124.176 109.071 124.125 109.115 124.084 109.167C124.043 109.22 124.013 109.281 123.995 109.346C123.977 109.41 123.972 109.478 123.981 109.545C123.989 109.612 124.01 109.676 124.044 109.734C124.086 109.815 124.149 109.883 124.227 109.93C124.304 109.978 124.392 110.004 124.483 110.005C124.569 110.004 124.654 109.984 124.731 109.947L125.4 109.56C125.458 109.528 125.509 109.484 125.55 109.431C125.591 109.378 125.622 109.317 125.639 109.253C125.657 109.188 125.662 109.12 125.654 109.053C125.645 108.987 125.624 108.922 125.591 108.864C125.561 108.803 125.519 108.748 125.468 108.704C125.417 108.659 125.357 108.626 125.293 108.606C125.228 108.586 125.16 108.58 125.093 108.588C125.026 108.595 124.961 108.617 124.903 108.651V108.651ZM126.487 108.845C126.572 108.844 126.657 108.824 126.735 108.787L127.06 108.593C127.118 108.561 127.169 108.516 127.21 108.464C127.251 108.411 127.281 108.35 127.299 108.285C127.317 108.221 127.322 108.153 127.314 108.086C127.306 108.019 127.285 107.955 127.253 107.896C127.22 107.837 127.176 107.786 127.124 107.745C127.071 107.703 127.011 107.673 126.947 107.655C126.883 107.637 126.816 107.632 126.75 107.641C126.684 107.649 126.621 107.671 126.563 107.704L126.238 107.897C126.18 107.93 126.129 107.974 126.088 108.027C126.047 108.079 126.016 108.14 125.999 108.205C125.981 108.27 125.976 108.337 125.984 108.404C125.993 108.471 126.014 108.535 126.047 108.593C126.091 108.672 126.155 108.737 126.232 108.781C126.31 108.825 126.398 108.847 126.487 108.845ZM127.06 112.267L126.735 112.074C126.618 112.008 126.481 111.991 126.352 112.028C126.224 112.064 126.115 112.151 126.049 112.268C125.984 112.386 125.967 112.525 126.002 112.655C126.037 112.785 126.122 112.896 126.238 112.963L126.563 113.157C126.641 113.194 126.725 113.214 126.811 113.215C126.902 113.213 126.99 113.187 127.067 113.14C127.145 113.092 127.208 113.025 127.251 112.944C127.285 112.887 127.307 112.824 127.316 112.759C127.325 112.693 127.32 112.627 127.302 112.563C127.284 112.499 127.253 112.44 127.211 112.389C127.17 112.338 127.118 112.297 127.06 112.267V112.267ZM125.398 111.32L124.729 110.933C124.672 110.9 124.608 110.878 124.542 110.87C124.476 110.861 124.409 110.866 124.345 110.884C124.281 110.902 124.221 110.932 124.168 110.974C124.116 111.015 124.072 111.066 124.039 111.125C124.007 111.184 123.986 111.248 123.978 111.315C123.97 111.382 123.975 111.45 123.993 111.514C124.011 111.579 124.041 111.64 124.082 111.693C124.124 111.745 124.175 111.79 124.233 111.822L124.901 112.209C124.979 112.247 125.063 112.266 125.149 112.267C125.24 112.266 125.328 112.24 125.406 112.192C125.483 112.145 125.546 112.077 125.589 111.996C125.624 111.94 125.646 111.877 125.655 111.811C125.665 111.746 125.66 111.679 125.642 111.615C125.624 111.551 125.593 111.492 125.551 111.441C125.509 111.39 125.457 111.349 125.398 111.32V111.32ZM120.241 109.541L120.909 109.927C120.987 109.965 121.071 109.985 121.157 109.985C121.248 109.984 121.336 109.958 121.414 109.911C121.491 109.863 121.554 109.796 121.597 109.715C121.63 109.657 121.651 109.592 121.66 109.525C121.668 109.459 121.663 109.391 121.645 109.326C121.628 109.261 121.597 109.201 121.556 109.148C121.515 109.095 121.464 109.051 121.406 109.019L120.737 108.632C120.68 108.598 120.616 108.577 120.55 108.568C120.484 108.56 120.417 108.565 120.353 108.583C120.289 108.601 120.229 108.632 120.177 108.673C120.125 108.715 120.082 108.767 120.049 108.825C119.986 108.947 119.97 109.088 120.005 109.221C120.041 109.354 120.125 109.468 120.241 109.541V109.541ZM119.419 107.897L119.094 107.704C119.037 107.671 118.973 107.649 118.907 107.641C118.841 107.632 118.774 107.637 118.71 107.655C118.646 107.673 118.586 107.703 118.534 107.745C118.481 107.786 118.437 107.837 118.405 107.896C118.372 107.955 118.351 108.019 118.343 108.086C118.335 108.153 118.34 108.221 118.358 108.285C118.376 108.35 118.406 108.411 118.448 108.464C118.489 108.516 118.54 108.561 118.598 108.593L118.923 108.787C119 108.824 119.085 108.844 119.171 108.845C119.261 108.843 119.35 108.818 119.427 108.77C119.504 108.722 119.568 108.655 119.61 108.574C119.643 108.517 119.664 108.454 119.671 108.389C119.679 108.324 119.674 108.258 119.657 108.195C119.639 108.131 119.609 108.073 119.568 108.021C119.527 107.97 119.476 107.928 119.419 107.897V107.897Z" fill="#20133A"/>
<path d="M108.998 108.029C109.015 107.861 108.907 107.705 108.743 107.662C108.069 107.542 106.195 107.1 105.565 106.463C104.936 105.826 104.486 103.952 104.366 103.285C104.337 103.121 104.195 103.001 104.029 103V107.999L108.998 108.029Z" fill="#FFEA80"/>
<path d="M103.999 103.03C103.831 103.034 103.69 103.157 103.662 103.322C103.557 103.989 103.137 105.863 102.507 106.493C101.878 107.122 99.9666 107.572 99.292 107.692C99.1281 107.721 99.0082 107.863 99.0071 108.029H104.007L103.999 103.03Z" fill="#FFD567"/>
<path d="M104 108.029V113.029C104.166 113.028 104.308 112.908 104.337 112.744C104.457 112.062 104.899 110.166 105.536 109.528C106.173 108.891 108.04 108.479 108.707 108.374C108.875 108.345 108.998 108.2 108.999 108.029H104Z" fill="#FFD567"/>
<path d="M99 108.029C98.9975 108.199 99.1182 108.345 99.2849 108.374C99.9669 108.479 101.863 108.899 102.5 109.528C103.137 110.158 103.55 112.062 103.655 112.737C103.68 112.903 103.823 113.027 103.992 113.029V108.029H99Z" fill="#FFA266"/>
<path d="M102.004 123.026C102.018 122.892 101.931 122.767 101.8 122.732C101.26 122.636 99.7601 122.282 99.2561 121.772C98.752 121.262 98.392 119.762 98.296 119.228C98.2728 119.097 98.1592 119.001 98.0259 119V123.002L102.004 123.026Z" fill="#FFEA80"/>
<path d="M98.0021 119.024C97.8678 119.028 97.7549 119.126 97.7321 119.258C97.6481 119.792 97.312 121.292 96.808 121.796C96.3039 122.3 94.7738 122.66 94.2337 122.756C94.1025 122.779 94.0065 122.893 94.0057 123.026H98.0081L98.0021 119.024Z" fill="#FFD567"/>
<path d="M98.0027 123.026V127.029C98.1359 127.028 98.2495 126.932 98.2727 126.801C98.3687 126.255 98.7228 124.737 99.2328 124.227C99.7429 123.717 101.237 123.387 101.771 123.303C101.906 123.279 102.004 123.163 102.005 123.026H98.0027Z" fill="#FFD567"/>
<path d="M94 123.026C93.998 123.162 94.0946 123.279 94.2281 123.303C94.7741 123.387 96.2923 123.723 96.8023 124.227C97.3124 124.731 97.6424 126.255 97.7264 126.795C97.747 126.928 97.8613 127.028 97.9964 127.029V123.026H94Z" fill="#FFA266"/>
<path d="M124.997 131.053C125.027 130.75 124.833 130.47 124.538 130.392C123.324 130.176 119.951 129.38 118.818 128.233C117.684 127.086 116.875 123.713 116.659 122.513C116.607 122.218 116.352 122.002 116.052 122V130.999L124.997 131.053Z" fill="#FFEA80"/>
<path d="M115.998 122.054C115.696 122.062 115.442 122.282 115.391 122.58C115.202 123.781 114.447 127.154 113.313 128.287C112.18 129.42 108.74 130.23 107.525 130.446C107.23 130.498 107.015 130.753 107.013 131.053H116.012L115.998 122.054Z" fill="#FFD567"/>
<path d="M116 131.053V140.052C116.299 140.05 116.555 139.835 116.607 139.539C116.823 138.312 117.619 134.898 118.765 133.751C119.912 132.605 123.272 131.863 124.473 131.674C124.775 131.621 124.997 131.36 124.999 131.053H116Z" fill="#FFD567"/>
<path d="M107 131.053C106.995 131.358 107.213 131.621 107.513 131.674C108.741 131.863 112.154 132.618 113.301 133.751C114.448 134.885 115.19 138.312 115.378 139.526C115.425 139.826 115.682 140.049 115.986 140.052V131.053H107Z" fill="#FFA266"/>
<path d="M48.8334 71.5C48.8334 70.8584 48.3084 70.3334 47.6667 70.3334H38.3334C37.6917 70.3334 37.1667 70.8584 37.1667 71.5V78.5C37.1667 79.1417 37.6917 79.6667 38.3334 79.6667H47.6667C48.3084 79.6667 48.8334 79.1417 48.8334 78.5V71.5ZM47.6667 71.5L43 74.4109L38.3334 71.5H47.6667ZM47.6667 78.5H38.3334V72.6667L43 75.5834L47.6667 72.6667V78.5Z" fill="#CCCCCC"/>
<path d="M46.5 99.6667H45.9166V98.5C45.9166 96.89 44.61 95.5834 43 95.5834C41.39 95.5834 40.0833 96.89 40.0833 98.5V99.6667H39.5C38.8583 99.6667 38.3333 100.192 38.3333 100.833V106.667C38.3333 107.308 38.8583 107.833 39.5 107.833H46.5C47.1416 107.833 47.6666 107.308 47.6666 106.667V100.833C47.6666 100.192 47.1416 99.6667 46.5 99.6667ZM41.25 98.5C41.25 97.5317 42.0316 96.75 43 96.75C43.9683 96.75 44.75 97.5317 44.75 98.5V99.6667H41.25V98.5ZM46.5 106.667H39.5V100.833H46.5V106.667ZM43 104.917C43.6416 104.917 44.1666 104.392 44.1666 103.75C44.1666 103.108 43.6416 102.583 43 102.583C42.3583 102.583 41.8333 103.108 41.8333 103.75C41.8333 104.392 42.3583 104.917 43 104.917Z" fill="#CCCCCC"/>
<path d="M55.6676 104.182H56.5923L56.5114 102.384L58.0284 103.359L58.4929 102.55L56.8821 101.727L58.4929 100.905L58.0284 100.095L56.5114 101.071L56.5923 99.2727H55.6676L55.7486 101.071L54.2315 100.095L53.767 100.905L55.3778 101.727L53.767 102.55L54.2315 103.359L55.7486 102.384L55.6676 104.182ZM61.9254 104.182H62.8501L62.7692 102.384L64.2862 103.359L64.7507 102.55L63.1399 101.727L64.7507 100.905L64.2862 100.095L62.7692 101.071L62.8501 99.2727H61.9254L62.0064 101.071L60.4893 100.095L60.0249 100.905L61.6357 101.727L60.0249 102.55L60.4893 103.359L62.0064 102.384L61.9254 104.182ZM68.1832 104.182H69.108L69.027 102.384L70.544 103.359L71.0085 102.55L69.3977 101.727L71.0085 100.905L70.544 100.095L69.027 101.071L69.108 99.2727H68.1832L68.2642 101.071L66.7472 100.095L66.2827 100.905L67.8935 101.727L66.2827 102.55L66.7472 103.359L68.2642 102.384L68.1832 104.182ZM74.4411 104.182H75.3658L75.2848 102.384L76.8018 103.359L77.2663 102.55L75.6555 101.727L77.2663 100.905L76.8018 100.095L75.2848 101.071L75.3658 99.2727H74.4411L74.522 101.071L73.005 100.095L72.5405 100.905L74.1513 101.727L72.5405 102.55L73.005 103.359L74.522 102.384L74.4411 104.182Z" fill="#CCCCCC"/>
<path opacity="0.1" fill-rule="evenodd" clip-rule="evenodd" d="M234.315 160C246.302 150.571 254 135.934 254 119.5C254 91.0573 230.943 68 202.5 68C174.057 68 151 91.0573 151 119.5C151 135.934 158.698 150.571 170.685 160H234.315Z" fill="white"/>
<path opacity="0.3" fill-rule="evenodd" clip-rule="evenodd" d="M68.6845 0H132.315C144.302 9.42942 152 24.0657 152 40.5C152 68.9427 128.943 92 100.5 92C72.0573 92 49 68.9427 49 40.5C49 24.0657 56.6978 9.42942 68.6845 0Z" fill="white"/>
<defs>
<filter id="filter0_d_204_434" x="103" y="43" width="146" height="88" filterUnits="userSpaceOnUse" color-interpolation-filters="sRGB">
<feFlood flood-opacity="0" result="BackgroundImageFix"/>
<feColorMatrix in="SourceAlpha" type="matrix" values="0 0 0 0 0 0 0 0 0 0 0 0 0 0 0 0 0 0 127 0" result="hardAlpha"/>
<feOffset/>
<feGaussianBlur stdDeviation="2"/>
<feColorMatrix type="matrix" values="0 0 0 0 0 0 0 0 0 0 0 0 0 0 0 0 0 0 0.294089 0"/>
<feBlend mode="normal" in2="BackgroundImageFix" result="effect1_dropShadow_204_434"/>
<feBlend mode="normal" in="SourceGraphic" in2="effect1_dropShadow_204_434" result="shape"/>
</filter>
<filter id="filter1_d_204_434" x="212.877" y="105.794" width="14.8503" height="20.0514" filterUnits="userSpaceOnUse" color-interpolation-filters="sRGB">
<feFlood flood-opacity="0" result="BackgroundImageFix"/>
<feColorMatrix in="SourceAlpha" type="matrix" values="0 0 0 0 0 0 0 0 0 0 0 0 0 0 0 0 0 0 127 0" result="hardAlpha"/>
<feOffset dy="1"/>
<feGaussianBlur stdDeviation="1.5"/>
<feColorMatrix type="matrix" values="0 0 0 0 0 0 0 0 0 0 0 0 0 0 0 0 0 0 0.4049 0"/>
<feBlend mode="normal" in2="BackgroundImageFix" result="effect1_dropShadow_204_434"/>
<feBlend mode="normal" in="SourceGraphic" in2="effect1_dropShadow_204_434" result="shape"/>
</filter>
<linearGradient id="paint0_linear_204_434" x1="130" y1="53" x2="130" y2="199" gradientUnits="userSpaceOnUse">
<stop stop-color="#B00FBF"/>
<stop offset="1" stop-color="#660D7D"/>
</linearGradient>
<linearGradient id="paint1_linear_204_434" x1="245.819" y1="111.226" x2="214.321" y2="145.119" gradientUnits="userSpaceOnUse">
<stop stop-color="#FF9100"/>
<stop offset="0.518515" stop-color="#F10366"/>
<stop offset="1" stop-color="#6173FF"/>
</linearGradient>
<linearGradient id="paint2_linear_204_434" x1="116" y1="110.457" x2="129.411" y2="110.457" gradientUnits="userSpaceOnUse">
<stop stop-color="#9059FF"/>
<stop offset="1" stop-color="#F770FF"/>
</linearGradient>
</defs>
</svg>
