<svg width="293" height="134" viewBox="0 0 293 134" fill="none" xmlns="http://www.w3.org/2000/svg">
<g clip-path="url(#clip0_815_530)">
<rect width="293" height="134" rx="8" fill="url(#paint0_linear_815_530)"/>
<circle opacity="0.2" cx="73.5" cy="65.5" r="51.5" fill="white"/>
<circle opacity="0.1" cx="171.5" cy="38.5" r="35.5" fill="white"/>
<rect x="48.5" y="45.5" width="94" height="22" rx="3.5" fill="white"/>
<rect x="48.5" y="45.5" width="94" height="22" rx="3.5" stroke="#0A84FF"/>
<rect x="48.5" y="45.5" width="94" height="22" rx="3.5" stroke="#0A84FF" stroke-opacity="0.291712"/>
<rect x="48.5" y="73.5" width="94" height="22" rx="3.5" fill="white"/>
<rect x="48.5" y="73.5" width="94" height="22" rx="3.5" stroke="#0A84FF"/>
<rect x="48.5" y="73.5" width="94" height="22" rx="3.5" stroke="#0A84FF" stroke-opacity="0.291712"/>
<rect x="48.5" y="101.5" width="94" height="22" rx="3.5" fill="#0A84FF" stroke="#0A84FF"/>
<g filter="url(#filter0_d_815_530)">
<rect x="125" y="29" width="138" height="80" rx="4" fill="white"/>
</g>
<rect opacity="0.1" x="129" y="82" width="129" height="20" rx="2" fill="#45A1FF"/>
<rect x="134" y="39" width="115" height="6" rx="3" fill="#ECECEC"/>
<rect x="134" y="54" width="91" height="6" rx="3" fill="#ECECEC"/>
<rect x="134" y="68" width="104" height="6" rx="3" fill="#ECECEC"/>
<rect x="152" y="88" width="99" height="8" rx="4" fill="#E76DFF"/>
<g filter="url(#filter1_d_815_530)">
<path fill-rule="evenodd" clip-rule="evenodd" d="M238.651 103.845L240.1 103.065L241.356 102.413L239.358 98.6668H242.728L233.877 89.7939V102.25L236.457 99.7448L238.651 103.845Z" fill="white"/>
<path fill-rule="evenodd" clip-rule="evenodd" d="M238.871 102.7L240.244 101.968L238.086 97.9222H240.889L234.647 91.6665V100.368L236.615 98.4689L238.871 102.7Z" fill="black"/>
</g>
<path fill-rule="evenodd" clip-rule="evenodd" d="M245.805 115.65C245.912 116.038 245.704 116.453 245.315 116.603C244.901 116.762 244.439 116.56 244.283 116.153L241.399 108.64L241.375 108.568C241.268 108.18 241.475 107.764 241.865 107.615C242.279 107.456 242.741 107.658 242.897 108.065L245.781 115.578L245.805 115.65ZM248.43 102.478C248.698 102.127 249.2 102.055 249.552 102.316L256.042 107.135L256.101 107.183C256.401 107.454 256.446 107.913 256.194 108.243C255.926 108.593 255.423 108.665 255.072 108.404L248.581 103.585L248.522 103.537C248.223 103.266 248.177 102.808 248.43 102.478ZM233.144 109.902C233.23 109.472 233.652 109.19 234.086 109.271C234.494 109.347 234.767 109.719 234.726 110.12L234.714 110.196L233.116 118.12C233.029 118.549 232.607 118.832 232.173 118.75C231.765 118.674 231.492 118.303 231.533 117.901L231.545 117.826L233.144 109.902ZM231.98 85.657C232.087 86.0449 231.879 86.4602 231.49 86.6097C231.076 86.7685 230.614 86.5671 230.458 86.1598L227.574 78.6469L227.55 78.5746C227.443 78.1866 227.65 77.7713 228.04 77.6219C228.454 77.463 228.916 77.6645 229.072 78.0717L231.956 85.5847L231.98 85.657ZM240.659 85.4566C240.572 85.8862 240.15 86.1686 239.717 86.0875C239.309 86.0111 239.035 85.6399 239.077 85.2384L239.088 85.1628L240.687 77.2389C240.774 76.8094 241.196 76.5269 241.629 76.6081C242.037 76.6844 242.311 77.0557 242.269 77.4572L242.258 77.5328L240.659 85.4566ZM224.398 91.5944C224.13 91.9449 223.627 92.0173 223.275 91.7561L216.785 86.9372L216.726 86.8888C216.426 86.6181 216.381 86.1594 216.633 85.8295C216.901 85.479 217.404 85.4066 217.756 85.6679L224.246 90.4867L224.305 90.5352C224.605 90.8058 224.65 91.2645 224.398 91.5944Z" fill="url(#paint1_linear_815_530)"/>
<path d="M146.759 88.2533L141.335 85.1596C141.144 85.0549 140.931 85 140.714 85C140.497 85 140.284 85.0549 140.093 85.1596L134.649 88.2533C134.453 88.3654 134.289 88.5283 134.175 88.7253C134.061 88.9223 134.001 89.1464 134 89.3748V95.5428C133.998 95.7717 134.058 95.9967 134.172 96.1942C134.286 96.3916 134.451 96.554 134.649 96.6643L140.074 99.7386C140.264 99.8544 140.483 99.9147 140.704 99.9126C140.926 99.9121 141.144 99.852 141.335 99.7386L146.759 96.6643C146.956 96.5521 147.12 96.3893 147.234 96.1923C147.348 95.9953 147.408 95.7712 147.409 95.5428V89.3748C147.415 89.1452 147.357 88.9186 147.242 88.7204C147.127 88.5223 146.96 88.3605 146.759 88.2533V88.2533Z" fill="url(#paint2_linear_815_530)"/>
<path d="M136.923 94.0735L136.598 94.2668C136.54 94.2994 136.489 94.3434 136.447 94.3962C136.406 94.449 136.376 94.5096 136.358 94.5744C136.34 94.6392 136.336 94.7069 136.344 94.7736C136.352 94.8403 136.374 94.9047 136.407 94.9629C136.449 95.0437 136.513 95.1114 136.59 95.159C136.667 95.2066 136.756 95.2324 136.846 95.2336C136.932 95.2329 137.017 95.2131 137.094 95.1756L137.419 94.9823C137.477 94.9497 137.528 94.9057 137.57 94.8529C137.611 94.8001 137.641 94.7395 137.659 94.6747C137.677 94.61 137.681 94.5422 137.673 94.4755C137.665 94.4088 137.643 94.3444 137.61 94.2862C137.581 94.2248 137.539 94.1701 137.488 94.1258C137.436 94.0814 137.377 94.0482 137.312 94.0282C137.248 94.0082 137.18 94.002 137.113 94.0098C137.046 94.0175 136.981 94.0392 136.923 94.0735V94.0735ZM138.909 92.9327L138.241 93.3194C138.182 93.352 138.131 93.396 138.09 93.4488C138.049 93.5016 138.019 93.5621 138.001 93.6269C137.983 93.6917 137.978 93.7594 137.987 93.8262C137.995 93.8929 138.016 93.9572 138.049 94.0155C138.092 94.0962 138.155 94.1639 138.233 94.2115C138.31 94.2591 138.398 94.2849 138.489 94.2862C138.575 94.2854 138.66 94.2656 138.737 94.2282L139.406 93.8415C139.464 93.8089 139.515 93.7649 139.556 93.7121C139.597 93.6593 139.628 93.5987 139.645 93.5339C139.663 93.4692 139.668 93.4014 139.66 93.3347C139.651 93.268 139.63 93.2036 139.597 93.1454C139.567 93.084 139.525 93.0293 139.474 92.985C139.423 92.9406 139.363 92.9074 139.299 92.8874C139.234 92.8674 139.166 92.8612 139.099 92.869C139.032 92.8768 138.967 92.8984 138.909 92.9327V92.9327ZM141.602 91.9872C141.575 91.9323 141.538 91.8835 141.492 91.8436C141.446 91.8038 141.393 91.7737 141.335 91.7552V87.8668C141.335 87.7982 141.322 87.7302 141.296 87.6667C141.27 87.6032 141.232 87.5456 141.184 87.4971C141.136 87.4485 141.079 87.4101 141.017 87.3839C140.954 87.3578 140.887 87.3445 140.819 87.3447C140.752 87.3449 140.686 87.3587 140.625 87.3853C140.563 87.4119 140.508 87.4506 140.462 87.4993C140.415 87.548 140.379 87.6056 140.355 87.6688C140.331 87.7319 140.32 87.7992 140.323 87.8668V91.7726C140.265 91.7911 140.211 91.8212 140.165 91.861C140.12 91.9009 140.082 91.9497 140.055 92.0046C140.019 92.0725 139.999 92.1478 139.996 92.2247C139.992 92.3017 140.006 92.3785 140.036 92.4493C140.006 92.5202 139.992 92.5969 139.996 92.6739C139.999 92.7508 140.019 92.8261 140.055 92.894C140.082 92.9489 140.12 92.9977 140.165 93.0376C140.211 93.0774 140.265 93.1075 140.323 93.1261V97.0318C140.323 97.1703 140.377 97.3031 140.474 97.401C140.57 97.4989 140.701 97.5539 140.838 97.5539C140.975 97.5539 141.106 97.4989 141.203 97.401C141.3 97.3031 141.354 97.1703 141.354 97.0318V93.1067C141.412 93.0882 141.465 93.0581 141.511 93.0182C141.557 92.9784 141.594 92.9296 141.621 92.8747C141.657 92.8067 141.678 92.7315 141.681 92.6545C141.684 92.5776 141.67 92.5008 141.64 92.43C141.685 92.2829 141.671 92.1243 141.602 91.9872V91.9872ZM142.903 90.6511L142.235 91.0378C142.176 91.0704 142.125 91.1144 142.084 91.1672C142.043 91.22 142.013 91.2805 141.995 91.3453C141.977 91.4101 141.972 91.4778 141.981 91.5446C141.989 91.6113 142.01 91.6756 142.044 91.7339C142.086 91.8146 142.149 91.8823 142.227 91.9299C142.304 91.9775 142.392 92.0033 142.483 92.0046C142.569 92.0039 142.654 91.9841 142.731 91.9466L143.4 91.5599C143.458 91.5273 143.509 91.4833 143.55 91.4305C143.591 91.3777 143.622 91.3171 143.639 91.2524C143.657 91.1876 143.662 91.1198 143.654 91.0531C143.645 90.9864 143.624 90.9221 143.591 90.8638C143.561 90.8024 143.519 90.7478 143.468 90.7034C143.417 90.659 143.357 90.6258 143.293 90.6058C143.228 90.5859 143.16 90.5796 143.093 90.5874C143.026 90.5952 142.961 90.6169 142.903 90.6511V90.6511ZM144.487 90.8445C144.572 90.8437 144.657 90.8239 144.735 90.7865L145.06 90.5931C145.118 90.5603 145.169 90.5162 145.21 90.4633C145.251 90.4104 145.281 90.3499 145.299 90.2851C145.317 90.2203 145.322 90.1525 145.314 90.0857C145.306 90.0189 145.285 89.9544 145.253 89.8958C145.22 89.8372 145.176 89.7858 145.124 89.7444C145.071 89.703 145.011 89.6725 144.947 89.6546C144.883 89.6368 144.816 89.6319 144.75 89.6403C144.684 89.6487 144.621 89.6703 144.563 89.7037L144.238 89.897C144.18 89.9296 144.129 89.9736 144.088 90.0264C144.047 90.0792 144.016 90.1397 143.999 90.2045C143.981 90.2693 143.976 90.3371 143.984 90.4038C143.993 90.4705 144.014 90.5348 144.047 90.5931C144.091 90.6715 144.155 90.7363 144.232 90.7806C144.31 90.8249 144.398 90.847 144.487 90.8445ZM145.06 94.2668L144.735 94.0735C144.618 94.0076 144.481 93.9911 144.352 94.0276C144.224 94.064 144.115 94.1505 144.049 94.2681C143.984 94.3856 143.967 94.5247 144.002 94.655C144.037 94.7852 144.122 94.8959 144.238 94.9629L144.563 95.1563C144.641 95.1938 144.725 95.2136 144.811 95.2143C144.902 95.213 144.99 95.1872 145.067 95.1396C145.145 95.092 145.208 95.0243 145.251 94.9436C145.285 94.8872 145.307 94.8242 145.316 94.7586C145.325 94.6931 145.32 94.6263 145.302 94.5627C145.284 94.4991 145.253 94.4399 145.211 94.389C145.17 94.3381 145.118 94.2965 145.06 94.2668V94.2668ZM143.398 93.3194L142.729 92.9327C142.672 92.8993 142.608 92.8778 142.542 92.8694C142.476 92.8609 142.409 92.8658 142.345 92.8837C142.281 92.9015 142.221 92.932 142.168 92.9734C142.116 93.0148 142.072 93.0662 142.039 93.1248C142.007 93.1834 141.986 93.248 141.978 93.3148C141.97 93.3816 141.975 93.4493 141.993 93.5141C142.011 93.5789 142.041 93.6395 142.082 93.6923C142.124 93.7452 142.175 93.7893 142.233 93.8221L142.901 94.2088C142.979 94.2463 143.063 94.2661 143.149 94.2668C143.24 94.2656 143.328 94.2398 143.406 94.1922C143.483 94.1446 143.546 94.0769 143.589 93.9962C143.624 93.9399 143.646 93.8769 143.655 93.8112C143.665 93.7455 143.66 93.6786 143.642 93.6148C143.624 93.551 143.593 93.4917 143.551 93.4408C143.509 93.3899 143.457 93.3486 143.398 93.3194V93.3194ZM138.241 91.5405L138.909 91.9272C138.987 91.9647 139.071 91.9845 139.157 91.9853C139.248 91.984 139.336 91.9582 139.414 91.9106C139.491 91.863 139.554 91.7953 139.597 91.7146C139.63 91.6563 139.651 91.5919 139.66 91.5252C139.668 91.4585 139.663 91.3908 139.645 91.326C139.628 91.2612 139.597 91.2006 139.556 91.1478C139.515 91.0951 139.464 91.0511 139.406 91.0185L138.737 90.6318C138.68 90.5982 138.616 90.5765 138.55 90.5681C138.484 90.5596 138.417 90.5646 138.353 90.5826C138.289 90.6006 138.229 90.6313 138.177 90.6729C138.125 90.7146 138.082 90.7663 138.049 90.8251C137.986 90.9466 137.97 91.0882 138.005 91.2211C138.041 91.354 138.125 91.4682 138.241 91.5405V91.5405ZM137.419 89.897L137.094 89.7037C137.037 89.6703 136.973 89.6487 136.907 89.6403C136.841 89.6319 136.774 89.6368 136.71 89.6546C136.646 89.6725 136.586 89.703 136.534 89.7444C136.481 89.7858 136.437 89.8372 136.405 89.8958C136.372 89.9544 136.351 90.0189 136.343 90.0857C136.335 90.1525 136.34 90.2203 136.358 90.2851C136.376 90.3499 136.406 90.4104 136.448 90.4633C136.489 90.5162 136.54 90.5603 136.598 90.5931L136.923 90.7865C137 90.8239 137.085 90.8437 137.171 90.8445C137.261 90.8432 137.35 90.8174 137.427 90.7698C137.504 90.7222 137.568 90.6545 137.61 90.5738C137.643 90.5169 137.664 90.454 137.671 90.3888C137.679 90.3236 137.674 90.2575 137.657 90.1944C137.639 90.1312 137.609 90.0723 137.568 90.0212C137.527 89.9702 137.476 89.9279 137.419 89.897V89.897Z" fill="#20133A"/>
<path d="M126.998 90.0294C127.015 89.861 126.907 89.7054 126.743 89.6621C126.069 89.5422 124.195 89.1 123.565 88.4629C122.936 87.8258 122.486 85.9519 122.366 85.2848C122.337 85.1209 122.195 85.0011 122.029 85V89.9994L126.998 90.0294Z" fill="#FFEA80"/>
<path d="M121.999 85.0298C121.831 85.0345 121.69 85.1568 121.662 85.3221C121.557 85.9892 121.137 87.863 120.507 88.4927C119.878 89.1223 117.966 89.572 117.292 89.6919C117.128 89.7209 117.008 89.8628 117.007 90.0292H122.007L121.999 85.0298Z" fill="#FFD567"/>
<path d="M122 90.0293V95.0287C122.166 95.0276 122.308 94.9078 122.337 94.7439C122.457 94.0618 122.899 92.1655 123.536 91.5284C124.173 90.8913 126.04 90.479 126.707 90.3741C126.875 90.3451 126.998 90.1998 126.999 90.0293H122Z" fill="#FFD567"/>
<path d="M117 90.0293C116.997 90.1986 117.118 90.3447 117.285 90.3741C117.967 90.479 119.863 90.8988 120.5 91.5284C121.137 92.158 121.55 94.0618 121.655 94.7364C121.68 94.9033 121.823 95.027 121.992 95.0287V90.0293H117Z" fill="#FFA266"/>
<path d="M120.004 105.026C120.018 104.892 119.931 104.767 119.8 104.732C119.26 104.636 117.76 104.282 117.256 103.772C116.752 103.262 116.392 101.762 116.296 101.228C116.273 101.097 116.159 101.001 116.026 101V105.002L120.004 105.026Z" fill="#FFEA80"/>
<path d="M116.002 101.024C115.868 101.028 115.755 101.126 115.732 101.258C115.648 101.792 115.312 103.292 114.808 103.796C114.304 104.3 112.774 104.66 112.234 104.756C112.102 104.779 112.006 104.893 112.006 105.026H116.008L116.002 101.024Z" fill="#FFD567"/>
<path d="M116.003 105.026V109.029C116.136 109.028 116.25 108.932 116.273 108.801C116.369 108.255 116.723 106.737 117.233 106.226C117.743 105.716 119.237 105.386 119.771 105.302C119.906 105.279 120.004 105.163 120.005 105.026H116.003Z" fill="#FFD567"/>
<path d="M112 105.026C111.998 105.162 112.095 105.279 112.228 105.302C112.774 105.386 114.292 105.722 114.802 106.226C115.312 106.731 115.642 108.255 115.726 108.795C115.747 108.928 115.861 109.027 115.996 109.029V105.026H112Z" fill="#FFA266"/>
<path d="M142.997 113.053C143.027 112.75 142.833 112.47 142.538 112.392C141.324 112.176 137.951 111.38 136.818 110.233C135.685 109.086 134.875 105.713 134.659 104.513C134.607 104.218 134.352 104.002 134.052 104V112.999L142.997 113.053Z" fill="#FFEA80"/>
<path d="M133.998 104.054C133.696 104.062 133.442 104.282 133.391 104.58C133.202 105.781 132.447 109.154 131.313 110.287C130.18 111.42 126.74 112.23 125.525 112.446C125.23 112.498 125.015 112.753 125.013 113.053H134.012L133.998 104.054Z" fill="#FFD567"/>
<path d="M134 113.053V122.052C134.299 122.05 134.555 121.835 134.607 121.54C134.823 120.312 135.619 116.898 136.766 115.752C137.912 114.605 141.272 113.863 142.473 113.674C142.775 113.622 142.997 113.36 142.999 113.053H134Z" fill="#FFD567"/>
<path d="M125 113.053C124.995 113.358 125.213 113.621 125.513 113.674C126.741 113.863 130.154 114.618 131.301 115.752C132.448 116.885 133.19 120.312 133.378 121.526C133.425 121.826 133.682 122.049 133.986 122.052V113.053H125Z" fill="#FFA266"/>
<g clip-path="url(#clip1_815_530)">
<path d="M66.8334 53.5002C66.8334 52.8585 66.3084 52.3335 65.6667 52.3335H56.3334C55.6917 52.3335 55.1667 52.8585 55.1667 53.5002V60.5002C55.1667 61.1418 55.6917 61.6668 56.3334 61.6668H65.6667C66.3084 61.6668 66.8334 61.1418 66.8334 60.5002V53.5002ZM65.6667 53.5002L61.0001 56.411L56.3334 53.5002H65.6667ZM65.6667 60.5002H56.3334V54.6668L61.0001 57.5835L65.6667 54.6668V60.5002Z" fill="#CCCCCC"/>
</g>
<g clip-path="url(#clip2_815_530)">
<path d="M64.4999 81.6668H63.9166V80.5002C63.9166 78.8902 62.6099 77.5835 60.9999 77.5835C59.3899 77.5835 58.0833 78.8902 58.0833 80.5002V81.6668H57.4999C56.8583 81.6668 56.3333 82.1918 56.3333 82.8335V88.6668C56.3333 89.3085 56.8583 89.8335 57.4999 89.8335H64.4999C65.1416 89.8335 65.6666 89.3085 65.6666 88.6668V82.8335C65.6666 82.1918 65.1416 81.6668 64.4999 81.6668ZM59.2499 80.5002C59.2499 79.5318 60.0316 78.7502 60.9999 78.7502C61.9683 78.7502 62.7499 79.5318 62.7499 80.5002V81.6668H59.2499V80.5002ZM64.4999 88.6668H57.4999V82.8335H64.4999V88.6668ZM60.9999 86.9168C61.6416 86.9168 62.1666 86.3918 62.1666 85.7502C62.1666 85.1085 61.6416 84.5835 60.9999 84.5835C60.3583 84.5835 59.8333 85.1085 59.8333 85.7502C59.8333 86.3918 60.3583 86.9168 60.9999 86.9168Z" fill="#CCCCCC"/>
</g>
<path d="M73.6676 86.1818H74.5923L74.5114 84.3835L76.0284 85.3594L76.4929 84.5497L74.8821 83.7273L76.4929 82.9048L76.0284 82.0952L74.5114 83.071L74.5923 81.2727H73.6676L73.7486 83.071L72.2315 82.0952L71.767 82.9048L73.3778 83.7273L71.767 84.5497L72.2315 85.3594L73.7486 84.3835L73.6676 86.1818ZM79.9254 86.1818H80.8501L80.7692 84.3835L82.2862 85.3594L82.7507 84.5497L81.1399 83.7273L82.7507 82.9048L82.2862 82.0952L80.7692 83.071L80.8501 81.2727H79.9254L80.0064 83.071L78.4893 82.0952L78.0249 82.9048L79.6357 83.7273L78.0249 84.5497L78.4893 85.3594L80.0064 84.3835L79.9254 86.1818ZM86.1832 86.1818H87.108L87.027 84.3835L88.544 85.3594L89.0085 84.5497L87.3977 83.7273L89.0085 82.9048L88.544 82.0952L87.027 83.071L87.108 81.2727H86.1832L86.2642 83.071L84.7472 82.0952L84.2827 82.9048L85.8935 83.7273L84.2827 84.5497L84.7472 85.3594L86.2642 84.3835L86.1832 86.1818ZM92.4411 86.1818H93.3658L93.2848 84.3835L94.8018 85.3594L95.2663 84.5497L93.6555 83.7273L95.2663 82.9048L94.8018 82.0952L93.2848 83.071L93.3658 81.2727H92.4411L92.522 83.071L91.005 82.0952L90.5405 82.9048L92.1513 83.7273L90.5405 84.5497L91.005 85.3594L92.522 84.3835L92.4411 86.1818Z" fill="#CCCCCC"/>
<path opacity="0.1" fill-rule="evenodd" clip-rule="evenodd" d="M252.315 142C264.302 132.571 272 117.934 272 101.5C272 73.0573 248.943 50 220.5 50C192.057 50 169 73.0573 169 101.5C169 117.934 176.698 132.571 188.685 142H252.315Z" fill="white"/>
<path opacity="0.3" fill-rule="evenodd" clip-rule="evenodd" d="M86.6845 -18H150.315C162.302 -8.57058 170 6.06575 170 22.5C170 50.9427 146.943 74 118.5 74C90.0573 74 67 50.9427 67 22.5C67 6.06575 74.6978 -8.57058 86.6845 -18Z" fill="white"/>
</g>
<defs>
<filter id="filter0_d_815_530" x="121" y="25" width="146" height="88" filterUnits="userSpaceOnUse" color-interpolation-filters="sRGB">
<feFlood flood-opacity="0" result="BackgroundImageFix"/>
<feColorMatrix in="SourceAlpha" type="matrix" values="0 0 0 0 0 0 0 0 0 0 0 0 0 0 0 0 0 0 127 0" result="hardAlpha"/>
<feOffset/>
<feGaussianBlur stdDeviation="2"/>
<feColorMatrix type="matrix" values="0 0 0 0 0 0 0 0 0 0 0 0 0 0 0 0 0 0 0.294089 0"/>
<feBlend mode="normal" in2="BackgroundImageFix" result="effect1_dropShadow_815_530"/>
<feBlend mode="normal" in="SourceGraphic" in2="effect1_dropShadow_815_530" result="shape"/>
</filter>
<filter id="filter1_d_815_530" x="230.877" y="87.7939" width="14.8503" height="20.0513" filterUnits="userSpaceOnUse" color-interpolation-filters="sRGB">
<feFlood flood-opacity="0" result="BackgroundImageFix"/>
<feColorMatrix in="SourceAlpha" type="matrix" values="0 0 0 0 0 0 0 0 0 0 0 0 0 0 0 0 0 0 127 0" result="hardAlpha"/>
<feOffset dy="1"/>
<feGaussianBlur stdDeviation="1.5"/>
<feColorMatrix type="matrix" values="0 0 0 0 0 0 0 0 0 0 0 0 0 0 0 0 0 0 0.4049 0"/>
<feBlend mode="normal" in2="BackgroundImageFix" result="effect1_dropShadow_815_530"/>
<feBlend mode="normal" in="SourceGraphic" in2="effect1_dropShadow_815_530" result="shape"/>
</filter>
<linearGradient id="paint0_linear_815_530" x1="146.5" y1="44.3875" x2="146.5" y2="166.663" gradientUnits="userSpaceOnUse">
<stop stop-color="#B00FBF"/>
<stop offset="1" stop-color="#660D7D"/>
</linearGradient>
<linearGradient id="paint1_linear_815_530" x1="263.819" y1="93.2254" x2="232.32" y2="127.119" gradientUnits="userSpaceOnUse">
<stop stop-color="#FF9100"/>
<stop offset="0.518515" stop-color="#F10366"/>
<stop offset="1" stop-color="#6173FF"/>
</linearGradient>
<linearGradient id="paint2_linear_815_530" x1="134" y1="92.4569" x2="147.411" y2="92.4569" gradientUnits="userSpaceOnUse">
<stop stop-color="#9059FF"/>
<stop offset="1" stop-color="#F770FF"/>
</linearGradient>
<clipPath id="clip0_815_530">
<rect width="293" height="134" fill="white"/>
</clipPath>
<clipPath id="clip1_815_530">
<rect width="14" height="14" fill="white" transform="translate(54 50)"/>
</clipPath>
<clipPath id="clip2_815_530">
<rect width="14" height="14" fill="white" transform="translate(54 77)"/>
</clipPath>
</defs>
</svg>
