<svg width="293" height="134" viewBox="0 0 293 134" fill="none" xmlns="http://www.w3.org/2000/svg">
<rect width="293" height="134" rx="8" fill="#F770FF"/>
<mask id="mask0_815_532" style="mask-type:alpha" maskUnits="userSpaceOnUse" x="0" y="0" width="293" height="134">
<rect width="293" height="134" rx="8" fill="#F770FF"/>
</mask>
<g mask="url(#mask0_815_532)">
<path opacity="0.2" d="M398.732 138.995C382.379 138.995 368.973 133.488 358.04 122.351C345.477 109.551 337.947 91.1051 331.3 74.8246C323.09 54.7208 315.999 37.3552 302.118 35.2875C281.933 32.2832 264.793 43.6044 248.219 54.5468C234.129 63.8514 220.815 72.6443 206.224 72.6443C200.686 72.6443 196.155 70.5305 192.747 66.3593C186.862 59.1531 184.307 46.015 185.16 27.3238C185.794 13.459 188.175 1.53388 188.2 1.41104C188.256 1.13467 188.522 0.950418 188.803 1.01183C189.079 1.06813 189.258 1.33939 189.201 1.61577C189.104 2.08663 179.857 48.9528 193.544 65.7144C196.747 69.6349 201.013 71.6258 206.229 71.6258C220.514 71.6258 233.7 62.92 247.662 53.6972C264.399 42.6473 281.708 31.2187 302.271 34.2793C316.724 36.4288 323.918 54.0452 332.245 74.4407C338.856 90.6292 346.351 108.977 358.77 121.634C372.983 136.119 391.508 140.904 415.392 136.262C415.668 136.211 415.939 136.39 415.99 136.666C416.046 136.943 415.862 137.214 415.586 137.265C409.65 138.417 404.035 139 398.732 139V138.995Z" fill="#9059FF"/>
<path opacity="0.2" d="M295.732 126.995C279.379 126.995 265.973 121.488 255.04 110.351C242.477 97.5507 234.947 79.1051 228.3 62.8246C220.09 42.7208 212.999 25.3552 199.118 23.2875C178.933 20.2832 161.793 31.6044 145.219 42.5468C131.129 51.8514 117.815 60.6443 103.224 60.6443C97.6863 60.6443 93.1547 58.5305 89.7471 54.3593C83.8616 47.1531 81.3072 34.015 82.1604 15.3238C82.7939 1.45897 85.1746 -10.4661 85.2001 -10.589C85.2563 -10.8653 85.522 -11.0496 85.803 -10.9882C86.0789 -10.9319 86.2577 -10.6606 86.2015 -10.3842C86.1044 -9.91337 76.8573 36.9528 90.544 53.7144C93.7473 57.6349 98.0132 59.6258 103.229 59.6258C117.514 59.6258 130.7 50.92 144.662 41.6972C161.399 30.6473 178.708 19.2187 199.271 22.2793C213.724 24.4288 220.918 42.0452 229.245 62.4407C235.856 78.6292 243.351 96.9774 255.77 109.634C269.983 124.119 288.508 128.904 312.392 124.262C312.668 124.211 312.939 124.39 312.99 124.666C313.046 124.943 312.862 125.214 312.586 125.265C306.65 126.417 301.035 127 295.732 127V126.995Z" fill="#9059FF"/>
<path opacity="0.2" d="M185.465 184.619C180.805 184.619 175.915 183.839 170.805 182.049C155.175 176.569 146.015 161.439 137.155 146.809C128.255 132.119 119.065 116.929 103.325 111.339C101.025 110.519 98.785 109.829 96.615 109.279C95.615 116.479 93.025 122.359 89.565 126.379C84.755 131.959 78.295 133.999 71.835 131.979C67.515 130.629 64.405 127.279 63.515 123.019C62.555 118.449 64.245 113.749 68.035 110.429C71.575 107.339 79.455 103.289 94.915 106.789C95.725 97.5487 93.875 86.2287 87.915 73.9287C79.785 57.1487 65.605 44.0787 47.965 37.1287C30.145 30.0887 11.115 30.3087 -5.59499 37.7487C-6.09499 37.9787 -6.69499 37.7487 -6.91499 37.2387C-7.13499 36.7387 -6.91499 36.1387 -6.40499 35.9187C10.795 28.2587 30.375 28.0287 48.705 35.2587C66.805 42.3987 81.375 55.8187 89.715 73.0487C95.895 85.8087 97.765 97.5987 96.855 107.249C99.085 107.819 101.465 108.549 103.995 109.449C120.395 115.279 129.785 130.779 138.865 145.769C147.945 160.759 156.515 174.909 171.465 180.159C197.605 189.329 217.245 171.289 231.585 158.119C238.505 151.759 243.505 147.169 247.615 147.169C259.765 147.169 271.545 167.699 272.045 168.579C272.315 169.059 272.145 169.669 271.665 169.939C271.185 170.209 270.575 170.039 270.305 169.559C270.185 169.359 258.605 149.169 247.615 149.169C244.285 149.169 239.025 153.999 232.935 159.589C221.655 169.949 205.675 184.619 185.455 184.619H185.465ZM83.785 107.479C77.695 107.479 72.745 108.969 69.355 111.929C66.115 114.759 64.665 118.749 65.475 122.599C66.235 126.199 68.775 128.919 72.435 130.069C78.185 131.869 83.725 130.099 88.055 125.079C91.335 121.279 93.765 115.689 94.685 108.819C90.765 107.929 87.105 107.489 83.775 107.489L83.785 107.479Z" fill="#9059FF"/>
<path opacity="0.2" d="M1.17468 86.6974C-0.755323 94.2574 13.9447 96.1574 13.9447 89.7774C13.9447 83.3974 2.90468 79.8974 1.17468 86.6974Z" fill="#9059FF"/>
<path opacity="0.5" d="M63.0135 25.4C58.6324 29.3494 67.0877 36.7021 69.76 32.687C72.4322 28.6718 66.9503 21.8452 63.0135 25.4Z" fill="#FFD18D"/>
<path opacity="0.5" d="M294.297 127.261C291.017 140.063 316 143.28 316 132.476C316 121.673 297.237 115.746 294.297 127.261Z" fill="#FFD18D"/>
<path opacity="0.3" d="M291.297 114.755C297.054 119.688 305.042 107.647 299.482 104.909C293.923 102.17 286.117 110.324 291.297 114.755Z" fill="#9059FF"/>
<path opacity="0.3" d="M266.858 134.496C269.128 140.441 279.844 134.759 276.84 130.512C273.836 126.265 264.812 129.152 266.858 134.496Z" fill="#9059FF"/>
<path opacity="0.2" d="M280.014 119.686C277.651 124.884 288.035 128.142 288.852 123.546C289.669 118.95 282.135 115.01 280.014 119.686Z" fill="#9059FF"/>
<path opacity="0.2" d="M278.041 96.3366C274.129 98.0823 278.344 105.076 281.089 102.9C283.833 100.723 281.558 94.7639 278.041 96.3366Z" fill="#9059FF"/>
<path opacity="0.5" d="M-28.6828 136.547C-29.1628 136.547 -29.6228 136.257 -29.8128 135.787C-37.2328 117.577 -34.6428 94.8372 -23.2228 77.8572C-11.6528 60.6472 7.54724 51.1672 30.8172 51.1672C44.3572 51.1672 54.8972 53.5572 62.8472 57.2872C64.8872 54.2072 67.6572 51.4272 71.2372 49.1672C82.6372 41.9672 93.2872 44.9872 104.547 48.1972C117.047 51.7572 129.977 55.4272 146.587 46.9472C167.677 36.1772 168.217 14.2972 168.737 -6.86283C169.147 -23.3128 169.527 -38.8428 179.617 -48.0328C199.217 -65.8728 252.537 -43.9328 254.797 -42.9928C255.417 -42.7328 255.707 -42.0228 255.457 -41.4028C255.197 -40.7828 254.487 -40.4928 253.867 -40.7428C253.327 -40.9728 199.717 -63.0328 181.267 -46.2328C171.947 -37.7528 171.577 -22.7228 171.187 -6.80284C170.677 14.0472 170.087 37.6872 147.707 49.1172C130.247 58.0372 116.247 54.0472 103.897 50.5372C92.7072 47.3572 83.0372 44.6072 72.5572 51.2272C69.3072 53.2772 66.8472 55.7172 65.0472 58.3672C76.2072 64.2972 81.6972 72.9772 82.9372 80.8972C84.0972 88.3472 81.2572 94.7072 76.0272 96.3872C70.6372 98.1072 64.8272 94.2471 61.2372 86.5471C57.4272 78.3671 57.0072 67.9472 61.6272 59.3772C54.0172 55.8572 43.8972 53.5972 30.8472 53.5972C8.40724 53.5972 -10.0628 62.6972 -21.1728 79.2072C-32.1728 95.5472 -34.6728 117.397 -27.5528 134.877C-27.3028 135.497 -27.6028 136.207 -28.2228 136.467C-28.3728 136.527 -28.5328 136.557 -28.6828 136.557V136.547ZM63.7672 60.4572C59.1372 69.0372 60.4772 79.2072 63.4272 85.5272C66.4672 92.0472 71.1172 95.3972 75.2672 94.0672C79.3272 92.7672 81.4872 87.5072 80.5172 81.2772C79.3772 73.9672 74.2372 65.9672 63.7772 60.4572H63.7672Z" fill="#FFC36B"/>
<g filter="url(#filter0_d_815_532)">
<path d="M191.508 59.8812H190.539V33.3535C190.539 29.2815 188.922 25.3763 186.042 22.497C183.163 19.6176 179.258 18 175.186 18H118.983C116.967 18 114.97 18.3971 113.108 19.1687C111.245 19.9403 109.552 21.0712 108.127 22.4969C106.701 23.9226 105.57 25.6152 104.798 27.4779C104.027 29.3407 103.63 31.3372 103.63 33.3535V33.3535V178.887C103.63 182.959 105.247 186.864 108.127 189.743C111.006 192.623 114.911 194.24 118.983 194.24H175.186C179.258 194.24 183.163 192.623 186.042 189.743C188.922 186.864 190.539 182.959 190.539 178.887V78.7641H191.508V59.8812Z" fill="white"/>
</g>
<path d="M187.27 33.4596V178.78C187.27 180.285 186.974 181.776 186.398 183.167C185.822 184.558 184.978 185.821 183.913 186.886C182.849 187.951 181.586 188.795 180.195 189.371C178.804 189.948 177.313 190.244 175.808 190.245H119.331C116.29 190.245 113.374 189.037 111.224 186.887C109.074 184.737 107.866 181.821 107.866 178.781V33.4596C107.866 31.9541 108.162 30.4633 108.738 29.0724C109.314 27.6814 110.159 26.4175 111.223 25.3529C112.288 24.2883 113.552 23.4438 114.942 22.8676C116.333 22.2913 117.824 21.9947 119.33 21.9946H126.185C125.847 22.8217 125.718 23.7191 125.809 24.6077C125.9 25.4963 126.209 26.3489 126.707 27.0904C127.205 27.8318 127.878 28.4394 128.666 28.8595C129.454 29.2796 130.334 29.4993 131.227 29.4994H163.426C164.319 29.4988 165.199 29.2786 165.987 28.8584C166.775 28.4381 167.447 27.8306 167.945 27.0893C168.443 26.348 168.752 25.4957 168.843 24.6073C168.934 23.7189 168.806 22.8217 168.469 21.9946H175.805C177.311 21.9946 178.801 22.291 180.192 22.8671C181.583 23.4432 182.847 24.2876 183.912 25.3521C184.976 26.4166 185.821 27.6804 186.397 29.0713C186.973 30.4622 187.27 31.9529 187.27 33.4584V33.4584L187.27 33.4596Z" fill="#F2F2F2"/>
<path d="M177.238 76.2695H153.7C150.361 76.2695 147.655 78.9759 147.655 82.3144V87.0168C147.655 90.3553 150.361 93.0617 153.7 93.0617H177.238C180.577 93.0617 183.283 90.3553 183.283 87.0168V82.3144C183.283 78.9759 180.577 76.2695 177.238 76.2695Z" fill="#CECECF"/>
<path d="M176.622 92.107C176.549 92.2483 177.752 93.0621 177.752 93.0621L182.352 97.304C182.352 97.304 183.512 97.7694 183.242 96.5048L181.626 89.3976C181.626 89.3976 178.132 89.2198 176.622 92.107V92.107Z" fill="#CECECF"/>
<path d="M159.718 83.5621C159.718 83.5621 160.471 83.2185 161.094 83.6815C161.701 84.1322 161.75 84.6658 161.711 85.0142C161.672 85.3626 161.323 85.8889 160.756 86.1496C160.137 86.4347 159.537 86.5029 159.04 85.8231C158.543 85.1458 158.67 84.6098 158.768 84.3954C158.902 84.103 159.34 83.6839 159.715 83.5645L159.718 83.5621Z" fill="white"/>
<path d="M163.611 84.6417C163.611 84.6417 163.689 83.8182 164.401 83.5063C165.093 83.2042 165.582 83.4308 165.862 83.6379C166.143 83.845 166.428 84.4102 166.369 85.0315C166.306 85.7089 166.067 86.262 165.231 86.3545C164.396 86.4471 163.996 86.0719 163.857 85.877C163.67 85.6163 163.526 85.0267 163.609 84.6417H163.611Z" fill="white"/>
<path d="M168.64 84.0348C168.64 84.0348 169.088 83.338 169.863 83.3916C170.616 83.4428 170.947 83.8667 171.101 84.1786C171.257 84.4905 171.247 85.1239 170.911 85.6502C170.543 86.2228 170.077 86.6053 169.291 86.3032C168.506 86.0011 168.323 85.4845 168.289 85.2482C168.243 84.929 168.387 84.3394 168.638 84.0373L168.64 84.0348Z" fill="white"/>
<path d="M177.238 116.445H153.7C150.361 116.445 147.655 119.151 147.655 122.49V127.192C147.655 130.531 150.361 133.237 153.7 133.237H177.238C180.577 133.237 183.283 130.531 183.283 127.192V122.49C183.283 119.151 180.577 116.445 177.238 116.445Z" fill="#CECECF"/>
<path d="M176.622 132.282C176.549 132.423 177.752 133.237 177.752 133.237L182.352 137.479C182.352 137.479 183.512 137.944 183.242 136.68L181.626 129.572C181.626 129.572 178.132 129.395 176.622 132.282V132.282Z" fill="#CECECF"/>
<path d="M159.718 123.737C159.718 123.737 160.471 123.394 161.094 123.857C161.701 124.308 161.75 124.841 161.711 125.19C161.672 125.538 161.323 126.064 160.756 126.325C160.137 126.61 159.537 126.678 159.04 125.998C158.543 125.321 158.67 124.785 158.768 124.571C158.902 124.278 159.34 123.859 159.715 123.74L159.718 123.737Z" fill="white"/>
<path d="M163.611 124.817C163.611 124.817 163.689 123.993 164.401 123.682C165.093 123.379 165.582 123.606 165.862 123.813C166.143 124.02 166.428 124.586 166.369 125.207C166.306 125.884 166.067 126.437 165.231 126.53C164.396 126.622 163.996 126.247 163.857 126.052C163.67 125.792 163.526 125.202 163.609 124.817H163.611Z" fill="white"/>
<path d="M168.64 124.21C168.64 124.21 169.088 123.513 169.863 123.567C170.616 123.618 170.947 124.042 171.101 124.354C171.257 124.666 171.247 125.299 170.911 125.826C170.543 126.398 170.077 126.781 169.291 126.478C168.506 126.176 168.323 125.66 168.289 125.423C168.243 125.104 168.387 124.515 168.638 124.213L168.64 124.21Z" fill="white"/>
<path d="M177.238 33.0181H153.7C150.361 33.0181 147.655 35.7244 147.655 39.0629V43.7653C147.655 47.1038 150.361 49.8102 153.7 49.8102H177.238C180.577 49.8102 183.283 47.1038 183.283 43.7653V39.0629C183.283 35.7244 180.577 33.0181 177.238 33.0181Z" fill="#CECECF"/>
<path d="M176.622 48.855C176.549 48.9964 177.752 49.8101 177.752 49.8101L182.352 54.052C182.352 54.052 183.512 54.5174 183.242 53.2529L181.626 46.1457C181.626 46.1457 178.132 45.9678 176.622 48.855V48.855Z" fill="#CECECF"/>
<path d="M159.718 40.3106C159.718 40.3106 160.471 39.9671 161.094 40.43C161.701 40.8808 161.75 41.4143 161.711 41.7628C161.672 42.1112 161.323 42.6374 160.756 42.8981C160.137 43.1832 159.537 43.2514 159.04 42.5717C158.543 41.8943 158.67 41.3583 158.768 41.1439C158.902 40.8515 159.34 40.4324 159.715 40.3131L159.718 40.3106Z" fill="white"/>
<path d="M163.611 41.3897C163.611 41.3897 163.689 40.5662 164.401 40.2543C165.093 39.9522 165.582 40.1788 165.862 40.3859C166.143 40.593 166.428 41.1583 166.369 41.7796C166.306 42.4569 166.067 43.01 165.231 43.1026C164.396 43.1952 163.996 42.82 163.857 42.625C163.67 42.3643 163.526 41.7747 163.609 41.3897H163.611Z" fill="white"/>
<path d="M168.64 40.7834C168.64 40.7834 169.088 40.0865 169.863 40.1401C170.616 40.1913 170.947 40.6153 171.101 40.9271C171.257 41.239 171.247 41.8725 170.911 42.3987C170.543 42.9713 170.077 43.3538 169.291 43.0517C168.506 42.7496 168.323 42.2331 168.289 41.9967C168.243 41.6776 168.387 41.0879 168.638 40.7858L168.64 40.7834Z" fill="white"/>
<path d="M118.257 52.8418H141.796C145.134 52.8418 147.841 55.5482 147.841 58.8867V63.5891C147.841 66.9275 145.134 69.6339 141.796 69.6339H118.257C114.919 69.6339 112.212 66.9275 112.212 63.5891V58.8867C112.212 55.5482 114.919 52.8418 118.257 52.8418Z" fill="#9E9E9E"/>
<path d="M118.874 68.6793C118.947 68.8206 117.743 69.6344 117.743 69.6344L113.143 73.8763C113.143 73.8763 111.983 74.3416 112.254 73.0771L113.869 65.9699C113.869 65.9699 117.363 65.7921 118.874 68.6793V68.6793Z" fill="#9E9E9E"/>
<path d="M135.778 60.1343C135.778 60.1343 135.025 59.7908 134.401 60.2537C133.795 60.7045 133.746 61.2381 133.785 61.5865C133.824 61.9349 134.172 62.4612 134.74 62.7219C135.359 63.0069 135.958 63.0752 136.455 62.3954C136.952 61.7181 136.826 61.182 136.728 60.9676C136.594 60.6752 136.156 60.2562 135.78 60.1368L135.778 60.1343Z" fill="white"/>
<path d="M131.884 61.214C131.884 61.214 131.806 60.3904 131.095 60.0786C130.403 59.7764 129.913 60.003 129.633 60.2101C129.353 60.4172 129.068 60.9825 129.126 61.6038C129.19 62.2811 129.428 62.8342 130.264 62.9268C131.1 63.0194 131.499 62.6442 131.638 62.4493C131.826 62.1886 131.97 61.5989 131.887 61.214H131.884Z" fill="white"/>
<path d="M126.855 60.6071C126.855 60.6071 126.407 59.9103 125.632 59.9639C124.879 60.015 124.548 60.439 124.395 60.7509C124.239 61.0627 124.248 61.6962 124.585 62.2225C124.952 62.795 125.418 63.1776 126.205 62.8755C126.989 62.5733 127.172 62.0568 127.206 61.8205C127.253 61.5013 127.109 60.9117 126.858 60.6095L126.855 60.6071Z" fill="white"/>
<path d="M118.257 95.2915H141.796C145.134 95.2915 147.841 97.9979 147.841 101.336V106.039C147.841 109.377 145.134 112.084 141.796 112.084H118.257C114.919 112.084 112.212 109.377 112.212 106.039V101.336C112.212 97.9979 114.919 95.2915 118.257 95.2915Z" fill="#9E9E9E"/>
<path d="M118.874 111.128C118.947 111.27 117.743 112.084 117.743 112.084L113.143 116.325C113.143 116.325 111.983 116.791 112.254 115.526L113.869 108.419C113.869 108.419 117.363 108.241 118.874 111.128V111.128Z" fill="#9E9E9E"/>
<path d="M135.778 102.584C135.778 102.584 135.025 102.241 134.401 102.703C133.795 103.154 133.746 103.688 133.785 104.036C133.824 104.385 134.172 104.911 134.74 105.172C135.359 105.457 135.958 105.525 136.455 104.845C136.952 104.168 136.826 103.632 136.728 103.417C136.594 103.125 136.156 102.706 135.78 102.586L135.778 102.584Z" fill="white"/>
<path d="M131.884 103.663C131.884 103.663 131.806 102.84 131.095 102.528C130.403 102.226 129.913 102.452 129.633 102.659C129.353 102.866 129.068 103.432 129.126 104.053C129.19 104.73 129.428 105.283 130.264 105.376C131.1 105.469 131.499 105.093 131.638 104.898C131.826 104.638 131.97 104.048 131.887 103.663H131.884Z" fill="white"/>
<path d="M126.855 103.057C126.855 103.057 126.407 102.36 125.632 102.414C124.879 102.465 124.548 102.889 124.395 103.201C124.239 103.512 124.248 104.146 124.585 104.672C124.952 105.245 125.418 105.627 126.205 105.325C126.989 105.023 127.172 104.507 127.206 104.27C127.253 103.951 127.109 103.361 126.858 103.059L126.855 103.057Z" fill="white"/>
<path d="M105.137 45.9688H102V62.829H105.137V45.9688Z" fill="white"/>
<path d="M105.137 64.7896H102V74.592H105.137V64.7896Z" fill="white"/>
<path d="M132.192 25.9718C133.058 25.9718 133.76 25.2696 133.76 24.4034C133.76 23.5372 133.058 22.835 132.192 22.835C131.325 22.835 130.623 23.5372 130.623 24.4034C130.623 25.2696 131.325 25.9718 132.192 25.9718Z" fill="white"/>
<g clip-path="url(#clip0_815_532)">
<path d="M170.653 58.2731C170.653 55.8704 170.564 53.2008 170.564 50.1753C170.564 48.9294 169.674 47.8616 168.428 47.5946L147.872 44.0352H146.982L126.426 47.5946C125.181 47.8616 124.202 48.9294 124.291 50.1753C124.291 53.2008 124.291 55.8704 124.202 58.2731C124.113 62.5444 124.113 65.659 124.291 67.5277C125.448 79.8079 128.028 85.5031 132.478 91.5542C136.037 96.3595 141.198 99.652 146.982 100.898C147.16 100.898 147.338 100.987 147.516 100.987C147.694 100.987 147.872 100.987 148.05 100.898C153.834 99.652 158.996 96.3595 162.555 91.5542C167.004 85.5031 169.585 79.8969 170.653 67.5277C170.742 65.57 170.742 62.5444 170.653 58.2731V58.2731Z" fill="#7638E9"/>
<path d="M146.982 44.1241L126.426 47.6836C125.181 47.8616 124.291 48.9294 124.291 50.1753C124.291 53.2008 124.202 55.8704 124.202 58.2731C124.113 62.5444 124.113 65.659 124.291 67.5277C125.448 79.8969 128.028 85.5031 132.389 91.5542C135.948 96.3595 141.109 99.652 146.893 100.898C147.071 100.898 147.249 100.987 147.427 100.987V44.0352C147.249 44.0352 147.16 44.0352 146.982 44.1241V44.1241Z" fill="#7638E9"/>
<path d="M147.071 48.0397L129.808 50.9762C128.74 51.1542 128.028 52.0441 128.028 53.1119C128.028 55.6925 128.028 57.9172 127.939 59.8749C127.85 63.4344 127.85 66.104 128.028 67.6168C128.918 77.9393 131.143 82.7446 134.791 87.8168C137.728 91.8213 142.088 94.6688 146.982 95.6477H147.427V47.9507C147.338 47.9507 147.16 47.9507 147.071 48.0397Z" fill="#7638E9"/>
<path d="M166.915 59.8748C166.915 57.9171 166.826 55.6034 166.826 53.1118C166.826 52.044 166.115 51.1541 165.047 50.9761L147.783 48.0396H147.427V95.7366H147.872C152.766 94.6687 157.127 91.9101 160.063 87.8167C163.801 82.7445 165.937 78.0282 166.915 67.6167C167.004 66.1039 167.004 63.5233 166.915 59.8748V59.8748Z" fill="#DABDFF"/>
<path d="M170.653 58.2731C170.653 55.8704 170.564 53.2008 170.564 50.1753C170.564 48.9294 169.674 47.8616 168.428 47.5946L147.872 44.0352H146.982L126.426 47.5946C125.181 47.8616 124.202 48.9294 124.291 50.1753C124.291 53.2008 124.291 55.8704 124.202 58.2731C124.113 62.5444 124.113 65.659 124.291 67.5277C125.448 79.8079 128.028 85.5031 132.478 91.5542C136.037 96.3595 141.198 99.652 146.982 100.898C147.16 100.898 147.338 100.987 147.516 100.987C147.694 100.987 147.872 100.987 148.05 100.898C153.834 99.652 158.996 96.3595 162.555 91.5542C167.004 85.5031 169.585 79.8969 170.653 67.5277C170.742 65.57 170.742 62.5444 170.653 58.2731V58.2731Z" fill="#8F59FF"/>
<path d="M146.982 44.1241L126.426 47.6836C125.181 47.8616 124.291 48.9294 124.291 50.1753C124.291 53.2008 124.202 55.8704 124.202 58.2731C124.113 62.5444 124.113 65.659 124.291 67.5277C125.448 79.8969 128.028 85.5031 132.389 91.5542C135.948 96.3595 141.109 99.652 146.893 100.898C147.071 100.898 147.249 100.987 147.427 100.987V44.0352C147.249 44.0352 147.16 44.0352 146.982 44.1241V44.1241Z" fill="#592ACA"/>
<path d="M147.071 48.0397L129.808 50.9762C128.74 51.1542 128.028 52.0441 128.028 53.1119C128.028 55.6925 128.028 57.9172 127.939 59.8749C127.85 63.4344 127.85 66.104 128.028 67.6168C128.918 77.9393 131.143 82.7446 134.791 87.8168C137.728 91.8213 142.088 94.6688 146.982 95.6477H147.427V47.9507C147.338 47.9507 147.16 47.9507 147.071 48.0397Z" fill="#7542E4"/>
<path d="M166.915 59.8748C166.915 57.9171 166.826 55.6034 166.826 53.1118C166.826 52.044 166.115 51.1541 165.047 50.9761L147.783 48.0396H147.427V95.7366H147.872C152.766 94.6687 157.127 91.9101 160.063 87.8167C163.801 82.7445 165.937 78.0282 166.915 67.6167C167.004 66.1039 167.004 63.5233 166.915 59.8748V59.8748Z" fill="#DABDFF"/>
</g>
</g>
<defs>
<filter id="filter0_d_815_532" x="84.1034" y="-1.52628" width="126.93" height="215.293" filterUnits="userSpaceOnUse" color-interpolation-filters="sRGB">
<feFlood flood-opacity="0" result="BackgroundImageFix"/>
<feColorMatrix in="SourceAlpha" type="matrix" values="0 0 0 0 0 0 0 0 0 0 0 0 0 0 0 0 0 0 127 0" result="hardAlpha"/>
<feOffset/>
<feGaussianBlur stdDeviation="9.76314"/>
<feComposite in2="hardAlpha" operator="out"/>
<feColorMatrix type="matrix" values="0 0 0 0 0 0 0 0 0 0 0 0 0 0 0 0 0 0 0.16 0"/>
<feBlend mode="normal" in2="BackgroundImageFix" result="effect1_dropShadow_815_532"/>
<feBlend mode="normal" in="SourceGraphic" in2="effect1_dropShadow_815_532" result="shape"/>
</filter>
<clipPath id="clip0_815_532">
<rect width="56.9516" height="56.9516" fill="white" transform="translate(118.685 44.0352)"/>
</clipPath>
</defs>
</svg>
