<?xml version="1.0" encoding="utf-8"?>
<!-- Generator: Adobe Illustrator 27.1.1, SVG Export Plug-In . SVG Version: 6.00 Build 0)  -->
<svg version="1.1" id="Layer_1" xmlns="http://www.w3.org/2000/svg" xmlns:xlink="http://www.w3.org/1999/xlink" x="0px" y="0px"
	 viewBox="0 0 293 134" style="enable-background:new 0 0 293 134;" xml:space="preserve">
<style type="text/css">
	.st0{fill:#F9F9FA;}
	.st1{fill:#F9F9FA;filter:url(#Adobe_OpacityMaskFilter);}
	.st2{mask:url(#mask0_1_587_00000109708887815654127320000009900289337310575551_);}
	.st3{fill:#FFFFFF;stroke:#5A2AC9;stroke-width:4;}
	.st4{fill:url(#SVGID_1_);}
	.st5{fill:#20133A;}
	.st6{fill:#FFFFFF;filter:url(#Adobe_OpacityMaskFilter_00000037665108019127036370000017790964006413044644_);}
	.st7{mask:url(#mask1_1_587_00000083079743958233004340000009226800585234136506_);}
	.st8{fill:#F770FF;}
	.st9{fill:url(#SVGID_00000005261602875114929960000004216191978618715523_);}
	.st10{fill:url(#SVGID_00000111153135949899230400000014259347736213959566_);}
	.st11{fill:url(#SVGID_00000024703518865403659100000008071153657647748504_);}
	.st12{fill:url(#SVGID_00000181773980678081124300000010992058358627797931_);}
	.st13{fill:url(#SVGID_00000043457601612259895180000006198098901249278643_);}
	.st14{fill:url(#SVGID_00000078038498648589893020000004278095485119261857_);}
	.st15{fill:url(#SVGID_00000166633987478063116700000006300127410313298344_);}
	.st16{fill:url(#SVGID_00000115515975143671595390000017692552023644300423_);}
	.st17{fill:url(#SVGID_00000134227929614599294510000017259015805358976676_);}
	.st18{fill:url(#SVGID_00000076594272531526967130000003861166898023895439_);}
	.st19{fill:url(#SVGID_00000008829995275783502860000001497311058835143080_);}
	.st20{fill:url(#SVGID_00000116927266186630419040000015211429304999020196_);}
</style>
<path class="st0" d="M6.7,0h279.6c3.7,0,6.7,3,6.7,6.7v120.6c0,3.7-3,6.7-6.7,6.7H6.7C3,134,0,131,0,127.3V6.7C0,3,3,0,6.7,0z"/>
<g>
	<defs>
		<filter id="Adobe_OpacityMaskFilter" filterUnits="userSpaceOnUse" x="85.8" y="82.4" width="121.4" height="38.2">
			<feColorMatrix  type="matrix" values="1 0 0 0 0  0 1 0 0 0  0 0 1 0 0  0 0 0 1 0"/>
		</filter>
	</defs>
	
		<mask maskUnits="userSpaceOnUse" x="85.8" y="82.4" width="121.4" height="38.2" id="mask0_1_587_00000109708887815654127320000009900289337310575551_">
		<path class="st1" d="M79.2-5.6h134c4.4,0,8,3.6,8,8v144c0,4.4-3.6,8-8,8h-134c-4.4,0-8-3.6-8-8V2.4C71.2-2,74.8-5.6,79.2-5.6z"/>
	</mask>
	<g class="st2">
		<path class="st3" d="M95.8,84.4h101.4c4.4,0,8,3.6,8,8v18.2c0,4.4-3.6,8-8,8H95.8c-4.4,0-8-3.6-8-8V92.4
			C87.8,88,91.4,84.4,95.8,84.4z"/>
		
			<linearGradient id="SVGID_1_" gradientUnits="userSpaceOnUse" x1="173.1067" y1="29.4092" x2="192.4873" y2="29.4092" gradientTransform="matrix(1 0 0 -1 0 130.8767)">
			<stop  offset="0" style="stop-color:#9059FF"/>
			<stop  offset="1" style="stop-color:#F770FF"/>
		</linearGradient>
		<path class="st4" d="M191.5,95.4l-7.8-4.5c-0.3-0.2-0.6-0.2-0.9-0.2c-0.3,0-0.6,0.1-0.9,0.2l-7.9,4.5c-0.3,0.2-0.5,0.4-0.7,0.7
			c-0.2,0.3-0.3,0.6-0.3,0.9v8.9c0,0.3,0.1,0.7,0.2,0.9c0.2,0.3,0.4,0.5,0.7,0.7l7.8,4.4c0.3,0.2,0.6,0.3,0.9,0.3
			c0.3,0,0.6-0.1,0.9-0.3l7.8-4.4c0.3-0.2,0.5-0.4,0.7-0.7c0.2-0.3,0.3-0.6,0.3-0.9V97c0-0.3-0.1-0.7-0.2-0.9
			C192.1,95.8,191.8,95.5,191.5,95.4L191.5,95.4z"/>
		<path class="st5" d="M177.3,103.8l-0.5,0.3c-0.1,0-0.2,0.1-0.2,0.2c-0.1,0.1-0.1,0.2-0.1,0.3s0,0.2,0,0.3c0,0.1,0,0.2,0.1,0.3
			c0.1,0.1,0.2,0.2,0.3,0.3s0.2,0.1,0.4,0.1c0.1,0,0.2,0,0.4-0.1l0.5-0.3c0.1,0,0.2-0.1,0.2-0.2c0.1-0.1,0.1-0.2,0.1-0.3
			c0-0.1,0-0.2,0-0.3c0-0.1,0-0.2-0.1-0.3c0-0.1-0.1-0.2-0.2-0.2c-0.1-0.1-0.2-0.1-0.3-0.1c-0.1,0-0.2,0-0.3,0
			C177.5,103.7,177.4,103.8,177.3,103.8L177.3,103.8z M180.2,102.2l-1,0.6c-0.1,0-0.2,0.1-0.2,0.2c-0.1,0.1-0.1,0.2-0.1,0.3
			c0,0.1,0,0.2,0,0.3c0,0.1,0,0.2,0.1,0.3c0.1,0.1,0.2,0.2,0.3,0.3c0.1,0.1,0.2,0.1,0.4,0.1c0.1,0,0.2,0,0.4-0.1l1-0.6
			c0.1,0,0.2-0.1,0.2-0.2c0.1-0.1,0.1-0.2,0.1-0.3c0-0.1,0-0.2,0-0.3c0-0.1,0-0.2-0.1-0.3c0-0.1-0.1-0.2-0.2-0.2
			c-0.1-0.1-0.2-0.1-0.3-0.1s-0.2,0-0.3,0C180.4,102.1,180.3,102.1,180.2,102.2L180.2,102.2z M184.1,100.8c0-0.1-0.1-0.2-0.2-0.2
			c-0.1-0.1-0.1-0.1-0.2-0.1v-5.6c0-0.1,0-0.2-0.1-0.3c0-0.1-0.1-0.2-0.2-0.2c-0.1-0.1-0.2-0.1-0.2-0.2c-0.1,0-0.2-0.1-0.3-0.1
			c-0.1,0-0.2,0-0.3,0.1c-0.1,0-0.2,0.1-0.2,0.2c-0.1,0.1-0.1,0.2-0.2,0.2c0,0.1-0.1,0.2,0,0.3v5.6c-0.1,0-0.2,0.1-0.2,0.1
			c-0.1,0.1-0.1,0.1-0.2,0.2c-0.1,0.1-0.1,0.2-0.1,0.3c0,0.1,0,0.2,0.1,0.3c0,0.1-0.1,0.2-0.1,0.3c0,0.1,0,0.2,0.1,0.3
			c0,0.1,0.1,0.1,0.2,0.2c0.1,0.1,0.1,0.1,0.2,0.1v5.6c0,0.2,0.1,0.4,0.2,0.5c0.1,0.1,0.3,0.2,0.5,0.2c0.2,0,0.4-0.1,0.5-0.2
			c0.1-0.1,0.2-0.3,0.2-0.5v-5.7c0.1,0,0.2-0.1,0.2-0.1c0.1-0.1,0.1-0.1,0.2-0.2c0.1-0.1,0.1-0.2,0.1-0.3c0-0.1,0-0.2-0.1-0.3
			C184.2,101.2,184.2,101,184.1,100.8L184.1,100.8z M186,98.9l-1,0.6c-0.1,0-0.2,0.1-0.2,0.2c-0.1,0.1-0.1,0.2-0.1,0.3
			c0,0.1,0,0.2,0,0.3c0,0.1,0,0.2,0.1,0.3c0.1,0.1,0.2,0.2,0.3,0.3s0.2,0.1,0.4,0.1c0.1,0,0.2,0,0.4-0.1l1-0.6
			c0.1,0,0.2-0.1,0.2-0.2c0.1-0.1,0.1-0.2,0.1-0.3c0-0.1,0-0.2,0-0.3c0-0.1,0-0.2-0.1-0.3c0-0.1-0.1-0.2-0.2-0.2
			c-0.1-0.1-0.2-0.1-0.3-0.1c-0.1,0-0.2,0-0.3,0S186.1,98.8,186,98.9L186,98.9z M188.3,99.1c0.1,0,0.2,0,0.4-0.1l0.5-0.3
			c0.1,0,0.2-0.1,0.2-0.2c0.1-0.1,0.1-0.2,0.1-0.3c0-0.1,0-0.2,0-0.3c0-0.1,0-0.2-0.1-0.3c0-0.1-0.1-0.2-0.2-0.2
			c-0.1-0.1-0.2-0.1-0.3-0.1s-0.2,0-0.3,0c-0.1,0-0.2,0-0.3,0.1l-0.5,0.3c-0.1,0-0.2,0.1-0.2,0.2c-0.1,0.1-0.1,0.2-0.1,0.3
			c0,0.1,0,0.2,0,0.3c0,0.1,0,0.2,0.1,0.3c0.1,0.1,0.2,0.2,0.3,0.3C188,99.1,188.1,99.1,188.3,99.1z M189.1,104.1l-0.5-0.3
			c-0.2-0.1-0.4-0.1-0.6-0.1c-0.2,0.1-0.3,0.2-0.4,0.3s-0.1,0.4-0.1,0.6c0.1,0.2,0.2,0.3,0.3,0.4l0.5,0.3c0.1,0.1,0.2,0.1,0.4,0.1
			c0.1,0,0.3,0,0.4-0.1c0.1-0.1,0.2-0.2,0.3-0.3c0.1-0.1,0.1-0.2,0.1-0.3c0-0.1,0-0.2,0-0.3c0-0.1-0.1-0.2-0.1-0.3
			C189.3,104.2,189.2,104.1,189.1,104.1L189.1,104.1z M186.7,102.7l-1-0.6c-0.1,0-0.2-0.1-0.3-0.1c-0.1,0-0.2,0-0.3,0
			c-0.1,0-0.2,0.1-0.3,0.1c-0.1,0.1-0.1,0.1-0.2,0.2c0,0.1-0.1,0.2-0.1,0.3c0,0.1,0,0.2,0,0.3c0,0.1,0.1,0.2,0.1,0.3
			c0.1,0.1,0.1,0.1,0.2,0.2l1,0.6c0.1,0.1,0.2,0.1,0.4,0.1c0.1,0,0.3,0,0.4-0.1c0.1-0.1,0.2-0.2,0.3-0.3c0.1-0.1,0.1-0.2,0.1-0.3
			c0-0.1,0-0.2,0-0.3c0-0.1-0.1-0.2-0.1-0.3C186.8,102.8,186.8,102.8,186.7,102.7L186.7,102.7z M179.2,100.1l1,0.6
			c0.1,0.1,0.2,0.1,0.4,0.1c0.1,0,0.3,0,0.4-0.1c0.1-0.1,0.2-0.2,0.3-0.3c0-0.1,0.1-0.2,0.1-0.3c0-0.1,0-0.2,0-0.3
			c0-0.1-0.1-0.2-0.1-0.3c-0.1-0.1-0.1-0.1-0.2-0.2l-1-0.6c-0.1,0-0.2-0.1-0.3-0.1s-0.2,0-0.3,0c-0.1,0-0.2,0.1-0.3,0.1
			c-0.1,0.1-0.1,0.1-0.2,0.2c-0.1,0.2-0.1,0.4-0.1,0.6C178.9,99.9,179.1,100,179.2,100.1L179.2,100.1z M178,97.8l-0.5-0.3
			c-0.1,0-0.2-0.1-0.3-0.1c-0.1,0-0.2,0-0.3,0c-0.1,0-0.2,0.1-0.3,0.1c-0.1,0.1-0.1,0.1-0.2,0.2c0,0.1-0.1,0.2-0.1,0.3
			c0,0.1,0,0.2,0,0.3c0,0.1,0.1,0.2,0.1,0.3c0.1,0.1,0.1,0.1,0.2,0.2l0.5,0.3c0.1,0.1,0.2,0.1,0.4,0.1c0.1,0,0.3,0,0.4-0.1
			c0.1-0.1,0.2-0.2,0.3-0.3c0-0.1,0.1-0.2,0.1-0.3c0-0.1,0-0.2,0-0.3c0-0.1-0.1-0.2-0.1-0.2C178.2,97.9,178.1,97.8,178,97.8
			L178,97.8z"/>
		<defs>
			
				<filter id="Adobe_OpacityMaskFilter_00000022528586432739365010000014289019915600409487_" filterUnits="userSpaceOnUse" x="95.3" y="88.7" width="68.6" height="26">
				<feColorMatrix  type="matrix" values="1 0 0 0 0  0 1 0 0 0  0 0 1 0 0  0 0 0 1 0"/>
			</filter>
		</defs>
		
			<mask maskUnits="userSpaceOnUse" x="95.3" y="88.7" width="68.6" height="26" id="mask1_1_587_00000083079743958233004340000009226800585234136506_">
			<path style="fill:#FFFFFF;filter:url(#Adobe_OpacityMaskFilter_00000022528586432739365010000014289019915600409487_);" d="
				M158,103.2c0.1,0,0.2,0.1,0.2,0.2c0.1,0.1,0.1,0.2,0.1,0.2c0,0.1,0,0.2,0,0.3c0,0.1,0,0.2-0.1,0.3l-1.5,2.5
				c0,0.1-0.1,0.2-0.2,0.2s-0.2,0.1-0.3,0.1c-0.2,0-0.4,0-0.5-0.1l-3-2.4l0.5,4c0,0.2,0,0.4-0.2,0.5c-0.1,0.1-0.1,0.1-0.2,0.2
				c-0.1,0-0.2,0.1-0.3,0h-2.9c-0.1,0-0.2,0-0.3-0.1c-0.1,0-0.2-0.1-0.2-0.2c-0.1-0.1-0.1-0.2-0.1-0.2c0-0.1,0-0.2,0-0.3l0.5-4.1
				l-3.3,2.5c-0.1,0.1-0.2,0.1-0.2,0.1c-0.1,0-0.2,0-0.3,0c-0.1,0-0.2-0.1-0.3-0.1c-0.1-0.1-0.1-0.1-0.2-0.2l-1.4-2.5
				c0-0.1-0.1-0.2-0.1-0.3c0-0.1,0-0.2,0.1-0.3c0-0.1,0.1-0.2,0.1-0.2c0.1-0.1,0.1-0.1,0.2-0.2l3.8-1.6l-3.8-1.7
				c-0.1,0-0.2-0.1-0.2-0.1c-0.1-0.1-0.1-0.2-0.1-0.2c0-0.1-0.1-0.2-0.1-0.3s0-0.2,0.1-0.3l1.4-2.4c0-0.1,0.1-0.2,0.2-0.2
				c0.1-0.1,0.2-0.1,0.3-0.1c0.2-0.1,0.4-0.1,0.5,0l3.3,2.5l-0.5-4c0-0.1,0-0.2,0-0.3c0-0.1,0.1-0.2,0.1-0.2
				c0.1-0.1,0.1-0.1,0.2-0.2s0.2-0.1,0.3-0.1h2.9c0.1,0,0.2,0,0.3,0.1s0.2,0.1,0.2,0.2c0.1,0.1,0.1,0.2,0.1,0.2c0,0.1,0,0.2,0,0.3
				l-0.5,4.2l3.4-2.4c0.1-0.1,0.2-0.1,0.3-0.1c0.1,0,0.2,0,0.3,0c0.1,0,0.2,0.1,0.3,0.1c0.1,0.1,0.1,0.1,0.2,0.2l1.4,2.5
				c0,0.1,0.1,0.2,0.1,0.3c0,0.1,0,0.2-0.1,0.3c0,0.1-0.1,0.2-0.2,0.2c-0.1,0.1-0.1,0.1-0.2,0.2l-3.7,1.6L158,103.2z M136.5,103.2
				c0.1,0,0.2,0.1,0.2,0.2s0.1,0.2,0.1,0.3c0,0.1,0.1,0.2,0.1,0.3s0,0.2-0.1,0.3l-1.5,2.5c0,0.1-0.1,0.2-0.2,0.2s-0.2,0.1-0.3,0.1
				c-0.1,0-0.2,0-0.3,0c-0.1,0-0.2-0.1-0.2-0.1l-3.2-2.4l0.5,4c0,0.2-0.1,0.4-0.2,0.5c-0.1,0.1-0.1,0.1-0.2,0.2
				c-0.1,0-0.2,0.1-0.3,0.1h-2.9c-0.1,0-0.2,0-0.3-0.1c-0.1,0-0.2-0.1-0.2-0.2c-0.1-0.1-0.1-0.2-0.1-0.2c0-0.1,0-0.2,0-0.3l0.5-4.1
				l-3.3,2.5c-0.1,0.1-0.2,0.1-0.3,0.1c-0.1,0-0.2,0-0.3,0c-0.1,0-0.2-0.1-0.3-0.1c-0.1-0.1-0.1-0.1-0.2-0.2l-1.4-2.5
				c0-0.1-0.1-0.2-0.1-0.3c0-0.1,0-0.2,0.1-0.3c0-0.1,0.1-0.2,0.1-0.2c0.1-0.1,0.1-0.1,0.2-0.2l3.8-1.6l-3.8-1.7
				c-0.1,0-0.2-0.1-0.2-0.2c-0.1-0.1-0.1-0.2-0.1-0.2c0-0.1-0.1-0.2-0.1-0.3s0-0.2,0.1-0.3l1.4-2.4c0-0.1,0.1-0.2,0.2-0.2
				c0.1-0.1,0.2-0.1,0.3-0.1c0.2-0.1,0.4-0.1,0.5,0l3.2,2.5l-0.5-4c0-0.1,0-0.2,0-0.3c0-0.1,0.1-0.2,0.1-0.3
				c0.1-0.1,0.1-0.1,0.2-0.2c0.1,0,0.2-0.1,0.3-0.1h2.9c0.1,0,0.2,0,0.3,0.1c0.1,0,0.2,0.1,0.2,0.2c0.1,0.1,0.1,0.2,0.1,0.3
				c0,0.1,0,0.2,0,0.3l-0.5,4.1l3.3-2.4c0.1-0.1,0.2-0.1,0.2-0.1c0.1,0,0.2,0,0.3,0c0.1,0,0.2,0,0.3,0.1c0.1,0.1,0.1,0.1,0.2,0.2
				l1.4,2.5c0,0.1,0.1,0.2,0.1,0.3c0,0.1,0,0.2-0.1,0.3c0,0.1-0.1,0.2-0.1,0.2s-0.1,0.1-0.2,0.2l-3.7,1.6L136.5,103.2z M115,103.2
				c0.2,0.1,0.3,0.2,0.4,0.4c0.1,0.2,0.1,0.4,0,0.5l-1.5,2.5c0,0.1-0.1,0.2-0.2,0.2c-0.1,0.1-0.2,0.1-0.3,0.1c-0.1,0-0.2,0-0.3,0
				c-0.1,0-0.2-0.1-0.3-0.1l-3.2-2.4l0.5,4c0,0.1,0,0.2,0,0.3c0,0.1-0.1,0.2-0.1,0.2c-0.1,0.1-0.1,0.1-0.2,0.2
				c-0.1,0-0.2,0.1-0.3,0.1h-3c-0.1,0-0.2,0-0.3-0.1c-0.1,0-0.2-0.1-0.2-0.2c-0.1-0.1-0.1-0.2-0.1-0.2c0-0.1,0-0.2,0-0.3l0.5-4.1
				l-3.3,2.5c-0.1,0.1-0.2,0.1-0.3,0.1c-0.1,0-0.2,0-0.3,0c-0.1,0-0.2-0.1-0.3-0.1c-0.1-0.1-0.1-0.1-0.2-0.2l-1.4-2.5
				c-0.1-0.2-0.1-0.4,0-0.5c0-0.1,0.1-0.2,0.1-0.2c0.1-0.1,0.1-0.1,0.2-0.2l3.8-1.6l-3.8-1.7c-0.1,0-0.2-0.1-0.2-0.2
				c-0.1-0.1-0.1-0.2-0.1-0.2c0-0.1-0.1-0.2-0.1-0.3s0-0.2,0.1-0.3l1.4-2.4c0.1-0.2,0.3-0.3,0.4-0.3c0.2,0,0.4,0,0.5,0.1l3.3,2.5
				l-0.5-4c0-0.1,0-0.2,0-0.3c0-0.1,0.1-0.2,0.1-0.3c0.1-0.1,0.1-0.1,0.2-0.2c0.1,0,0.2-0.1,0.3-0.1h2.9c0.1,0,0.2,0,0.3,0.1
				c0.1,0,0.2,0.1,0.2,0.2c0.1,0.1,0.1,0.2,0.1,0.3c0,0.1,0,0.2,0,0.3l-0.6,4l3.3-2.4c0.1-0.1,0.2-0.1,0.3-0.1c0.1,0,0.2,0,0.3,0
				c0.2,0.1,0.3,0.2,0.4,0.3l1.4,2.5c0,0.1,0.1,0.2,0.1,0.3c0,0.1,0,0.2-0.1,0.3c0,0.1-0.1,0.2-0.1,0.2c-0.1,0.1-0.1,0.1-0.2,0.2
				l-3.8,1.7L115,103.2z"/>
		</mask>
		<g class="st7">
			<path class="st8" d="M95.3,88.7H164v26H95.3V88.7z"/>
		</g>
	</g>
	
		<linearGradient id="SVGID_00000080174461380053327370000006218733715410546575_" gradientUnits="userSpaceOnUse" x1="166.3287" y1="107.3959" x2="124.2509" y2="66.7989" gradientTransform="matrix(1 0 0 -1 0 130.8767)">
		<stop  offset="5.000000e-02" style="stop-color:#FFF44F"/>
		<stop  offset="0.11" style="stop-color:#FFE847"/>
		<stop  offset="0.22" style="stop-color:#FFC830"/>
		<stop  offset="0.37" style="stop-color:#FF980E"/>
		<stop  offset="0.4" style="stop-color:#FF8B16"/>
		<stop  offset="0.46" style="stop-color:#FF672A"/>
		<stop  offset="0.53" style="stop-color:#FF3647"/>
		<stop  offset="0.7" style="stop-color:#E31587"/>
	</linearGradient>
	<path style="fill:url(#SVGID_00000080174461380053327370000006218733715410546575_);" d="M169.7,32.9c-1.1-2.7-3.3-5.5-5.1-6.4
		c1.4,2.8,2.3,5.6,2.6,7.7c0,0,0,0,0,0c-2.9-7.1-7.7-10-11.7-16.3c-0.2-0.3-0.4-0.6-0.6-1c-0.1-0.2-0.2-0.4-0.3-0.5
		c-0.2-0.3-0.3-0.7-0.4-1c0,0,0,0,0,0c0,0,0,0,0,0c0,0,0,0,0,0c0,0,0,0,0,0c0,0,0,0,0,0l0,0c-6.4,3.7-8.5,10.6-8.7,14.1
		c-2.5,0.2-5,1.1-7,2.7c-0.2-0.2-0.4-0.3-0.7-0.5c-0.6-2-0.6-4.2-0.1-6.2c-2.6,1.2-4.6,3.1-6.1,4.7h0c-1-1.3-0.9-5.5-0.9-6.3
		c0-0.1-0.7,0.4-0.8,0.4c-0.9,0.6-1.7,1.3-2.5,2.1c-0.9,0.9-1.7,1.8-2.4,2.8c-1.6,2.3-2.8,4.9-3.4,7.7c0,0.1,0,0.1,0,0.2
		c0,0.2-0.2,1.3-0.2,1.6v0.1c-0.2,1.2-0.4,2.3-0.4,3.5v0.1c0,14,11.3,25.3,25.3,25.3c12.5,0,22.9-9.1,25-21.1c0-0.3,0.1-0.7,0.1-1
		C171.8,41.3,171.3,36.7,169.7,32.9z M140.5,52.8c0.1,0.1,0.2,0.1,0.4,0.2l0,0C140.7,52.9,140.6,52.8,140.5,52.8L140.5,52.8z
		 M167.2,34.3L167.2,34.3L167.2,34.3L167.2,34.3z"/>
	
		<radialGradient id="SVGID_00000137819919517492744910000012710716668238072995_" cx="-533.8292" cy="443.5161" r="1" gradientTransform="matrix(52.8409 0 0 -52.8409 28372.4004 23456.9727)" gradientUnits="userSpaceOnUse">
		<stop  offset="0.13" style="stop-color:#FFBD4F"/>
		<stop  offset="0.19" style="stop-color:#FFAC31"/>
		<stop  offset="0.25" style="stop-color:#FF9D17"/>
		<stop  offset="0.28" style="stop-color:#FF980E"/>
		<stop  offset="0.4" style="stop-color:#FF563B"/>
		<stop  offset="0.47" style="stop-color:#FF3750"/>
		<stop  offset="0.71" style="stop-color:#F5156C"/>
		<stop  offset="0.78" style="stop-color:#EB0878"/>
		<stop  offset="0.86" style="stop-color:#E50080"/>
	</radialGradient>
	<path style="fill:url(#SVGID_00000137819919517492744910000012710716668238072995_);" d="M169.7,32.9c-1.1-2.7-3.3-5.5-5.1-6.4
		c1.4,2.8,2.3,5.6,2.6,7.7v0.1c2.4,6.5,1.1,13.1-0.8,17.1c-2.9,6.2-9.9,12.6-20.9,12.3c-11.9-0.3-22.4-9.2-24.3-20.7
		c-0.4-1.8,0-2.7,0.2-4.2c-0.2,1.1-0.3,1.5-0.4,3.5v0.1c0,14,11.3,25.3,25.3,25.3c12.5,0,22.9-9.1,25-21.1c0-0.3,0.1-0.7,0.1-1
		C171.8,41.3,171.3,36.7,169.7,32.9L169.7,32.9z"/>
	
		<radialGradient id="SVGID_00000088816079477304410990000000981842134480364968_" cx="-533.8292" cy="443.5161" r="1" gradientTransform="matrix(52.8409 0 0 -52.8409 28353.0918 23478.5742)" gradientUnits="userSpaceOnUse">
		<stop  offset="0.3" style="stop-color:#960E18"/>
		<stop  offset="0.35" style="stop-color:#B11927;stop-opacity:0.74"/>
		<stop  offset="0.43" style="stop-color:#DB293D;stop-opacity:0.34"/>
		<stop  offset="0.5" style="stop-color:#F5334B;stop-opacity:9.000000e-02"/>
		<stop  offset="0.53" style="stop-color:#FF3750;stop-opacity:0"/>
	</radialGradient>
	<path style="fill:url(#SVGID_00000088816079477304410990000000981842134480364968_);" d="M169.7,32.9c-1.1-2.7-3.3-5.5-5.1-6.4
		c1.4,2.8,2.3,5.6,2.6,7.7v0.1c2.4,6.5,1.1,13.1-0.8,17.1c-2.9,6.2-9.9,12.6-20.9,12.3c-11.9-0.3-22.4-9.2-24.3-20.7
		c-0.4-1.8,0-2.7,0.2-4.2c-0.2,1.1-0.3,1.5-0.4,3.5v0.1c0,14,11.3,25.3,25.3,25.3c12.5,0,22.9-9.1,25-21.1c0-0.3,0.1-0.7,0.1-1
		C171.8,41.3,171.3,36.7,169.7,32.9L169.7,32.9z"/>
	
		<radialGradient id="SVGID_00000065788219399583525300000002774819395871362740_" cx="-529.3903" cy="441.2636" r="1" gradientTransform="matrix(38.2809 0 0 -38.2809 20416.9824 16901.1582)" gradientUnits="userSpaceOnUse">
		<stop  offset="0.13" style="stop-color:#FFF44F"/>
		<stop  offset="0.25" style="stop-color:#FFDC3E"/>
		<stop  offset="0.51" style="stop-color:#FF9D12"/>
		<stop  offset="0.53" style="stop-color:#FF980E"/>
	</radialGradient>
	<path style="fill:url(#SVGID_00000065788219399583525300000002774819395871362740_);" d="M157.4,35.9c0.1,0,0.1,0.1,0.2,0.1
		c-0.6-1.1-1.4-2.2-2.4-3.1c-7.9-7.9-2.1-17.1-1.1-17.6l0,0c-6.4,3.7-8.5,10.6-8.7,14.1c0.3,0,0.6,0,0.9,0
		C151,29.4,155.2,32,157.4,35.9z"/>
	
		<radialGradient id="SVGID_00000154392314442043403810000002356120310390498450_" cx="-520.9886" cy="437.0002" r="1" gradientTransform="matrix(25.1596 0 0 -25.1596 13247.0986 11051.3389)" gradientUnits="userSpaceOnUse">
		<stop  offset="0.35" style="stop-color:#3A8EE6"/>
		<stop  offset="0.47" style="stop-color:#5C79F0"/>
		<stop  offset="0.67" style="stop-color:#9059FF"/>
		<stop  offset="1" style="stop-color:#C139E6"/>
	</radialGradient>
	<path style="fill:url(#SVGID_00000154392314442043403810000002356120310390498450_);" d="M146.3,37.5c0,0.6-2.3,2.8-3,2.8
		c-7.2,0-8.4,4.4-8.4,4.4c0.3,3.7,2.9,6.7,6,8.3c0.1,0.1,0.3,0.1,0.4,0.2c0.2,0.1,0.5,0.2,0.7,0.3c1.1,0.4,2.2,0.6,3.3,0.6
		c12.6,0.6,15.1-15.1,6-19.7c2.3-0.4,4.8,0.5,6.1,1.5c-2.2-3.9-6.4-6.5-11.1-6.5c-0.3,0-0.6,0-0.9,0c-2.5,0.2-5,1.1-7,2.7
		c0.4,0.3,0.8,0.8,1.7,1.7C141.9,35.5,146.3,37.3,146.3,37.5L146.3,37.5z"/>
	
		<radialGradient id="SVGID_00000132794493848735379600000011866196709747908765_" cx="-506.2281" cy="420.5801" r="1" gradientTransform="matrix(12.9395 -3.2015 -3.761 -15.2008 8278 4808.9644)" gradientUnits="userSpaceOnUse">
		<stop  offset="0.21" style="stop-color:#9059FF;stop-opacity:0"/>
		<stop  offset="0.28" style="stop-color:#8C4FF3;stop-opacity:6.000000e-02"/>
		<stop  offset="0.75" style="stop-color:#7716A8;stop-opacity:0.45"/>
		<stop  offset="0.97" style="stop-color:#6E008B;stop-opacity:0.6"/>
	</radialGradient>
	<path style="fill:url(#SVGID_00000132794493848735379600000011866196709747908765_);" d="M146.3,37.5c0,0.6-2.3,2.8-3,2.8
		c-7.2,0-8.4,4.4-8.4,4.4c0.3,3.7,2.9,6.7,6,8.3c0.1,0.1,0.3,0.1,0.4,0.2c0.2,0.1,0.5,0.2,0.7,0.3c1.1,0.4,2.2,0.6,3.3,0.6
		c12.6,0.6,15.1-15.1,6-19.7c2.3-0.4,4.8,0.5,6.1,1.5c-2.2-3.9-6.4-6.5-11.1-6.5c-0.3,0-0.6,0-0.9,0c-2.5,0.2-5,1.1-7,2.7
		c0.4,0.3,0.8,0.8,1.7,1.7C141.9,35.5,146.3,37.3,146.3,37.5L146.3,37.5z"/>
	
		<radialGradient id="SVGID_00000106837189800887358440000011149578722250013071_" cx="-511.4294" cy="432.1494" r="1" gradientTransform="matrix(18.1005 0 0 -18.1005 9401.5361 7841.1426)" gradientUnits="userSpaceOnUse">
		<stop  offset="0" style="stop-color:#FFE226"/>
		<stop  offset="0.12" style="stop-color:#FFDB27"/>
		<stop  offset="0.3" style="stop-color:#FFC82A"/>
		<stop  offset="0.5" style="stop-color:#FFA930"/>
		<stop  offset="0.73" style="stop-color:#FF7E37"/>
		<stop  offset="0.79" style="stop-color:#FF7139"/>
	</radialGradient>
	<path style="fill:url(#SVGID_00000106837189800887358440000011149578722250013071_);" d="M137.2,31.3c0.2,0.1,0.4,0.2,0.5,0.3
		c-0.6-2-0.6-4.2-0.1-6.2c-2.6,1.2-4.6,3.1-6.1,4.7C131.7,30.2,135.4,30.1,137.2,31.3L137.2,31.3z"/>
	
		<radialGradient id="SVGID_00000038371113800984543550000015476171816997834674_" cx="-537.5143" cy="445.3861" r="1" gradientTransform="matrix(77.2253 0 0 -77.2253 41668.3438 34402.6172)" gradientUnits="userSpaceOnUse">
		<stop  offset="0.11" style="stop-color:#FFF44F"/>
		<stop  offset="0.46" style="stop-color:#FF980E"/>
		<stop  offset="0.62" style="stop-color:#FF5634"/>
		<stop  offset="0.72" style="stop-color:#FF3647"/>
		<stop  offset="0.9" style="stop-color:#E31587"/>
	</radialGradient>
	<path style="fill:url(#SVGID_00000038371113800984543550000015476171816997834674_);" d="M121.1,43c2,11.6,12.4,20.4,24.3,20.7
		c11,0.3,18-6.1,20.9-12.3c1.9-4,3.2-10.6,0.8-17.1v0c0,0,0,0,0,0c0.9,5.9-2.1,11.6-6.8,15.4c0,0,0,0,0,0
		c-9.1,7.4-17.8,4.5-19.6,3.3c-0.1-0.1-0.2-0.1-0.4-0.2c-5.3-2.5-7.5-7.4-7-11.5c-4.5,0-6-3.8-6-3.8s4-2.9,9.3-0.4
		c4.9,2.3,9.5,0.4,9.5,0.4c0-0.2-4.4-2-6.1-3.7c-0.9-0.9-1.4-1.3-1.7-1.7c-0.2-0.2-0.4-0.3-0.7-0.5c-0.2-0.1-0.3-0.2-0.5-0.3
		c-1.8-1.2-5.5-1.1-5.6-1.1h0c-1-1.3-0.9-5.5-0.9-6.3c0-0.1-0.7,0.4-0.8,0.4c-0.9,0.6-1.7,1.3-2.5,2.1c-0.9,0.9-1.7,1.8-2.4,2.8
		c-1.6,2.3-2.8,4.9-3.4,7.7C121.6,37,120.7,40.9,121.1,43L121.1,43z"/>
	
		<radialGradient id="SVGID_00000147900669374953950250000012159907303730870949_" cx="-538.8677" cy="465.1789" r="1" gradientTransform="matrix(5.657 56.0046 36.7953 -3.7167 -13916.8096 31923.9863)" gradientUnits="userSpaceOnUse">
		<stop  offset="0" style="stop-color:#FFF44F"/>
		<stop  offset="6.000000e-02" style="stop-color:#FFE847"/>
		<stop  offset="0.17" style="stop-color:#FFC830"/>
		<stop  offset="0.3" style="stop-color:#FF980E"/>
		<stop  offset="0.36" style="stop-color:#FF8B16"/>
		<stop  offset="0.45" style="stop-color:#FF672A"/>
		<stop  offset="0.57" style="stop-color:#FF3647"/>
		<stop  offset="0.74" style="stop-color:#E31587"/>
	</radialGradient>
	<path style="fill:url(#SVGID_00000147900669374953950250000012159907303730870949_);" d="M155.2,32.9c0.9,0.9,1.7,1.9,2.4,3.1
		c0.1,0.1,0.3,0.2,0.4,0.3c5.7,5.3,2.7,12.8,2.5,13.3c4.7-3.8,7.7-9.5,6.8-15.4c-2.9-7.1-7.7-10-11.7-16.3c-0.2-0.3-0.4-0.6-0.6-1
		c-0.1-0.2-0.2-0.4-0.3-0.5c-0.2-0.3-0.3-0.7-0.4-1c0,0,0,0,0,0c0,0,0,0,0,0c0,0,0,0,0,0c0,0,0,0,0,0c0,0,0,0,0,0
		C153.1,15.9,147.3,25.1,155.2,32.9L155.2,32.9z"/>
	
		<radialGradient id="SVGID_00000014610634159883107990000015978770609750100144_" cx="-532.7086" cy="442.9474" r="1" gradientTransform="matrix(48.2119 0 0 -48.2119 25826.8789 21381.0645)" gradientUnits="userSpaceOnUse">
		<stop  offset="0.14" style="stop-color:#FFF44F"/>
		<stop  offset="0.48" style="stop-color:#FF980E"/>
		<stop  offset="0.59" style="stop-color:#FF5634"/>
		<stop  offset="0.66" style="stop-color:#FF3647"/>
		<stop  offset="0.9" style="stop-color:#E31587"/>
	</radialGradient>
	<path style="fill:url(#SVGID_00000014610634159883107990000015978770609750100144_);" d="M157.9,36.3c-0.1-0.1-0.2-0.2-0.4-0.3
		c-0.1,0-0.1-0.1-0.2-0.1c-1.4-0.9-3.8-1.9-6.1-1.5c9.1,4.6,6.7,20.3-6,19.7c-1.1,0-2.2-0.3-3.3-0.6c-0.2-0.1-0.5-0.2-0.7-0.3
		c-0.1-0.1-0.3-0.1-0.4-0.2l0,0c1.8,1.2,10.5,4.1,19.6-3.3c0,0,0,0,0,0C160.6,49.1,163.7,41.6,157.9,36.3z"/>
	
		<radialGradient id="SVGID_00000078031122035609009700000008200621544649284767_" cx="-533.8131" cy="443.5079" r="1" gradientTransform="matrix(52.7681 0 0 -52.7681 28325.0137 23431.6172)" gradientUnits="userSpaceOnUse">
		<stop  offset="9.000000e-02" style="stop-color:#FFF44F"/>
		<stop  offset="0.23" style="stop-color:#FFE141"/>
		<stop  offset="0.51" style="stop-color:#FFAF1E"/>
		<stop  offset="0.63" style="stop-color:#FF980E"/>
	</radialGradient>
	<path style="fill:url(#SVGID_00000078031122035609009700000008200621544649284767_);" d="M134.9,44.6c0,0,1.2-4.4,8.4-4.4
		c0.8,0,3-2.2,3-2.8c0-0.6-4.6,1.9-9.5-0.4c-5.3-2.5-9.3,0.4-9.3,0.4s1.5,3.8,6,3.8c-0.5,4.1,1.7,9,7,11.5c0.1,0.1,0.2,0.1,0.4,0.2
		C137.7,51.3,135.2,48.3,134.9,44.6z"/>
	
		<linearGradient id="SVGID_00000169518824994401704670000012245797901016263346_" gradientUnits="userSpaceOnUse" x1="165.8235" y1="107.612" x2="130.0211" y2="71.8085" gradientTransform="matrix(1 0 0 -1 0 130.8767)">
		<stop  offset="0.17" style="stop-color:#FFF44F;stop-opacity:0.8"/>
		<stop  offset="0.27" style="stop-color:#FFF44F;stop-opacity:0.63"/>
		<stop  offset="0.49" style="stop-color:#FFF44F;stop-opacity:0.22"/>
		<stop  offset="0.6" style="stop-color:#FFF44F;stop-opacity:0"/>
	</linearGradient>
	<path style="fill:url(#SVGID_00000169518824994401704670000012245797901016263346_);" d="M169.7,32.9c-1.1-2.7-3.3-5.5-5.1-6.4
		c1.4,2.8,2.3,5.6,2.6,7.7c0,0,0,0,0,0c-2.9-7.1-7.7-10-11.7-16.3c-0.2-0.3-0.4-0.6-0.6-1c-0.1-0.2-0.2-0.4-0.3-0.5
		c-0.2-0.3-0.3-0.7-0.4-1c0,0,0,0,0,0c0,0,0,0,0,0c0,0,0,0,0,0c0,0,0,0,0,0c0,0,0,0,0,0l0,0c-6.4,3.7-8.5,10.6-8.7,14.1
		c0.3,0,0.6,0,0.9,0c4.8,0,8.9,2.6,11.1,6.5c-1.4-0.9-3.8-1.9-6.1-1.5c9.1,4.6,6.7,20.3-6,19.7c-1.1,0-2.2-0.3-3.3-0.6
		c-0.2-0.1-0.5-0.2-0.7-0.3c-0.1-0.1-0.3-0.1-0.4-0.2l0,0c-0.1-0.1-0.2-0.1-0.4-0.2c0.1,0.1,0.2,0.1,0.4,0.2c-3.1-1.6-5.7-4.6-6-8.3
		c0,0,1.2-4.4,8.4-4.4c0.8,0,3-2.2,3-2.8c0-0.2-4.4-2-6.1-3.7c-0.9-0.9-1.4-1.3-1.7-1.7c-0.2-0.2-0.4-0.3-0.7-0.5
		c-0.6-2-0.6-4.2-0.1-6.2c-2.6,1.2-4.6,3.1-6.1,4.7h0c-1-1.3-0.9-5.5-0.9-6.3c0-0.1-0.7,0.4-0.8,0.4c-0.9,0.6-1.7,1.3-2.5,2.1
		c-0.9,0.9-1.7,1.8-2.4,2.8c-1.6,2.3-2.8,4.9-3.4,7.7c0,0.1,0,0.1,0,0.2c0,0.2-0.3,1.4-0.3,1.6c0,0,0,0,0,0
		c-0.2,1.2-0.3,2.4-0.4,3.5v0.1c0,14,11.3,25.3,25.3,25.3c12.5,0,22.9-9.1,25-21.1c0-0.3,0.1-0.7,0.1-1
		C171.8,41.3,171.3,36.7,169.7,32.9z M167.2,34.2L167.2,34.2L167.2,34.2z"/>
</g>
</svg>
