<svg width="150" height="160" viewBox="0 0 150 160" fill="none" xmlns="http://www.w3.org/2000/svg">
<rect width="150" height="160" rx="8" fill="#F9F9FA"/>
<mask id="mask0_1_587" style="mask-type:alpha" maskUnits="userSpaceOnUse" x="0" y="0" width="150" height="160">
<rect width="150" height="160" rx="8" fill="#F9F9FA"/>
</mask>
<g mask="url(#mask0_1_587)">
<rect x="16.6087" y="90" width="117.391" height="34.2466" rx="8" fill="white" stroke="#5A2AC9" stroke-width="4"/>
<path d="M120.352 101.016L112.512 96.5452C112.236 96.3938 111.928 96.3145 111.615 96.3145C111.301 96.3145 110.993 96.3938 110.717 96.5452L102.849 101.016C102.565 101.178 102.329 101.414 102.164 101.698C101.999 101.983 101.912 102.307 101.911 102.637V111.551C101.908 111.882 101.994 112.207 102.159 112.493C102.325 112.778 102.563 113.013 102.849 113.172L110.69 117.615C110.965 117.782 111.28 117.87 111.601 117.867C111.921 117.866 112.235 117.779 112.512 117.615L120.352 113.172C120.636 113.01 120.873 112.775 121.037 112.49C121.202 112.205 121.29 111.881 121.291 111.551V102.637C121.299 102.305 121.215 101.978 121.049 101.691C120.884 101.405 120.642 101.171 120.352 101.016Z" fill="url(#paint0_linear_1_587)"/>
<path d="M106.135 109.428L105.665 109.708C105.582 109.755 105.508 109.818 105.448 109.895C105.389 109.971 105.345 110.058 105.319 110.152C105.293 110.246 105.286 110.344 105.299 110.44C105.311 110.536 105.341 110.629 105.389 110.714C105.451 110.83 105.542 110.928 105.654 110.997C105.766 111.066 105.894 111.103 106.024 111.105C106.149 111.104 106.271 111.075 106.383 111.021L106.853 110.742C106.937 110.694 107.01 110.631 107.07 110.555C107.129 110.478 107.173 110.391 107.199 110.297C107.225 110.203 107.232 110.106 107.22 110.009C107.207 109.913 107.177 109.82 107.129 109.736C107.086 109.647 107.026 109.568 106.952 109.504C106.878 109.44 106.791 109.392 106.698 109.363C106.605 109.334 106.506 109.325 106.41 109.336C106.313 109.347 106.219 109.379 106.135 109.428ZM109.006 107.779L108.04 108.338C107.956 108.385 107.882 108.449 107.822 108.525C107.763 108.602 107.719 108.689 107.693 108.783C107.668 108.876 107.661 108.974 107.673 109.071C107.685 109.167 107.716 109.26 107.764 109.344C107.825 109.461 107.917 109.559 108.028 109.628C108.14 109.696 108.268 109.734 108.399 109.736C108.523 109.734 108.645 109.706 108.757 109.652L109.724 109.093C109.808 109.046 109.882 108.982 109.941 108.906C110 108.83 110.044 108.742 110.07 108.648C110.096 108.555 110.103 108.457 110.091 108.36C110.079 108.264 110.048 108.171 110 108.087C109.957 107.998 109.897 107.919 109.823 107.855C109.749 107.791 109.662 107.743 109.569 107.714C109.476 107.685 109.378 107.676 109.281 107.687C109.184 107.699 109.09 107.73 109.006 107.779ZM112.898 106.413C112.86 106.334 112.805 106.263 112.739 106.206C112.673 106.148 112.595 106.104 112.512 106.078V100.458C112.512 100.359 112.493 100.261 112.456 100.169C112.419 100.077 112.364 99.9939 112.294 99.9238C112.225 99.8536 112.143 99.7981 112.052 99.7603C111.962 99.7225 111.865 99.7032 111.767 99.7036C111.67 99.7039 111.575 99.7239 111.486 99.7623C111.397 99.8006 111.317 99.8567 111.25 99.9271C111.183 99.9974 111.131 100.081 111.096 100.172C111.062 100.263 111.045 100.36 111.049 100.458V106.103C110.965 106.13 110.888 106.173 110.822 106.231C110.755 106.288 110.701 106.359 110.662 106.438C110.61 106.536 110.581 106.645 110.576 106.756C110.571 106.868 110.591 106.978 110.635 107.081C110.591 107.183 110.571 107.294 110.576 107.405C110.581 107.517 110.61 107.625 110.662 107.724C110.701 107.803 110.755 107.873 110.822 107.931C110.888 107.989 110.965 108.032 111.049 108.059V113.704C111.049 113.904 111.127 114.096 111.267 114.237C111.407 114.379 111.597 114.458 111.794 114.458C111.992 114.458 112.181 114.379 112.321 114.237C112.461 114.096 112.54 113.904 112.54 113.704V108.031C112.623 108.004 112.7 107.961 112.767 107.903C112.833 107.845 112.887 107.775 112.926 107.696C112.978 107.597 113.007 107.489 113.012 107.377C113.017 107.266 112.997 107.155 112.954 107.053C113.018 106.84 112.998 106.611 112.898 106.413ZM114.778 104.482L113.812 105.041C113.728 105.088 113.654 105.152 113.595 105.228C113.535 105.304 113.492 105.392 113.466 105.485C113.44 105.579 113.433 105.677 113.445 105.773C113.457 105.87 113.488 105.963 113.536 106.047C113.598 106.164 113.689 106.261 113.801 106.33C113.913 106.399 114.04 106.436 114.171 106.438C114.295 106.437 114.418 106.408 114.53 106.354L115.496 105.795C115.58 105.748 115.654 105.685 115.714 105.608C115.773 105.532 115.817 105.445 115.843 105.351C115.868 105.257 115.875 105.159 115.863 105.063C115.851 104.967 115.82 104.874 115.772 104.789C115.73 104.701 115.669 104.622 115.595 104.558C115.521 104.493 115.435 104.445 115.342 104.417C115.248 104.388 115.15 104.379 115.053 104.39C114.956 104.401 114.863 104.433 114.778 104.482ZM117.067 104.762C117.191 104.76 117.314 104.732 117.426 104.678L117.895 104.398C117.979 104.351 118.053 104.287 118.112 104.211C118.172 104.134 118.216 104.047 118.242 103.953C118.268 103.859 118.275 103.762 118.264 103.665C118.252 103.568 118.222 103.475 118.174 103.39C118.127 103.306 118.064 103.231 117.988 103.172C117.912 103.112 117.826 103.068 117.733 103.042C117.64 103.016 117.544 103.009 117.448 103.021C117.353 103.033 117.261 103.065 117.178 103.113L116.708 103.392C116.624 103.439 116.55 103.503 116.491 103.579C116.431 103.656 116.388 103.743 116.362 103.837C116.336 103.93 116.329 104.028 116.341 104.125C116.353 104.221 116.384 104.314 116.432 104.398C116.495 104.511 116.588 104.605 116.7 104.669C116.812 104.733 116.939 104.765 117.067 104.762ZM117.895 109.708L117.426 109.428C117.258 109.333 117.059 109.309 116.873 109.362C116.688 109.414 116.53 109.539 116.435 109.709C116.34 109.879 116.316 110.08 116.367 110.269C116.418 110.457 116.541 110.617 116.708 110.714L117.178 110.993C117.29 111.047 117.412 111.076 117.536 111.077C117.667 111.075 117.795 111.038 117.907 110.969C118.018 110.9 118.11 110.802 118.171 110.686C118.221 110.604 118.253 110.513 118.266 110.418C118.278 110.324 118.272 110.227 118.246 110.135C118.22 110.043 118.175 109.958 118.115 109.884C118.055 109.811 117.98 109.75 117.895 109.708ZM115.493 108.338L114.527 107.779C114.444 107.731 114.352 107.7 114.257 107.688C114.161 107.676 114.064 107.683 113.972 107.709C113.879 107.734 113.792 107.778 113.717 107.838C113.641 107.898 113.578 107.972 113.53 108.057C113.483 108.142 113.453 108.235 113.441 108.332C113.43 108.428 113.437 108.526 113.463 108.62C113.489 108.713 113.533 108.801 113.592 108.877C113.652 108.954 113.726 109.017 113.809 109.065L114.776 109.624C114.888 109.678 115.01 109.707 115.135 109.708C115.265 109.706 115.393 109.669 115.505 109.6C115.616 109.531 115.708 109.433 115.77 109.316C115.82 109.235 115.853 109.144 115.866 109.049C115.879 108.954 115.873 108.857 115.847 108.765C115.82 108.673 115.776 108.587 115.715 108.514C115.654 108.44 115.579 108.381 115.493 108.338ZM108.04 105.767L109.006 106.326C109.118 106.381 109.241 106.409 109.365 106.41C109.496 106.408 109.623 106.371 109.735 106.302C109.847 106.234 109.938 106.136 110 106.019C110.048 105.935 110.079 105.842 110.091 105.745C110.103 105.649 110.096 105.551 110.07 105.457C110.044 105.364 110 105.276 109.941 105.2C109.882 105.124 109.808 105.06 109.724 105.013L108.757 104.454C108.674 104.406 108.582 104.374 108.487 104.362C108.392 104.35 108.295 104.357 108.203 104.383C108.11 104.409 108.024 104.453 107.948 104.514C107.873 104.574 107.81 104.649 107.764 104.734C107.671 104.909 107.648 105.114 107.699 105.306C107.751 105.498 107.872 105.663 108.04 105.767ZM106.853 103.392L106.383 103.113C106.3 103.065 106.208 103.033 106.113 103.021C106.017 103.009 105.92 103.016 105.828 103.042C105.735 103.068 105.648 103.112 105.573 103.172C105.497 103.231 105.434 103.306 105.386 103.39C105.339 103.475 105.309 103.568 105.297 103.665C105.286 103.762 105.293 103.859 105.319 103.953C105.345 104.047 105.389 104.134 105.448 104.211C105.508 104.287 105.582 104.351 105.665 104.398L106.135 104.678C106.247 104.732 106.369 104.76 106.494 104.762C106.624 104.76 106.752 104.722 106.864 104.654C106.976 104.585 107.067 104.487 107.129 104.37C107.176 104.288 107.206 104.197 107.217 104.103C107.229 104.009 107.221 103.913 107.196 103.822C107.17 103.731 107.126 103.646 107.067 103.572C107.008 103.498 106.935 103.437 106.853 103.392Z" fill="#20133A"/>
<mask id="mask1_1_587" style="mask-type:luminance" maskUnits="userSpaceOnUse" x="29" y="99" width="59" height="16">
<path d="M86.7573 108.87C86.8452 108.907 86.9241 108.962 86.9887 109.033C87.0533 109.103 87.102 109.186 87.1316 109.277C87.1612 109.368 87.1709 109.464 87.1601 109.558C87.1493 109.653 87.1183 109.744 87.0691 109.826L85.614 112.321C85.5658 112.403 85.4997 112.474 85.4206 112.528C85.3415 112.582 85.2513 112.618 85.1567 112.632C84.9672 112.664 84.7729 112.619 84.6163 112.508L81.6023 110.076L82.1012 114.108C82.1164 114.303 82.0569 114.496 81.9349 114.649C81.8747 114.721 81.7979 114.778 81.711 114.814C81.6241 114.85 81.5298 114.865 81.436 114.856H78.5467C78.4516 114.859 78.3573 114.84 78.2708 114.8C78.1843 114.76 78.1081 114.701 78.0479 114.628C77.9861 114.557 77.9394 114.475 77.9108 114.385C77.8822 114.296 77.8723 114.202 77.8816 114.108L78.3804 110.055L75.0754 112.508C75.0051 112.568 74.9212 112.611 74.8308 112.633C74.7404 112.655 74.6461 112.655 74.5558 112.632C74.4587 112.617 74.3667 112.579 74.2873 112.521C74.2078 112.463 74.1431 112.387 74.0985 112.3L72.7058 109.805C72.6653 109.721 72.6442 109.629 72.6442 109.535C72.6442 109.442 72.6653 109.349 72.7058 109.265C72.7345 109.178 72.7807 109.099 72.8415 109.031C72.9023 108.963 72.9764 108.908 73.0592 108.87L76.8215 107.311L73.0592 105.648C72.9703 105.62 72.8905 105.569 72.8284 105.499C72.7662 105.43 72.7239 105.345 72.7058 105.253C72.6649 105.165 72.6437 105.07 72.6437 104.973C72.6437 104.876 72.6649 104.78 72.7058 104.692L74.1401 102.26C74.181 102.176 74.2424 102.103 74.3187 102.049C74.3949 101.994 74.4836 101.96 74.5766 101.948C74.7496 101.877 74.944 101.877 75.117 101.948L78.422 104.401L77.9231 100.389C77.9138 100.296 77.9238 100.202 77.9524 100.112C77.981 100.023 78.0276 99.9402 78.0894 99.8696C78.1515 99.7982 78.2282 99.7408 78.3142 99.7014C78.4002 99.662 78.4937 99.6414 78.5883 99.6409H81.4568C81.5526 99.6366 81.6482 99.6537 81.7366 99.691C81.825 99.7283 81.904 99.7848 81.9677 99.8565C82.0315 99.9283 82.0784 100.013 82.1051 100.105C82.1318 100.198 82.1375 100.295 82.122 100.389L81.6023 104.546L85.0112 102.156C85.0856 102.095 85.1731 102.052 85.2668 102.03C85.3606 102.009 85.4581 102.009 85.5517 102.031C85.6421 102.05 85.7276 102.088 85.8027 102.141C85.8779 102.195 85.9411 102.264 85.9882 102.343L87.4016 104.837C87.4425 104.925 87.4637 105.021 87.4637 105.118C87.4637 105.215 87.4425 105.311 87.4016 105.399C87.3651 105.487 87.3114 105.568 87.2436 105.636C87.1758 105.703 87.0953 105.757 87.0067 105.794L83.2652 107.436L86.7573 108.87ZM65.3059 108.87C65.3982 108.902 65.4808 108.957 65.5462 109.03C65.6116 109.103 65.6576 109.191 65.6801 109.286C65.7206 109.37 65.7417 109.462 65.7417 109.556C65.7417 109.65 65.7206 109.742 65.6801 109.826L64.2251 112.321C64.1768 112.403 64.1107 112.474 64.0316 112.528C63.9525 112.582 63.8624 112.618 63.7678 112.632C63.6772 112.649 63.5843 112.646 63.4949 112.624C63.4054 112.603 63.3214 112.563 63.2481 112.508L60.0678 110.076L60.5875 114.108C60.5955 114.296 60.5366 114.48 60.4212 114.628C60.3559 114.701 60.2758 114.759 60.1861 114.798C60.0965 114.838 59.9994 114.858 59.9015 114.856H57.0123C56.9176 114.856 56.8242 114.835 56.7381 114.796C56.6521 114.757 56.5755 114.699 56.5134 114.628C56.4516 114.557 56.4049 114.475 56.3763 114.385C56.3477 114.296 56.3378 114.202 56.3471 114.108L56.846 110.055L53.541 112.508C53.4666 112.569 53.3791 112.612 53.2854 112.633C53.1916 112.655 53.0941 112.655 53.0005 112.632C52.9066 112.615 52.8181 112.576 52.7422 112.519C52.6663 112.461 52.6053 112.386 52.564 112.3L51.1505 109.805C51.11 109.721 51.089 109.629 51.089 109.535C51.089 109.442 51.11 109.349 51.1505 109.265C51.1803 109.176 51.2293 109.094 51.2939 109.026C51.3585 108.958 51.4373 108.905 51.5247 108.87L55.287 107.311L51.5247 105.648C51.4357 105.616 51.3555 105.564 51.2905 105.495C51.2255 105.427 51.1776 105.344 51.1505 105.253C51.1096 105.165 51.0885 105.07 51.0885 104.973C51.0885 104.876 51.1096 104.78 51.1505 104.692L52.5848 102.26C52.6331 102.177 52.6992 102.106 52.7783 102.053C52.8574 101.999 52.9475 101.963 53.0421 101.948C53.2151 101.877 53.4095 101.877 53.5825 101.948L56.8252 104.484L56.3263 100.472C56.3153 100.376 56.3244 100.278 56.353 100.185C56.3817 100.092 56.4292 100.006 56.4926 99.9319C56.5547 99.8605 56.6313 99.8032 56.7174 99.7638C56.8034 99.7244 56.8968 99.7037 56.9915 99.7033H59.86C59.9579 99.7021 60.0549 99.7219 60.1446 99.7613C60.2342 99.8008 60.3143 99.859 60.3796 99.9319C60.443 100.006 60.4905 100.092 60.5192 100.185C60.5478 100.278 60.5569 100.376 60.5459 100.472L60.0678 104.588L63.3728 102.156C63.4432 102.095 63.5271 102.052 63.6175 102.031C63.7079 102.009 63.8022 102.009 63.8925 102.031C63.9881 102.043 64.0795 102.077 64.159 102.132C64.2386 102.186 64.304 102.258 64.3498 102.343L65.7424 104.837C65.7833 104.925 65.8045 105.021 65.8045 105.118C65.8045 105.215 65.7833 105.311 65.7424 105.399C65.7103 105.487 65.6605 105.567 65.5962 105.635C65.5319 105.703 65.4543 105.757 65.3683 105.794L61.6268 107.436L65.3059 108.87ZM43.8338 108.87C44.003 108.955 44.1348 109.1 44.2038 109.277C44.2729 109.453 44.2743 109.649 44.208 109.826L42.7321 112.321C42.6912 112.405 42.6298 112.477 42.5536 112.532C42.4773 112.586 42.3886 112.621 42.2956 112.632C42.2018 112.649 42.1055 112.647 42.0127 112.625C41.9198 112.604 41.8322 112.564 41.7552 112.508L38.5957 110.076L39.0946 114.108C39.1039 114.202 39.0939 114.296 39.0653 114.385C39.0367 114.475 38.9901 114.557 38.9283 114.628C38.8681 114.701 38.7918 114.76 38.7053 114.8C38.6189 114.84 38.5245 114.859 38.4294 114.856H35.4778C35.3831 114.856 35.2897 114.835 35.2037 114.796C35.1176 114.757 35.041 114.699 34.9789 114.628C34.9159 114.558 34.87 114.475 34.8448 114.385C34.8195 114.295 34.8156 114.2 34.8334 114.108L35.3323 110.055L32.0273 112.508C31.9529 112.569 31.8654 112.612 31.7717 112.633C31.6779 112.655 31.5804 112.655 31.4868 112.632C31.3941 112.612 31.3069 112.572 31.2314 112.515C31.1559 112.457 31.0941 112.384 31.0503 112.3L29.6369 109.805C29.575 109.631 29.575 109.44 29.6369 109.265C29.6666 109.176 29.7156 109.094 29.7802 109.026C29.8448 108.958 29.9236 108.905 30.011 108.87L33.7733 107.311L30.011 105.648C29.9221 105.616 29.8418 105.564 29.7768 105.495C29.7119 105.427 29.6639 105.344 29.6369 105.253C29.596 105.165 29.5748 105.07 29.5748 104.973C29.5748 104.876 29.596 104.78 29.6369 104.692L31.0711 102.26C31.1732 102.103 31.3334 101.993 31.5166 101.954C31.6997 101.915 31.8909 101.95 32.0481 102.052L35.3738 104.588L34.8542 100.576C34.8432 100.48 34.8523 100.382 34.8809 100.289C34.9095 100.196 34.957 100.11 35.0205 100.036C35.0826 99.9645 35.1592 99.9071 35.2452 99.8677C35.3313 99.8283 35.4247 99.8077 35.5193 99.8072H38.4086C38.5033 99.8077 38.5967 99.8283 38.6827 99.8677C38.7688 99.9071 38.8454 99.9645 38.9075 100.036C38.9709 100.11 39.0184 100.196 39.047 100.289C39.0757 100.382 39.0848 100.48 39.0738 100.576L38.5126 104.588L41.8176 102.156C41.8958 102.095 41.9869 102.052 42.084 102.03C42.1811 102.008 42.2819 102.009 42.3788 102.031C42.5555 102.083 42.7094 102.193 42.8153 102.343L44.208 104.837C44.2489 104.925 44.2701 105.021 44.2701 105.118C44.2701 105.215 44.2489 105.311 44.208 105.399C44.1758 105.487 44.1261 105.567 44.0617 105.635C43.9974 105.703 43.9198 105.757 43.8338 105.794L40.0715 107.477L43.8338 108.87Z" fill="white"/>
</mask>
<g mask="url(#mask1_1_587)">
<path d="M24.1494 94.3197H92.7853V120.302H24.1494V94.3197Z" fill="#F770FF"/>
</g>
</g>
<path d="M98.4889 38.5479C97.3879 35.8975 95.1561 33.0361 93.4043 32.1322C94.8302 34.9282 95.655 37.7326 95.9704 39.8251C95.9704 39.8251 95.9704 39.8399 95.9756 39.8673C93.11 32.7228 88.25 29.8414 84.2813 23.5692C84.0798 23.2528 83.8794 22.9364 83.6832 22.5978C83.5725 22.4069 83.4829 22.234 83.4048 22.0705C83.2403 21.7534 83.1133 21.4182 83.0262 21.0717C83.0269 21.0553 83.0214 21.0391 83.0109 21.0265C83.0004 21.0138 82.9855 21.0055 82.9692 21.0032C82.9537 20.9989 82.9373 20.9989 82.9218 21.0032C82.9176 21.0051 82.9137 21.0076 82.9102 21.0105C82.9038 21.0105 82.8975 21.0179 82.8912 21.02L82.9017 21.0063C76.5346 24.7357 74.3746 31.6344 74.1763 35.0864C71.632 35.2604 69.1991 36.1973 67.1953 37.7748C66.9859 37.5977 66.7669 37.4322 66.5393 37.2791C65.9618 35.2575 65.9374 33.1181 66.4686 31.0839C63.8646 32.2704 61.8396 34.1425 60.3673 35.7994H60.3557C59.3505 34.5264 59.4212 30.3277 59.4782 29.4512C59.4666 29.3964 58.7293 29.8341 58.6344 29.9005C57.7475 30.5332 56.9184 31.2434 56.157 32.0225C55.2904 32.9011 54.4988 33.8504 53.7902 34.8607C52.1601 37.1709 51.004 39.7813 50.3889 42.5409C50.3773 42.5958 50.3667 42.6527 50.3551 42.7086C50.3077 42.9312 50.1357 44.0481 50.1052 44.2907V44.3466C49.881 45.5006 49.7415 46.6695 49.6875 47.8439V47.9736C49.6875 61.9714 61.0359 73.3199 75.0338 73.3199C87.5708 73.3199 97.9795 64.2179 100.018 52.262C100.06 51.9382 100.095 51.6112 100.133 51.2843C100.637 46.9369 100.077 42.368 98.4889 38.5479ZM69.2741 58.3887C69.3922 58.4446 69.504 58.5068 69.6253 58.5616L69.6422 58.5722C69.5209 58.5131 69.3975 58.452 69.2752 58.3887H69.2741ZM95.9777 39.8789V39.8546V39.8821V39.8789Z" fill="url(#paint1_linear_1_587)"/>
<path d="M98.489 38.5479C97.3879 35.8975 95.1561 33.0361 93.4043 32.1322C94.8302 34.9282 95.655 37.7326 95.9704 39.8251V39.8768C98.3624 46.361 97.0588 52.9549 95.1815 56.9838C92.2768 63.217 85.2452 69.6063 74.2375 69.2952C62.3543 68.9577 51.8781 60.1289 49.9217 48.5748C49.5652 46.7513 49.9217 45.8263 50.1009 44.3466C49.8826 45.4867 49.7993 45.8168 49.6907 47.8439V47.9736C49.6907 61.9715 61.0391 73.3199 75.0369 73.3199C87.574 73.3199 97.9827 64.2179 100.021 52.262C100.064 51.9382 100.098 51.6113 100.136 51.2843C100.637 46.9369 100.077 42.368 98.489 38.5479Z" fill="url(#paint2_radial_1_587)"/>
<path d="M98.489 38.5479C97.3879 35.8975 95.1561 33.0361 93.4043 32.1322C94.8302 34.9282 95.655 37.7326 95.9704 39.8251V39.8768C98.3624 46.361 97.0588 52.9549 95.1815 56.9838C92.2768 63.217 85.2452 69.6063 74.2375 69.2952C62.3543 68.9577 51.8781 60.1289 49.9217 48.5748C49.5652 46.7513 49.9217 45.8263 50.1009 44.3466C49.8826 45.4867 49.7993 45.8168 49.6907 47.8439V47.9736C49.6907 61.9715 61.0391 73.3199 75.0369 73.3199C87.574 73.3199 97.9827 64.2179 100.021 52.262C100.064 51.9382 100.098 51.6113 100.136 51.2843C100.637 46.9369 100.077 42.368 98.489 38.5479Z" fill="url(#paint3_radial_1_587)"/>
<path d="M86.1712 41.5263C86.2271 41.5654 86.2767 41.6044 86.3295 41.6434C85.6933 40.5139 84.9008 39.4799 83.9754 38.5722C76.0969 30.6936 81.9103 21.4883 82.8901 21.02L82.9007 21.0063C76.5335 24.7357 74.3735 31.6344 74.1752 35.0864C74.4705 35.0664 74.7648 35.0411 75.0654 35.0411C79.8168 35.0411 83.9554 37.6546 86.1712 41.5263Z" fill="url(#paint4_radial_1_587)"/>
<path d="M75.0812 43.0999C75.0401 43.7327 72.8126 45.9054 72.0332 45.9054C64.8254 45.9054 63.6558 50.2655 63.6558 50.2655C63.9722 53.9379 66.5309 56.9617 69.6264 58.5616C69.7677 58.6344 69.9101 58.6998 70.0483 58.7652C70.2961 58.8707 70.545 58.9761 70.7929 59.07C71.8544 59.4444 72.9661 59.6577 74.0909 59.7028C86.7239 60.2955 89.1729 44.5976 80.0551 40.0392C82.3891 39.6332 84.8128 40.5729 86.166 41.5232C83.9511 37.6514 79.8115 35.0379 75.0601 35.0379C74.7595 35.0379 74.4653 35.0632 74.17 35.0832C71.6275 35.2594 69.197 36.1973 67.1953 37.7748C67.5824 38.1028 68.019 38.5395 68.9377 39.4444C70.661 41.1445 75.0717 42.8943 75.0812 43.0999Z" fill="url(#paint5_radial_1_587)"/>
<path d="M75.0812 43.0999C75.0401 43.7327 72.8126 45.9054 72.0332 45.9054C64.8254 45.9054 63.6558 50.2655 63.6558 50.2655C63.9722 53.9379 66.5309 56.9617 69.6264 58.5616C69.7677 58.6344 69.9101 58.6998 70.0483 58.7652C70.2961 58.8707 70.545 58.9761 70.7929 59.07C71.8544 59.4444 72.9661 59.6577 74.0909 59.7028C86.7239 60.2955 89.1729 44.5976 80.0551 40.0392C82.3891 39.6332 84.8128 40.5729 86.166 41.5232C83.9511 37.6514 79.8115 35.0379 75.0601 35.0379C74.7595 35.0379 74.4653 35.0632 74.17 35.0832C71.6275 35.2594 69.197 36.1973 67.1953 37.7748C67.5824 38.1028 68.019 38.5395 68.9377 39.4444C70.661 41.1445 75.0717 42.8943 75.0812 43.0999Z" fill="url(#paint6_radial_1_587)"/>
<path d="M66.0172 36.9321C66.2229 37.065 66.3916 37.1768 66.5446 37.2791C65.9671 35.2575 65.9427 33.1181 66.4739 31.0839C63.8699 32.2704 61.8449 34.1425 60.3725 35.7994C60.4917 35.7962 64.1683 35.7298 66.0172 36.9321Z" fill="url(#paint7_radial_1_587)"/>
<path d="M49.9216 48.5748C51.8781 60.1289 62.3543 68.9577 74.2459 69.2952C85.2537 69.6063 92.2811 63.217 95.1899 56.9838C97.0672 52.9539 98.3708 46.361 95.9788 39.8768V39.8283C95.9788 39.8346 95.9788 39.8431 95.9841 39.8705C96.8827 45.7419 93.8968 51.4298 89.2288 55.2763C89.224 55.2871 89.2194 55.298 89.2151 55.309C80.1184 62.7161 71.4141 59.7777 69.6517 58.5785C69.5293 58.5195 69.4059 58.4583 69.2836 58.395C63.9796 55.8638 61.789 51.028 62.2583 46.8841C57.7812 46.8841 56.254 43.1063 56.254 43.1063C56.254 43.1063 60.2745 40.2396 65.5732 42.7329C70.4807 45.0427 75.0897 43.1073 75.0897 43.1063C75.0802 42.9006 70.6695 41.1456 68.9493 39.4507C68.0306 38.5458 67.594 38.1091 67.2069 37.7811C66.9975 37.604 66.7785 37.4385 66.5509 37.2854C66.4001 37.18 66.2345 37.0745 66.0236 36.9384C64.1747 35.7361 60.498 35.8025 60.3768 35.8057H60.3652C59.36 34.5327 59.4307 30.334 59.4877 29.4575C59.4761 29.4027 58.7388 29.8404 58.6439 29.9068C57.757 30.5396 56.9279 31.2497 56.1664 32.0289C55.2999 32.9074 54.5083 33.8568 53.7997 34.867C52.1696 37.1772 51.0135 39.7876 50.3984 42.5473C50.3783 42.5958 49.4766 46.5329 49.9216 48.5748Z" fill="url(#paint8_radial_1_587)"/>
<path d="M83.9754 38.5721C84.9008 39.4799 85.6933 40.5139 86.3295 41.6434C86.4613 41.7424 86.588 41.848 86.7091 41.9598C92.4551 47.2501 89.4492 54.7395 89.2204 55.2773C93.8884 51.4309 96.8742 45.743 95.9756 39.8715C93.11 32.7228 88.25 29.8414 84.2813 23.5692C84.0798 23.2528 83.8794 22.9364 83.6832 22.5978C83.5725 22.4069 83.4829 22.234 83.4048 22.0705C83.2403 21.7534 83.1133 21.4182 83.0262 21.0717C83.0269 21.0553 83.0214 21.0391 83.0109 21.0265C83.0004 21.0138 82.9855 21.0055 82.9692 21.0032C82.9537 20.9989 82.9373 20.9989 82.9218 21.0032C82.9176 21.0051 82.9137 21.0076 82.9102 21.0105C82.9038 21.0105 82.8975 21.0179 82.8912 21.02C81.9103 21.4883 76.0969 30.6936 83.9754 38.5721Z" fill="url(#paint9_radial_1_587)"/>
<path d="M86.707 41.9545C86.5859 41.8427 86.4591 41.7371 86.3273 41.6381C86.2756 41.5991 86.2219 41.5601 86.1691 41.521C84.816 40.5718 82.3923 39.631 80.0583 40.0371C89.175 44.5955 86.727 60.2934 74.094 59.7007C72.9692 59.6556 71.8576 59.4423 70.796 59.0679C70.5481 58.9751 70.2992 58.8728 70.0514 58.7631C69.908 58.6977 69.7656 58.6323 69.6295 58.5595L69.6464 58.5701C71.4088 59.7724 80.1131 62.7108 89.2098 55.3005C89.2098 55.3005 89.2151 55.2868 89.2235 55.2678C89.4492 54.7394 92.4551 47.2501 86.707 41.9545Z" fill="url(#paint10_radial_1_587)"/>
<path d="M63.6558 50.2655C63.6558 50.2655 64.8254 45.9054 72.0332 45.9054C72.8126 45.9054 75.0401 43.7306 75.0812 43.0999C75.1223 42.4692 70.4722 45.0363 65.5648 42.7266C60.266 40.2333 56.2455 43.0999 56.2455 43.0999C56.2455 43.0999 57.7727 46.8778 62.2499 46.8778C61.7805 51.0217 63.9711 55.8532 69.2752 58.3887C69.3933 58.4446 69.5051 58.5068 69.6264 58.5616C66.5309 56.9648 63.9753 53.9379 63.6558 50.2655Z" fill="url(#paint11_radial_1_587)"/>
<path d="M98.4889 38.5479C97.3879 35.8975 95.1561 33.0361 93.4043 32.1322C94.8302 34.9282 95.655 37.7326 95.9704 39.8251C95.9704 39.8251 95.9704 39.8399 95.9756 39.8673C93.11 32.7228 88.25 29.8414 84.2813 23.5692C84.0798 23.2528 83.8794 22.9364 83.6832 22.5978C83.5725 22.4069 83.4829 22.234 83.4048 22.0705C83.2403 21.7534 83.1133 21.4182 83.0262 21.0717C83.0269 21.0553 83.0214 21.0391 83.0109 21.0265C83.0004 21.0138 82.9855 21.0055 82.9692 21.0032C82.9537 20.9989 82.9373 20.9989 82.9218 21.0032C82.9176 21.0051 82.9137 21.0076 82.9102 21.0105C82.9038 21.0105 82.8975 21.0179 82.8912 21.02L82.9017 21.0063C76.5346 24.7357 74.3746 31.6344 74.1763 35.0864C74.4716 35.0664 74.7659 35.041 75.0664 35.041C79.8178 35.041 83.9564 37.6546 86.1723 41.5263C84.8191 40.5771 82.3955 39.6363 80.0614 40.0424C89.1782 44.6007 86.7302 60.2987 74.0972 59.706C72.9724 59.6609 71.8608 59.4476 70.7992 59.0732C70.5513 58.9803 70.3024 58.878 70.0546 58.7684C69.9111 58.703 69.7688 58.6376 69.6327 58.5648L69.6496 58.5753C69.5272 58.5163 69.4038 58.4551 69.2815 58.3918C69.3996 58.4477 69.5114 58.51 69.6327 58.5648C66.5309 56.9648 63.9754 53.9379 63.6558 50.2655C63.6558 50.2655 64.8254 45.9054 72.0332 45.9054C72.8126 45.9054 75.0401 43.7306 75.0812 43.0999C75.0717 42.8943 70.661 41.1393 68.9408 39.4444C68.0222 38.5394 67.5855 38.1028 67.1985 37.7748C66.989 37.5977 66.77 37.4322 66.5425 37.2791C65.965 35.2575 65.9406 33.1181 66.4718 31.0839C63.8678 32.2704 61.8428 34.1425 60.3704 35.7994H60.3588C59.3537 34.5264 59.4244 30.3277 59.4813 29.4512C59.4697 29.3964 58.7325 29.8341 58.6376 29.9005C57.7507 30.5332 56.9216 31.2434 56.1601 32.0225C55.2936 32.9011 54.5019 33.8504 53.7934 34.8607C52.1633 37.1709 51.0072 39.7813 50.392 42.5409C50.3804 42.5958 50.3699 42.6527 50.3583 42.7086C50.3108 42.9312 50.0957 44.0639 50.0661 44.3065C50.0661 44.3255 50.0661 44.2885 50.0661 44.3065C49.8687 45.4769 49.7422 46.6582 49.6875 47.8439V47.9736C49.6875 61.9714 61.0359 73.3199 75.0338 73.3199C87.5708 73.3199 97.9795 64.2179 100.018 52.262C100.06 51.9382 100.095 51.6112 100.133 51.2843C100.637 46.9369 100.077 42.368 98.4889 38.5479ZM95.9746 39.8494V39.8768V39.8494Z" fill="url(#paint12_linear_1_587)"/>
<defs>
<linearGradient id="paint0_linear_1_587" x1="101.911" y1="107.091" x2="121.293" y2="107.091" gradientUnits="userSpaceOnUse">
<stop stop-color="#9059FF"/>
<stop offset="1" stop-color="#F770FF"/>
</linearGradient>
<linearGradient id="paint1_linear_1_587" x1="95.134" y1="29.1053" x2="53.0562" y2="69.7023" gradientUnits="userSpaceOnUse">
<stop offset="0.05" stop-color="#FFF44F"/>
<stop offset="0.11" stop-color="#FFE847"/>
<stop offset="0.22" stop-color="#FFC830"/>
<stop offset="0.37" stop-color="#FF980E"/>
<stop offset="0.4" stop-color="#FF8B16"/>
<stop offset="0.46" stop-color="#FF672A"/>
<stop offset="0.53" stop-color="#FF3647"/>
<stop offset="0.7" stop-color="#E31587"/>
</linearGradient>
<radialGradient id="paint2_radial_1_587" cx="0" cy="0" r="1" gradientUnits="userSpaceOnUse" gradientTransform="translate(93.1892 26.8071) scale(52.8409 52.8409)">
<stop offset="0.13" stop-color="#FFBD4F"/>
<stop offset="0.19" stop-color="#FFAC31"/>
<stop offset="0.25" stop-color="#FF9D17"/>
<stop offset="0.28" stop-color="#FF980E"/>
<stop offset="0.4" stop-color="#FF563B"/>
<stop offset="0.47" stop-color="#FF3750"/>
<stop offset="0.71" stop-color="#F5156C"/>
<stop offset="0.78" stop-color="#EB0878"/>
<stop offset="0.86" stop-color="#E50080"/>
</radialGradient>
<radialGradient id="paint3_radial_1_587" cx="0" cy="0" r="1" gradientUnits="userSpaceOnUse" gradientTransform="translate(73.881 48.4092) scale(52.8409 52.8409)">
<stop offset="0.3" stop-color="#960E18"/>
<stop offset="0.35" stop-color="#B11927" stop-opacity="0.74"/>
<stop offset="0.43" stop-color="#DB293D" stop-opacity="0.34"/>
<stop offset="0.5" stop-color="#F5334B" stop-opacity="0.09"/>
<stop offset="0.53" stop-color="#FF3750" stop-opacity="0"/>
</radialGradient>
<radialGradient id="paint4_radial_1_587" cx="0" cy="0" r="1" gradientUnits="userSpaceOnUse" gradientTransform="translate(80.2523 14.8153) scale(38.2809 38.2809)">
<stop offset="0.13" stop-color="#FFF44F"/>
<stop offset="0.25" stop-color="#FFDC3E"/>
<stop offset="0.51" stop-color="#FF9D12"/>
<stop offset="0.53" stop-color="#FF980E"/>
</radialGradient>
<radialGradient id="paint5_radial_1_587" cx="0" cy="0" r="1" gradientUnits="userSpaceOnUse" gradientTransform="translate(68.037 62.2119) scale(25.1596 25.1596)">
<stop offset="0.35" stop-color="#3A8EE6"/>
<stop offset="0.47" stop-color="#5C79F0"/>
<stop offset="0.67" stop-color="#9059FF"/>
<stop offset="1" stop-color="#C139E6"/>
</radialGradient>
<radialGradient id="paint6_radial_1_587" cx="0" cy="0" r="1" gradientUnits="userSpaceOnUse" gradientTransform="translate(74.6399 42.1292) rotate(-13.8972) scale(13.3297 15.6592)">
<stop offset="0.21" stop-color="#9059FF" stop-opacity="0"/>
<stop offset="0.28" stop-color="#8C4FF3" stop-opacity="0.06"/>
<stop offset="0.75" stop-color="#7716A8" stop-opacity="0.45"/>
<stop offset="0.97" stop-color="#6E008B" stop-opacity="0.6"/>
</radialGradient>
<radialGradient id="paint7_radial_1_587" cx="0" cy="0" r="1" gradientUnits="userSpaceOnUse" gradientTransform="translate(73.2133 24.645) scale(18.1005 18.1005)">
<stop stop-color="#FFE226"/>
<stop offset="0.12" stop-color="#FFDB27"/>
<stop offset="0.3" stop-color="#FFC82A"/>
<stop offset="0.5" stop-color="#FFA930"/>
<stop offset="0.73" stop-color="#FF7E37"/>
<stop offset="0.79" stop-color="#FF7139"/>
</radialGradient>
<radialGradient id="paint8_radial_1_587" cx="0" cy="0" r="1" gradientUnits="userSpaceOnUse" gradientTransform="translate(87.4411 13.1647) scale(77.2253 77.2253)">
<stop offset="0.11" stop-color="#FFF44F"/>
<stop offset="0.46" stop-color="#FF980E"/>
<stop offset="0.62" stop-color="#FF5634"/>
<stop offset="0.72" stop-color="#FF3647"/>
<stop offset="0.9" stop-color="#E31587"/>
</radialGradient>
<radialGradient id="paint9_radial_1_587" cx="0" cy="0" r="1" gradientUnits="userSpaceOnUse" gradientTransform="translate(79.9764 21.6021) rotate(84.2321) scale(56.2896 36.9825)">
<stop stop-color="#FFF44F"/>
<stop offset="0.06" stop-color="#FFE847"/>
<stop offset="0.17" stop-color="#FFC830"/>
<stop offset="0.3" stop-color="#FF980E"/>
<stop offset="0.36" stop-color="#FF8B16"/>
<stop offset="0.45" stop-color="#FF672A"/>
<stop offset="0.57" stop-color="#FF3647"/>
<stop offset="0.74" stop-color="#E31587"/>
</radialGradient>
<radialGradient id="paint10_radial_1_587" cx="0" cy="0" r="1" gradientUnits="userSpaceOnUse" gradientTransform="translate(72.7873 31.3486) scale(48.2119 48.2119)">
<stop offset="0.14" stop-color="#FFF44F"/>
<stop offset="0.48" stop-color="#FF980E"/>
<stop offset="0.59" stop-color="#FF5634"/>
<stop offset="0.66" stop-color="#FF3647"/>
<stop offset="0.9" stop-color="#E31587"/>
</radialGradient>
<radialGradient id="paint11_radial_1_587" cx="0" cy="0" r="1" gradientUnits="userSpaceOnUse" gradientTransform="translate(85.5142 34.1709) scale(52.7681 52.7681)">
<stop offset="0.09" stop-color="#FFF44F"/>
<stop offset="0.23" stop-color="#FFE141"/>
<stop offset="0.51" stop-color="#FFAF1E"/>
<stop offset="0.63" stop-color="#FF980E"/>
</radialGradient>
<linearGradient id="paint12_linear_1_587" x1="94.6277" y1="28.888" x2="58.8253" y2="64.6915" gradientUnits="userSpaceOnUse">
<stop offset="0.17" stop-color="#FFF44F" stop-opacity="0.8"/>
<stop offset="0.27" stop-color="#FFF44F" stop-opacity="0.63"/>
<stop offset="0.49" stop-color="#FFF44F" stop-opacity="0.22"/>
<stop offset="0.6" stop-color="#FFF44F" stop-opacity="0"/>
</linearGradient>
</defs>
</svg>
