<svg width="260" height="160" viewBox="0 0 260 160" fill="none" xmlns="http://www.w3.org/2000/svg">
<rect width="260" height="160" rx="8" fill="#F5F7F9"/>
<path d="M143.72 63.0687L131.935 74.7724L121.422 64.4005L120.575 63.5732L119.223 65.0462L88.5509 97.3727C89.1359 98.0044 89.8442 98.5093 90.6321 98.8564C91.4199 99.2035 92.2706 99.3853 93.1315 99.3906H170.739C171.6 99.3841 172.45 99.2018 173.238 98.8548C174.026 98.5078 174.734 98.0034 175.32 97.3727L145.052 64.6629L143.72 63.0687Z" fill="#7542E5"/>
<path d="M120.836 64.9249L88.4088 34.8181C87.2416 36.0218 86.5714 37.6215 86.5322 39.2978V92.8322C86.5476 93.6855 86.7341 94.527 87.0807 95.3069C87.4274 96.0868 87.927 96.7892 88.5501 97.3724L119.585 66.3979L120.836 64.9249ZM175.319 34.6567L143.033 64.5213L144.486 65.9338L175.319 97.3724C175.939 96.7908 176.436 96.0915 176.783 95.3155C177.129 94.5394 177.318 93.702 177.337 92.8523V39.5197C177.303 38.8228 177.139 38.1384 176.853 37.5019C176.591 36.4329 176.063 35.4473 175.319 34.6365V34.6567Z" fill="#9059FF"/>
<path d="M120.635 66.0549L121.463 66.8823L132.016 77.1936L143.821 65.5505L175.32 34.6365C174.761 34.0609 174.093 33.6021 173.355 33.2868C172.617 32.9716 171.824 32.8062 171.022 32.8002H93.1113C92.2515 32.7934 91.4001 32.9698 90.6137 33.3178C89.8274 33.6657 89.1242 34.1772 88.5509 34.8181L120.635 66.0549Z" fill="#C689FF"/>
<path d="M212.806 82.3656L212.447 82.5452L210.921 81.0189L211.37 80.7495L212.806 82.3656Z" fill="#FCEE21"/>
<path d="M221.694 121.242L220.707 120.074L222.861 119.625L223.849 120.882L221.694 121.242Z" fill="#ED1E79"/>
<path d="M242.433 52.6474L242.882 51.57L253.206 50.0437L252.757 51.1211L242.433 52.6474Z" fill="#39B54A"/>
<path d="M186.143 90.9847L188.387 91.8826L186.322 96.1024L184.078 95.1148L186.143 90.9847Z" fill="#FBB03B"/>
<path d="M99.4175 117.381L100.136 117.022L101.393 125.821L100.674 126.269L99.4175 117.381Z" fill="#39B54A"/>
<path d="M195.21 104.362L196.018 93.5885L196.736 93.4089L195.839 104.183L195.21 104.362Z" fill="#FBB03B"/>
<path d="M136.944 44.1182L137.842 42.6816L138.471 46.9014L137.663 48.338L136.944 44.1182Z" fill="#00FFFF"/>
<path d="M132.815 88.3811L128.505 86.9445L129.313 85.7773L133.623 87.2139L132.815 88.3811Z" fill="#ED1E79"/>
<path d="M229.325 50.3131L233.814 51.1212L233.365 55.7899L228.787 55.0716L229.325 50.3131Z" fill="#00FFFF"/>
<path d="M125.902 137.941L132.725 144.495L128.954 146.291L122.041 139.647L125.902 137.941Z" fill="#00FFFF"/>
<path d="M197.365 100.861L195.928 106.068L194.582 104.632L196.018 99.4243L197.365 100.861Z" fill="#FCEE21"/>
<path d="M123.478 53.5454L122.58 57.9447L119.438 56.7775L120.336 52.3782L123.478 53.5454Z" fill="#FBB03B"/>
<path d="M97.8015 73.0282L95.7366 69.5267L98.4299 68.0004L100.495 71.5917L97.8015 73.0282Z" fill="#ED1C24"/>
<path d="M142.421 44.3875L141.703 44.8364L140.625 43.1306L141.254 42.6816L142.421 44.3875Z" fill="#FBB03B"/>
<path d="M222.592 109.57L221.874 113.52L219.36 112.443L220.078 108.582L222.592 109.57Z" fill="#FBB03B"/>
<path d="M139.368 53.4556L137.124 55.1614L133.084 56.2388L135.328 54.533L139.368 53.4556Z" fill="#00FFFF"/>
<path d="M92.6842 7.30707L91.4273 8.65381L89.9908 5.78076" fill="#00FFFF"/>
<path d="M199.699 118.279L200.776 116.932L202.123 116.573L200.956 117.92L199.699 118.279Z" fill="#00FFFF"/>
<path d="M212.358 50.5825L209.215 48.8766L210.382 48.0686L213.614 49.7745L212.358 50.5825Z" fill="#ED1C24"/>
<path d="M52.6434 64.1397L51.207 70.8734L48.6932 70.4245L50.1297 63.6908L52.6434 64.1397Z" fill="#00FFFF"/>
<path d="M166.481 122.947L164.147 123.576L160.107 115.226L162.351 114.598L166.481 122.947Z" fill="#FBB03B"/>
<path d="M177.254 58.3936L174.741 56.1491L175.19 51.8395L177.703 54.084L177.254 58.3936Z" fill="#00FFFF"/>
<path d="M134.52 130.489L133.982 136.415L127.787 132.285L128.236 126.359L134.52 130.489Z" fill="#39B54A"/>
<path d="M187.938 40.9757L189.554 36.1274L197.724 38.8209L196.108 43.6692L187.938 40.9757Z" fill="#39B54A"/>
<path d="M169.893 132.554L167.648 127.257L173.394 127.975L175.639 133.183L169.893 132.554Z" fill="#FBB03B"/>
<path d="M252.578 144.585L252.129 143.777L255.9 139.917L256.348 140.635L252.578 144.585Z" fill="#ED1C24"/>
<path d="M152.835 23.7373L150.052 25.533L151.848 21.9417L154.631 20.146L152.835 23.7373Z" fill="#00FFFF"/>
<path d="M24.4533 32.626L22.568 31.9975L22.6578 31.1895L24.5431 31.8179L24.4533 32.626Z" fill="#ED1C24"/>
<path d="M47.7955 120.074L44.5635 118.728L44.2942 112.892L47.5262 114.239L47.7955 120.074Z" fill="#ED1C24"/>
<path d="M184.975 56.149L185.873 57.4958L186.502 62.3441L185.514 60.9973L184.975 56.149Z" fill="#FBB03B"/>
<path d="M60.2746 49.6846L58.2995 48.8765L58.0302 42.502L60.0053 43.31L60.2746 49.6846Z" fill="#FBB03B"/>
<path d="M234.802 42.5021V41.9634L238.752 44.5671V45.1058L234.802 42.5021Z" fill="#ED1C24"/>
<path d="M96.2753 103.554L96.0957 104.632L95.1082 104.452L95.2877 103.375L96.2753 103.554Z" fill="#ED1C24"/>
<path d="M200.597 108.223L197.455 109.66L194.402 103.465L197.544 102.028L200.597 108.223Z" fill="#39B54A"/>
<path d="M166.93 18.2606L165.673 17.4525L166.302 15.4773L167.559 16.3751L166.93 18.2606Z" fill="#FBB03B"/>
<path d="M39.2666 76.7991L38.3688 77.5173L32.2639 77.248L33.1617 76.4399L39.2666 76.7991Z" fill="#39B54A"/>
<path d="M54.3493 102.028L50.7582 100.412L51.1173 98.7061L54.7084 100.232L54.3493 102.028Z" fill="#FBB03B"/>
<path d="M190.452 44.1182L191.26 44.8364L190.452 46.5423L189.644 45.7343L190.452 44.1182Z" fill="#39B54A"/>
<path d="M92.3251 88.2913L96.4548 86.0468L97.4424 87.1241L93.3126 89.3687L92.3251 88.2913Z" fill="#FBB03B"/>
<path d="M213.794 45.9138L214.063 46.8116H213.614L213.345 45.9138H213.794Z" fill="#39B54A"/>
<path d="M97.3527 23.019L100.854 28.3162L99.0584 29.663L95.5571 24.3658L97.3527 23.019Z" fill="#39B54A"/>
<path d="M249.346 22.1213L247.281 19.5176L248.538 15.0284L250.513 17.6321L249.346 22.1213Z" fill="#FCEE21"/>
<path d="M11.4356 31.3689L13.3209 33.7033L9.01161 31.0996L7.12628 28.855L11.4356 31.3689Z" fill="#ED1C24"/>
<path d="M198.801 37.8334L196.377 39.0903L194.761 33.7932L197.095 32.626L198.801 37.8334Z" fill="#FBB03B"/>
<path d="M45.8204 78.2355L45.2817 77.5173L46.808 75.991L47.3466 76.7092L45.8204 78.2355Z" fill="#ED1C24"/>
<path d="M92.5944 64.9478L92.8638 74.0158L86.8487 74.1954L86.5793 65.2171L92.5944 64.9478Z" fill="#ED1C24"/>
<path d="M40.8826 76.3502L44.2043 74.1056L45.1919 75.6319L41.8701 77.8765L40.8826 76.3502Z" fill="#ED1E79"/>
<path d="M117.193 22.6599L116.745 22.4804L116.924 20.146L117.463 20.4153L117.193 22.6599Z" fill="#FCEE21"/>
<path d="M96.3651 8.56409L98.6095 9.5517L97.2629 13.3226L95.0184 12.335L96.3651 8.56409Z" fill="#FBB03B"/>
<path d="M118.181 107.595L117.014 109.121L116.385 108.852L117.463 107.325L118.181 107.595Z" fill="#FCEE21"/>
<path d="M118.001 57.3162L122.76 54.084L125.543 57.6753L120.695 60.9075L118.001 57.3162Z" fill="#39B54A"/>
<path d="M202.033 102.656L202.572 103.644L199.43 105.26L198.801 104.273L202.033 102.656Z" fill="#FBB03B"/>
<path d="M145.473 106.517L146.102 105.26L146.91 105.081L146.371 106.248L145.473 106.517Z" fill="#39B54A"/>
<path d="M168.187 27.1491L161.903 29.4835L163.698 26.8798L170.072 24.5454L168.187 27.1491Z" fill="#FBB03B"/>
<path d="M64.3145 56.957L64.0451 63.9601L62.3394 63.8703L62.6087 56.957H64.3145Z" fill="#FCEE21"/>
<path d="M179.768 74.9137L180.846 74.0159L186.591 76.8889L185.514 77.7868L179.768 74.9137Z" fill="#00FFFF"/>
<path d="M80.5642 61.9849L80.0255 60.5484L83.4371 59.2017L83.9757 60.6382L80.5642 61.9849Z" fill="#00FFFF"/>
<path d="M178.781 57.6753L178.691 66.3842L172.855 66.8331L173.035 58.214L178.781 57.6753Z" fill="#FBB03B"/>
<path d="M92.1455 136.505L91.9659 134.799L96.0059 135.607L96.1855 137.223L92.1455 136.505Z" fill="#39B54A"/>
<path d="M159.209 29.3039L165.404 24.9045L168.905 33.6135L162.711 38.0128L159.209 29.3039Z" fill="#ED1C24"/>
<path d="M39.3564 95.3841L38.0098 93.3191L43.576 94.3067L44.9226 96.3717L39.3564 95.3841Z" fill="#39B54A"/>
<path d="M217.565 54.0839L221.784 47.1707L222.413 49.505L218.193 56.4183L217.565 54.0839Z" fill="#ED1C24"/>
<path d="M187.31 102.926L187.579 107.415L181.743 108.313L181.564 103.824L187.31 102.926Z" fill="#FBB03B"/>
<path d="M156.067 35.9479L154.541 34.242L155.528 33.434L157.055 35.2296L156.067 35.9479Z" fill="#39B54A"/>
<path d="M211.998 66.5638L211.909 67.731L208.497 67.9106L208.587 66.7434L211.998 66.5638Z" fill="#39B54A"/>
<path d="M132.904 86.5855L126.171 81.378L127.787 80.8394L134.52 86.1365L132.904 86.5855Z" fill="#00FFFF"/>
<path d="M131.648 69.0777L127.787 68.3594L127.967 67.3718L131.827 68.0901L131.648 69.0777Z" fill="#FBB03B"/>
<path d="M159.838 36.4866L157.593 30.6507L158.581 30.2018L160.825 36.0377L159.838 36.4866Z" fill="#ED1C24"/>
<path d="M162.621 25.8922L156.336 24.9944L160.287 23.7374L166.571 24.6353L162.621 25.8922Z" fill="#ED1C24"/>
<path d="M70.4194 111.186L71.5865 112.353L71.6763 119.536L70.5092 118.369L70.4194 111.186Z" fill="#ED1E79"/>
<path d="M33.88 67.7311L37.3813 63.9602L37.4711 64.6785L33.9698 68.4494L33.88 67.7311Z" fill="#FBB03B"/>
<path d="M255.81 41.6042L252.219 42.1429L251.949 40.7961L255.63 40.2574L255.81 41.6042Z" fill="#FBB03B"/>
<path d="M215.59 108.941L216.846 109.301L216.577 110.557L215.32 110.198L215.59 108.941Z" fill="#FBB03B"/>
<path d="M135.688 66.6536L139.009 65.4865L139.099 67.5515L135.867 68.7186L135.688 66.6536Z" fill="#FBB03B"/>
<path d="M140.536 40.886L141.792 39.0903H143.139L141.882 40.7962L140.536 40.886Z" fill="#ED1C24"/>
<path d="M36.0347 7.39697L41.152 10.4496L37.0222 17.3629L31.9049 14.3103L36.0347 7.39697Z" fill="#FBB03B"/>
<path d="M217.385 67.1923L218.193 67.0127L220.168 70.8734L219.36 71.0529L217.385 67.1923Z" fill="#39B54A"/>
<path d="M125.902 60.7279L126.261 61.1768L122.041 62.6133L121.682 62.0746L125.902 60.7279Z" fill="#FBB03B"/>
<path d="M87.4771 44.8364L88.6442 39.2698L89.3624 38.2822L88.285 43.8488L87.4771 44.8364Z" fill="#FBB03B"/>
<path d="M220.438 138.839L220.797 138.3L221.964 137.762L221.515 138.3L220.438 138.839Z" fill="#00FFFF"/>
<path d="M100.495 17.7219L105.163 16.1058L106.6 19.2482L101.842 20.8643L100.495 17.7219Z" fill="#FBB03B"/>
<path d="M226.812 46.9912L226.722 44.9261L234.353 51.9292V53.9942L226.812 46.9912Z" fill="#00FFFF"/>
<path d="M55.1572 148.805L62.2496 140.455L65.8407 143.598L58.8381 151.947L55.1572 148.805Z" fill="#ED1C24"/>
<path d="M138.65 47.9788L142.6 46.7218L142.69 50.1336L138.65 51.4803V47.9788Z" fill="#39B54A"/>
<path d="M58.8381 50.762L55.5164 44.1181L63.1474 40.2574L66.4692 46.9014L58.8381 50.762Z" fill="#39B54A"/>
<path d="M185.245 95.4739L180.935 100.591H180.576L184.886 95.4739H185.245Z" fill="#FBB03B"/>
<path d="M208.856 85.3284L209.305 80.57L215.23 79.6721L214.871 84.4306L208.856 85.3284Z" fill="#FCEE21"/>
<path d="M127.338 125.461L124.555 121.78L125.094 121.331L127.877 125.013L127.338 125.461Z" fill="#ED1C24"/>
<path d="M179.05 88.2015L180.576 86.4059L182.013 87.3935L180.397 89.1892L179.05 88.2015Z" fill="#39B54A"/>
<path d="M96.3651 62.2543L99.0584 65.0375L96.9038 67.1026L94.2104 64.3193L96.3651 62.2543Z" fill="#FBB03B"/>
<path d="M87.2078 63.8703L85.4122 58.3936L87.3873 57.6753L89.1829 63.1521L87.2078 63.8703Z" fill="#FCEE21"/>
<path d="M98.43 17.6321L102.919 20.5051L97.9811 24.0964L93.4922 21.1336L98.43 17.6321Z" fill="#FBB03B"/>
<path d="M22.2987 124.923L19.7849 120.613L21.5805 118.997L24.0942 123.217L22.2987 124.923Z" fill="#FBB03B"/>
<path d="M27.5058 12.9634L27.2365 11.2576L28.3138 10.5393L28.5831 12.335L27.5058 12.9634Z" fill="#ED1C24"/>
<path d="M65.1225 110.557L64.7634 108.313L74.1901 106.248L74.6389 108.582L65.1225 110.557Z" fill="#39B54A"/>
<path d="M28.8524 17.273L27.7751 18.2606L27.3262 13.8613L28.4933 12.8737L28.8524 17.273Z" fill="#ED1C24"/>
<path d="M170.342 126.808V126.629H170.611V126.808H170.342Z" fill="#FCEE21"/>
<path d="M38.8177 82.2758L37.0222 83.5328L36.6631 82.3656L38.4586 81.1086L38.8177 82.2758Z" fill="#FBB03B"/>
<path d="M227.62 53.2759L226.094 59.3812L224.837 58.9323L226.363 52.827L227.62 53.2759Z" fill="#FCEE21"/>
<path d="M163.339 60.6381L154.631 59.3812L157.952 58.0344L166.661 59.2914L163.339 60.6381Z" fill="#FBB03B"/>
<path d="M211.19 132.554L208.946 133.901L207.779 122.768L210.023 121.421L211.19 132.554Z" fill="#FBB03B"/>
<path d="M230.582 65.3069V66.923L227.44 67.8208V66.2047L230.582 65.3069Z" fill="#ED1C24"/>
<path d="M201.225 138.48L202.392 138.031L202.572 138.659L201.494 139.019L201.225 138.48Z" fill="#39B54A"/>
<path d="M95.4672 74.8239L91.4272 81.9167L83.1677 79.5824L87.2975 72.4895L95.4672 74.8239Z" fill="#00FFFF"/>
<path d="M216.218 92.6009L216.846 83.2634L219.809 84.9693L219.27 94.3067L216.218 92.6009Z" fill="#ED1C24"/>
<path d="M49.6808 123.127L47.7057 123.666L46.5386 117.201L48.5137 116.663L49.6808 123.127Z" fill="#ED1C24"/>
<path d="M114.231 63.8703L118.899 59.8301L120.156 60.7279L115.488 64.7681L114.231 63.8703Z" fill="#FBB03B"/>
<path d="M196.736 107.864L195.479 108.492L192.337 107.774L193.594 107.056L196.736 107.864Z" fill="#ED1E79"/>
<path d="M134.61 32.2667L143.139 29.0345L144.306 31.9974L135.688 35.2296L134.61 32.2667Z" fill="#FCEE21"/>
<path d="M37.112 112.712L33.88 119.715L27.2365 116.663L30.4684 109.749L37.112 112.712Z" fill="#FBB03B"/>
<path d="M121.413 70.6938L122.67 70.8734L122.041 72.7589L120.785 72.5793L121.413 70.6938Z" fill="#39B54A"/>
<path d="M82.7189 91.6133L81.6416 91.1644L82.8087 91.0746L83.886 91.4337L82.7189 91.6133Z" fill="#ED1E79"/>
<path d="M19.1564 13.8612L17.3609 16.1956L12.1538 13.1429L13.9494 10.8086L19.1564 13.8612Z" fill="#00FFFF"/>
<path d="M182.102 55.4307L176.626 54.6227L173.125 51.3905L178.601 52.1986L182.102 55.4307Z" fill="#ED1C24"/>
<path d="M78.4993 136.864L76.7936 137.133L77.1527 136.684L78.8585 136.415L78.4993 136.864Z" fill="#39B54A"/>
<path d="M11.0765 19.3381L13.5902 15.657L16.7325 18.53L14.1289 22.2111L11.0765 19.3381Z" fill="#39B54A"/>
<path d="M59.6461 94.3966L56.4141 93.2294L59.5563 85.1489L62.6985 86.3161L59.6461 94.3966Z" fill="#FCEE21"/>
<path d="M89.8113 71.8611L91.7864 73.2976L91.4273 75.9911L89.4521 74.5546L89.8113 71.8611Z" fill="#FCEE21"/>
<path d="M47.7955 138.57L51.8354 140.006L50.399 140.814L46.359 139.378L47.7955 138.57Z" fill="#00FFFF"/>
<path d="M105.163 126.629L103.368 126.27L103.278 125.551L105.073 125.91L105.163 126.629Z" fill="#39B54A"/>
<path d="M206.073 14.2204L205.894 19.6074L200.956 19.5176L201.135 14.1306L206.073 14.2204Z" fill="#FCEE21"/>
<path d="M222.143 104.452L222.772 108.762L220.976 107.864L220.348 103.644L222.143 104.452Z" fill="#00FFFF"/>
<path d="M76.7936 101.4L77.6914 103.554L77.5119 105.619L76.5243 103.465L76.7936 101.4Z" fill="#FCEE21"/>
<path d="M166.661 109.57L167.11 110.737L164.955 109.66L164.596 108.492L166.661 109.57Z" fill="#39B54A"/>
<path d="M38.9972 8.56409L40.7928 11.5269L40.5235 13.4124L38.7279 10.5393L38.9972 8.56409Z" fill="#ED1C24"/>
<path d="M109.203 88.6505L107.497 86.3161L108.844 86.0468L110.55 88.2913L109.203 88.6505Z" fill="#ED1C24"/>
<path d="M171.868 98.3471L170.521 95.8331L171.509 95.2944L172.855 97.7186L171.868 98.3471Z" fill="#ED1E79"/>
<path d="M114.769 83.9817L115.488 85.1489L113.423 85.9569L112.705 84.7897L114.769 83.9817Z" fill="#39B54A"/>
<path d="M44.3839 69.3472L44.6532 68.2698L45.3715 70.4246L45.1021 71.5019L44.3839 69.3472Z" fill="#00FFFF"/>
<path d="M88.5545 94.7556L97.8913 95.833L97.0833 102.657L87.7465 101.579L88.5545 94.7556Z" fill="#ED1C24"/>
<path d="M88.4894 133H105.097V128.744H95.7854L99.7854 125.64C103.625 122.856 104.905 120.584 104.905 117.64C104.905 113.512 101.513 110.632 96.8414 110.632C93.2894 110.632 90.5054 112.168 88.3294 114.92L91.3374 117.832C92.9374 116.008 94.5694 114.92 96.7134 114.92C98.5054 114.92 100.041 116.008 100.041 117.832C100.041 119.368 99.2094 120.808 96.5854 122.888L88.4894 129.16V133ZM116.308 133.416C121.556 133.416 125.044 130.44 125.044 125.768C125.044 121.288 121.684 118.792 117.78 118.792C115.988 118.792 114.58 119.368 113.492 120.136L113.62 115.272H123.828V111.016H109.268L108.948 122.888L112.116 124.168C113.3 123.272 114.708 122.728 116.372 122.728C118.772 122.728 120.34 124.008 120.34 125.928C120.34 127.816 118.804 129.288 116.34 129.288C114.228 129.288 112.212 128.264 110.58 126.696L107.796 130.024C109.844 132.072 112.628 133.416 116.308 133.416ZM128.793 133H133.497V119.304L140.313 131.72L147.097 119.304V133H151.833V111.016H147.097L140.313 123.432L133.497 111.016H128.793V133ZM156.543 133H168.095C172.287 133 175.295 130.568 175.295 127.048C175.295 124.616 173.823 122.568 171.263 121.416C173.215 120.392 174.335 118.76 174.335 116.52C174.335 113.32 171.615 111.016 167.679 111.016H156.543V133ZM161.247 119.88V115.048H166.495C168.255 115.048 169.503 116.072 169.503 117.448C169.503 118.856 168.255 119.88 166.495 119.88H161.247ZM161.247 128.968V123.592H167.231C169.119 123.592 170.463 124.712 170.463 126.28C170.463 127.848 169.119 128.968 167.231 128.968H161.247Z" fill="black"/>
</svg>
