<svg width="293" height="134" viewBox="0 0 293 134" fill="none" xmlns="http://www.w3.org/2000/svg">
<rect width="293" height="134" rx="6.7" fill="#F770FF"/>
<g filter="url(#filter0_d_815_241)">
<path fill-rule="evenodd" clip-rule="evenodd" d="M196.503 25.125C195.953 25.2994 195.364 25.4086 194.747 25.4421H170.171C165.947 25.4421 162.683 28.6268 162.683 32.3423V47.9119L162.683 47.9588V54.9546C163.102 57.7154 165.489 59.766 168.39 59.766C170.661 59.766 172.33 58.3006 174.089 56.7564C176.048 55.0369 178.118 53.2197 181.254 53.2197C187.782 53.2197 192.582 59.5891 192.582 67.197C192.582 74.9818 188.358 80.8204 181.638 80.8204C177.774 80.8204 175.903 78.8857 174.142 77.0652C172.577 75.4477 171.1 73.9203 168.39 73.9203C165.403 74.0821 163.06 76.0214 162.683 78.5184V101.875C162.875 105.767 166.331 108.952 170.555 108.952H195.131C195.527 108.952 195.914 108.914 196.287 108.841H221.076C221.379 108.897 221.691 108.935 222.011 108.952H246.587C250.811 108.952 254.075 105.767 254.075 102.052V79.2281C254.075 78.9861 254.093 78.7481 254.128 78.5149V54.9565C254.103 54.7928 254.085 54.6266 254.075 54.4582V32.5192C254.075 28.9806 251.387 25.4421 246.395 25.4421H221.819C221.143 25.4421 220.495 25.3307 219.895 25.125H196.503Z" fill="white"/>
</g>
<rect x="162.683" y="25.125" width="90.8843" height="17.5875" rx="6.7" fill="white"/>
<rect x="162.683" y="91.2876" width="90.8843" height="17.5875" rx="6.7" fill="white"/>
<path fill-rule="evenodd" clip-rule="evenodd" d="M219.94 52.5326C218.359 52.5326 217.077 53.7138 217.077 55.1708C217.077 56.6278 218.359 57.8089 219.94 57.8089C221.521 57.8089 222.803 56.6278 222.803 55.1708C222.803 53.7138 221.521 52.5326 219.94 52.5326ZM213.26 55.1708C213.26 51.7711 216.251 49.0151 219.94 49.0151C223.629 49.0151 226.62 51.7711 226.62 55.1708C226.62 58.5704 223.629 61.3264 219.94 61.3264C218.79 61.3264 217.707 61.0584 216.762 60.5865L213.889 63.2344C214.106 63.6033 214.283 63.9949 214.415 64.4044H225.465C226.286 61.8616 228.842 60.0073 231.869 60.0073C235.558 60.0073 238.549 62.7633 238.549 66.1629C238.549 69.5626 235.558 72.3186 231.869 72.3186C230.718 72.3186 229.636 72.0506 228.691 71.5787L225.817 74.2266C226.329 75.0975 226.62 76.095 226.62 77.1551C226.62 80.5548 223.629 83.3108 219.94 83.3108C216.251 83.3108 213.26 80.5548 213.26 77.1551C213.26 73.7555 216.251 70.9995 219.94 70.9995C221.09 70.9995 222.173 71.2675 223.118 71.7394L225.992 69.0914C225.775 68.7226 225.598 68.3312 225.465 67.9219H214.415C213.594 70.4645 211.037 72.3186 208.012 72.3186C204.322 72.3186 201.332 69.5626 201.332 66.1629C201.332 62.7633 204.322 60.0073 208.012 60.0073C209.162 60.0073 210.244 60.2753 211.189 60.7472L214.063 58.0992C213.551 57.2284 213.26 56.2309 213.26 55.1708ZM217.077 77.1551C217.077 75.6981 218.359 74.517 219.94 74.517C221.521 74.517 222.803 75.6981 222.803 77.1551C222.803 78.6121 221.521 79.7933 219.94 79.7933C218.359 79.7933 217.077 78.6121 217.077 77.1551ZM208.012 63.5248C206.43 63.5248 205.149 64.706 205.149 66.1629C205.149 67.6199 206.43 68.8011 208.012 68.8011C209.593 68.8011 210.874 67.6199 210.874 66.1629C210.874 64.706 209.593 63.5248 208.012 63.5248ZM229.006 66.1629C229.006 64.706 230.288 63.5248 231.869 63.5248C233.45 63.5248 234.731 64.706 234.731 66.1629C234.731 67.6199 233.45 68.8011 231.869 68.8011C230.288 68.8011 229.006 67.6199 229.006 66.1629Z" fill="black"/>
<g filter="url(#filter1_d_815_241)">
<path fill-rule="evenodd" clip-rule="evenodd" d="M71.0826 25.125C70.5325 25.2992 69.9432 25.4084 69.3266 25.4419H44.7507C40.5267 25.4419 37.2627 28.6266 37.2627 32.3421L37.2627 40.7496V87.7736L37.2627 101.875C37.4547 105.767 40.9107 108.952 45.1347 108.952H69.7106C70.1069 108.952 70.4936 108.913 70.8669 108.84H95.6562C95.9592 108.897 96.2712 108.934 96.5905 108.952H121.166C125.39 108.952 128.654 105.767 128.654 102.052V79.2279C128.654 76.397 131.15 74.097 134.414 73.9201C137.124 73.9201 138.602 75.4475 140.167 77.065C141.928 78.8855 143.799 80.8202 147.662 80.8202C154.382 80.8202 158.606 74.9816 158.606 67.1968C158.606 59.5889 153.806 53.2195 147.278 53.2195C144.142 53.2195 142.072 55.0367 140.114 56.7562C138.355 58.3004 136.685 59.7658 134.414 59.7658C131.342 59.7658 128.846 57.4658 128.654 54.458V32.519C128.654 28.9804 125.966 25.4419 120.974 25.4419H96.3985C95.7228 25.4419 95.075 25.3306 94.4755 25.125H71.0826Z" fill="white"/>
</g>
<rect x="37.2627" y="25.125" width="91.7931" height="83.75" rx="6.7" fill="white"/>
<path d="M100.364 56.2489L86.2876 48.9517C85.7932 48.7046 85.2394 48.5752 84.6767 48.5752C84.1141 48.5752 83.5603 48.7046 83.0659 48.9517L68.9397 56.2489C68.4298 56.5134 68.0051 56.8975 67.7091 57.3622C67.413 57.8269 67.2562 58.3555 67.2545 58.8941V73.4428C67.2499 73.9826 67.4041 74.5135 67.7008 74.9792C67.9975 75.4449 68.4256 75.828 68.9397 76.088L83.0163 83.3396C83.5098 83.6128 84.076 83.7549 84.652 83.7501C85.227 83.7488 85.7914 83.6071 86.2876 83.3396L100.364 76.088C100.874 75.8236 101.299 75.4394 101.595 74.9747C101.891 74.5101 102.048 73.9815 102.049 73.4428V58.8941C102.064 58.3525 101.914 57.818 101.616 57.3507C101.318 56.8833 100.885 56.5017 100.364 56.2489V56.2489Z" fill="url(#paint0_linear_815_241)"/>
<path d="M74.8375 69.9739L73.9949 70.43C73.8441 70.5068 73.7115 70.6106 73.6048 70.7351C73.498 70.8596 73.4193 71.0025 73.3731 71.1553C73.327 71.3081 73.3144 71.4679 73.336 71.6252C73.3577 71.7826 73.4132 71.9344 73.4993 72.0718C73.6099 72.2623 73.7741 72.4219 73.9746 72.5342C74.1751 72.6465 74.4046 72.7073 74.6393 72.7103C74.8623 72.7086 75.0823 72.6619 75.2836 72.5735L76.1262 72.1174C76.277 72.0406 76.4096 71.9368 76.5164 71.8123C76.6231 71.6878 76.7019 71.5449 76.748 71.3921C76.7941 71.2393 76.8068 71.0795 76.7851 70.9222C76.7634 70.7648 76.708 70.613 76.6219 70.4756C76.5453 70.3307 76.4372 70.2019 76.3041 70.0972C76.171 69.9925 76.0159 69.9141 75.8485 69.8671C75.681 69.82 75.5048 69.8052 75.3309 69.8236C75.157 69.8419 74.989 69.8931 74.8375 69.9739V69.9739ZM79.9923 67.2831L78.2575 68.1952C78.1068 68.2721 77.9741 68.3758 77.8674 68.5004C77.7606 68.6249 77.6819 68.7677 77.6357 68.9206C77.5896 69.0734 77.577 69.2331 77.5987 69.3905C77.6203 69.5478 77.6758 69.6996 77.7619 69.8371C77.8726 70.0275 78.0367 70.1872 78.2372 70.2995C78.4377 70.4118 78.6672 70.4726 78.9019 70.4756C79.125 70.4738 79.3449 70.4271 79.5462 70.3388L81.281 69.4266C81.4318 69.3497 81.5644 69.246 81.6712 69.1215C81.7779 68.9969 81.8567 68.8541 81.9028 68.7013C81.949 68.5484 81.9616 68.3887 81.9399 68.2313C81.9182 68.074 81.8628 67.9222 81.7767 67.7847C81.7001 67.6398 81.592 67.511 81.4589 67.4063C81.3258 67.3016 81.1707 67.2233 81.0033 67.1762C80.8358 67.1292 80.6596 67.1143 80.4857 67.1327C80.3118 67.1511 80.1438 67.2023 79.9923 67.2831V67.2831ZM86.981 65.0529C86.9112 64.9235 86.8138 64.8083 86.6946 64.7143C86.5754 64.6203 86.4368 64.5493 86.2871 64.5056V55.3339C86.2878 55.1721 86.2536 55.0117 86.1866 54.862C86.1196 54.7123 86.021 54.5763 85.8966 54.4619C85.7722 54.3474 85.6244 54.2567 85.4618 54.1951C85.2991 54.1334 85.1248 54.1019 84.9489 54.1025C84.7756 54.1031 84.6042 54.1356 84.4448 54.1983C84.2855 54.2609 84.1414 54.3524 84.0212 54.4672C83.901 54.5821 83.8071 54.718 83.7451 54.8669C83.6831 55.0158 83.6542 55.1746 83.6602 55.3339V64.5466C83.5105 64.5903 83.3719 64.6613 83.2527 64.7553C83.1335 64.8494 83.0361 64.9645 82.9663 65.0939C82.8731 65.2542 82.8203 65.4316 82.8118 65.6132C82.8032 65.7948 82.839 65.9758 82.9167 66.1429C82.839 66.31 82.8032 66.491 82.8118 66.6725C82.8203 66.8541 82.8731 67.0316 82.9663 67.1918C83.0361 67.3213 83.1335 67.4364 83.2527 67.5304C83.3719 67.6245 83.5105 67.6954 83.6602 67.7391V76.9518C83.6602 77.2784 83.8012 77.5916 84.0521 77.8225C84.3031 78.0535 84.6435 78.1832 84.9984 78.1832C85.3534 78.1832 85.6938 78.0535 85.9447 77.8225C86.1957 77.5916 86.3367 77.2784 86.3367 76.9518V67.6935C86.4864 67.6498 86.6249 67.5788 86.7442 67.4848C86.8634 67.3908 86.9608 67.2756 87.0306 67.1462C87.1237 66.986 87.1765 66.8085 87.1851 66.6269C87.1937 66.4454 87.1578 66.2644 87.0802 66.0973C87.1949 65.7504 87.1593 65.3762 86.981 65.0529V65.0529ZM90.3565 61.9014L88.6217 62.8135C88.4709 62.8904 88.3383 62.9942 88.2315 63.1187C88.1248 63.2432 88.046 63.3861 87.9999 63.5389C87.9537 63.6917 87.9411 63.8515 87.9628 64.0088C87.9844 64.1662 88.0399 64.318 88.126 64.4554C88.2367 64.6458 88.4008 64.8055 88.6013 64.9178C88.8018 65.0301 89.0313 65.0909 89.266 65.0939C89.4891 65.0922 89.709 65.0455 89.9104 64.9571L91.6452 64.0449C91.7959 63.9681 91.9286 63.8643 92.0353 63.7398C92.1421 63.6153 92.2208 63.4724 92.2669 63.3196C92.3131 63.1668 92.3257 63.007 92.304 62.8497C92.2824 62.6923 92.2269 62.5405 92.1408 62.4031C92.0643 62.2582 91.9561 62.1294 91.823 62.0247C91.6899 61.92 91.5348 61.8416 91.3674 61.7946C91.2 61.7475 91.0238 61.7327 90.8498 61.7511C90.6759 61.7694 90.5079 61.8206 90.3565 61.9014V61.9014ZM94.4654 62.3575C94.6885 62.3557 94.9084 62.309 95.1098 62.2206L95.9524 61.7646C96.103 61.6871 96.2354 61.5831 96.3422 61.4584C96.449 61.3337 96.5279 61.1909 96.5745 61.038C96.621 60.8852 96.6343 60.7254 96.6136 60.5678C96.5928 60.4103 96.5385 60.258 96.4536 60.1198C96.3687 59.9816 96.255 59.8603 96.119 59.7626C95.983 59.665 95.8273 59.5931 95.661 59.551C95.4947 59.5089 95.3209 59.4974 95.1498 59.5172C94.9787 59.5371 94.8135 59.5879 94.6637 59.6666L93.8211 60.1227C93.6703 60.1996 93.5377 60.3033 93.4309 60.4279C93.3242 60.5524 93.2454 60.6952 93.1993 60.8481C93.1532 61.0009 93.1405 61.1606 93.1622 61.318C93.1839 61.4753 93.2393 61.6272 93.3254 61.7646C93.4389 61.9494 93.605 62.1023 93.8059 62.2068C94.0068 62.3113 94.2348 62.3634 94.4654 62.3575ZM95.9524 70.43L95.1098 69.9739C94.8076 69.8185 94.4508 69.7795 94.1174 69.8655C93.7841 69.9515 93.5013 70.1555 93.3309 70.4328C93.1606 70.7102 93.1165 71.0383 93.2084 71.3454C93.3002 71.6526 93.5205 71.9137 93.8211 72.0718L94.6637 72.5279C94.865 72.6163 95.085 72.663 95.308 72.6647C95.5427 72.6617 95.7723 72.6009 95.9727 72.4886C96.1732 72.3763 96.3374 72.2167 96.448 72.0262C96.5367 71.8932 96.5944 71.7446 96.6174 71.5899C96.6404 71.4353 96.6282 71.2779 96.5816 71.1278C96.535 70.9778 96.455 70.8382 96.3467 70.7181C96.2383 70.5979 96.1041 70.4998 95.9524 70.43V70.43ZM91.6402 68.1952L89.9054 67.2831C89.7556 67.2043 89.5904 67.1535 89.4193 67.1337C89.2482 67.1138 89.0744 67.1253 88.9081 67.1674C88.7418 67.2095 88.5861 67.2814 88.4501 67.3791C88.3141 67.4767 88.2004 67.5981 88.1155 67.7363C88.0306 67.8744 87.9763 68.0267 87.9555 68.1843C87.9348 68.3418 87.9481 68.5016 87.9946 68.6545C88.0412 68.8073 88.1201 68.9502 88.2269 69.0748C88.3337 69.1995 88.4661 69.3036 88.6167 69.381L90.3515 70.2931C90.5528 70.3815 90.7728 70.4282 90.9958 70.43C91.2305 70.427 91.4601 70.3662 91.6605 70.2539C91.861 70.1416 92.0252 69.9819 92.1359 69.7915C92.2261 69.6588 92.285 69.5101 92.3088 69.3552C92.3326 69.2002 92.3207 69.0424 92.274 68.8919C92.2273 68.7414 92.1467 68.6016 92.0375 68.4816C91.9283 68.3616 91.793 68.264 91.6402 68.1952V68.1952ZM78.2575 63.9993L79.9923 64.9115C80.1937 64.9999 80.4136 65.0466 80.6367 65.0483C80.8714 65.0453 81.1009 64.9845 81.3014 64.8722C81.5019 64.7599 81.666 64.6002 81.7767 64.4098C81.8628 64.2724 81.9182 64.1206 81.9399 63.9632C81.9616 63.8059 81.949 63.6461 81.9028 63.4933C81.8567 63.3405 81.7779 63.1976 81.6712 63.0731C81.5644 62.9485 81.4318 62.8448 81.281 62.7679L79.5462 61.8558C79.3969 61.7766 79.2319 61.7255 79.0609 61.7056C78.8899 61.6857 78.7163 61.6973 78.5502 61.7397C78.3841 61.7822 78.2289 61.8546 78.0935 61.9529C77.9582 62.0511 77.8454 62.1731 77.7619 62.3119C77.5958 62.5984 77.5547 62.9324 77.6468 63.2459C77.7388 63.5593 77.9572 63.8288 78.2575 63.9993V63.9993ZM76.1262 60.1227L75.2836 59.6666C75.1339 59.5879 74.9687 59.5371 74.7975 59.5172C74.6264 59.4974 74.4526 59.5089 74.2863 59.551C74.12 59.5931 73.9644 59.665 73.8283 59.7626C73.6923 59.8603 73.5786 59.9816 73.4937 60.1198C73.4088 60.258 73.3545 60.4103 73.3337 60.5678C73.313 60.7254 73.3263 60.8852 73.3728 61.038C73.4194 61.1909 73.4983 61.3337 73.6051 61.4584C73.7119 61.5831 73.8443 61.6871 73.9949 61.7646L74.8375 62.2206C75.0389 62.309 75.2588 62.3557 75.4819 62.3575C75.7166 62.3545 75.9461 62.2937 76.1466 62.1814C76.3471 62.0691 76.5112 61.9094 76.6219 61.719C76.7062 61.5849 76.7603 61.4365 76.781 61.2828C76.8017 61.129 76.7885 60.973 76.7423 60.824C76.696 60.6751 76.6176 60.5362 76.5118 60.4157C76.4059 60.2952 76.2748 60.1956 76.1262 60.1227V60.1227Z" fill="#20133A"/>
<defs>
<filter id="filter0_d_815_241" x="159.333" y="25.125" width="98.1453" height="90.5271" filterUnits="userSpaceOnUse" color-interpolation-filters="sRGB">
<feFlood flood-opacity="0" result="BackgroundImageFix"/>
<feColorMatrix in="SourceAlpha" type="matrix" values="0 0 0 0 0 0 0 0 0 0 0 0 0 0 0 0 0 0 127 0" result="hardAlpha"/>
<feOffset dy="3.35"/>
<feGaussianBlur stdDeviation="1.675"/>
<feComposite in2="hardAlpha" operator="out"/>
<feColorMatrix type="matrix" values="0 0 0 0 0 0 0 0 0 0 0 0 0 0 0 0 0 0 0.1 0"/>
<feBlend mode="normal" in2="BackgroundImageFix" result="effect1_dropShadow_815_241"/>
<feBlend mode="normal" in="SourceGraphic" in2="effect1_dropShadow_815_241" result="shape"/>
</filter>
<filter id="filter1_d_815_241" x="33.9127" y="25.125" width="128.044" height="90.5267" filterUnits="userSpaceOnUse" color-interpolation-filters="sRGB">
<feFlood flood-opacity="0" result="BackgroundImageFix"/>
<feColorMatrix in="SourceAlpha" type="matrix" values="0 0 0 0 0 0 0 0 0 0 0 0 0 0 0 0 0 0 127 0" result="hardAlpha"/>
<feOffset dy="3.35"/>
<feGaussianBlur stdDeviation="1.675"/>
<feComposite in2="hardAlpha" operator="out"/>
<feColorMatrix type="matrix" values="0 0 0 0 0 0 0 0 0 0 0 0 0 0 0 0 0 0 0.1 0"/>
<feBlend mode="normal" in2="BackgroundImageFix" result="effect1_dropShadow_815_241"/>
<feBlend mode="normal" in="SourceGraphic" in2="effect1_dropShadow_815_241" result="shape"/>
</filter>
<linearGradient id="paint0_linear_815_241" x1="67.2545" y1="66.1639" x2="102.054" y2="66.1639" gradientUnits="userSpaceOnUse">
<stop stop-color="#9059FF"/>
<stop offset="1" stop-color="#F770FF"/>
</linearGradient>
</defs>
</svg>
