<svg width="300" height="154" viewBox="0 0 300 154" fill="none" xmlns="http://www.w3.org/2000/svg">
<rect width="300" height="154" rx="8" fill="#F770FF"/>
<mask id="mask0_803_339" style="mask-type:alpha" maskUnits="userSpaceOnUse" x="0" y="0" width="300" height="154">
<rect width="300" height="154" rx="8" fill="#F770FF"/>
</mask>
<g mask="url(#mask0_803_339)">
<path opacity="0.2" d="M398.732 138.995C382.379 138.995 368.973 133.488 358.04 122.351C345.477 109.551 337.947 91.1051 331.3 74.8246C323.09 54.7208 315.999 37.3552 302.118 35.2875C281.933 32.2832 264.793 43.6044 248.219 54.5468C234.129 63.8514 220.815 72.6443 206.224 72.6443C200.686 72.6443 196.155 70.5305 192.747 66.3593C186.862 59.1531 184.307 46.015 185.16 27.3238C185.794 13.459 188.175 1.53388 188.2 1.41104C188.256 1.13467 188.522 0.950418 188.803 1.01183C189.079 1.06813 189.258 1.33939 189.201 1.61577C189.104 2.08663 179.857 48.9528 193.544 65.7144C196.747 69.6349 201.013 71.6258 206.229 71.6258C220.514 71.6258 233.7 62.92 247.662 53.6972C264.399 42.6473 281.708 31.2187 302.271 34.2793C316.724 36.4288 323.918 54.0452 332.245 74.4407C338.856 90.6292 346.351 108.977 358.77 121.634C372.983 136.119 391.508 140.904 415.392 136.262C415.668 136.211 415.939 136.39 415.99 136.666C416.046 136.943 415.862 137.214 415.586 137.265C409.65 138.417 404.035 139 398.732 139V138.995Z" fill="#9059FF"/>
<path opacity="0.2" d="M295.732 126.995C279.379 126.995 265.973 121.488 255.04 110.351C242.477 97.5507 234.947 79.1051 228.3 62.8246C220.09 42.7208 212.999 25.3552 199.118 23.2875C178.933 20.2832 161.793 31.6044 145.219 42.5468C131.129 51.8514 117.815 60.6443 103.224 60.6443C97.6863 60.6443 93.1547 58.5305 89.7471 54.3593C83.8616 47.1531 81.3072 34.015 82.1604 15.3238C82.7939 1.45897 85.1746 -10.4661 85.2001 -10.589C85.2563 -10.8653 85.522 -11.0496 85.803 -10.9882C86.0789 -10.9319 86.2577 -10.6606 86.2015 -10.3842C86.1044 -9.91337 76.8573 36.9528 90.544 53.7144C93.7473 57.6349 98.0132 59.6258 103.229 59.6258C117.514 59.6258 130.7 50.92 144.662 41.6972C161.399 30.6473 178.708 19.2187 199.271 22.2793C213.724 24.4288 220.918 42.0452 229.245 62.4407C235.856 78.6292 243.351 96.9774 255.77 109.634C269.983 124.119 288.508 128.904 312.392 124.262C312.668 124.211 312.939 124.39 312.99 124.666C313.046 124.943 312.862 125.214 312.586 125.265C306.65 126.417 301.035 127 295.732 127V126.995Z" fill="#9059FF"/>
<path opacity="0.2" d="M185.465 184.619C180.805 184.619 175.915 183.839 170.805 182.049C155.175 176.569 146.015 161.439 137.155 146.809C128.255 132.119 119.065 116.929 103.325 111.339C101.025 110.519 98.785 109.829 96.615 109.279C95.615 116.479 93.025 122.359 89.565 126.379C84.755 131.959 78.295 133.999 71.835 131.979C67.515 130.629 64.405 127.279 63.515 123.019C62.555 118.449 64.245 113.749 68.035 110.429C71.575 107.339 79.455 103.289 94.915 106.789C95.725 97.5487 93.875 86.2287 87.915 73.9287C79.785 57.1487 65.605 44.0787 47.965 37.1287C30.145 30.0887 11.115 30.3087 -5.59499 37.7487C-6.09499 37.9787 -6.69499 37.7487 -6.91499 37.2387C-7.13499 36.7387 -6.91499 36.1387 -6.40499 35.9187C10.795 28.2587 30.375 28.0287 48.705 35.2587C66.805 42.3987 81.375 55.8187 89.715 73.0487C95.895 85.8087 97.765 97.5987 96.855 107.249C99.085 107.819 101.465 108.549 103.995 109.449C120.395 115.279 129.785 130.779 138.865 145.769C147.945 160.759 156.515 174.909 171.465 180.159C197.605 189.329 217.245 171.289 231.585 158.119C238.505 151.759 243.505 147.169 247.615 147.169C259.765 147.169 271.545 167.699 272.045 168.579C272.315 169.059 272.145 169.669 271.665 169.939C271.185 170.209 270.575 170.039 270.305 169.559C270.185 169.359 258.605 149.169 247.615 149.169C244.285 149.169 239.025 153.999 232.935 159.589C221.655 169.949 205.675 184.619 185.455 184.619H185.465ZM83.785 107.479C77.695 107.479 72.745 108.969 69.355 111.929C66.115 114.759 64.665 118.749 65.475 122.599C66.235 126.199 68.775 128.919 72.435 130.069C78.185 131.869 83.725 130.099 88.055 125.079C91.335 121.279 93.765 115.689 94.685 108.819C90.765 107.929 87.105 107.489 83.775 107.489L83.785 107.479Z" fill="#9059FF"/>
<path opacity="0.2" d="M1.17468 86.6974C-0.755323 94.2574 13.9447 96.1574 13.9447 89.7774C13.9447 83.3974 2.90468 79.8974 1.17468 86.6974Z" fill="#9059FF"/>
<path opacity="0.5" d="M63.0135 25.4C58.6324 29.3494 67.0877 36.7021 69.76 32.687C72.4322 28.6718 66.9503 21.8452 63.0135 25.4Z" fill="#FFD18D"/>
<path opacity="0.4" d="M77.6228 144.976C82.3072 148.56 87.9884 138.902 83.552 137.01C79.1157 135.118 73.4075 141.756 77.6228 144.976Z" fill="#9059FF"/>
<path opacity="0.5" d="M294.297 127.261C291.017 140.063 316 143.28 316 132.476C316 121.673 297.237 115.746 294.297 127.261Z" fill="#FFD18D"/>
<path opacity="0.3" d="M291.297 114.755C297.054 119.688 305.042 107.647 299.482 104.909C293.923 102.17 286.117 110.324 291.297 114.755Z" fill="#9059FF"/>
<path opacity="0.3" d="M266.858 134.496C269.128 140.441 279.844 134.759 276.84 130.512C273.836 126.265 264.812 129.152 266.858 134.496Z" fill="#9059FF"/>
<path opacity="0.3" d="M291.201 151.035C298.256 148.261 291.361 135.562 286.337 139.191C281.313 142.819 284.858 153.536 291.201 151.035Z" fill="#9059FF"/>
<path opacity="0.2" d="M280.014 119.686C277.651 124.884 288.035 128.142 288.852 123.546C289.669 118.95 282.135 115.01 280.014 119.686Z" fill="#9059FF"/>
<path opacity="0.2" d="M278.041 96.3366C274.129 98.0823 278.344 105.076 281.089 102.9C283.833 100.723 281.558 94.7639 278.041 96.3366Z" fill="#9059FF"/>
<path opacity="0.5" d="M-28.6828 136.547C-29.1628 136.547 -29.6228 136.257 -29.8128 135.787C-37.2328 117.577 -34.6428 94.8372 -23.2228 77.8572C-11.6528 60.6472 7.54724 51.1672 30.8172 51.1672C44.3572 51.1672 54.8972 53.5572 62.8472 57.2872C64.8872 54.2072 67.6572 51.4272 71.2372 49.1672C82.6372 41.9672 93.2872 44.9872 104.547 48.1972C117.047 51.7572 129.977 55.4272 146.587 46.9472C167.677 36.1772 168.217 14.2972 168.737 -6.86283C169.147 -23.3128 169.527 -38.8428 179.617 -48.0328C199.217 -65.8728 252.537 -43.9328 254.797 -42.9928C255.417 -42.7328 255.707 -42.0228 255.457 -41.4028C255.197 -40.7828 254.487 -40.4928 253.867 -40.7428C253.327 -40.9728 199.717 -63.0328 181.267 -46.2328C171.947 -37.7528 171.577 -22.7228 171.187 -6.80284C170.677 14.0472 170.087 37.6872 147.707 49.1172C130.247 58.0372 116.247 54.0472 103.897 50.5372C92.7072 47.3572 83.0372 44.6072 72.5572 51.2272C69.3072 53.2772 66.8472 55.7172 65.0472 58.3672C76.2072 64.2972 81.6972 72.9772 82.9372 80.8972C84.0972 88.3472 81.2572 94.7072 76.0272 96.3872C70.6372 98.1072 64.8272 94.2471 61.2372 86.5471C57.4272 78.3671 57.0072 67.9472 61.6272 59.3772C54.0172 55.8572 43.8972 53.5972 30.8472 53.5972C8.40724 53.5972 -10.0628 62.6972 -21.1728 79.2072C-32.1728 95.5472 -34.6728 117.397 -27.5528 134.877C-27.3028 135.497 -27.6028 136.207 -28.2228 136.467C-28.3728 136.527 -28.5328 136.557 -28.6828 136.557V136.547ZM63.7672 60.4572C59.1372 69.0372 60.4772 79.2072 63.4272 85.5272C66.4672 92.0472 71.1172 95.3972 75.2672 94.0672C79.3272 92.7672 81.4872 87.5072 80.5172 81.2772C79.3772 73.9672 74.2372 65.9672 63.7772 60.4572H63.7672Z" fill="#FFC36B"/>
<g filter="url(#filter0_d_803_339)">
<path d="M211.507 73.4768H210.317V40.8712C210.317 35.8663 208.329 31.0663 204.79 27.5273C201.251 23.9882 196.451 22 191.446 22H122.367C119.889 22 117.435 22.4881 115.145 23.4365C112.855 24.3848 110.775 25.7749 109.023 27.5272C107.27 29.2796 105.88 31.3599 104.932 33.6495C103.984 35.939 103.495 38.393 103.495 40.8712V40.8712V219.748C103.495 224.753 105.484 229.553 109.023 233.092C112.562 236.631 117.362 238.619 122.367 238.619H191.446C196.451 238.619 201.251 236.631 204.79 233.092C208.329 229.553 210.317 224.753 210.317 219.748V96.686H211.507V73.4768Z" fill="white"/>
</g>
<path d="M206.299 41.0022V219.617C206.299 221.467 205.935 223.299 205.227 225.009C204.519 226.719 203.482 228.272 202.174 229.58C200.865 230.889 199.312 231.927 197.603 232.635C195.893 233.344 194.061 233.708 192.211 233.709H122.794C119.057 233.709 115.473 232.224 112.83 229.582C110.187 226.94 108.703 223.356 108.703 219.618V41.0022C108.702 39.1517 109.067 37.3194 109.775 35.6097C110.483 33.9001 111.521 32.3467 112.829 31.0381C114.137 29.7296 115.691 28.6916 117.4 27.9833C119.11 27.2751 120.942 26.9105 122.793 26.9104H131.218C130.804 27.9269 130.645 29.0299 130.757 30.1221C130.869 31.2144 131.248 32.2623 131.86 33.1736C132.472 34.085 133.299 34.8317 134.268 35.3481C135.237 35.8644 136.318 36.1345 137.416 36.1346H176.992C178.09 36.1338 179.171 35.8632 180.139 35.3467C181.108 34.8301 181.935 34.0835 182.547 33.1723C183.159 32.2612 183.538 31.2136 183.65 30.1217C183.762 29.0298 183.604 27.927 183.19 26.9104H192.207C194.058 26.9103 195.89 27.2747 197.6 27.9828C199.309 28.6908 200.863 29.7287 202.171 31.0371C203.48 32.3455 204.518 33.8988 205.226 35.6084C205.934 37.3179 206.299 39.1503 206.299 41.0007V41.0007L206.299 41.0022Z" fill="#F2F2F2"/>
<path d="M193.969 93.6201H165.037C160.934 93.6201 157.607 96.9466 157.607 101.05V106.83C157.607 110.933 160.934 114.26 165.037 114.26H193.969C198.072 114.26 201.399 110.933 201.399 106.83V101.05C201.399 96.9466 198.072 93.6201 193.969 93.6201Z" fill="#CECECF"/>
<path d="M193.211 113.086C193.122 113.259 194.601 114.26 194.601 114.26L200.255 119.473C200.255 119.473 201.68 120.045 201.348 118.491L199.363 109.756C199.363 109.756 195.068 109.537 193.211 113.086V113.086Z" fill="#CECECF"/>
<path d="M172.434 102.583C172.434 102.583 173.36 102.161 174.126 102.73C174.872 103.284 174.932 103.94 174.884 104.368C174.836 104.796 174.408 105.443 173.71 105.764C172.949 106.114 172.213 106.198 171.602 105.362C170.991 104.53 171.147 103.871 171.266 103.608C171.431 103.248 171.97 102.733 172.431 102.586L172.434 102.583Z" fill="white"/>
<path d="M177.22 103.91C177.22 103.91 177.316 102.898 178.19 102.514C179.04 102.143 179.642 102.422 179.987 102.676C180.331 102.931 180.682 103.625 180.61 104.389C180.532 105.222 180.238 105.901 179.211 106.015C178.184 106.129 177.693 105.668 177.522 105.428C177.292 105.108 177.115 104.383 177.217 103.91H177.22Z" fill="white"/>
<path d="M183.401 103.164C183.401 103.164 183.952 102.308 184.904 102.374C185.83 102.437 186.237 102.958 186.426 103.341C186.617 103.724 186.605 104.503 186.192 105.15C185.74 105.854 185.168 106.324 184.201 105.952C183.236 105.581 183.012 104.946 182.97 104.656C182.913 104.263 183.089 103.539 183.398 103.167L183.401 103.164Z" fill="white"/>
<path d="M193.969 143H165.037C160.934 143 157.607 146.326 157.607 150.43V156.21C157.607 160.313 160.934 163.639 165.037 163.639H193.969C198.072 163.639 201.399 160.313 201.399 156.21V150.43C201.399 146.326 198.072 143 193.969 143Z" fill="#CECECF"/>
<path d="M172.434 151.963C172.434 151.963 173.36 151.541 174.126 152.11C174.872 152.664 174.932 153.32 174.884 153.748C174.836 154.176 174.408 154.823 173.71 155.144C172.949 155.494 172.213 155.578 171.602 154.742C170.991 153.91 171.147 153.251 171.266 152.987C171.431 152.628 171.97 152.113 172.431 151.966L172.434 151.963Z" fill="white"/>
<path d="M177.22 153.29C177.22 153.29 177.316 152.278 178.19 151.894C179.04 151.523 179.642 151.802 179.987 152.056C180.331 152.311 180.682 153.005 180.61 153.769C180.532 154.602 180.238 155.281 179.211 155.395C178.184 155.509 177.693 155.048 177.522 154.808C177.292 154.488 177.115 153.763 177.217 153.29H177.22Z" fill="white"/>
<path d="M183.401 152.544C183.401 152.544 183.952 151.688 184.904 151.754C185.83 151.817 186.237 152.338 186.426 152.721C186.617 153.104 186.605 153.883 186.192 154.53C185.74 155.233 185.168 155.704 184.201 155.332C183.236 154.961 183.012 154.326 182.97 154.036C182.913 153.643 183.089 152.919 183.398 152.547L183.401 152.544Z" fill="white"/>
<path d="M193.969 40.459H165.037C160.934 40.459 157.608 43.7854 157.608 47.8888V53.6686C157.608 57.772 160.934 61.0984 165.037 61.0984H193.969C198.072 61.0984 201.399 57.772 201.399 53.6686V47.8888C201.399 43.7854 198.072 40.459 193.969 40.459Z" fill="#CECECF"/>
<path d="M193.212 59.9245C193.122 60.0982 194.601 61.0984 194.601 61.0984L200.255 66.3122C200.255 66.3122 201.681 66.8842 201.348 65.3299L199.363 56.5944C199.363 56.5944 195.068 56.3758 193.212 59.9245V59.9245Z" fill="#CECECF"/>
<path d="M172.434 49.4222C172.434 49.4222 173.36 49 174.126 49.5689C174.872 50.123 174.932 50.7788 174.884 51.207C174.836 51.6353 174.408 52.2821 173.71 52.6026C172.949 52.953 172.213 53.0368 171.602 52.2013C170.991 51.3688 171.147 50.7099 171.266 50.4464C171.431 50.087 171.97 49.5719 172.431 49.4252L172.434 49.4222Z" fill="white"/>
<path d="M177.22 50.7489C177.22 50.7489 177.316 49.7366 178.19 49.3533C179.041 48.982 179.643 49.2605 179.987 49.515C180.331 49.7696 180.682 50.4644 180.61 51.228C180.532 52.0605 180.238 52.7403 179.211 52.8541C178.184 52.9679 177.693 52.5068 177.522 52.2672C177.292 51.9467 177.115 51.222 177.217 50.7489H177.22Z" fill="white"/>
<path d="M183.401 50.0032C183.401 50.0032 183.952 49.1467 184.904 49.2126C185.83 49.2755 186.237 49.7966 186.426 50.1799C186.617 50.5632 186.605 51.3418 186.192 51.9887C185.74 52.6924 185.168 53.1626 184.201 52.7913C183.236 52.4199 183.012 51.785 182.97 51.4945C182.913 51.1022 183.09 50.3775 183.398 50.0062L183.401 50.0032Z" fill="white"/>
<path d="M121.475 64.8247H150.406C154.51 64.8247 157.836 68.1512 157.836 72.2545V78.0343C157.836 82.1377 154.51 85.4641 150.406 85.4641H121.475C117.371 85.4641 114.045 82.1377 114.045 78.0343V72.2545C114.045 68.1512 117.371 64.8247 121.475 64.8247Z" fill="#9E9E9E"/>
<path d="M122.232 84.2902C122.322 84.4639 120.843 85.4642 120.843 85.4642L115.189 90.6779C115.189 90.6779 113.763 91.2499 114.096 89.6957L116.081 80.9602C116.081 80.9602 120.375 80.7415 122.232 84.2902V84.2902Z" fill="#9E9E9E"/>
<path d="M143.009 73.7879C143.009 73.7879 142.084 73.3657 141.317 73.9347C140.572 74.4887 140.512 75.1445 140.56 75.5728C140.608 76.001 141.036 76.6479 141.734 76.9683C142.494 77.3187 143.231 77.4025 143.842 76.567C144.453 75.7345 144.297 75.0756 144.177 74.8121C144.013 74.4528 143.474 73.9377 143.012 73.7909L143.009 73.7879Z" fill="white"/>
<path d="M138.224 75.1146C138.224 75.1146 138.128 74.1024 137.254 73.719C136.403 73.3477 135.801 73.6262 135.457 73.8808C135.112 74.1353 134.762 74.8301 134.834 75.5937C134.912 76.4263 135.205 77.1061 136.232 77.2199C137.26 77.3337 137.751 76.8725 137.921 76.6329C138.152 76.3125 138.329 75.5877 138.227 75.1146H138.224Z" fill="white"/>
<path d="M132.043 74.3689C132.043 74.3689 131.492 73.5124 130.539 73.5783C129.614 73.6412 129.207 74.1623 129.018 74.5456C128.826 74.9289 128.838 75.7075 129.252 76.3544C129.704 77.0581 130.276 77.5283 131.243 77.157C132.208 76.7856 132.432 76.1508 132.474 75.8603C132.531 75.468 132.354 74.7433 132.046 74.3719L132.043 74.3689Z" fill="white"/>
<path d="M121.475 117H150.406C154.51 117 157.836 120.326 157.836 124.43V130.21C157.836 134.313 154.51 137.639 150.406 137.639H121.475C117.371 137.639 114.045 134.313 114.045 130.21V124.43C114.045 120.326 117.371 117 121.475 117Z" fill="#9E9E9E"/>
<path d="M122.232 136.466C122.322 136.639 120.843 137.639 120.843 137.639L115.189 142.853C115.189 142.853 113.763 143.425 114.096 141.871L116.081 133.135C116.081 133.135 120.375 132.917 122.232 136.466V136.466Z" fill="#9E9E9E"/>
<path d="M143.009 125.963C143.009 125.963 142.084 125.541 141.317 126.11C140.572 126.664 140.512 127.32 140.56 127.748C140.608 128.176 141.036 128.823 141.734 129.144C142.494 129.494 143.231 129.578 143.842 128.742C144.453 127.91 144.297 127.251 144.177 126.987C144.013 126.628 143.474 126.113 143.012 125.966L143.009 125.963Z" fill="white"/>
<path d="M138.224 127.29C138.224 127.29 138.128 126.278 137.254 125.894C136.403 125.523 135.801 125.802 135.457 126.056C135.112 126.311 134.762 127.005 134.834 127.769C134.912 128.602 135.205 129.281 136.232 129.395C137.26 129.509 137.751 129.048 137.921 128.808C138.152 128.488 138.329 127.763 138.227 127.29H138.224Z" fill="white"/>
<path d="M132.043 126.544C132.043 126.544 131.492 125.688 130.539 125.754C129.614 125.817 129.207 126.338 129.018 126.721C128.826 127.104 128.838 127.883 129.252 128.53C129.704 129.233 130.276 129.704 131.243 129.332C132.208 128.961 132.432 128.326 132.474 128.036C132.531 127.643 132.354 126.919 132.046 126.547L132.043 126.544Z" fill="white"/>
<path d="M105.348 56.377H101.493V77.1001H105.348V56.377Z" fill="white"/>
<path d="M105.348 79.5098H101.493V91.5581H105.348V79.5098Z" fill="white"/>
<path d="M138.602 31.7981C139.666 31.7981 140.529 30.935 140.529 29.8704C140.529 28.8057 139.666 27.9426 138.602 27.9426C137.537 27.9426 136.674 28.8057 136.674 29.8704C136.674 30.935 137.537 31.7981 138.602 31.7981Z" fill="white"/>
</g>
<path d="M185.875 71.5C185.875 68.5469 185.766 65.2656 185.766 61.5469C185.766 60.0156 184.672 58.7031 183.141 58.375L157.875 54H156.781L131.516 58.375C129.984 58.7031 128.781 60.0156 128.891 61.5469C128.891 65.2656 128.891 68.5469 128.781 71.5C128.672 76.75 128.672 80.5781 128.891 82.875C130.312 97.9687 133.484 104.969 138.953 112.406C143.328 118.313 149.672 122.359 156.781 123.891C157 123.891 157.219 124 157.437 124C157.656 124 157.875 124 158.094 123.891C165.203 122.359 171.547 118.313 175.922 112.406C181.391 104.969 184.562 98.0781 185.875 82.875C185.984 80.4687 185.984 76.75 185.875 71.5V71.5Z" fill="#7638E9"/>
<path d="M156.781 54.1094L131.516 58.4844C129.984 58.7031 128.891 60.0156 128.891 61.5469C128.891 65.2656 128.781 68.5469 128.781 71.5C128.672 76.75 128.672 80.5781 128.891 82.875C130.312 98.0781 133.484 104.969 138.844 112.406C143.219 118.313 149.562 122.359 156.672 123.891C156.891 123.891 157.109 124 157.328 124V54C157.109 54 157 54 156.781 54.1094V54.1094Z" fill="#7638E9"/>
<path d="M156.891 58.9219L135.672 62.5313C134.359 62.75 133.484 63.8437 133.484 65.1562C133.484 68.3281 133.484 71.0625 133.375 73.4687C133.266 77.8437 133.266 81.125 133.484 82.9844C134.578 95.6719 137.312 101.578 141.797 107.812C145.406 112.734 150.766 116.234 156.781 117.437H157.328V58.8125C157.219 58.8125 157 58.8125 156.891 58.9219Z" fill="#7638E9"/>
<path d="M181.281 73.4687C181.281 71.0625 181.172 68.2187 181.172 65.1562C181.172 63.8437 180.297 62.75 178.984 62.5313L157.766 58.9219H157.328V117.547H157.875C163.891 116.234 169.25 112.844 172.859 107.813C177.453 101.578 180.078 95.7812 181.281 82.9844C181.391 81.125 181.391 77.9531 181.281 73.4687V73.4687Z" fill="#DABDFF"/>
<path d="M185.875 71.5C185.875 68.5469 185.766 65.2656 185.766 61.5469C185.766 60.0156 184.672 58.7031 183.141 58.375L157.875 54H156.781L131.516 58.375C129.984 58.7031 128.781 60.0156 128.891 61.5469C128.891 65.2656 128.891 68.5469 128.781 71.5C128.672 76.75 128.672 80.5781 128.891 82.875C130.312 97.9687 133.484 104.969 138.953 112.406C143.328 118.313 149.672 122.359 156.781 123.891C157 123.891 157.219 124 157.437 124C157.656 124 157.875 124 158.094 123.891C165.203 122.359 171.547 118.313 175.922 112.406C181.391 104.969 184.562 98.0781 185.875 82.875C185.984 80.4687 185.984 76.75 185.875 71.5V71.5Z" fill="#8F59FF"/>
<path d="M156.781 54.1094L131.516 58.4844C129.984 58.7031 128.891 60.0156 128.891 61.5469C128.891 65.2656 128.781 68.5469 128.781 71.5C128.672 76.75 128.672 80.5781 128.891 82.875C130.312 98.0781 133.484 104.969 138.844 112.406C143.219 118.313 149.562 122.359 156.672 123.891C156.891 123.891 157.109 124 157.328 124V54C157.109 54 157 54 156.781 54.1094V54.1094Z" fill="#592ACA"/>
<path d="M156.891 58.9219L135.672 62.5313C134.359 62.75 133.484 63.8437 133.484 65.1562C133.484 68.3281 133.484 71.0625 133.375 73.4687C133.266 77.8437 133.266 81.125 133.484 82.9844C134.578 95.6719 137.312 101.578 141.797 107.812C145.406 112.734 150.766 116.234 156.781 117.437H157.328V58.8125C157.219 58.8125 157 58.8125 156.891 58.9219Z" fill="#7542E4"/>
<path d="M181.281 73.4687C181.281 71.0625 181.172 68.2187 181.172 65.1562C181.172 63.8437 180.297 62.75 178.984 62.5313L157.766 58.9219H157.328V117.547H157.875C163.891 116.234 169.25 112.844 172.859 107.813C177.453 101.578 180.078 95.7812 181.281 82.9844C181.391 81.125 181.391 77.9531 181.281 73.4687V73.4687Z" fill="#DABDFF"/>
<defs>
<filter id="filter0_d_803_339" x="79.4955" y="-2" width="156.012" height="264.619" filterUnits="userSpaceOnUse" color-interpolation-filters="sRGB">
<feFlood flood-opacity="0" result="BackgroundImageFix"/>
<feColorMatrix in="SourceAlpha" type="matrix" values="0 0 0 0 0 0 0 0 0 0 0 0 0 0 0 0 0 0 127 0" result="hardAlpha"/>
<feOffset/>
<feGaussianBlur stdDeviation="12"/>
<feComposite in2="hardAlpha" operator="out"/>
<feColorMatrix type="matrix" values="0 0 0 0 0 0 0 0 0 0 0 0 0 0 0 0 0 0 0.16 0"/>
<feBlend mode="normal" in2="BackgroundImageFix" result="effect1_dropShadow_803_339"/>
<feBlend mode="normal" in="SourceGraphic" in2="effect1_dropShadow_803_339" result="shape"/>
</filter>
</defs>
</svg>
