<svg width="150" height="160" viewBox="0 0 150 160" fill="none" xmlns="http://www.w3.org/2000/svg">
<rect width="150" height="160" rx="8" fill="#F770FF"/>
<mask id="mask0_817_760" style="mask-type:alpha" maskUnits="userSpaceOnUse" x="0" y="0" width="150" height="160">
<rect width="150" height="160" rx="8" fill="#F770FF"/>
</mask>
<g mask="url(#mask0_817_760)">
<g filter="url(#filter0_d_817_760)">
<path fill-rule="evenodd" clip-rule="evenodd" d="M-25.6867 109.095C-25.9677 109.67 -26.334 110.221 -26.7858 110.729L-45.9066 129.85C-49.1929 133.136 -49.0436 138.365 -45.9066 141.502L-38.8083 148.6L-32.761 154.647L-12.1464 175.262L0.894358 188.303L12.8003 200.209C16.236 203.346 21.6138 203.346 24.9001 200.059L44.0209 180.938C44.3297 180.63 44.5985 180.296 44.8275 179.943L64.1118 160.659C64.3958 160.471 64.6708 160.259 64.9343 160.025L84.0551 140.904C87.3415 137.618 87.1921 132.39 84.0551 129.252L64.7849 109.982C62.3948 107.592 62.3948 103.708 64.7849 101.019C66.8934 98.911 69.3325 99.0511 71.9156 99.1994C74.8228 99.3664 77.9123 99.5438 80.9181 96.538C86.1464 91.3097 84.5032 83.0937 77.9305 76.5209C71.5071 70.0976 62.3948 68.4544 57.3159 73.5333C54.8761 75.9731 54.7998 79.1178 54.7277 82.0936C54.6629 84.7659 54.6014 87.302 52.8344 89.069C50.4443 91.4591 46.5604 91.4591 43.8716 89.069L25.3483 70.5457C22.3607 67.5581 17.2817 66.6618 13.3978 70.5457L-5.723 89.6665C-6.24887 90.1924 -6.84705 90.6025 -7.48732 90.8954L-25.6867 109.095Z" fill="white"/>
</g>
<g filter="url(#filter1_d_817_760)">
<path fill-rule="evenodd" clip-rule="evenodd" d="M75.3135 6.83358C75.0325 7.40897 74.6662 7.95983 74.2145 8.46801L55.0937 27.5888C51.8073 30.8752 51.9567 36.1035 55.0937 39.2405L68.2392 52.3861L68.2754 52.422L74.1853 58.3319C76.8422 60.3371 80.431 60.2113 82.6879 57.9545C84.4548 56.1875 84.5163 53.6514 84.5811 50.9791C84.6532 48.0033 84.7295 44.8586 87.1693 42.4188C92.2483 37.3399 101.361 38.983 107.784 45.4064C114.357 51.9792 116 60.1952 110.772 65.4235C107.766 68.4293 104.676 68.2519 101.769 68.0849C99.1859 67.9366 96.7468 67.7965 94.6383 69.905C92.4515 72.3651 92.2655 75.8257 94.0804 78.2272L113.801 97.9474C117.236 101.084 122.614 101.084 125.9 97.798L145.021 78.6772C145.33 78.3685 145.599 78.035 145.828 77.6823L165.112 58.3975C165.396 58.2092 165.671 57.998 165.935 57.7638L185.055 38.643C188.342 35.3566 188.192 30.1283 185.055 26.9913L165.785 7.7211C165.581 7.51654 165.394 7.30104 165.224 7.07628L145.335 -12.8126C145.177 -12.9316 145.023 -13.0582 144.872 -13.1923L126.349 -31.7155C123.361 -34.7032 118.282 -35.5994 114.398 -31.7155L95.2772 -12.5947C94.7514 -12.0689 94.1532 -11.6587 93.5129 -11.3658L75.3135 6.83358Z" fill="white"/>
</g>
<rect x="-52.0001" y="135.408" width="101" height="100" rx="8" transform="rotate(-45 -52.0001 135.408)" fill="white"/>
<rect x="49.0001" y="33.147" width="100" height="21" rx="8" transform="rotate(-45 49.0001 33.147)" fill="white"/>
<rect x="104.862" y="89.0088" width="100" height="21" rx="8" transform="rotate(-45 104.862 89.0088)" fill="white"/>
<path d="M50.4306 114.162L34.9421 105.449C34.3981 105.154 33.7888 105 33.1697 105C32.5506 105 31.9413 105.154 31.3972 105.449L15.8542 114.162C15.2931 114.478 14.8259 114.937 14.5002 115.491C14.1744 116.046 14.0018 116.677 14 117.321V134.692C13.995 135.337 14.1647 135.971 14.4911 136.527C14.8175 137.083 15.2886 137.54 15.8542 137.851L31.3427 146.509C31.8858 146.835 32.5087 147.005 33.1424 146.999C33.7752 146.998 34.3962 146.829 34.9421 146.509L50.4306 137.851C50.9917 137.535 51.4589 137.076 51.7847 136.521C52.1104 135.967 52.283 135.335 52.2849 134.692V117.321C52.3009 116.674 52.1358 116.036 51.8082 115.478C51.4806 114.92 51.0035 114.464 50.4306 114.162V114.162Z" fill="url(#paint0_linear_817_760)"/>
<path d="M22.3437 130.55L21.4166 131.095C21.2507 131.187 21.1047 131.311 20.9873 131.459C20.8698 131.608 20.7832 131.779 20.7324 131.961C20.6816 132.144 20.6678 132.334 20.6916 132.522C20.7154 132.71 20.7765 132.891 20.8712 133.055C20.993 133.283 21.1736 133.474 21.3942 133.608C21.6148 133.742 21.8673 133.814 22.1255 133.818C22.371 133.816 22.613 133.76 22.8345 133.654L23.7616 133.11C23.9275 133.018 24.0735 132.894 24.1909 132.746C24.3084 132.597 24.395 132.426 24.4458 132.244C24.4966 132.061 24.5104 131.871 24.4866 131.683C24.4628 131.495 24.4017 131.314 24.307 131.149C24.2228 130.976 24.1037 130.823 23.9573 130.698C23.8109 130.573 23.6403 130.479 23.456 130.423C23.2718 130.367 23.0779 130.349 22.8865 130.371C22.6952 130.393 22.5104 130.454 22.3437 130.55V130.55ZM28.0155 127.338L26.1067 128.427C25.9408 128.518 25.7949 128.642 25.6774 128.791C25.56 128.94 25.4733 129.11 25.4226 129.293C25.3718 129.475 25.3579 129.666 25.3818 129.854C25.4056 130.042 25.4666 130.223 25.5614 130.387C25.6831 130.614 25.8637 130.805 26.0843 130.939C26.3049 131.073 26.5575 131.146 26.8157 131.149C27.0611 131.147 27.3031 131.092 27.5247 130.986L29.4335 129.897C29.5994 129.805 29.7453 129.681 29.8628 129.533C29.9802 129.384 30.0669 129.213 30.1176 129.031C30.1684 128.848 30.1823 128.658 30.1584 128.47C30.1346 128.282 30.0736 128.101 29.9788 127.937C29.8946 127.764 29.7756 127.61 29.6292 127.485C29.4827 127.36 29.3121 127.266 29.1279 127.21C28.9436 127.154 28.7498 127.136 28.5584 127.158C28.367 127.18 28.1822 127.241 28.0155 127.338V127.338ZM35.7052 124.675C35.6284 124.52 35.5212 124.383 35.39 124.27C35.2588 124.158 35.1064 124.073 34.9417 124.021V113.07C34.9424 112.877 34.9048 112.685 34.8311 112.506C34.7573 112.328 34.6489 112.165 34.512 112.029C34.3751 111.892 34.2125 111.784 34.0335 111.71C33.8546 111.636 33.6628 111.599 33.4692 111.6C33.2785 111.6 33.0899 111.639 32.9146 111.714C32.7392 111.789 32.5807 111.898 32.4485 112.035C32.3162 112.172 32.2129 112.334 32.1447 112.512C32.0764 112.69 32.0447 112.88 32.0512 113.07V124.07C31.8866 124.122 31.7341 124.207 31.6029 124.319C31.4717 124.432 31.3646 124.569 31.2877 124.724C31.1853 124.915 31.1272 125.127 31.1177 125.344C31.1083 125.56 31.1477 125.777 31.2332 125.976C31.1477 126.176 31.1083 126.392 31.1177 126.609C31.1272 126.825 31.1853 127.037 31.2877 127.229C31.3646 127.383 31.4717 127.521 31.6029 127.633C31.7341 127.745 31.8866 127.83 32.0512 127.882V138.882C32.0512 139.272 32.2064 139.646 32.4825 139.922C32.7587 140.198 33.1332 140.353 33.5237 140.353C33.9143 140.353 34.2888 140.198 34.5649 139.922C34.8411 139.646 34.9962 139.272 34.9962 138.882V127.828C35.1609 127.775 35.3134 127.691 35.4445 127.578C35.5757 127.466 35.6829 127.329 35.7597 127.174C35.8622 126.983 35.9203 126.771 35.9297 126.554C35.9392 126.337 35.8997 126.121 35.8143 125.922C35.9405 125.508 35.9014 125.061 35.7052 124.675V124.675ZM39.4192 120.912L37.5104 122.001C37.3445 122.093 37.1985 122.216 37.0811 122.365C36.9636 122.514 36.877 122.684 36.8262 122.867C36.7755 123.049 36.7616 123.24 36.7854 123.428C36.8092 123.616 36.8703 123.797 36.965 123.961C37.0868 124.189 37.2674 124.379 37.488 124.513C37.7086 124.647 37.9611 124.72 38.2194 124.724C38.4648 124.722 38.7068 124.666 38.9283 124.56L40.8371 123.471C41.003 123.379 41.149 123.255 41.2664 123.107C41.3839 122.958 41.4705 122.788 41.5213 122.605C41.572 122.423 41.5859 122.232 41.5621 122.044C41.5383 121.856 41.4772 121.675 41.3825 121.511C41.2983 121.338 41.1792 121.184 41.0328 121.059C40.8864 120.934 40.7157 120.84 40.5315 120.784C40.3473 120.728 40.1534 120.71 39.962 120.732C39.7706 120.754 39.5858 120.815 39.4192 120.912V120.912ZM43.9403 121.456C44.1857 121.454 44.4277 121.398 44.6492 121.293L45.5764 120.748C45.7421 120.656 45.8878 120.532 46.0053 120.383C46.1227 120.234 46.2096 120.063 46.2608 119.881C46.3121 119.698 46.3267 119.508 46.3039 119.319C46.2811 119.131 46.2212 118.949 46.1278 118.784C46.0344 118.619 45.9093 118.474 45.7597 118.358C45.61 118.241 45.4388 118.155 45.2557 118.105C45.0727 118.055 44.8816 118.041 44.6933 118.065C44.505 118.089 44.3232 118.149 44.1584 118.243L43.2313 118.788C43.0654 118.88 42.9195 119.004 42.802 119.152C42.6845 119.301 42.5979 119.471 42.5471 119.654C42.4964 119.836 42.4825 120.027 42.5063 120.215C42.5302 120.403 42.5912 120.584 42.6859 120.748C42.8108 120.969 42.9936 121.152 43.2146 121.276C43.4356 121.401 43.6865 121.463 43.9403 121.456ZM45.5764 131.095L44.6492 130.55C44.3167 130.365 43.9241 130.318 43.5573 130.421C43.1906 130.524 42.8794 130.767 42.692 131.098C42.5045 131.43 42.4561 131.821 42.5571 132.188C42.6582 132.555 42.9006 132.867 43.2313 133.055L44.1584 133.6C44.38 133.706 44.622 133.761 44.8674 133.763C45.1256 133.76 45.3782 133.687 45.5988 133.553C45.8194 133.419 46 133.228 46.1217 133.001C46.2193 132.842 46.2828 132.665 46.3081 132.48C46.3333 132.295 46.3199 132.108 46.2686 131.928C46.2174 131.749 46.1294 131.583 46.0102 131.439C45.891 131.296 45.7433 131.178 45.5764 131.095V131.095ZM40.8317 128.427L38.9229 127.338C38.7581 127.243 38.5763 127.183 38.388 127.159C38.1997 127.135 38.0086 127.149 37.8256 127.199C37.6425 127.25 37.4713 127.336 37.3216 127.452C37.172 127.569 37.0469 127.714 36.9535 127.879C36.8601 128.044 36.8002 128.225 36.7774 128.414C36.7546 128.602 36.7692 128.793 36.8205 128.975C36.8717 129.158 36.9586 129.328 37.076 129.477C37.1935 129.626 37.3392 129.75 37.5049 129.843L39.4137 130.932C39.6352 131.037 39.8773 131.093 40.1227 131.095C40.3809 131.091 40.6335 131.019 40.8541 130.885C41.0747 130.751 41.2552 130.56 41.377 130.333C41.4763 130.174 41.5411 129.997 41.5673 129.812C41.5935 129.627 41.5805 129.438 41.529 129.258C41.4776 129.079 41.389 128.912 41.2688 128.769C41.1487 128.625 40.9998 128.509 40.8317 128.427V128.427ZM26.1067 123.417L28.0155 124.506C28.237 124.611 28.479 124.667 28.7245 124.669C28.9827 124.666 29.2353 124.593 29.4559 124.459C29.6765 124.325 29.857 124.134 29.9788 123.907C30.0736 123.743 30.1346 123.561 30.1584 123.374C30.1823 123.186 30.1684 122.995 30.1176 122.812C30.0669 122.63 29.9802 122.459 29.8628 122.311C29.7453 122.162 29.5994 122.038 29.4335 121.946L27.5247 120.857C27.3604 120.763 27.1788 120.702 26.9907 120.678C26.8025 120.654 26.6115 120.668 26.4287 120.719C26.246 120.769 26.0752 120.856 25.9262 120.973C25.7773 121.09 25.6533 121.236 25.5614 121.402C25.3787 121.744 25.3334 122.143 25.4347 122.517C25.536 122.891 25.7763 123.213 26.1067 123.417V123.417ZM23.7616 118.788L22.8345 118.243C22.6697 118.149 22.488 118.089 22.2996 118.065C22.1113 118.041 21.9202 118.055 21.7372 118.105C21.5542 118.155 21.3829 118.241 21.2333 118.358C21.0836 118.474 20.9585 118.619 20.8651 118.784C20.7717 118.949 20.7119 119.131 20.689 119.319C20.6662 119.508 20.6809 119.698 20.7321 119.881C20.7833 120.063 20.8702 120.234 20.9876 120.383C21.1051 120.532 21.2509 120.656 21.4166 120.748L22.3437 121.293C22.5652 121.398 22.8072 121.454 23.0527 121.456C23.3109 121.453 23.5634 121.38 23.784 121.246C24.0046 121.112 24.1852 120.921 24.307 120.694C24.3998 120.534 24.4594 120.357 24.4821 120.173C24.5049 119.989 24.4904 119.803 24.4395 119.625C24.3886 119.447 24.3023 119.282 24.1859 119.138C24.0694 118.994 23.9251 118.875 23.7616 118.788V118.788Z" fill="#20133A"/>
<path fill-rule="evenodd" clip-rule="evenodd" d="M122 11.7249C120.26 11.7249 118.85 13.1352 118.85 14.8749C118.85 16.6146 120.26 18.0249 122 18.0249C123.739 18.0249 125.15 16.6146 125.15 14.8749C125.15 13.1352 123.739 11.7249 122 11.7249ZM114.65 14.8749C114.65 10.8156 117.94 7.5249 122 7.5249C126.059 7.5249 129.35 10.8156 129.35 14.8749C129.35 18.9342 126.059 22.2249 122 22.2249C120.734 22.2249 119.543 21.9049 118.503 21.3415L115.341 24.5032C115.58 24.9436 115.775 25.4111 115.92 25.8999H128.079C128.983 22.8638 131.795 20.6499 135.125 20.6499C139.184 20.6499 142.475 23.9406 142.475 27.9999C142.475 32.0592 139.184 35.3499 135.125 35.3499C133.859 35.3499 132.668 35.0299 131.628 34.4664L128.466 37.6282C129.03 38.668 129.35 39.8591 129.35 41.1249C129.35 45.1842 126.059 48.4749 122 48.4749C117.94 48.4749 114.65 45.1842 114.65 41.1249C114.65 37.0656 117.94 33.7749 122 33.7749C123.265 33.7749 124.457 34.0949 125.496 34.6583L128.658 31.4966C128.419 31.0562 128.225 30.5887 128.079 30.0999H115.92C115.017 33.136 112.204 35.3499 108.875 35.3499C104.815 35.3499 101.525 32.0592 101.525 27.9999C101.525 23.9406 104.815 20.6499 108.875 20.6499C110.14 20.6499 111.332 20.9699 112.371 21.5333L115.533 18.3716C114.97 17.3317 114.65 16.1407 114.65 14.8749ZM118.85 41.1249C118.85 39.3852 120.26 37.9749 122 37.9749C123.739 37.9749 125.15 39.3852 125.15 41.1249C125.15 42.8646 123.739 44.2749 122 44.2749C120.26 44.2749 118.85 42.8646 118.85 41.1249ZM108.875 24.8499C107.135 24.8499 105.725 26.2602 105.725 27.9999C105.725 29.7396 107.135 31.1499 108.875 31.1499C110.614 31.1499 112.025 29.7396 112.025 27.9999C112.025 26.2602 110.614 24.8499 108.875 24.8499ZM131.975 27.9999C131.975 26.2602 133.385 24.8499 135.125 24.8499C136.864 24.8499 138.275 26.2602 138.275 27.9999C138.275 29.7396 136.864 31.1499 135.125 31.1499C133.385 31.1499 131.975 29.7396 131.975 27.9999Z" fill="black"/>
</g>
<defs>
<filter id="filter0_d_817_760" x="-52.3157" y="67.958" width="142.78" height="142.585" filterUnits="userSpaceOnUse" color-interpolation-filters="sRGB">
<feFlood flood-opacity="0" result="BackgroundImageFix"/>
<feColorMatrix in="SourceAlpha" type="matrix" values="0 0 0 0 0 0 0 0 0 0 0 0 0 0 0 0 0 0 127 0" result="hardAlpha"/>
<feOffset dy="4"/>
<feGaussianBlur stdDeviation="2"/>
<feComposite in2="hardAlpha" operator="out"/>
<feColorMatrix type="matrix" values="0 0 0 0 0 0 0 0 0 0 0 0 0 0 0 0 0 0 0.1 0"/>
<feBlend mode="normal" in2="BackgroundImageFix" result="effect1_dropShadow_817_760"/>
<feBlend mode="normal" in="SourceGraphic" in2="effect1_dropShadow_817_760" result="shape"/>
</filter>
<filter id="filter1_d_817_760" x="48.6846" y="-34.3032" width="142.78" height="142.585" filterUnits="userSpaceOnUse" color-interpolation-filters="sRGB">
<feFlood flood-opacity="0" result="BackgroundImageFix"/>
<feColorMatrix in="SourceAlpha" type="matrix" values="0 0 0 0 0 0 0 0 0 0 0 0 0 0 0 0 0 0 127 0" result="hardAlpha"/>
<feOffset dy="4"/>
<feGaussianBlur stdDeviation="2"/>
<feComposite in2="hardAlpha" operator="out"/>
<feColorMatrix type="matrix" values="0 0 0 0 0 0 0 0 0 0 0 0 0 0 0 0 0 0 0.1 0"/>
<feBlend mode="normal" in2="BackgroundImageFix" result="effect1_dropShadow_817_760"/>
<feBlend mode="normal" in="SourceGraphic" in2="effect1_dropShadow_817_760" result="shape"/>
</filter>
<linearGradient id="paint0_linear_817_760" x1="14" y1="126.001" x2="52.2903" y2="126.001" gradientUnits="userSpaceOnUse">
<stop stop-color="#9059FF"/>
<stop offset="1" stop-color="#F770FF"/>
</linearGradient>
</defs>
</svg>
