<svg width="150" height="160" viewBox="0 0 150 160" fill="none" xmlns="http://www.w3.org/2000/svg">
<rect width="150" height="160" rx="8" fill="#F770FF"/>
<mask id="mask0_817_681" style="mask-type:alpha" maskUnits="userSpaceOnUse" x="0" y="0" width="150" height="160">
<rect width="150" height="160" rx="8" fill="#F770FF"/>
</mask>
<g mask="url(#mask0_817_681)">
<path opacity="0.2" d="M303.621 116.175C288.194 116.175 275.548 110.98 265.234 100.474C253.383 88.3995 246.28 70.9992 240.01 55.6412C232.265 36.6766 225.576 20.2951 212.481 18.3446C193.44 15.5105 177.271 26.1901 161.637 36.5125C148.345 45.2899 135.786 53.5844 122.022 53.5844C116.797 53.5844 112.523 51.5905 109.308 47.6556C103.756 40.8577 101.346 28.4641 102.151 10.8321C102.749 -2.24704 104.995 -13.4964 105.019 -13.6122C105.072 -13.873 105.322 -14.0468 105.587 -13.9888C105.848 -13.9357 106.016 -13.6798 105.963 -13.4191C105.872 -12.9749 97.1488 31.2354 110.06 47.0473C113.082 50.7455 117.106 52.6237 122.026 52.6237C135.501 52.6237 147.94 44.4112 161.112 35.711C176.9 25.2873 193.228 14.5063 212.626 17.3934C226.26 19.4212 233.046 36.0393 240.901 55.2791C247.137 70.5502 254.208 87.8587 265.923 99.7985C279.331 113.462 296.806 117.976 319.337 113.597C319.597 113.549 319.852 113.718 319.9 113.978C319.953 114.239 319.78 114.495 319.52 114.543C313.92 115.63 308.623 116.18 303.621 116.18V116.175Z" fill="#9059FF"/>
<path opacity="0.2" d="M193.274 97.9956C179.327 97.9956 167.895 93.2867 158.571 83.7638C147.857 72.8187 141.435 57.0464 135.767 43.1254C128.765 25.9352 122.718 11.0863 110.88 9.31831C93.6657 6.74941 79.0482 16.4298 64.9143 25.7864C52.8979 33.7425 41.5437 41.2611 29.1004 41.2611C24.3775 41.2611 20.5129 39.4536 17.6068 35.8869C12.5876 29.7251 10.4092 18.4911 11.1368 2.50877C11.677 -9.34668 13.7073 -19.5435 13.7291 -19.6485C13.7771 -19.8848 14.0036 -20.0424 14.2432 -19.9899C14.4785 -19.9417 14.631 -19.7098 14.5831 -19.4735C14.5003 -19.0709 6.61427 21.0031 18.2865 35.3355C21.0183 38.6878 24.6563 40.3902 29.1047 40.3902C41.2867 40.3902 52.5319 32.946 64.4394 25.0599C78.7127 15.6115 93.4739 5.83914 111.011 8.45618C123.336 10.2942 129.471 25.3575 136.573 42.7971C142.211 56.6394 148.602 72.3285 159.194 83.1512C171.315 95.5361 187.113 99.628 207.482 95.6587C207.717 95.6149 207.948 95.7681 207.991 96.0044C208.039 96.2407 207.882 96.4727 207.647 96.5164C202.584 97.5011 197.796 98 193.274 98V97.9956Z" fill="#9059FF"/>
<path opacity="0.2" d="M94.4656 166C90.9436 166 87.2477 165.41 83.3855 164.055C71.5723 159.909 64.6492 148.46 57.9528 137.389C51.2261 126.273 44.2803 114.779 32.384 110.549C30.6456 109.929 28.9526 109.406 27.3125 108.99C26.5567 114.438 24.5992 118.888 21.9841 121.93C18.3487 126.152 13.4662 127.696 8.58373 126.167C5.31866 125.146 2.96811 122.611 2.29545 119.387C1.56988 115.929 2.84719 112.373 5.71168 109.86C8.38722 107.522 14.3429 104.458 26.0277 107.106C26.6399 100.114 25.2416 91.5483 20.737 82.2409C14.5924 69.5435 3.87508 59.6534 -9.45729 54.3943C-22.9257 49.0671 -37.3086 49.2336 -49.9381 54.8635C-50.316 55.0375 -50.7695 54.8635 -50.9358 54.4776C-51.102 54.0992 -50.9358 53.6452 -50.5503 53.4787C-37.5505 47.6824 -22.7519 47.5083 -8.89799 52.9793C4.78204 58.3821 15.7941 68.537 22.0975 81.575C26.7684 91.2305 28.1817 100.152 27.4939 107.454C29.1794 107.885 30.9782 108.438 32.8904 109.119C45.2855 113.53 52.3825 125.259 59.2452 136.602C66.1079 147.945 72.5851 158.652 83.8844 162.625C103.641 169.564 118.485 155.913 129.323 145.947C134.553 141.135 138.332 137.662 141.439 137.662C150.622 137.662 159.525 153.197 159.903 153.863C160.107 154.226 159.979 154.687 159.616 154.892C159.253 155.096 158.792 154.967 158.588 154.604C158.497 154.453 149.745 139.175 141.439 139.175C138.922 139.175 134.946 142.83 130.344 147.06C121.818 154.899 109.74 166 94.4581 166H94.4656ZM17.6156 107.628C13.0127 107.628 9.27151 108.756 6.70934 110.995C4.26054 113.137 3.16463 116.156 3.77683 119.069C4.35124 121.794 6.27098 123.852 9.03722 124.722C13.3831 126.084 17.5702 124.745 20.8429 120.946C23.3219 118.071 25.1585 113.841 25.8538 108.642C22.8911 107.969 20.1248 107.636 17.608 107.636L17.6156 107.628Z" fill="#9059FF"/>
<path opacity="0.5" d="M22.8428 6.26403C18.71 9.98959 26.6862 16.9256 29.207 13.138C31.7278 9.35044 26.5566 2.91063 22.8428 6.26403Z" fill="#FFD18D"/>
<path opacity="0.4" d="M8.47415 147.411C12.8931 150.792 18.2524 141.682 14.0674 139.896C9.88249 138.111 4.49776 144.374 8.47415 147.411Z" fill="#9059FF"/>
<path opacity="0.5" d="M140.28 119.906C137.186 131.982 160.753 135.017 160.753 124.826C160.753 114.635 143.054 109.044 140.28 119.906Z" fill="#FFD18D"/>
<path opacity="0.3" d="M125.11 85.0326C130.541 89.686 138.076 78.3272 132.832 75.7439C127.587 73.1607 120.224 80.852 125.11 85.0326Z" fill="#9059FF"/>
<path opacity="0.3" d="M138.752 159.015C140.894 164.623 151.003 159.263 148.169 155.256C145.335 151.25 136.822 153.973 138.752 159.015Z" fill="#9059FF"/>
<path opacity="0.3" d="M4.62291 98.2406C11.2782 95.6236 4.77412 83.6442 0.0346753 87.0671C-4.70477 90.49 -1.36008 100.599 4.62291 98.2406Z" fill="#9059FF"/>
<path opacity="0.2" d="M131.956 12.5337C129.727 17.437 139.523 20.5102 140.294 16.1748C141.064 11.8393 133.958 8.12258 131.956 12.5337Z" fill="#9059FF"/>
<path opacity="0.2" d="M55.8692 15.2609C52.1786 16.9076 56.1551 23.505 58.7437 21.452C61.3322 19.3991 59.1868 13.7773 55.8692 15.2609Z" fill="#9059FF"/>
<path opacity="0.5" d="M-63.9232 113.992C-64.2912 113.992 -64.6439 113.77 -64.7896 113.409C-70.4786 99.4348 -68.4928 81.9843 -59.7369 68.9539C-50.866 55.7471 -36.1451 48.4721 -18.3036 48.4721C-7.92231 48.4721 0.158871 50.3062 6.25426 53.1686C7.81836 50.805 9.94216 48.6717 12.687 46.9374C21.4276 41.4121 29.5931 43.7296 38.2263 46.193C47.8102 48.9249 57.7239 51.7413 70.459 45.2337C86.629 36.9689 87.043 20.1783 87.4417 3.94022C87.7561 -8.68343 88.0474 -20.6011 95.7836 -27.6534C110.811 -41.3438 151.692 -24.5071 153.425 -23.7858C153.901 -23.5862 154.123 -23.0414 153.931 -22.5656C153.732 -22.0898 153.188 -21.8673 152.712 -22.0591C152.298 -22.2356 111.195 -39.1644 97.0487 -26.2721C89.9029 -19.7646 89.6192 -8.23067 89.3202 3.98626C88.9292 19.9864 88.4768 38.1277 71.3177 46.899C57.9309 53.7442 47.1969 50.6822 37.7279 47.9887C29.1484 45.5484 21.7342 43.438 13.6991 48.5182C11.2072 50.0914 9.32112 51.9638 7.94103 53.9974C16.4976 58.548 20.7068 65.209 21.6576 71.2868C22.547 77.0039 20.3695 81.8845 16.3596 83.1737C12.227 84.4937 7.77236 81.5315 5.01985 75.6226C2.09867 69.3453 1.77664 61.349 5.31887 54.7725C-0.515834 52.0712 -8.275 50.3369 -18.2806 50.3369C-35.4857 50.3369 -49.647 57.3202 -58.1652 69.9899C-66.599 82.5291 -68.5158 99.2967 -63.0568 112.711C-62.8651 113.187 -63.0951 113.731 -63.5705 113.931C-63.6855 113.977 -63.8082 114 -63.9232 114V113.992ZM6.95964 55.6012C3.40975 62.1855 4.43714 69.9899 6.69895 74.8398C9.02977 79.8432 12.595 82.414 15.7769 81.3934C18.8897 80.3958 20.5458 76.3593 19.8021 71.5784C18.9281 65.9687 14.9871 59.8296 6.9673 55.6012H6.95964Z" fill="#FFC36B"/>
<g filter="url(#filter0_d_817_681)">
<path d="M127.919 78.3796H126.796V47.6217C126.796 42.9003 124.92 38.3724 121.582 35.0339C118.244 31.6954 113.716 29.8198 108.994 29.8198H43.8294C41.4916 29.8198 39.1767 30.2803 37.0169 31.1749C34.8571 32.0695 32.8946 33.3808 31.2415 35.0338C29.5885 36.6869 28.2772 38.6493 27.3826 40.8091C26.4879 42.969 26.0275 45.2838 26.0275 47.6216V47.6216V216.362C26.0275 221.083 27.903 225.611 31.2415 228.95C34.58 232.288 39.108 234.164 43.8293 234.164H108.994C113.715 234.164 118.243 232.288 121.582 228.95C124.92 225.611 126.796 221.083 126.796 216.362V100.274H127.919V78.3796Z" fill="white"/>
</g>
<path d="M123.005 47.7449V216.238C123.006 217.984 122.662 219.712 121.994 221.325C121.327 222.937 120.348 224.403 119.114 225.637C117.88 226.871 116.415 227.851 114.802 228.519C113.19 229.187 111.461 229.531 109.716 229.531H44.2326C40.7072 229.531 37.3261 228.131 34.8332 225.639C32.3403 223.146 30.9396 219.765 30.9395 216.239V47.7449C30.9394 45.9993 31.2831 44.2708 31.951 42.658C32.6189 41.0453 33.5979 39.5799 34.8322 38.3455C36.0664 37.1111 37.5317 36.1319 39.1444 35.4638C40.7571 34.7957 42.4856 34.4518 44.2312 34.4517H52.1794C51.7881 35.4106 51.6386 36.4511 51.7441 37.4814C51.8496 38.5117 52.207 39.5003 52.7846 40.36C53.3622 41.2197 54.1424 41.9241 55.0565 42.4112C55.9705 42.8983 56.9903 43.1531 58.026 43.1532H95.3596C96.3951 43.1524 97.4145 42.8972 98.3282 42.4099C99.2419 41.9226 100.022 41.2182 100.599 40.3588C101.177 39.4993 101.534 38.511 101.64 37.481C101.746 36.4509 101.597 35.4106 101.206 34.4517H109.712C111.458 34.4516 113.186 34.7953 114.799 35.4633C116.412 36.1312 117.877 37.1102 119.112 38.3445C120.346 39.5788 121.325 41.0441 121.993 42.6568C122.661 44.2694 123.005 45.9979 123.005 47.7435V47.7435L123.005 47.7449Z" fill="#F2F2F2"/>
<path d="M111.374 97.3818H84.0818C80.2109 97.3818 77.073 100.52 77.073 104.391V109.843C77.073 113.714 80.2109 116.852 84.0818 116.852H111.374C115.245 116.852 118.383 113.714 118.383 109.843V104.391C118.383 100.52 115.245 97.3818 111.374 97.3818Z" fill="#CECECF"/>
<path d="M110.659 115.744C110.575 115.908 111.97 116.852 111.97 116.852L117.304 121.77C117.304 121.77 118.649 122.31 118.335 120.844L116.462 112.603C116.462 112.603 112.411 112.397 110.659 115.744V115.744Z" fill="#CECECF"/>
<path d="M91.0597 105.837C91.0597 105.837 91.9326 105.439 92.6558 105.975C93.3592 106.498 93.4157 107.117 93.3705 107.521C93.3253 107.925 92.9213 108.535 92.2631 108.837C91.5456 109.168 90.8506 109.247 90.2743 108.459C89.698 107.673 89.8449 107.052 89.9579 106.803C90.1133 106.464 90.6218 105.978 91.0568 105.84L91.0597 105.837Z" fill="white"/>
<path d="M95.574 107.088C95.574 107.088 95.6644 106.133 96.4893 105.772C97.2916 105.422 97.8594 105.684 98.1843 105.924C98.5091 106.165 98.8396 106.82 98.7718 107.54C98.6984 108.326 98.4215 108.967 97.4526 109.074C96.4836 109.182 96.0203 108.747 95.8593 108.521C95.6418 108.218 95.4751 107.535 95.5711 107.088H95.574Z" fill="white"/>
<path d="M101.405 106.385C101.405 106.385 101.925 105.577 102.823 105.639C103.696 105.698 104.08 106.19 104.258 106.552C104.439 106.913 104.428 107.648 104.038 108.258C103.611 108.922 103.072 109.365 102.159 109.015C101.249 108.665 101.038 108.066 100.998 107.792C100.944 107.422 101.111 106.738 101.402 106.388L101.405 106.385Z" fill="white"/>
<path d="M111.374 143.963H84.0818C80.2109 143.963 77.073 147.101 77.073 150.972V156.424C77.073 160.295 80.2109 163.433 84.0818 163.433H111.374C115.245 163.433 118.383 160.295 118.383 156.424V150.972C118.383 147.101 115.245 143.963 111.374 143.963Z" fill="#CECECF"/>
<path d="M110.659 162.326C110.575 162.49 111.97 163.433 111.97 163.433L117.304 168.352C117.304 168.352 118.649 168.891 118.335 167.425L116.462 159.185C116.462 159.185 112.411 158.978 110.659 162.326V162.326Z" fill="#CECECF"/>
<path d="M91.0597 152.419C91.0597 152.419 91.9326 152.02 92.6558 152.557C93.3592 153.08 93.4157 153.698 93.3705 154.102C93.3253 154.506 92.9213 155.116 92.2631 155.419C91.5456 155.749 90.8506 155.828 90.2743 155.04C89.698 154.255 89.8449 153.633 89.9579 153.385C90.1133 153.046 90.6218 152.56 91.0568 152.421L91.0597 152.419Z" fill="white"/>
<path d="M95.574 153.67C95.574 153.67 95.6644 152.715 96.4893 152.353C97.2916 152.003 97.8594 152.266 98.1843 152.506C98.5091 152.746 98.8396 153.401 98.7718 154.122C98.6984 154.907 98.4215 155.548 97.4526 155.656C96.4836 155.763 96.0203 155.328 95.8593 155.102C95.6418 154.8 95.4751 154.116 95.5711 153.67H95.574Z" fill="white"/>
<path d="M101.405 152.966C101.405 152.966 101.925 152.159 102.823 152.221C103.696 152.28 104.08 152.772 104.258 153.133C104.439 153.495 104.428 154.229 104.038 154.839C103.611 155.503 103.072 155.947 102.159 155.597C101.249 155.246 101.038 154.647 100.998 154.373C100.944 154.003 101.111 153.32 101.402 152.969L101.405 152.966Z" fill="white"/>
<path d="M111.374 47.2329H84.0819C80.2111 47.2329 77.0731 50.3709 77.0731 54.2417V59.694C77.0731 63.5648 80.2111 66.7028 84.0819 66.7028H111.374C115.245 66.7028 118.383 63.5648 118.383 59.694V54.2417C118.383 50.3709 115.245 47.2329 111.374 47.2329Z" fill="#CECECF"/>
<path d="M110.66 65.5955C110.575 65.7594 111.97 66.7029 111.97 66.7029L117.304 71.6212C117.304 71.6212 118.649 72.1608 118.335 70.6947L116.462 62.4541C116.462 62.4541 112.411 62.2479 110.66 65.5955V65.5955Z" fill="#CECECF"/>
<path d="M91.0598 55.6881C91.0598 55.6881 91.9327 55.2898 92.6559 55.8265C93.3593 56.3491 93.4158 56.9678 93.3706 57.3718C93.3254 57.7758 92.9214 58.386 92.2632 58.6882C91.5457 59.0188 90.8507 59.0979 90.2744 58.3097C89.6981 57.5243 89.845 56.9028 89.958 56.6542C90.1134 56.3152 90.6219 55.8293 91.057 55.6909L91.0598 55.6881Z" fill="white"/>
<path d="M95.5741 56.9394C95.5741 56.9394 95.6645 55.9845 96.4894 55.6229C97.2917 55.2726 97.8595 55.5353 98.1844 55.7755C98.5092 56.0156 98.8398 56.671 98.772 57.3914C98.6985 58.1767 98.4217 58.818 97.4527 58.9253C96.4837 59.0327 96.0204 58.5976 95.8594 58.3716C95.6419 58.0694 95.4752 57.3857 95.5713 56.9394H95.5741Z" fill="white"/>
<path d="M101.405 56.236C101.405 56.236 101.925 55.4281 102.823 55.4902C103.696 55.5496 104.08 56.0411 104.258 56.4027C104.439 56.7643 104.428 57.4988 104.038 58.109C103.611 58.7729 103.072 59.2164 102.159 58.8661C101.25 58.5158 101.038 57.9169 100.998 57.6429C100.944 57.2728 101.111 56.5891 101.402 56.2388L101.405 56.236Z" fill="white"/>
<path d="M42.9877 70.2178H70.28C74.1509 70.2178 77.2888 73.3557 77.2888 77.2266V82.6788C77.2888 86.5497 74.1509 89.6876 70.28 89.6876H42.9877C39.1169 89.6876 35.9789 86.5497 35.9789 82.6788V77.2266C35.9789 73.3557 39.1169 70.2178 42.9877 70.2178Z" fill="#9E9E9E"/>
<path d="M43.7023 88.5804C43.7871 88.7442 42.3916 89.6878 42.3916 89.6878L37.058 94.6061C37.058 94.6061 35.7133 95.1457 36.0268 93.6795L37.8998 85.439C37.8998 85.439 41.9508 85.2328 43.7023 88.5804V88.5804Z" fill="#9E9E9E"/>
<path d="M63.3022 78.6729C63.3022 78.6729 62.4292 78.2746 61.706 78.8114C61.0026 79.334 60.9461 79.9527 60.9913 80.3566C61.0365 80.7606 61.4405 81.3708 62.0987 81.6731C62.8163 82.0036 63.5112 82.0827 64.0875 81.2945C64.6638 80.5092 64.5169 79.8877 64.4039 79.6391C64.2485 79.3001 63.74 78.8142 63.305 78.6758L63.3022 78.6729Z" fill="white"/>
<path d="M58.788 79.9242C58.788 79.9242 58.6976 78.9694 57.8727 78.6078C57.0704 78.2575 56.5026 78.5202 56.1777 78.7603C55.8528 79.0004 55.5223 79.6559 55.5901 80.3762C55.6635 81.1616 55.9404 81.8029 56.9094 81.9102C57.8783 82.0176 58.3416 81.5825 58.5027 81.3565C58.7202 81.0542 58.8869 80.3706 58.7908 79.9242H58.788Z" fill="white"/>
<path d="M52.957 79.2209C52.957 79.2209 52.4372 78.4129 51.5389 78.4751C50.6659 78.5344 50.2817 79.026 50.1038 79.3876C49.923 79.7492 49.9343 80.4837 50.3241 81.0939C50.7507 81.7577 51.2902 82.2013 52.2027 81.851C53.1124 81.5007 53.3242 80.9018 53.3638 80.6277C53.4175 80.2577 53.2508 79.574 52.9598 79.2237L52.957 79.2209Z" fill="white"/>
<path d="M42.9877 119.437H70.28C74.1509 119.437 77.2888 122.574 77.2888 126.445V131.898C77.2888 135.768 74.1509 138.906 70.28 138.906H42.9877C39.1169 138.906 35.9789 135.768 35.9789 131.898V126.445C35.9789 122.574 39.1169 119.437 42.9877 119.437Z" fill="#9E9E9E"/>
<path d="M43.7023 137.799C43.7871 137.963 42.3916 138.907 42.3916 138.907L37.058 143.825C37.058 143.825 35.7133 144.364 36.0268 142.898L37.8998 134.658C37.8998 134.658 41.9508 134.452 43.7023 137.799V137.799Z" fill="#9E9E9E"/>
<path d="M63.3022 127.892C63.3022 127.892 62.4292 127.493 61.706 128.03C61.0026 128.553 60.9461 129.171 60.9913 129.575C61.0365 129.979 61.4405 130.59 62.0987 130.892C62.8163 131.222 63.5112 131.301 64.0875 130.513C64.6638 129.728 64.5169 129.106 64.4039 128.858C64.2485 128.519 63.74 128.033 63.305 127.895L63.3022 127.892Z" fill="white"/>
<path d="M58.788 129.143C58.788 129.143 58.6976 128.188 57.8727 127.827C57.0704 127.476 56.5026 127.739 56.1777 127.979C55.8528 128.219 55.5223 128.875 55.5901 129.595C55.6635 130.38 55.9404 131.022 56.9094 131.129C57.8783 131.236 58.3416 130.801 58.5027 130.575C58.7202 130.273 58.8869 129.589 58.7908 129.143H58.788Z" fill="white"/>
<path d="M52.957 128.44C52.957 128.44 52.4372 127.632 51.5389 127.694C50.6659 127.753 50.2817 128.245 50.1038 128.606C49.923 128.968 49.9343 129.702 50.3241 130.313C50.7507 130.976 51.2902 131.42 52.2027 131.07C53.1124 130.719 53.3242 130.121 53.3638 129.846C53.4175 129.476 53.2508 128.793 52.9598 128.442L52.957 128.44Z" fill="white"/>
<path d="M27.7751 62.2485H24.1381V81.7974H27.7751V62.2485Z" fill="white"/>
<path d="M27.7751 84.0708H24.1381V95.4364H27.7751V84.0708Z" fill="white"/>
<path d="M59.1442 39.0628C60.1485 39.0628 60.9627 38.2486 60.9627 37.2443C60.9627 36.24 60.1485 35.4258 59.1442 35.4258C58.1399 35.4258 57.3257 36.24 57.3257 37.2443C57.3257 38.2486 58.1399 39.0628 59.1442 39.0628Z" fill="white"/>
</g>
<g clip-path="url(#clip0_817_681)">
<path d="M103.739 76.5152C103.739 73.7294 103.636 70.6341 103.636 67.1261C103.636 65.6816 102.604 64.4435 101.159 64.1339L77.3254 60.0068H76.2936L52.4597 64.1339C51.0152 64.4435 49.8803 65.6816 49.9834 67.1261C49.9834 70.6341 49.9834 73.7294 49.8803 76.5152C49.7771 81.4677 49.7771 85.0789 49.9834 87.2456C51.3248 101.484 54.3169 108.087 59.4757 115.103C63.6028 120.675 69.5871 124.493 76.2936 125.937C76.5 125.937 76.7063 126.04 76.9127 126.04C77.119 126.04 77.3254 126.04 77.5317 125.937C84.2382 124.493 90.2225 120.675 94.3496 115.103C99.5084 108.087 102.501 101.587 103.739 87.2456C103.842 84.9757 103.842 81.4677 103.739 76.5152V76.5152Z" fill="#7638E9"/>
<path d="M76.2936 60.11L52.4597 64.2371C51.0152 64.4435 49.9834 65.6816 49.9834 67.1261C49.9834 70.6341 49.8803 73.7294 49.8803 76.5152C49.7771 81.4677 49.7771 85.0789 49.9834 87.2456C51.3248 101.587 54.3169 108.087 59.3726 115.103C63.4996 120.675 69.4839 124.493 76.1904 125.937C76.3968 125.937 76.6031 126.04 76.8095 126.04V60.0068C76.6031 60.0068 76.5 60.0068 76.2936 60.11V60.11Z" fill="#7638E9"/>
<path d="M76.3967 64.6496L56.3804 68.0544C55.1422 68.2608 54.3168 69.2925 54.3168 70.5307C54.3168 73.5228 54.3168 76.1022 54.2136 78.3721C54.1105 82.4992 54.1105 85.5945 54.3168 87.3485C55.3486 99.3171 57.928 104.889 62.1583 110.77C65.5631 115.413 70.6188 118.714 76.2935 119.849H76.8094V64.5464C76.7062 64.5464 76.4999 64.5464 76.3967 64.6496Z" fill="#7638E9"/>
<path d="M99.4054 78.3725C99.4054 76.1026 99.3022 73.42 99.3022 70.531C99.3022 69.2929 98.4768 68.2611 97.2386 68.0547L77.2223 64.6499H76.8096V119.953H77.3255C83.0002 118.715 88.0559 115.516 91.4607 110.77C95.7942 104.889 98.2704 99.4206 99.4054 87.3489C99.5085 85.5949 99.5085 82.6027 99.4054 78.3725V78.3725Z" fill="#DABDFF"/>
<path d="M103.739 76.5152C103.739 73.7294 103.636 70.6341 103.636 67.1261C103.636 65.6816 102.604 64.4435 101.159 64.1339L77.3254 60.0068H76.2936L52.4597 64.1339C51.0152 64.4435 49.8803 65.6816 49.9834 67.1261C49.9834 70.6341 49.9834 73.7294 49.8803 76.5152C49.7771 81.4677 49.7771 85.0789 49.9834 87.2456C51.3248 101.484 54.3169 108.087 59.4757 115.103C63.6028 120.675 69.5871 124.493 76.2936 125.937C76.5 125.937 76.7063 126.04 76.9127 126.04C77.119 126.04 77.3254 126.04 77.5317 125.937C84.2382 124.493 90.2225 120.675 94.3496 115.103C99.5084 108.087 102.501 101.587 103.739 87.2456C103.842 84.9757 103.842 81.4677 103.739 76.5152V76.5152Z" fill="#8F59FF"/>
<path d="M76.2936 60.11L52.4597 64.2371C51.0152 64.4435 49.9834 65.6816 49.9834 67.1261C49.9834 70.6341 49.8803 73.7294 49.8803 76.5152C49.7771 81.4677 49.7771 85.0789 49.9834 87.2456C51.3248 101.587 54.3169 108.087 59.3726 115.103C63.4996 120.675 69.4839 124.493 76.1904 125.937C76.3968 125.937 76.6031 126.04 76.8095 126.04V60.0068C76.6031 60.0068 76.5 60.0068 76.2936 60.11V60.11Z" fill="#592ACA"/>
<path d="M76.3967 64.6496L56.3804 68.0544C55.1422 68.2608 54.3168 69.2925 54.3168 70.5307C54.3168 73.5228 54.3168 76.1022 54.2136 78.3721C54.1105 82.4992 54.1105 85.5945 54.3168 87.3485C55.3486 99.3171 57.928 104.889 62.1583 110.77C65.5631 115.413 70.6188 118.714 76.2935 119.849H76.8094V64.5464C76.7062 64.5464 76.4999 64.5464 76.3967 64.6496Z" fill="#7542E4"/>
<path d="M99.4054 78.3725C99.4054 76.1026 99.3022 73.42 99.3022 70.531C99.3022 69.2929 98.4768 68.2611 97.2386 68.0547L77.2223 64.6499H76.8096V119.953H77.3255C83.0002 118.715 88.0559 115.516 91.4607 110.77C95.7942 104.889 98.2704 99.4206 99.4054 87.3489C99.5085 85.5949 99.5085 82.6027 99.4054 78.3725V78.3725Z" fill="#DABDFF"/>
</g>
<defs>
<filter id="filter0_d_817_681" x="2.02747" y="5.81982" width="149.891" height="252.344" filterUnits="userSpaceOnUse" color-interpolation-filters="sRGB">
<feFlood flood-opacity="0" result="BackgroundImageFix"/>
<feColorMatrix in="SourceAlpha" type="matrix" values="0 0 0 0 0 0 0 0 0 0 0 0 0 0 0 0 0 0 127 0" result="hardAlpha"/>
<feOffset/>
<feGaussianBlur stdDeviation="12"/>
<feComposite in2="hardAlpha" operator="out"/>
<feColorMatrix type="matrix" values="0 0 0 0 0 0 0 0 0 0 0 0 0 0 0 0 0 0 0.16 0"/>
<feBlend mode="normal" in2="BackgroundImageFix" result="effect1_dropShadow_817_681"/>
<feBlend mode="normal" in="SourceGraphic" in2="effect1_dropShadow_817_681" result="shape"/>
</filter>
<clipPath id="clip0_817_681">
<rect width="66.0333" height="66.0333" fill="white" transform="translate(43.4833 60.0068)"/>
</clipPath>
</defs>
</svg>
