<svg width="212" height="224" viewBox="0 0 212 224" fill="none" xmlns="http://www.w3.org/2000/svg">
<g opacity="0.5">
<path d="M36.5029 123.411C37.1963 123.329 37.8279 122.973 38.2593 122.421C38.6907 121.869 38.8866 121.166 38.8043 120.465C36.8265 105.029 40.1162 89.4042 48.131 76.1674C56.1458 62.9305 68.407 52.872 82.8929 47.6504C83.2273 47.5401 83.5361 47.3632 83.8011 47.1302C84.066 46.8972 84.2817 46.6127 84.4355 46.2935C84.5893 45.9744 84.6781 45.627 84.6965 45.2719C84.715 44.9168 84.6629 44.5611 84.5431 44.2259C84.4234 43.8906 84.2385 43.5826 83.9993 43.3199C83.7602 43.0572 83.4716 42.8451 83.1506 42.6963C82.8297 42.5474 82.4828 42.4647 82.1305 42.4531C81.7781 42.4415 81.4275 42.5011 81.0992 42.6286C65.4831 48.2503 52.2626 59.0863 43.6175 73.3499C34.9724 87.6135 31.4188 104.453 33.5428 121.092C33.5872 121.44 33.6991 121.775 33.872 122.08C34.0448 122.385 34.2753 122.652 34.5502 122.868C34.8251 123.083 35.1391 123.242 35.4741 123.335C35.8092 123.428 36.1588 123.454 36.5029 123.411Z" fill="#E7E7E7"/>
<path d="M90.5748 39.9464C89.9026 40.103 89.3195 40.5195 88.9505 41.1067C88.5815 41.6939 88.456 42.4049 88.601 43.0874C88.7459 43.7698 89.1498 44.3694 89.7259 44.7574C90.302 45.1454 91.0045 45.2911 91.6827 45.1631C105.199 42.3055 119.282 43.6908 132.045 49.1334C132.684 49.3743 133.39 49.3571 134.014 49.0855C134.638 48.8139 135.132 48.3088 135.394 47.6757C135.656 47.0427 135.664 46.3306 135.418 45.6883C135.172 45.046 134.69 44.5231 134.072 44.2289C120.318 38.364 105.142 36.8698 90.5748 39.9464Z" fill="#E7E7E7"/>
<path d="M30.2261 96.7828C30.7247 96.4017 31.0715 95.853 31.2045 95.235C34.7294 78.5485 43.6974 63.5669 56.6775 52.6807C57.2142 52.2286 57.5497 51.5788 57.6102 50.8742C57.6708 50.1696 57.4514 49.468 57.0003 48.9237C56.5492 48.3794 55.9033 48.037 55.2049 47.9718C54.5064 47.9066 53.8125 48.1239 53.2758 48.576C39.3973 60.2157 29.8093 76.2345 26.0417 94.0762C25.9272 94.6085 25.9775 95.1645 26.1858 95.6691C26.3941 96.1736 26.7505 96.6023 27.2067 96.8975C27.6629 97.1926 28.197 97.3398 28.737 97.3193C29.2769 97.2988 29.7967 97.1116 30.2261 96.7828Z" fill="#E7E7E7"/>
<path d="M60.4734 46.3456C60.6633 46.6395 60.9086 46.8932 61.1951 47.0921C61.4817 47.2909 61.804 47.4311 62.1435 47.5046C62.483 47.5781 62.8331 47.5834 63.1739 47.5203C63.5147 47.4572 63.8394 47.3268 64.1295 47.1368C77.6987 38.2387 93.762 33.9812 109.962 34.9891C110.308 35.0097 110.655 34.9612 110.982 34.8464C111.309 34.7317 111.61 34.5529 111.868 34.3203C112.126 34.0878 112.336 33.8059 112.485 33.4909C112.635 33.1759 112.721 32.834 112.739 32.4845C112.758 32.135 112.707 31.785 112.592 31.4542C112.476 31.1235 112.297 30.8187 112.065 30.557C111.833 30.2954 111.553 30.0822 111.24 29.9294C110.927 29.7767 110.588 29.6876 110.241 29.667C92.9223 28.5917 75.75 33.1435 61.2429 42.6548C60.9515 42.8443 60.7003 43.0902 60.5038 43.3784C60.3072 43.6666 60.1693 43.9915 60.0978 44.3344C60.0263 44.6773 60.0226 45.0315 60.0871 45.3766C60.1515 45.7217 60.2828 46.051 60.4734 46.3456Z" fill="#E7E7E7"/>
<path d="M28.7067 75.0591C34.5265 62.5505 43.2602 51.6622 54.1658 43.3191C65.0714 34.9759 77.8267 29.4245 91.348 27.1365C92.0384 27.0204 92.6533 26.6319 93.0573 26.0566C93.4613 25.4813 93.6214 24.7662 93.5023 24.0687C93.3832 23.3712 92.9947 22.7484 92.4223 22.3373C91.8499 21.9262 91.1404 21.7604 90.45 21.8766C76.0895 24.3074 62.5427 30.2038 50.9601 39.0648C39.3776 47.9258 30.1014 59.4898 23.9196 72.7745C23.6231 73.4134 23.5909 74.1465 23.8302 74.8125C24.0694 75.4785 24.5604 76.0229 25.1952 76.3258C25.83 76.6288 26.5566 76.6655 27.2151 76.428C27.8737 76.1904 28.4102 75.698 28.7067 75.0591Z" fill="#E7E7E7"/>
<path d="M137.162 192.644C119.004 193.762 100.861 189.81 84.7239 181.223C84.1027 180.893 83.3784 180.824 82.7102 181.032C82.042 181.241 81.4847 181.709 81.1609 182.334C80.8371 182.959 80.7733 183.689 80.9836 184.365C81.1938 185.04 81.6609 185.606 82.2821 185.936C99.2807 194.977 118.389 199.138 137.515 197.964C138.205 197.909 138.845 197.583 139.296 197.055C139.747 196.528 139.974 195.842 139.928 195.144C139.882 194.447 139.566 193.794 139.049 193.326C138.531 192.859 137.854 192.614 137.162 192.644Z" fill="#E7E7E7"/>
<path d="M181.218 131.996C180.758 132.621 180.269 133.253 179.772 133.867C174.054 140.96 166.89 146.727 158.762 150.779C158.135 151.091 157.658 151.642 157.436 152.312C157.214 152.981 157.265 153.714 157.578 154.348C157.891 154.983 158.44 155.467 159.105 155.695C159.769 155.923 160.495 155.876 161.121 155.564C169.925 151.172 177.685 144.925 183.881 137.241C184.419 136.572 184.935 135.875 185.451 135.213C185.87 134.649 186.049 133.938 185.949 133.238C185.849 132.537 185.477 131.904 184.916 131.478C184.355 131.051 183.65 130.866 182.956 130.963C182.263 131.06 181.637 131.432 181.218 131.996Z" fill="#E7E7E7"/>
<path d="M152.598 158.947C153.094 158.569 153.44 158.025 153.575 157.411C153.711 156.798 153.626 156.154 153.337 155.595C153.048 155.036 152.572 154.597 151.995 154.356C151.417 154.115 150.775 154.087 150.182 154.278C139.291 157.787 127.647 158.259 116.477 155.645C115.792 155.487 115.074 155.61 114.482 155.986C113.89 156.362 113.472 156.962 113.319 157.652C113.167 158.342 113.293 159.067 113.669 159.667C114.046 160.267 114.642 160.692 115.327 160.85C127.42 163.685 140.028 163.177 151.821 159.38C152.102 159.281 152.365 159.135 152.598 158.947Z" fill="#E7E7E7"/>
<path d="M108.415 157.53C108.803 157.232 109.102 156.831 109.279 156.372C109.406 156.046 109.467 155.698 109.459 155.347C109.452 154.997 109.376 154.65 109.236 154.329C109.096 154.007 108.895 153.716 108.643 153.472C108.392 153.228 108.096 153.037 107.772 152.908C97.32 148.81 88.118 141.989 81.1073 133.144C80.6688 132.59 80.0311 132.233 79.3348 132.152C78.6384 132.071 77.9403 132.273 77.394 132.712C76.8477 133.151 76.4981 133.793 76.4219 134.495C76.3458 135.197 76.5494 135.903 76.988 136.457C84.5871 146.042 94.5598 153.434 105.887 157.877C106.304 158.04 106.755 158.094 107.197 158.033C107.64 157.972 108.059 157.799 108.415 157.53Z" fill="#E7E7E7"/>
<path d="M131.546 94.7878C131.175 95.0716 130.706 95.1944 130.243 95.1292C129.781 95.0639 129.361 94.816 129.078 94.4399C125.565 89.7535 120.742 86.2338 115.237 84.3382C109.732 82.4425 103.799 82.2586 98.2093 83.8103C97.8749 83.9017 97.562 84.0588 97.2885 84.2726C97.0149 84.4864 96.7861 84.7528 96.6151 85.0565C96.4441 85.3601 96.3342 85.6952 96.2917 86.0425C96.2492 86.3898 96.275 86.7425 96.3675 87.0805C96.46 87.4186 96.6175 87.7353 96.831 88.0126C97.0445 88.2899 97.3097 88.5224 97.6116 88.6968C97.9135 88.8712 98.2461 88.9841 98.5905 89.029C98.9348 89.0739 99.2842 89.0499 99.6186 88.9585C104.193 87.6868 109.048 87.8357 113.554 89.3859C118.059 90.9361 122.006 93.8158 124.881 97.6506C126.015 99.1551 127.692 100.147 129.543 100.408C131.394 100.669 133.267 100.178 134.751 99.0423C136.236 97.9069 137.209 96.2204 137.456 94.3537C137.704 92.487 137.206 90.5931 136.073 89.0887C130.434 81.6209 122.286 76.4874 113.177 74.663C104.067 72.8386 94.6304 74.4504 86.6589 79.1923C78.6874 83.9343 72.7362 91.476 69.9357 100.385C67.1351 109.294 67.6802 118.951 71.4675 127.52C71.764 128.151 72.2927 128.641 72.9405 128.885C73.5883 129.129 74.3037 129.108 74.9334 128.827C75.5632 128.545 76.0572 128.025 76.3097 127.379C76.5622 126.732 76.5531 126.009 76.2844 125.366C73.0261 117.993 72.5574 109.684 74.9675 102.018C77.3776 94.3523 82.4985 87.8631 89.3577 83.7831C96.217 79.7032 104.337 78.3165 112.175 79.8865C120.013 81.4564 127.024 85.8737 131.876 92.2994C132.159 92.6755 132.284 93.149 132.222 93.6156C132.16 94.0823 131.917 94.5039 131.546 94.7878Z" fill="#E7E7E7"/>
<path d="M133.102 148.372C124.281 148.746 115.489 146.955 107.479 143.154C99.4687 139.353 92.4796 133.655 87.1099 126.547C83.2906 121.467 81.6152 115.077 82.4512 108.779C83.2872 102.482 86.5664 96.7902 91.5692 92.9539L91.947 92.665C92.512 92.2505 92.8894 91.6255 92.9962 90.9274C93.103 90.2294 92.9305 89.5155 92.5165 88.9428C92.1025 88.3701 91.481 87.9855 90.7887 87.8737C90.0964 87.7618 89.3901 87.9318 88.825 88.3463L88.3634 88.6995C82.2484 93.3879 78.2403 100.344 77.2185 108.042C76.1967 115.739 78.2447 123.549 82.913 129.758C88.8013 137.555 96.4662 143.807 105.251 147.978C114.036 152.149 123.68 154.114 133.356 153.706C134.055 153.677 134.713 153.368 135.185 152.848C135.656 152.328 135.903 151.639 135.87 150.933C135.837 150.226 135.527 149.56 135.009 149.081C134.491 148.602 133.807 148.35 133.107 148.379L133.102 148.372Z" fill="#E7E7E7"/>
<path d="M179.385 118.077C175.755 125.467 170.518 131.928 164.062 136.978C157.606 142.029 150.096 145.54 142.092 147.25C141.419 147.407 140.835 147.824 140.466 148.412C140.097 149.001 139.972 149.713 140.118 150.396C140.265 151.08 140.671 151.679 141.249 152.066C141.827 152.453 142.531 152.596 143.21 152.465C151.788 150.653 159.849 146.938 166.809 141.587C174.133 135.999 180.062 128.766 184.131 120.454C184.441 119.822 184.488 119.09 184.262 118.419C184.037 117.749 183.557 117.194 182.928 116.878C182.3 116.562 181.574 116.511 180.911 116.735C180.248 116.958 179.701 117.439 179.392 118.072L179.385 118.077Z" fill="#E7E7E7"/>
<path d="M179.536 147.093C176.816 149.612 173.91 151.92 170.843 153.995C163.861 158.724 156.098 162.165 147.913 164.159C147.567 164.232 147.239 164.374 146.949 164.577C146.659 164.78 146.413 165.04 146.225 165.342C146.037 165.644 145.912 165.981 145.856 166.333C145.8 166.686 145.815 167.046 145.9 167.394C145.985 167.741 146.138 168.068 146.351 168.355C146.563 168.642 146.83 168.883 147.136 169.065C147.442 169.246 147.781 169.364 148.132 169.411C148.483 169.458 148.84 169.433 149.18 169.338C157.968 167.2 166.303 163.507 173.799 158.43C175.048 157.585 176.292 156.69 177.495 155.769C179.44 154.282 181.333 152.682 183.121 151.024C183.389 150.791 183.608 150.507 183.764 150.187C183.92 149.867 184.01 149.518 184.03 149.161C184.049 148.805 183.998 148.447 183.878 148.11C183.758 147.773 183.572 147.464 183.331 147.2C183.091 146.936 182.8 146.724 182.477 146.575C182.154 146.426 181.806 146.344 181.452 146.334C181.097 146.325 180.745 146.387 180.416 146.517C180.087 146.647 179.788 146.843 179.536 147.093Z" fill="#E7E7E7"/>
<path d="M139.544 171.037C140.224 170.94 140.838 170.58 141.256 170.033C141.674 169.485 141.863 168.794 141.784 168.105C141.705 167.416 141.362 166.784 140.83 166.343C140.298 165.901 139.618 165.686 138.934 165.741C124.892 167.321 110.675 164.715 98.0371 158.245C97.7271 158.086 97.3894 157.99 97.0434 157.963C96.6975 157.936 96.3499 157.977 96.0207 158.086C95.6915 158.194 95.387 158.367 95.1247 158.594C94.8624 158.822 94.6473 159.1 94.4918 159.412C94.3363 159.724 94.2434 160.064 94.2184 160.413C94.1933 160.762 94.2367 161.113 94.346 161.446C94.4553 161.779 94.6283 162.087 94.8553 162.353C95.0823 162.619 95.3586 162.838 95.6687 162.997C109.227 169.938 124.48 172.733 139.544 171.037Z" fill="#E7E7E7"/>
<path d="M90.2439 157.862C90.473 157.688 90.6711 157.476 90.83 157.235C91.2215 156.651 91.3664 155.933 91.2329 155.239C91.0994 154.545 90.6984 153.93 90.1181 153.532C83.6141 149.072 77.8716 143.572 73.1184 137.249C67.0859 129.233 64.1084 119.306 64.7323 109.291C64.7651 108.936 64.727 108.578 64.62 108.237C64.513 107.896 64.3395 107.58 64.1096 107.308C63.8797 107.035 63.5982 106.811 63.2817 106.65C62.9653 106.489 62.6204 106.394 62.2674 106.369C61.9145 106.345 61.5607 106.393 61.2272 106.509C60.8936 106.625 60.5869 106.808 60.3254 107.047C60.0639 107.286 59.8529 107.575 59.7049 107.899C59.5569 108.222 59.4749 108.572 59.4638 108.929C58.7597 120.223 62.1178 131.419 68.9215 140.46C74.0227 147.246 80.1863 153.15 87.1674 157.935C87.6253 158.249 88.1684 158.411 88.7203 158.398C89.2721 158.385 89.805 158.197 90.2439 157.862Z" fill="#E7E7E7"/>
<path d="M62.9649 102.245C63.2986 102.343 63.6477 102.373 63.9922 102.335C64.3367 102.296 64.6698 102.189 64.9727 102.02C65.2755 101.851 65.542 101.624 65.7571 101.35C65.9721 101.077 66.1315 100.763 66.226 100.427C68.6386 91.7781 73.7847 84.1757 80.8837 78.7727C86.1121 74.7931 92.2083 72.1273 98.6719 70.994C105.136 69.8606 111.782 70.2921 118.067 72.253C118.402 72.3692 118.756 72.4164 119.108 72.3918C119.461 72.3673 119.804 72.2716 120.119 72.1103C120.433 71.949 120.712 71.7254 120.938 71.4529C121.165 71.1804 121.335 70.8643 121.438 70.5236C121.541 70.1829 121.574 69.8244 121.537 69.4694C121.5 69.1144 121.393 68.77 121.222 68.4568C121.051 68.1436 120.819 67.8679 120.541 67.6461C120.263 67.4242 119.944 67.2607 119.603 67.1652C112.517 64.9532 105.022 64.4664 97.7342 65.7446C90.446 67.0228 83.5723 70.0297 77.6778 74.5182C69.6703 80.6127 63.8656 89.1879 61.144 98.9436C61.0494 99.2798 61.0214 99.6319 61.0617 99.9798C61.102 100.328 61.2098 100.665 61.3789 100.971C61.548 101.278 61.7751 101.548 62.0472 101.767C62.3194 101.985 62.6312 102.148 62.9649 102.245Z" fill="#E7E7E7"/>
<path d="M143.875 92.0618C144.207 91.9607 144.515 91.7944 144.783 91.5725C145.05 91.3506 145.271 91.0774 145.433 90.7686C145.595 90.4598 145.695 90.1214 145.727 89.7727C145.76 89.4241 145.723 89.0721 145.621 88.7368C145.07 86.9382 144.209 85.2505 143.077 83.7519C139.239 78.6399 134.406 74.3722 128.877 71.2137C128.27 70.9055 127.57 70.8442 126.922 71.0424C126.274 71.2406 125.728 71.6832 125.397 72.2784C125.066 72.8737 124.975 73.576 125.143 74.2398C125.312 74.9037 125.726 75.4782 126.301 75.8444C131.195 78.6424 135.473 82.4218 138.87 86.9484C139.623 87.946 140.195 89.0695 140.56 90.2667C140.66 90.6046 140.826 90.9194 141.048 91.1929C141.269 91.4664 141.542 91.6932 141.85 91.8601C142.159 92.0271 142.496 92.1308 142.844 92.1655C143.191 92.2001 143.542 92.1649 143.875 92.0618Z" fill="#E7E7E7"/>
<path d="M174.668 105.565C174.416 106.518 174.136 107.47 173.824 108.396C170.931 117.1 165.508 124.711 158.258 130.242C150.795 135.92 141.778 139.15 132.414 139.5C123.05 139.85 113.787 137.303 105.866 132.199C101.337 129.256 97.3547 125.531 94.1015 121.196C91.6925 117.999 90.6349 113.975 91.1615 110.008C91.688 106.041 93.7556 102.457 96.9093 100.045C100.063 97.632 104.045 96.5882 107.978 97.1428C111.911 97.6974 115.475 99.805 117.884 103.002C119.556 105.221 121.771 106.964 124.309 108.06C126.846 109.157 129.619 109.568 132.354 109.253C135.09 108.939 137.692 107.91 139.905 106.268C142.118 104.625 143.865 102.427 144.974 99.8885C145.255 99.2428 145.27 98.5094 145.015 97.8495C144.761 97.1896 144.257 96.6573 143.616 96.3698C142.974 96.0823 142.247 96.0631 141.595 96.3164C140.943 96.5696 140.418 97.0747 140.137 97.7204C139.397 99.4111 138.232 100.875 136.757 101.969C135.283 103.063 133.549 103.748 131.726 103.958C129.904 104.167 128.056 103.893 126.365 103.163C124.674 102.433 123.199 101.272 122.083 99.7948C118.824 95.4695 114.003 92.618 108.681 91.8676C103.36 91.1173 97.9729 92.5296 93.7061 95.7938C89.4393 99.058 86.6421 103.907 85.9297 109.273C85.2173 114.64 86.6481 120.085 89.9074 124.41C91.4809 126.505 93.2073 128.478 95.072 130.313C101.273 136.365 108.88 140.746 117.185 143.051C125.491 145.355 134.227 145.507 142.582 143.494C150.936 141.48 158.639 137.366 164.975 131.532C171.311 125.699 176.074 118.336 178.823 110.127C179.157 109.106 179.481 108.037 179.76 106.98C179.94 106.297 179.844 105.569 179.493 104.955C179.142 104.341 178.565 103.892 177.888 103.705C177.211 103.519 176.49 103.612 175.883 103.962C175.277 104.313 174.835 104.893 174.654 105.575L174.668 105.565Z" fill="#E7E7E7"/>
<path d="M163.203 100.472C164.827 92.6522 163.646 84.4888 159.87 77.434C159.535 76.8111 158.97 76.3465 158.298 76.1425C157.626 75.9384 156.903 76.0116 156.288 76.3459C155.673 76.6801 155.216 77.2482 155.017 77.925C154.819 78.6018 154.896 79.332 155.231 79.9549C158.612 86.2656 159.518 93.6175 157.767 100.542C156.016 107.467 151.738 113.456 145.786 117.312C139.835 121.168 132.648 122.607 125.661 121.344C118.673 120.08 112.4 116.205 108.094 110.494C107.669 109.929 107.04 109.558 106.346 109.46C105.652 109.362 104.949 109.546 104.393 109.972C103.836 110.398 103.471 111.03 103.379 111.73C103.286 112.43 103.472 113.14 103.897 113.704C107.788 118.862 113.057 122.792 119.079 125.028C125.101 127.264 131.623 127.712 137.869 126.319C144.114 124.925 149.822 121.748 154.313 117.167C158.804 112.585 161.89 106.79 163.203 100.472Z" fill="#E7E7E7"/>
<path d="M112.214 47.6243C101.138 46.463 89.9699 48.2248 79.8044 52.7369C69.639 57.2491 60.8252 64.3567 54.2272 73.3631C53.8123 73.9303 53.6386 74.6419 53.7444 75.3414C53.8501 76.0408 54.2266 76.6709 54.791 77.0929C55.3554 77.515 56.0615 77.6944 56.754 77.5918C57.4464 77.4892 58.0685 77.1129 58.4834 76.5457C61.8004 72.0153 65.7439 67.9896 70.1946 64.5905C94.5397 45.9657 129.58 49.5247 149.964 72.6975C150.408 73.2019 151.024 73.5192 151.687 73.5857C152.351 73.6523 153.014 73.4631 153.542 73.0563C153.599 73.0188 153.652 72.9777 153.703 72.9332C153.962 72.7018 154.173 72.4209 154.324 72.1065C154.475 71.7921 154.563 71.4505 154.583 71.101C154.603 70.7516 154.554 70.4012 154.44 70.0699C154.325 69.7386 154.148 69.433 153.917 69.1704C143.172 56.9567 128.278 49.2614 112.214 47.6243Z" fill="#E7E7E7"/>
<path d="M55.7324 147.869C55.7887 147.831 55.8424 147.79 55.8933 147.746C56.4243 147.342 56.7831 146.75 56.8978 146.087C57.0125 145.425 56.8746 144.743 56.5117 144.176C50.8508 135.302 47.608 125.089 47.1123 114.572C46.6165 104.055 48.8856 93.6095 53.6892 84.295C53.8628 83.984 53.9723 83.6405 54.0113 83.2851C54.0503 82.9296 54.0178 82.5695 53.916 82.2261C53.8141 81.8827 53.6449 81.5632 53.4184 81.2865C53.1919 81.0099 52.9128 80.7817 52.5978 80.6158C52.2827 80.4498 51.9381 80.3494 51.5845 80.3205C51.2309 80.2916 50.8756 80.3348 50.5398 80.4476C50.2039 80.5604 49.8944 80.7404 49.6297 80.977C49.365 81.2135 49.1506 81.5017 48.9991 81.8244C43.7678 91.9734 41.2971 103.354 41.8378 114.812C42.3786 126.269 45.9114 137.397 52.0779 147.065C52.2669 147.36 52.5114 147.614 52.7973 147.814C53.0833 148.014 53.4052 148.156 53.7446 148.23C54.084 148.305 54.4342 148.311 54.7753 148.249C55.1164 148.187 55.4416 148.058 55.7324 147.869Z" fill="#E7E7E7"/>
<path d="M104.398 184.302C104.783 184.007 105.079 183.612 105.255 183.158C105.431 182.704 105.479 182.209 105.395 181.728C105.311 181.246 105.098 180.797 104.779 180.428C104.459 180.059 104.046 179.785 103.585 179.637C87.4804 174.471 73.1277 164.817 62.1873 151.793C61.7325 151.252 61.0843 150.913 60.3852 150.853C59.6861 150.792 58.9934 151.014 58.4595 151.47C57.9257 151.926 57.5944 152.578 57.5385 153.284C57.4826 153.989 57.7067 154.689 58.1615 155.231C69.7491 169.019 84.9481 179.237 102.001 184.705C102.404 184.837 102.833 184.869 103.25 184.799C103.667 184.729 104.061 184.558 104.398 184.302Z" fill="#E7E7E7"/>
<path d="M160.223 179.043C144.902 184.353 128.42 185.375 112.521 182.001C112.172 181.901 111.806 181.875 111.446 181.924C111.087 181.973 110.742 182.096 110.433 182.286C110.124 182.475 109.857 182.728 109.649 183.027C109.442 183.326 109.298 183.665 109.226 184.024C109.154 184.382 109.157 184.752 109.233 185.11C109.31 185.469 109.458 185.808 109.67 186.107C109.881 186.405 110.151 186.657 110.463 186.846C110.775 187.036 111.121 187.158 111.481 187.207C128.316 190.78 145.768 189.698 161.99 184.074C162.631 183.827 163.15 183.337 163.436 182.708C163.723 182.079 163.754 181.361 163.524 180.706C163.294 180.051 162.82 179.511 162.204 179.2C161.587 178.89 160.877 178.833 160.223 179.043Z" fill="#E7E7E7"/>
<path d="M170.126 92.0112C169.78 91.9993 169.434 92.0564 169.11 92.1793C168.786 92.3022 168.49 92.4885 168.238 92.7275C167.986 92.9665 167.783 93.2535 167.641 93.5722C167.5 93.8909 167.422 94.2351 167.412 94.5849C167.3 98.8326 166.472 103.026 164.962 106.984C163.145 111.78 160.352 116.133 156.761 119.764C156.284 120.239 156.005 120.881 155.982 121.559C155.958 122.237 156.192 122.9 156.636 123.412C157.079 123.925 157.698 124.249 158.368 124.318C159.037 124.387 159.705 124.196 160.237 123.784C160.334 123.709 160.426 123.628 160.511 123.54C164.619 119.387 167.816 114.408 169.896 108.922C171.618 104.401 172.564 99.613 172.696 94.7627C172.705 94.4128 172.646 94.064 172.522 93.7363C172.398 93.4086 172.212 93.1084 171.973 92.8529C171.734 92.5974 171.448 92.3915 171.132 92.2471C170.815 92.1027 170.473 92.0225 170.126 92.0112Z" fill="#E7E7E7"/>
<path d="M102.255 107.136C103.553 106.142 105.193 105.713 106.812 105.941C108.432 106.169 109.899 107.037 110.891 108.354C113.672 112.052 117.421 114.895 121.711 116.559C122.361 116.792 123.074 116.761 123.698 116.471C124.322 116.182 124.808 115.657 125.053 115.009C125.297 114.36 125.28 113.64 125.006 113.001C124.731 112.362 124.221 111.855 123.583 111.588C120.216 110.279 117.273 108.046 115.088 105.143C113.246 102.698 110.521 101.086 107.513 100.662C104.505 100.238 101.46 101.036 99.0487 102.881C96.6371 104.726 95.056 107.467 94.6533 110.5C94.2507 113.534 95.0594 116.611 96.9016 119.056C103.255 127.468 112.455 133.227 122.729 135.223C133.002 137.219 143.622 135.311 152.541 129.867L152.758 129.701C153.044 129.504 153.289 129.253 153.478 128.96C153.668 128.667 153.798 128.339 153.861 127.995C153.925 127.651 153.92 127.297 153.848 126.954C153.776 126.611 153.638 126.285 153.442 125.995C153.245 125.705 152.994 125.456 152.703 125.264C152.412 125.071 152.087 124.938 151.745 124.872C151.404 124.805 151.053 124.808 150.714 124.878C150.374 124.949 150.052 125.087 149.766 125.283C141.975 130.082 132.678 131.773 123.683 130.028C114.688 128.284 106.637 123.228 101.098 115.845C100.106 114.529 99.671 112.872 99.8878 111.238C100.105 109.605 100.956 108.129 102.255 107.136Z" fill="#E7E7E7"/>
<path d="M131.793 112.869C131.446 112.89 131.108 112.979 130.797 113.133C130.486 113.286 130.209 113.5 129.98 113.762C129.751 114.024 129.577 114.329 129.465 114.66C129.354 114.991 129.309 115.341 129.332 115.69C129.354 116.04 129.445 116.382 129.599 116.696C129.753 117.011 129.966 117.293 130.227 117.525C130.488 117.757 130.791 117.935 131.12 118.05C131.448 118.164 131.796 118.212 132.142 118.191C136.585 117.912 140.863 116.424 144.521 113.883C148.18 111.343 151.082 107.846 152.92 103.763C154.758 99.6802 155.463 95.1648 154.959 90.6966C154.456 86.2283 152.763 81.9741 150.06 78.3862C144.909 71.5099 138.254 65.9236 130.62 62.0662C122.985 58.2089 114.579 56.1855 106.061 56.155C105.709 56.1439 105.359 56.204 105.031 56.3316C104.703 56.4592 104.405 56.6517 104.152 56.898C103.9 57.1443 103.699 57.4392 103.562 57.7656C103.425 58.0919 103.354 58.443 103.353 58.7983C103.353 59.1535 103.422 59.5057 103.558 59.8341C103.694 60.1626 103.894 60.4607 104.145 60.7108C104.397 60.961 104.695 61.1582 105.022 61.2909C105.349 61.4236 105.699 61.489 106.051 61.4834C113.758 61.5111 121.364 63.3418 128.272 66.8317C135.18 70.3216 141.202 75.3757 145.864 81.5969C147.986 84.4154 149.315 87.757 149.711 91.2667C150.106 94.7764 149.553 98.3231 148.11 101.53C146.667 104.737 144.388 107.485 141.515 109.481C138.642 111.478 135.282 112.648 131.793 112.869Z" fill="#E7E7E7"/>
<path d="M97.0665 62.2253C97.4103 62.1683 97.7391 62.0431 98.0339 61.857C98.3288 61.6708 98.5838 61.4273 98.7843 61.1406C98.9848 60.8538 99.1269 60.5295 99.2022 60.1863C99.2775 59.8432 99.2847 59.4879 99.2233 59.1411C99.1618 58.7944 99.033 58.4629 98.8442 58.1659C98.6555 57.8688 98.4105 57.6122 98.1235 57.4106C97.8364 57.2091 97.513 57.0667 97.1719 56.9916C96.8308 56.9166 96.4787 56.9104 96.136 56.9734C87.6636 58.4389 79.6643 61.9008 72.7867 67.0786L72.7657 67.0946C72.4891 67.3041 72.2564 67.5667 72.0808 67.8674C71.9053 68.1682 71.7904 68.5013 71.7426 68.8477C71.6462 69.5472 71.8294 70.2583 72.2517 70.8246C72.674 71.3909 73.301 71.766 73.9947 71.8674C74.6884 71.9688 75.3919 71.7881 75.9506 71.3652C82.1695 66.681 89.404 63.5496 97.0665 62.2253Z" fill="#E7E7E7"/>
<path d="M65.3281 73.8037C58.635 81.0642 53.9867 90.0023 51.8599 99.7011C49.7331 109.4 50.2045 119.51 53.2256 128.995C53.4403 129.669 53.911 130.231 54.5342 130.557C55.1573 130.883 55.8819 130.947 56.5485 130.734C56.8348 130.645 57.1031 130.505 57.3415 130.323C57.7746 129.991 58.0944 129.531 58.2569 129.006C58.4194 128.481 58.4166 127.918 58.2489 127.393C55.5175 118.813 55.0924 109.667 57.0174 100.894C58.9424 92.1205 63.148 84.0355 69.203 77.4681C69.4473 77.2152 69.6389 76.9154 69.7666 76.5863C69.8943 76.2571 69.9555 75.9052 69.9468 75.5511C69.938 75.1969 69.8594 74.8477 69.7155 74.5238C69.5716 74.1999 69.3654 73.9078 69.1088 73.6646C68.8523 73.4214 68.5506 73.2319 68.2213 73.1073C67.8921 72.9828 67.5419 72.9255 67.1913 72.939C66.8407 72.9524 66.4966 73.0363 66.1793 73.1857C65.862 73.3351 65.5777 73.547 65.3431 73.809L65.3281 73.8037Z" fill="#E7E7E7"/>
<path d="M177.052 160.501C175.769 161.404 174.443 162.278 173.118 163.102C156.043 173.762 135.599 177.57 115.801 173.777C96.0034 169.983 78.2836 158.863 66.1234 142.601C64.4789 140.42 63.0096 138.111 61.7298 135.695C61.5724 135.374 61.3531 135.089 61.0848 134.855C60.8166 134.621 60.5048 134.444 60.1682 134.334C59.8315 134.223 59.4767 134.182 59.1247 134.213C58.7728 134.243 58.431 134.345 58.1194 134.511C57.8079 134.678 57.533 134.906 57.311 135.182C57.089 135.458 56.9245 135.777 56.8272 136.119C56.7299 136.462 56.7018 136.821 56.7446 137.175C56.7873 137.529 56.9 137.872 57.076 138.182C58.4871 140.852 60.1092 143.403 61.9265 145.812C74.9454 163.047 93.8155 174.824 114.876 178.859C135.936 182.893 157.685 178.897 175.902 167.646C177.316 166.771 178.725 165.838 180.09 164.877L180.174 164.813C180.739 164.398 181.116 163.773 181.222 163.075C181.328 162.377 181.155 161.663 180.741 161.091C180.326 160.518 179.704 160.134 179.012 160.023C178.32 159.912 177.614 160.082 177.049 160.497L177.052 160.501Z" fill="#E7E7E7"/>
</g>
<g filter="url(#filter0_d_823_5279)">
<rect x="82.7603" y="66.0508" width="51.6225" height="90.7498" rx="4" fill="white"/>
<rect x="86.0552" y="73.7979" width="45.0324" height="68.6157" rx="4" fill="#D9BFFF"/>
<ellipse cx="108.57" cy="149.607" rx="3.84423" ry="3.87347" fill="#C4C4C4"/>
<rect x="101.432" y="69.3711" width="14.2786" height="2.21341" rx="1.1067" fill="#C4C4C4"/>
</g>
<rect x="104.064" y="90.8203" width="84.3988" height="30.5486" rx="8" fill="#AB71FF"/>
<path d="M117.175 127.974V111.461H133.563L117.175 127.974Z" fill="#AB71FF"/>
<path fill-rule="evenodd" clip-rule="evenodd" d="M172.895 111.478L172.803 111.468C171.491 111.255 170.312 110.537 169.516 109.464C168.59 108.197 168.075 106.673 168.041 105.1C167.979 104.407 167.979 102.886 167.979 102.04C167.977 101.298 168.505 100.663 169.23 100.535L172.895 99.9014L176.559 100.535C177.284 100.663 177.813 101.298 177.811 102.041C177.811 102.885 177.811 104.407 177.746 105.1C177.712 106.673 177.197 108.197 176.271 109.464C175.475 110.537 174.296 111.255 172.983 111.468L172.895 111.478ZM169.617 102.143C169.617 102.653 169.612 103.104 169.607 103.492C169.598 104.126 169.592 104.591 169.617 104.868C169.639 106.172 170.065 107.437 170.836 108.486C171.339 109.165 172.072 109.636 172.895 109.811C173.718 109.636 174.45 109.165 174.953 108.486C175.725 107.437 176.151 106.172 176.173 104.868C176.198 104.591 176.192 104.126 176.183 103.492V103.492C176.178 103.104 176.173 102.653 176.173 102.143L172.895 101.577L169.617 102.143ZM170.846 103.187L172.895 102.834V108.532H172.888C172.463 108.388 172.091 108.116 171.823 107.753C171.205 106.911 170.879 105.886 170.897 104.839C170.871 104.554 170.854 103.965 170.846 103.187Z" fill="white"/>
<path d="M120.918 110.887L121.081 108.011L118.666 109.595L117.8 108.089L120.378 106.796L117.8 105.504L118.666 103.998L121.081 105.582L120.918 102.706H122.644L122.487 105.582L124.902 103.998L125.769 105.504L123.183 106.796L125.769 108.089L124.902 109.595L122.487 108.011L122.644 110.887H120.918ZM131.777 110.887L131.941 108.011L129.526 109.595L128.659 108.089L131.237 106.796L128.659 105.504L129.526 103.998L131.941 105.582L131.777 102.706H133.503L133.347 105.582L135.762 103.998L136.628 105.504L134.043 106.796L136.628 108.089L135.762 109.595L133.347 108.011L133.503 110.887H131.777ZM142.637 110.887L142.8 108.011L140.385 109.595L139.519 108.089L142.097 106.796L139.519 105.504L140.385 103.998L142.8 105.582L142.637 102.706H144.362L144.206 105.582L146.621 103.998L147.487 105.504L144.902 106.796L147.487 108.089L146.621 109.595L144.206 108.011L144.362 110.887H142.637ZM153.496 110.887L153.659 108.011L151.245 109.595L150.378 108.089L152.956 106.796L150.378 105.504L151.245 103.998L153.659 105.582L153.496 102.706H155.222L155.066 105.582L157.48 103.998L158.347 105.504L155.762 106.796L158.347 108.089L157.48 109.595L155.066 108.011L155.222 110.887H153.496Z" fill="#FFFF98"/>
<path d="M73.7469 66.0451C73.7463 65.7405 73.5294 65.4798 73.2312 65.4254C72.0204 65.2113 68.6291 64.4056 67.4856 63.2563C66.3421 62.107 65.535 58.6928 65.322 57.4814C65.2716 57.1919 65.0257 56.9777 64.7334 56.9688V66.0508L73.7469 66.0451Z" fill="#FFEA80"/>
<path d="M64.7332 56.9688C64.4311 56.9702 64.1742 57.1919 64.1252 57.4934C63.93 58.7118 63.1715 62.119 62.0392 63.2697C60.9069 64.4205 57.4823 65.2215 56.2329 65.4302C55.935 65.4826 55.718 65.7449 55.7197 66.0508H64.7332V56.9688Z" fill="#FFD567"/>
<path d="M64.7334 66.0508V75.1328C65.0344 75.1318 65.2913 74.9133 65.3429 74.6145C65.5553 73.3806 66.3605 69.927 67.5012 68.7776C68.6418 67.6283 72.0191 66.8621 73.2213 66.6649C73.5223 66.6179 73.745 66.3577 73.7469 66.0508L64.7334 66.0508Z" fill="#FFD567"/>
<path d="M55.7197 66.0508C55.7188 66.3568 55.9398 66.6176 56.2401 66.6649C57.4654 66.8621 60.8895 67.6283 62.0308 68.7776C63.1722 69.927 63.9275 73.3693 64.1233 74.6032C64.1722 74.9053 64.4293 75.1286 64.7332 75.1328V66.0508L55.7197 66.0508Z" fill="#FFA266"/>
<path d="M100.787 55.3151C100.787 55.1766 100.688 55.0581 100.553 55.0334C100.002 54.9361 98.4607 54.5699 97.941 54.0474C97.4212 53.525 97.0543 51.9731 96.9575 51.4225C96.9346 51.2909 96.8228 51.1935 96.6899 51.1895V55.3176L100.787 55.3151Z" fill="#FFEA80"/>
<path d="M96.6903 51.1895C96.553 51.1901 96.4362 51.2909 96.4139 51.4279C96.3252 51.9818 95.9804 53.5305 95.4657 54.0535C94.9511 54.5766 93.3944 54.9407 92.8265 55.0356C92.6911 55.0594 92.5925 55.1786 92.5933 55.3176H96.6903V51.1895Z" fill="#FFD567"/>
<path d="M96.6899 55.3174V59.4456C96.8268 59.4451 96.9436 59.3458 96.967 59.21C97.0636 58.6491 97.4295 57.0793 97.948 56.5569C98.4665 56.0344 100.002 55.6862 100.548 55.5965C100.685 55.5752 100.786 55.4569 100.787 55.3174L96.6899 55.3174Z" fill="#FFD567"/>
<path d="M92.5933 55.3174C92.5929 55.4565 92.6933 55.575 92.8298 55.5965C93.3867 55.6862 94.9431 56.0344 95.4619 56.5569C95.9807 57.0793 96.3241 58.644 96.4131 59.2048C96.4353 59.3422 96.5521 59.4436 96.6903 59.4456V55.3174L92.5933 55.3174Z" fill="#FFA266"/>
<path d="M127.008 75.9557C127.007 75.8172 126.909 75.6987 126.773 75.674C126.223 75.5767 124.681 75.2105 124.162 74.6881C123.642 74.1656 123.275 72.6137 123.178 72.0631C123.155 71.9315 123.044 71.8342 122.911 71.8301V75.9583L127.008 75.9557Z" fill="#FFEA80"/>
<path d="M122.911 71.8301C122.773 71.8307 122.656 71.9315 122.634 72.0685C122.545 72.6224 122.201 74.1711 121.686 74.6942C121.171 75.2172 119.615 75.5813 119.047 75.6762C118.911 75.7 118.813 75.8193 118.813 75.9583H122.911V71.8301Z" fill="#FFD567"/>
<path d="M122.911 75.958V80.0862C123.047 80.0857 123.164 79.9864 123.188 79.8506C123.284 79.2897 123.65 77.7199 124.169 77.1975C124.687 76.6751 126.222 76.3268 126.769 76.2371C126.906 76.2158 127.007 76.0975 127.008 75.958L122.911 75.958Z" fill="#FFD567"/>
<path d="M118.813 75.958C118.813 76.0971 118.914 76.2157 119.05 76.2371C119.607 76.3268 121.163 76.6751 121.682 77.1975C122.201 77.7199 122.544 79.2846 122.633 79.8455C122.655 79.9828 122.772 80.0843 122.911 80.0862V75.958L118.813 75.958Z" fill="#FFA266"/>
<path d="M67.1908 101.55C67.1905 101.412 67.0919 101.293 66.9564 101.269C66.406 101.171 64.8645 100.805 64.3448 100.283C63.825 99.7604 63.4581 98.2084 63.3613 97.6578C63.3384 97.5262 63.2266 97.4289 63.0938 97.4248V101.553L67.1908 101.55Z" fill="#FFEA80"/>
<path d="M63.0941 97.4248C62.9568 97.4255 62.84 97.5262 62.8178 97.6633C62.729 98.2171 62.3842 99.7658 61.8696 100.289C61.3549 100.812 59.7982 101.176 59.2303 101.271C59.0949 101.295 58.9963 101.414 58.9971 101.553H63.0941V97.4248Z" fill="#FFD567"/>
<path d="M63.0938 101.553V105.681C63.2306 105.68 63.3474 105.581 63.3708 105.445C63.4674 104.884 63.8333 103.315 64.3518 102.792C64.8703 102.27 66.4054 101.922 66.9519 101.832C67.0887 101.811 67.1899 101.692 67.1908 101.553L63.0938 101.553Z" fill="#FFD567"/>
<path d="M58.9971 101.553C58.9967 101.692 59.0971 101.81 59.2336 101.832C59.7905 101.922 61.3469 102.27 61.8658 102.792C62.3846 103.315 62.7279 104.879 62.8169 105.44C62.8391 105.578 62.9559 105.679 63.0941 105.681V101.553L58.9971 101.553Z" fill="#FFA266"/>
<path d="M86.857 119.713C86.8566 119.492 86.6988 119.302 86.482 119.263C85.6014 119.107 83.135 118.521 82.3034 117.685C81.4718 116.849 80.8847 114.366 80.7298 113.485C80.6932 113.275 80.5144 113.119 80.3018 113.112V119.717L86.857 119.713Z" fill="#FFEA80"/>
<path d="M80.3018 113.112C80.0821 113.113 79.8953 113.275 79.8597 113.494C79.7177 114.38 79.166 116.858 78.3426 117.695C77.5191 118.532 75.0284 119.114 74.1198 119.266C73.9031 119.304 73.7453 119.495 73.7466 119.717H80.3018V113.112Z" fill="#FFD567"/>
<path d="M80.3018 119.718V126.323C80.5207 126.322 80.7075 126.163 80.745 125.946C80.8995 125.049 81.4851 122.537 82.3147 121.701C83.1443 120.865 85.6004 120.308 86.4747 120.164C86.6937 120.13 86.8556 119.941 86.857 119.718L80.3018 119.718Z" fill="#FFD567"/>
<path d="M73.7466 119.718C73.7459 119.94 73.9067 120.13 74.125 120.164C75.0161 120.308 77.5064 120.865 78.3365 121.701C79.1666 122.537 79.7159 125.04 79.8583 125.938C79.8938 126.157 80.0808 126.32 80.3018 126.323V119.718L73.7466 119.718Z" fill="#FFA266"/>
<defs>
<filter id="filter0_d_823_5279" x="74.7603" y="62.0508" width="67.6226" height="106.75" filterUnits="userSpaceOnUse" color-interpolation-filters="sRGB">
<feFlood flood-opacity="0" result="BackgroundImageFix"/>
<feColorMatrix in="SourceAlpha" type="matrix" values="0 0 0 0 0 0 0 0 0 0 0 0 0 0 0 0 0 0 127 0" result="hardAlpha"/>
<feOffset dy="4"/>
<feGaussianBlur stdDeviation="4"/>
<feComposite in2="hardAlpha" operator="out"/>
<feColorMatrix type="matrix" values="0 0 0 0 0 0 0 0 0 0 0 0 0 0 0 0 0 0 0.1 0"/>
<feBlend mode="normal" in2="BackgroundImageFix" result="effect1_dropShadow_823_5279"/>
<feBlend mode="normal" in="SourceGraphic" in2="effect1_dropShadow_823_5279" result="shape"/>
</filter>
</defs>
</svg>
